<svg version="1.2" xmlns="http://www.w3.org/2000/svg" viewBox="0 0 1200 600" width="1200" height="600">
	<title>Republik of Svito-svg</title>
	<style>
		.s0 { fill: #00009e } 
		.s1 { fill: #dfffff } 
		.s2 { fill: #e9fff4 } 
	</style>
	<path id="Layer" class="s0" d="m0 0h1200v600h-1200z"/>
	<g id="1234">
		<g id="Icon">
			<path id="83837" fill-rule="evenodd" class="s1" d="m176.1 58.1l-24.2 18.5 8.6 28.7-24.2-18.1-25 18.1 9.5-28.7-25-18.5h31.1l9.4-29.1 8.7 29.1zm-66.1 4.5l15.6 11.9-5.7 18.5 16.4-11.9 15.6 11.9-5.8-18.5 15.6-11.9h-19.7l-5.7-19.2-6.6 19.2zm34.9 174.7q-10.3 10.2-18.1 18-7.3 7.8-13.5 14.4-5.7 6.1-10.7 11.9-4.5 5.3-9 11-5.7 6.6-10.2 11.9-4.1 4.9-6.2 8.6-1.6 2.1-2 2.5 0 0.4-0.8 0.4h-2.1q-2.9-1.6-7-5.7-3.7-4.1-4.5-7v-0.8l0.8-1.3q2.1-3.6 5-7.3 3.2-3.7 6.5-8.2 2.5-2.9 4.9-5.4 2.5-2.8 6.2-6.5 4.1-4.1 10.2-10.3 6.6-6.1 16.9-16.4 12.7-12.7 20.9-21.3l7.9-8.6-33.8-35.3-19.2 19.7-21.4-21.3 42.7-41.8 37.7 4.9-27.1 27.1 34.4 32.4q1-1.4 2.1-2.5 3.7-4.5 7.8-9.5 5.4-5.7 8.6-10.6 3.7-4.9 8.2-13.9 5-8.7 7.4-12.3 2.9-3.7 4.9-5.8l2.1-2q-0.4-0.4-1.2-0.9-0.5-0.4-0.9-0.4-0.4-0.4-0.8-0.8-1.6-0.8-3.7-2.4-1.6-1.7-3.3-3.3-0.8-0.8-1.2-0.8-0.4-0.5-1.2-1.3l-1.2-0.8q6.9-7.8 12.3-14.3 4.5-5.4 8.2-9.5 4.1-4.5 4.5-4.5 1.6 1.2 3.2 2.9 1.7 1.2 3.3 2.9l4.1 4.1q7 6.9 16.4 14.3 9.5 7.4 16.8 12.7 0.9 0.8 2.5 2.1 1.6 1.2 2.5 2 2 1.2 3.6 2.5 1.7 1.2 2.9 1.2 0 1.2 4.1 2.9 0.4 0.4 1.2 0.8 0.5 0.4 0.9 0.4 0.4 0.4 1.2 0.8 1.6 1.3 2.5 2.1 0.4 0.4 0.8 0.4 0.4 0 0.8 0.4h1.2q0 0.8-0.8 2.9-0.8 2-2.5 5.3-1.2 3.3-5.7 10.7-4.5 6.9-23 18.8-7.7-7.8-10.6-13.5l-11.1-13.1-7.4-7.4q-0.4 0.4-0.4 0.8-0.8 0.8-1.6 1.2-3.3 4.1-9 11.1-5.4 6.6-12.3 13.9-6.6 7.4-13.6 15.2-4.8 5.3-9.3 9.8l49.9 47.2q3.3 3.3 3.3 8.2 0 4.9-3.3 8.2-3.3 3.7-8.6 3.7-4.9 0-8.6-3.7l-47-49.1q-5.5 5.4-7.5 7.3z"/>
		</g>
		<g id="Text">
			<path id="Р Е С П У Б Л И К А" fill-rule="evenodd" class="s2" d="m150.4 407h-14.5v-65.8h26.9q11.6 0 18.4 6.3 6.8 6.2 6.8 16.4v0.2q0 11.1-7.6 17.1-7.5 6.1-19.1 6.1h-10.9zm0-52.8v20.1h11.4q5.3 0 8.4-2.8 3.1-2.8 3.1-7.1v-0.2q0-4.8-3.1-7.3-3.1-2.7-8.7-2.7zm90.9 39.9h35.8v12.9h-50.1v-65.8h49.6v12.8h-35.3v13.4h31.1v12.9h-31.1zm107.7 14q-14.5 0-24.2-9.8-9.6-9.8-9.6-24.1v-0.2q0-14.2 9.7-24.1 9.7-9.9 24.6-9.9 15.8 0 26 10.2l-9.2 10.6q-7.5-7.4-15.9-7.4-9.1 0-14.6 6-5.4 5.9-5.4 14.5v0.1q0 8.7 5.3 14.7 5.5 6 14.7 6 9 0 16.3-7.7l9.2 9.3q-10.9 11.8-26.9 11.8zm81.2-1.2h-14.5v-65.8h55.2v65.8h-14.5v-52.6h-26.2zm143.8-65.8l-36.6 65.8h-16l12.8-22.6-25.2-43.2h16.3l17 30.1 15.6-30.1zm67.2 65.8h-30v-65.8h48.6v12.8h-34.5v12.8h16.5q11.4 0 17.6 5 6.2 5 6.2 14.5v0.1q0 9.7-6.4 15.1-6.3 5.5-18 5.5zm-15.9-27.7v14.9h16.2q4.3 0 7-2 2.6-1.9 2.6-5.5v-0.1q0-3.5-2.5-5.4-2.5-1.9-7-1.9zm102.4-38.6h13.1l27.4 66.3h-16l-17.9-48.9-18 48.9h-16zm137.4 0.5v65.8h-14.5v-43l-31.2 43h-12.8v-65.8h14.5v41.6l30.1-41.6zm58.5 65.8h-14.5v-65.8h14.5v26.9l26.5-26.9h17.8l-26.9 26 28 39.8h-17.4l-20.4-29.9-7.6 7.9zm130.5 0l-5.7-14.8h-26.5l-5.6 14.8h-16l28.2-66.3h13.4l28.2 66.3zm-27.2-27.6h16.5l-8.2-21.3z"/>
			<path id="С В И Т О Ш И Н" fill-rule="evenodd" class="s2" d="m107.1 536.5q-19.7 0-32.9-13.3-13.1-13.3-13.1-32.7v-0.3q0-19.5 13.2-32.9 13.2-13.4 33.5-13.4 21.5 0 35.4 13.8l-12.6 14.5q-10.1-10.2-21.6-10.2-12.4 0-19.8 8.2-7.5 8.1-7.5 19.7v0.3q0 11.8 7.3 20 7.4 8.2 20 8.2 12.3 0 22.3-10.5l12.5 12.6q-14.8 16-36.7 16zm90.9-1.5v-89.6h41.6q15.4 0 23.4 7.9 6.1 6.2 6.1 15.3v0.2q0 13.2-11.8 19.4 16.8 6.4 16.8 22v0.2q0 12.1-8.9 18.3-9 6.3-24.6 6.3zm51.6-62.8v-0.3q0-9.2-13-9.2h-19.4v18.9h18.2q14.2 0 14.2-9.4zm5 35.8v-0.3q0-9.7-14.6-9.7h-22.8v19.7h23.4q14 0 14-9.7zm153.8-62.6v89.6h-19.7v-58.5l-42.5 58.5h-17.4v-89.6h19.7v56.7l41.1-56.7zm100.5 89.6h-19.7v-71.4h-27.3v-18.2h74.2v18.2h-27.2zm76.8-44.6v-0.2q0-19.4 13.5-32.8 13.7-13.6 34.2-13.6 20.5 0 33.9 13.5 13.6 13.3 13.6 32.6v0.3q0 19.3-13.7 32.9-13.6 13.4-34 13.4-20.5 0-34.1-13.3-13.4-13.4-13.4-32.8zm74.6 0v-0.2q0-11.8-7.7-20-7.7-8.2-19.4-8.2-11.8 0-19.4 8.1-7.5 8-7.5 19.8v0.3q0 11.8 7.7 19.9 7.6 8.2 19.4 8.2 11.8 0 19.3-8 7.6-8.1 7.6-19.9zm199.4 44.6h-122.9v-89.6h19.8v71.7h31.8v-71.7h19.7v71.7h31.9v-71.7h19.7zm139.5-89.6v89.6h-19.7v-58.5l-42.5 58.5h-17.4v-89.6h19.7v56.7l41.1-56.7zm79.6 89.6h-19.7v-89.6h19.7v35.4h36.4v-35.4h19.7v89.6h-19.7v-36h-36.4z"/>
		</g>
	</g>
</svg>
