<svg version="1.2" xmlns="http://www.w3.org/2000/svg" viewBox="0 0 600 1200" width="600" height="1200">
	<title>SvitoVertical</title>
	<style>
		.s0 { fill: #0000b1 } 
		.s1 { fill: rgb(223,255,255) } 
	</style>
	<path id="Фон" class="s0" d="m0 0h600v1200h-600z"/>
	<path id="Совет" fill-rule="evenodd" class="s1" d="m164.1 74.4l-23.6 18 8.4 28-23.6-17.6-24.4 17.6 9.2-28-24.4-18h30.4l9.2-28.4 8.4 28.4zm-64.4 4.4l15.2 11.6-5.6 18 16-11.6 15.2 11.6-5.6-18 15.2-11.6h-19.2l-5.6-18.8-6.4 18.8zm34 170.4q-10 10-17.6 17.6-7.2 7.6-13.2 14-5.6 6-10.4 11.6-4.4 5.2-8.8 10.8-5.6 6.4-10 11.6-4 4.8-6 8.4-1.6 2-2 2.4 0 0.4-0.8 0.4h-2q-2.8-1.6-6.8-5.6-3.6-4-4.4-6.8v-0.8l0.8-1.2q2-3.6 4.8-7.2 3.2-3.6 6.4-8 2.4-2.8 4.8-5.2 2.4-2.8 6-6.4 4-4 10-10 6.4-6 16.4-16 12.4-12.4 20.4-20.8l7.7-8.4-32.9-34.4-18.8 19.2-20.8-20.8 41.6-40.8 36.8 4.8-26.4 26.4 33.4 31.6q1.1-1.3 2.2-2.4 3.6-4.4 7.6-9.2 5.2-5.6 8.4-10.4 3.6-4.8 8-13.6 4.8-8.4 7.2-12 2.8-3.6 4.8-5.6l2-2q-0.4-0.4-1.2-0.8-0.4-0.4-0.8-0.4-0.4-0.4-0.8-0.8-1.6-0.8-3.6-2.4-1.6-1.6-3.2-3.2-0.8-0.8-1.2-0.8-0.4-0.4-1.2-1.2l-1.2-0.8q6.8-7.6 12-14 4.4-5.2 8-9.2 4-4.4 4.4-4.4 1.6 1.2 3.2 2.8 1.6 1.2 3.2 2.8l4 4q6.8 6.8 16 14 9.2 7.2 16.4 12.4 0.8 0.8 2.4 2 1.6 1.2 2.4 2 2 1.2 3.6 2.4 1.6 1.2 2.8 1.2 0 1.2 4 2.8 0.4 0.4 1.2 0.8 0.4 0.4 0.8 0.4 0.4 0.4 1.2 0.8 1.6 1.2 2.4 2 0.4 0.4 0.8 0.4 0.4 0 0.8 0.4h1.2q0 0.8-0.8 2.8-0.8 2-2.4 5.2-1.2 3.2-5.6 10.4-4.4 6.8-22.4 18.4-7.6-7.6-10.4-13.2l-10.8-12.8-7.2-7.2q-0.4 0.4-0.4 0.8-0.8 0.8-1.6 1.2-3.2 4-8.8 10.8-5.2 6.4-12 13.6-6.4 7.2-13.2 14.8-4.8 5.2-9.2 9.5l48.8 46.1q3.2 3.2 3.2 8 0 4.8-3.2 8-3.2 3.6-8.4 3.6-4.8 0-8.4-3.6l-45.9-47.9q-5.3 5.3-7.3 7.1z"/>
	<path id="С В И Т О Ш И Н" fill-rule="evenodd" class="s1" d="m61.5 984.9q-10.8 0-17.4-8.1-6.7-8.2-6.7-23.1v-2.2q0-14.8 7-23.1 7.1-8.3 17.8-8.3 9.5 0 16.2 6.4l-7.7 11.9q-3.8-4.2-8-4.2-4.4 0-7.3 4.6-2.9 4.6-2.9 13.3v0.6q0 9.3 2.9 13.7 3 4.3 7.3 4.3 4.1 0 8.5-4.4l7.4 11.5q-7.3 7.1-17.1 7.1zm57.6-0.9h-19.3v-63h19.3q11.6 0 17 5.4 4 4.1 4 10.8v0.5q0 9.3-8.7 13.8 10.3 4.2 10.3 14.3v0.7q0 8.1-5.9 12.8-5.9 4.7-16.7 4.7zm6.5-43.7v-0.1q0-6.2-7.1-6.2h-4.2v12.6h4q3.5 0 5.3-1.7 2-1.7 2-4.6zm1.4 24.3v-0.1q0-3-2.1-4.7-2-1.8-5.7-1.8h-4.9v13h5q3.5 0 5.6-1.7 2.1-1.8 2.1-4.7zm80.6-43.6v63h-14.5v-33.7l-15.5 33.7h-13.8v-63h14.5v32.2l14.8-32.2zm48.8 63h-14.8v-49.3h-11.9v-13.7h38.6v13.7h-11.9zm73.8-7.2q-6.5 8.3-17.3 8.3-10.8 0-17.3-8.3-6.4-8.4-6.4-23v-2.7q0-14.6 6.4-22.9 6.6-8.4 17.4-8.4 10.8 0 17.3 8.4 6.5 8.3 6.5 22.8v2.7q0 14.7-6.6 23.1zm-23.7-9.7q2.5 4.5 6.5 4.5 4.1 0 6.4-4.4 2.3-4.5 2.3-13.7v-1.9q0-9.3-2.4-13.8-2.3-4.5-6.4-4.5-4 0-6.4 4.5-2.3 4.4-2.3 13.7v1.9q0 9.2 2.3 13.7zm120 16.9h-66.7v-63h14.8v49.2h11.1v-49.2h14.8v49.2h11.2v-49.2h14.8zm68-63v63h-14.4v-33.8l-15.6 33.8h-13.8v-63h14.5v32.2l14.9-32.2zm39 63h-14.8v-63h14.8v24.4h13v-24.4h14.8v63h-14.8v-24.9h-13z"/>
	<path id="Р Е С П У Б Л И К А" fill-rule="evenodd" class="s1" d="m71.3 896h-11.5v-49h13.5q8.3 0 13 4.3 4.8 4.3 4.8 12.6v0.4q0 8.3-4.9 12.7-4.9 4.4-12.4 4.5h-2.5zm0-39v14.7h1.9q3 0 4.7-1.9 1.7-1.9 1.7-5.3v-0.2q0-7.3-6.4-7.3zm64.4 39h-27.6v-49h27.4v10.5h-15.9v8.8h14.2v10.1h-14.2v9.1h16.1zm35.7 0.7q-8.4 0-13.6-6.3-5.2-6.4-5.2-18v-1.7q0-11.5 5.5-17.9 5.4-6.5 13.8-6.5 7.4 0 12.6 5l-6 9.2q-2.9-3.2-6.2-3.2-3.5 0-5.7 3.6-2.2 3.5-2.2 10.3v0.4q0 7.3 2.2 10.7 2.3 3.4 5.7 3.3 3.1 0 6.6-3.4l5.7 9q-5.7 5.5-13.2 5.5zm41.3-0.7h-11.6v-49h33.1v49h-11.5v-38.3h-10zm74.7-49l-17.8 49h-12.1l5.6-15.1-12.8-33.9h12.3l6.6 19.2 6.2-19.2zm29.5 49h-13.6v-49h28.3v10.4h-17v7.8h3.3q8.1 0 12.5 3.8 4.6 3.7 4.6 11.1v0.2q0 7.6-4.9 11.7-4.8 4-13.2 4zm-2.3-21.2v11.4h2.8q3 0 4.6-1.5 1.6-1.6 1.6-4.2 0-5.7-6.1-5.7zm47.9-28h11.8l13 49.2h-12.1l-6.9-29.9-7 29.9h-11.9zm75.2 0.2v49h-11.3v-26.2l-12.1 26.2h-10.7v-49h11.2v25.1l11.6-25.1zm30.4 49h-11.6v-49h11.6l-0.1 19.1h1.5l8.5-19.1h12.5l-11.5 24 12.1 25h-12.8l-9-19.4h-1.3zm47.7 0h-11.5l13.1-49.2h12.5l13.2 49.2h-11.8l-2.1-8.9h-11.3zm7.7-33.3l-3.4 14.9h6.9z"/>
</svg>