<svg xmlns="http://www.w3.org/2000/svg" width="1200" height="600">
	<title>Svito SouthAmerica</title>
<rect width="1200" height="600" style="fill:rgb(0,0,158)"/>
<g id="Icon" style="fill:rgb(223,255,255)">
	<g>
		<path id="83837" d="m176.1 58.1l-24.2 18.5 8.6 28.7-24.2-18.1-25 18.1 9.5-28.7-25-18.5h31.1l9.4-29.1 8.7 29.1zm-66.1 4.5l15.6 11.9-5.7 18.5 16.4-11.9 15.6 11.9-5.8-18.5 15.6-11.9h-19.7l-5.7-19.2-6.6 19.2zm34.9 174.7q-10.3 10.2-18.1 18-7.3 7.8-13.5 14.4-5.7 6.1-10.7 11.9-4.5 5.3-9 11-5.7 6.6-10.2 11.9-4.1 4.9-6.2 8.6-1.6 2.1-2 2.5 0 0.4-0.8 0.4h-2.1q-2.9-1.6-7-5.7-3.7-4.1-4.5-7v-0.8l0.8-1.3q2.1-3.6 5-7.3 3.2-3.7 6.5-8.2 2.5-2.9 4.9-5.4 2.5-2.8 6.2-6.5 4.1-4.1 10.2-10.3 6.6-6.1 16.9-16.4 12.7-12.7 20.9-21.3l7.9-8.6-33.8-35.3-19.2 19.7-21.4-21.3 42.7-41.8 37.7 4.9-27.1 27.1 34.4 32.4q1-1.4 2.1-2.5 3.7-4.5 7.8-9.5 5.4-5.7 8.6-10.6 3.7-4.9 8.2-13.9 5-8.7 7.4-12.3 2.9-3.7 4.9-5.8l2.1-2q-0.4-0.4-1.2-0.9-0.5-0.4-0.9-0.4-0.4-0.4-0.8-0.8-1.6-0.8-3.7-2.4-1.6-1.7-3.3-3.3-0.8-0.8-1.2-0.8-0.4-0.5-1.2-1.3l-1.2-0.8q6.9-7.8 12.3-14.3 4.5-5.4 8.2-9.5 4.1-4.5 4.5-4.5 1.6 1.2 3.2 2.9 1.7 1.2 3.3 2.9l4.1 4.1q7 6.9 16.4 14.3 9.5 7.4 16.8 12.7 0.9 0.8 2.5 2.1 1.6 1.2 2.5 2 2 1.2 3.6 2.5 1.7 1.2 2.9 1.2 0 1.2 4.1 2.9 0.4 0.4 1.2 0.8 0.5 0.4 0.9 0.4 0.4 0.4 1.2 0.8 1.6 1.3 2.5 2.1 0.4 0.4 0.8 0.4 0.4 0 0.8 0.4h1.2q0 0.8-0.8 2.9-0.8 2-2.5 5.3-1.2 3.3-5.7 10.7-4.5 6.9-23 18.8-7.7-7.8-10.6-13.5l-11.1-13.1-7.4-7.4q-0.4 0.4-0.4 0.8-0.8 0.8-1.6 1.2-3.3 4.1-9 11.1-5.4 6.6-12.3 13.9-6.6 7.4-13.6 15.2-4.8 5.3-9.3 9.8l49.9 47.2q3.3 3.3 3.3 8.2 0 4.9-3.3 8.2-3.3 3.7-8.6 3.7-4.9 0-8.6-3.7l-47-49.1q-5.5 5.4-7.5 7.3z"/>
	</g>
	<path id="Р Е С П У Б Л И К А" d="m264.8 562h-10.8v-49h20q8.7 0 13.8 4.7 5 4.6 5 12.2v0.2q0 8.2-5.6 12.7-5.6 4.5-14.2 4.5h-8.2zm0-39.3v15h8.5q4 0 6.3-2.1 2.3-2.1 2.3-5.3v-0.2q0-3.5-2.3-5.4-2.3-2-6.5-2zm94.3 39.3h-37.3v-49h37v9.6h-26.3v9.9h23.1v9.6h-23.1v10.3h26.6zm53.6 0.8q-10.8 0-18-7.2-7.2-7.3-7.2-18v-0.1q0-10.6 7.3-18 7.2-7.3 18.3-7.3 11.8 0 19.3 7.5l-6.8 7.9q-6.3-5.5-12.6-5.5-6.1 0-10.1 4.5-4.1 4.4-4.1 10.8v0.1q0 6.4 4 10.9 4.1 4.5 10.2 4.5 3.9 0 6.8-1.4 3-1.4 6.1-4.3l6.9 6.9q-4.1 4.4-8.8 6.6-4.6 2.1-11.3 2.1zm60.5-0.8h-10.8v-49h41.1v49h-10.8v-39.2h-19.5zm107.1-49l-27.3 49h-11.9l9.5-16.8-18.8-32.2h12.2l12.7 22.4 11.6-22.4zm50 49h-22.4v-49h36.3v9.5h-25.8v9.5h12.4q8.4 0 13 3.8 4.7 3.7 4.7 10.8v0.1q0 7.2-4.8 11.2-4.7 4.1-13.4 4.1zm-11.9-20.6v11.1h12.1q3.3 0 5.2-1.5 2-1.5 2-4.1v-0.1q0-2.6-1.9-4-1.8-1.4-5.2-1.4zm76.4-28.7h9.5l20.5 49.3h-11.9l-13.6-34.2-13.4 34.2h-11.6zm102.1 0.4v49h-10.8v-32l-23.2 32h-9.5v-49h10.7v31l22.5-31zm43.6 49h-10.8v-49h10.8l-0.2 19.6h3.4l17.2-19.6h13.4l-21.9 23.7 23.2 25.3h-13.7l-17.9-20h-3.7zm68.8 0h-11l21-49.3h10l21 49.3h-11.3l-4.5-11h-20.7zm14.8-36.4l-6.5 15.9h13.1z"/>
	<path id="Южная Америка" d="m522.4 102l-5.6 2.8 2.4 4.7-2.8 4-0.8 0.8 2.4 4 4-1.6 0.4-2.4-1.2-1.2-2-4.4 8.8-4.3 2 0.4v-1.2l-2.4 0.4 1.2-3.2 2.4 4 7.2 0.8 1.5 3.9 11.6-1.5 7.2 3.1 8.7-2.4-3.6-1.1 14.8-0.4-6.4 2 2.4 1.9 0.8 1.2 4.4-0.7 4.8 2.7v4.4h3.9l1.6 0.4 5.6 3.2 3.6 3.6-1.2 5.2 2-2.8 7.6 5.9 18.3 0.5 1.7 0.8 10.2 5.1 4 5.1v0.1l0.4-2 1.6 1.2 3.6 12.4 5.2 2.7-1.2 2.8h1.2l-8.8 7.2-2.4 5.2 2.8-2.8v2.8l2.8-2.4v2.8l2.8-5.2 12.3 2-3.1 6.8-9.6 2 7.2-0.8-1.6 4 5.1-5.6 1.7 2 1.9-0.8-2.4-0.8 2.8-4.4 4 1.2 0.4-1.2 6 3.6 0.8-1.2 0.4 2.4 0.8-1.6 1.6 2.4 1.9-0.4-0.8 1.2 1.3-1.2 0.4 3.1 2.7-2.3 2.1 3.9-3.2 2.5 3.9-0.5-2.3 1.6-0.8 4 8.7-5.1 6.8 3.9 13.1 1.6 8.8 6.4 7.6 8.8 8.3 1.9 2 2.8 2 10.4-1.2 7.2-7.1 9.1-12.4 14.8-2.4 1.6-1.2-2.8-0.8 1.6-4.8 29.8-3.5 3.6-1.6 7.6-1.2 2-7.2 9.1 0.4 3.3-6 2.3-0.4 2.8-6-0.4v-2l-2.7 2-4.4-1.2-6.4 4.8h-5.2l-7.2 4.4-3.9 4.8-2.8-0.8 2 1.2-3.2 4.4 1.6 5.1-2.4 8.8-5.6 4.4-2.8 4-4.4 6.8-7.1 5.9 8.7-10-3.5-3.1 1.1 2.3-7.1 8.4-2.4 7.6-8.8 9.6-10.3 1.1-8.4-3.1-3.2-3.2 0.4-5.2-1.2 7.9 7.2 5.6-1.2 4 3.2 2.4v3.2l-4.4 7.2-4.8 2.4-7.6 1.6-5.2 1.1-5.9-1.1 1.6 3.5-1.6-0.8v9.6l-6.8 1.6-6-2.4 0.4 8 2.8 2 3.2-2 0.8 2.8-2.4 1.6-1.2-2-2.8 0.7 3.2 2.1-4.4 3.9-0.4 7.2-6.4 2-2.3 4.8 4 5.2 4.3 0.8 0.4 3.9-7.2 6.4-0.7 5.2v0.4l-1.6 0.4-0.4-0.4-1.2-1.6 0.8 1.6 0.8 0.8-3.6 5.2 2.4 2.4-2.4 0.3h2.4l2.8 3.6-3.6-0.3-6 2.7-0.4 6.4-4.8-2.4 2.4-0.8-0.4 1.6 2-2.4-1.2-2.7h-5.2l-2.8 1.5-0.8-3.9h2.8l0.5 1.6 0.3-2.1v2.4l0.8-3.6-2.8-1.1 0.4-2-1.5 1.5 3.6 1.6-3.3-1.1 1.2 2.8-1.2-2 0.4 2-2.3-2 0.3-2.8-2.3-0.8 0.7-0.4 2.4-1.2-1.1-1.6-1.3 2.8-0.3-2.8-2.8-0.8 3.1 0.4-1.1-1.6-1.2-2 2.8 0.4-2.4-2.8-1.2 1.2 0.8-3.6-1.6-0.8 2-1.2-3.6-2 5.5 1.2-1.5-2 2 0.4-2.8-2-4 0.8 3.2-1.1h-2.4l2-1.6-1.6-2.4-2.4 0.4-0.8-2-2.1 1.4 2.1-1.8 1.2-2-2.8-0.8 1.6-0.4 1.6 1.2 1.2-1.6-0.8 2h1.6l-2 0.4 2.4-0.4 1.6 2 1.2-5.2-2 1.2v-2l3.2-0.4-3.2-1.2 3.5-4-3.5-2 2-2-2-2 0.4-5.6 1.6 0.8-2-1.9 2 1.1 0.4-1.9-2.8-1.2 2.4-3.2-1.2 1.2-2-0.8-3.2 2 0.8-1.2-2.4-2.8 2-9.6-4-12.3 2.4-1.6 5.2-21.5-2.4-18.4 1.6-3.5 0.4-0.8-2-6 4-22.3-1.6-11.6 2.4-13.1-0.8-8.8-1.6-10-7.2-6.7-22.3-10-4.8-4.3-3.2-4.4 0.8-3.2-9.2-12.4-3.5-7.5-5.2-10.4-6.4-8.4-6.7-3.5 1.6-2.4-2.9-8 7.2-6.4 2-4.8-1.2-2-0.8 0.8-1.2 2.4-3.9-2v-7.5l3.5-2.8-1.2-1.2 2.8-3.6 0.4-0.4-0.4-1.2-0.4-2 0.4-0.4 6.4-2.4-0.8-3.2 3.2-0.8v-4l4.8-1.9 3.6-6 0.8-1.6-2.8-1.2 1.5-13.6-3-3.4 0.9-2.9 0.8 1.1 2.8-2.7-0.8-2.8 2.9 2.8-0.8-3.6 8-5.6-0.4-2.8v-0.8l2.8-4 2.8-1.6 3.2 0.5 0.8-2 5.2-0.4 9.9-6.8zm16.8 385.7l-1.6-0.4 1.1-2.4zm-17.1-33.5l0.3-0.2zm1.1 1.2l-1.5-0.9 0.4-0.3zm129-284.9l-2.4-2 4.4-0.4zm-185.2 20.8l-0.4 1.2-0.8-1.6h1.2l0.8-0.4zm60.9 231.4l1.6-0.8-1.6-1.2zm-2.3 3.2l1.5 7.6-2 1.6-1.9-0.4v-8.8zm5.2 17.1l-2-1.2 1.5-1.5zm-4.4 10.3l0.8-1.6-1.5-0.4zm2.3 11.2h-2.3l0.7-2.8zm1.6 6.4l-1.9 1.2 0.3-4-1.1 3.6-2.4-3.2h2.8l-0.4-3.6zm-2.4 1.6l-0.8 2-0.8-2zm30.7 17.9l10.4 4-5.7 2-19.1-0.8 4-2 0.4 1.6 2-0.4-3.2-2 4.8 2 0.8-1.2 0.8 1.6 1.2-1.2-4.4-2 2-3.2h-4l-0.4-3.2 6-1.5zm-14.7-4.8l-3.6 2.8 0.7 1.2-1.9-1.2 0.8-2.8zm-4.8 3.6l-4-0.8-2.8-2zm3.6 1.9l-2.8 1.6 1.2-1.1-1.6 1.1-2.4-1.6 2-1.9zm7.6 2l-2.8-1.2 1.2-2.4zm-2.8 0.4l-2.4-0.4-0.4-1.2zm7.6 3.6l4 2.8-3.2-0.8v-1.2h-2.4l0.8 1.6-2.8-2 5.6-1.2z"/>
	<path id="ЮЖНОАМЕРИКАНСКАЯ СВИТОШИНСКАЯ" d="m198.5 82h-8.5v-49h8.5v20.3h3.5q0.5-10.4 3.8-15.7 3.3-5.3 8.7-5.3 5.9 0 9.2 6.1 3.4 6 3.4 17.8v2.6q0 11.8-3.4 17.9-3.3 6-9.2 6-5.4 0-8.8-5.3-3.3-5.4-3.7-16h-3.5zm12.2-23.2q0 16.1 3.8 16.1 3.9 0 3.9-16.1v-2.5q0-16.1-3.9-16.1-3.8 0-3.8 16.1zm25-2l-8-23.8h9.5l6.2 20.5h1.1l-0.2-20.5h8.5l-0.2 20.5h1.1l6.3-20.5h9.4l-8 23.6 8.1 25.4h-9.2l-6.6-20.8h-1.1l0.2 20.8h-8.5l0.2-20.8h-1.1l-6.7 20.8h-9.1zm45.4 25.2h-8.5v-49h8.5v20.3h7.4v-20.3h8.6v49h-8.6v-20.6h-7.4zm42.7-5.4q-3.5 6.1-9.5 6.1-6 0-9.5-6.1-3.5-6.1-3.5-17.8v-2.5q0-11.8 3.5-17.9 3.5-6.1 9.5-6.1 6 0 9.5 6.1 3.5 6.1 3.5 17.9v2.5q0 11.7-3.5 17.8zm-11.8-3q0.9 1.3 2.3 1.3 1.4 0 2.3-1.3 0.9-1.4 1.5-5 0.5-3.7 0.5-9.8v-2.5q0-6.1-0.5-9.8-0.6-3.7-1.5-5-0.9-1.3-2.3-1.3-1.4 0-2.3 1.3-0.9 1.3-1.5 5-0.6 3.7-0.6 9.8v2.5q0 6.1 0.6 9.8 0.6 3.6 1.5 5zm24.6 8.4h-8.3l9.4-49.1h9.1l9.3 49.1h-8.6l-1.6-9.7h-7.8zm5.5-33.6l-2.7 16.2h5.3zm24.8 33.6h-8.2v-49h8.6l5.9 18.6 5.9-18.6h8.6v49h-8.2v-29.8l-6.3 18.7h-0.1l-6.2-18.7zm44.8 0h-19v-49h18.8v8.1h-10.3v12.2h9.1v8.1h-9.1v12.5h10.5zm12.6 0h-8.5v-49h7.6q7.3 0 11.6 4.1 4.3 4.1 4.3 12.4v0.1q0 8-4.1 12.3-4 4.3-10.8 4.7h-0.1zm0-41.1v17.8h0.1q2.9-0.2 4.6-2.3 1.7-2.2 1.7-6.5v-0.1q0-8.9-6.1-8.9zm43.4-7.9v49h-8.3v-27.6l-8.6 27.6h-8.1v-49h8.3v26.4l8.2-26.4zm13.6 49h-8.6v-49h8.6v20.4h1.2l5.8-20.4h9.3l-7.5 23.4 7.6 24.7 9.1-48.3h9.1l9.3 49.2h-8.5l-1.6-9.7h-7.8l-1.5 9.7h-17.1l-6.2-20.7h-1.2zm29.9-33.6l-2.6 16.1h5.2zm25.1 33.6h-8.5v-49h8.5v20.3h7.5v-20.3h8.5v49h-8.5v-20.5h-7.5zm34 0.3q-6.2 0-10-5.9-3.8-5.9-3.8-18.1v-1.7q0-12.2 3.9-18.1 4-5.9 10.5-5.9 3 0 5.6 1.1v8.8q-2.7-1.6-4.8-1.6-3.1 0-4.8 3.5-1.7 3.5-1.7 12.1v1.9q0 9 1.7 12.3 1.6 3.3 4.9 3.3 2.2 0 4.8-1.6v8.4q-2.6 1.5-6.3 1.5zm19.1-0.3h-8.5v-49h8.5v20.4h1.2l5.8-20.4h9.4l-7.6 23.4 7.6 24.7 9.2-48.3h9.1l9.1 48.4 6.8-18.8q-5.9-4.4-5.9-13.1v-0.6q0-7.2 4-11.5 3.9-4.2 11.9-4.2h8.1v49h-8.6v-17.1h-1.4l-6 17.1h-17.3l-1.6-9.8h-7.8l-1.5 9.8h-17.1l-6.2-20.8h-1.2zm30-33.6l-2.7 16.2h5.3zm30.1 8.8v-16.2h-0.2q-6.6 0-6.6 7.8v0.5q0 7.9 6.4 7.9zm37.6 25.2q-6.2 0-10-5.9-3.8-6-3.8-18.2v-1.6q0-12.3 3.9-18.2 4-5.8 10.5-5.8 3 0 5.6 1.1v8.8q-2.7-1.6-4.8-1.6-3.1 0-4.8 3.5-1.7 3.5-1.7 12.1v1.8q0 9 1.7 12.3 1.6 3.3 4.9 3.3 2.2 0 4.8-1.5v8.4q-2.6 1.5-6.3 1.5zm18.2-0.4h-7.6v-49h7.2q8.7 0 12.8 4.1 3.2 3.3 3.2 8.4v0.3q0 7.7-7.1 11.1 3.7 1.7 5.7 4.2 2 2.4 2 6.7v0.6q0 6.4-4.4 10-4.5 3.6-11.8 3.6zm7.2-34.9v-0.1q0-6.1-6.3-6.1h-0.1v12.7h0.1q2.9 0 4.6-1.6 1.7-1.7 1.7-4.9zm0.5 20.6v-0.3q0-3-1.9-4.7-1.8-1.7-4.8-1.7h-0.2v13.1h0.2q3 0 4.8-1.7 1.9-1.7 1.9-4.7zm37-34.7v49h-8.2v-27.6l-8.6 27.6h-8.1v-49h8.3v26.4l8.2-26.4zm18.1 49h-8.6v-40.9h-6v-8.1h20.6v8.1h-6zm29.9-5.4q-3.5 6.1-9.5 6.1-6.1 0-9.6-6.1-3.5-6.1-3.5-17.8v-2.5q0-11.8 3.5-17.9 3.5-6.1 9.6-6.1 6 0 9.5 6.1 3.5 6.1 3.5 17.9v2.5q0 11.7-3.5 17.8zm-11.9-3q1 1.3 2.4 1.3 1.4 0 2.3-1.3 0.9-1.4 1.4-5 0.6-3.7 0.6-9.8v-2.5q0-6.1-0.6-9.8-0.5-3.7-1.4-5-0.9-1.3-2.3-1.3-1.4 0-2.4 1.3-0.9 1.3-1.4 5-0.6 3.7-0.6 9.8v2.5q0 6.1 0.6 9.8 0.5 3.6 1.4 5zm58.6 8.4h-39v-49h8.5v40.9h6.7v-40.9h8.6v40.9h6.6v-40.9h8.6zm29.9-49v49h-8.2v-27.6l-8.6 27.6h-8.1v-49h8.3v26.4l8.2-26.4zm13.5 49h-8.5v-49h8.5v20.3h7.5v-20.3h8.5v49h-8.5v-20.6h-7.5zm34 0.4q-6.2 0-10-5.9-3.8-5.9-3.8-18.1v-1.7q0-12.2 3.9-18.1 4-5.9 10.4-5.9 3.1 0 5.6 1.1v8.8q-2.6-1.6-4.7-1.6-3.1 0-4.8 3.5-1.7 3.5-1.7 12.1v1.9q0 9 1.7 12.3 1.6 3.3 4.9 3.3 2.2 0 4.8-1.6v8.4q-2.6 1.5-6.3 1.5zm19.1-0.4h-8.5v-49h8.5v20.5h1.2l5.8-20.5h9.4l-7.6 23.5 7.6 24.7 9.1-48.3h9.1l9.2 48.4 6.8-18.9q-5.9-4.3-5.9-13v-0.6q0-7.2 3.9-11.5 4-4.3 11.9-4.3h8.2v49h-8.6v-17h-1.4l-6 17h-17.3l-1.6-9.7h-7.8l-1.5 9.7h-17.1l-6.2-20.7h-1.2zm30-33.6l-2.7 16.2h5.2zm30.2 8.8v-16.2h-0.2q-6.6 0-6.6 7.7v0.6q0 7.9 6.4 7.9z"/>
</g>
</svg>