<svg xmlns="http://www.w3.org/2000/svg" width="1200" height="600">
	<title>Svito Africa</title>
<rect width="1200" height="600" style="fill:rgb(0,0,158)"/>
<g id="Icon" style="fill:rgb(223,255,255)">
	<g>
		<path id="83837" d="m176.1 58.1l-24.2 18.5 8.6 28.7-24.2-18.1-25 18.1 9.5-28.7-25-18.5h31.1l9.4-29.1 8.7 29.1zm-66.1 4.5l15.6 11.9-5.7 18.5 16.4-11.9 15.6 11.9-5.8-18.5 15.6-11.9h-19.7l-5.7-19.2-6.6 19.2zm34.9 174.7q-10.3 10.2-18.1 18-7.3 7.8-13.5 14.4-5.7 6.1-10.7 11.9-4.5 5.3-9 11-5.7 6.6-10.2 11.9-4.1 4.9-6.2 8.6-1.6 2.1-2 2.5 0 0.4-0.8 0.4h-2.1q-2.9-1.6-7-5.7-3.7-4.1-4.5-7v-0.8l0.8-1.3q2.1-3.6 5-7.3 3.2-3.7 6.5-8.2 2.5-2.9 4.9-5.4 2.5-2.8 6.2-6.5 4.1-4.1 10.2-10.3 6.6-6.1 16.9-16.4 12.7-12.7 20.9-21.3l7.9-8.6-33.8-35.3-19.2 19.7-21.4-21.3 42.7-41.8 37.7 4.9-27.1 27.1 34.4 32.4q1-1.4 2.1-2.5 3.7-4.5 7.8-9.5 5.4-5.7 8.6-10.6 3.7-4.9 8.2-13.9 5-8.7 7.4-12.3 2.9-3.7 4.9-5.8l2.1-2q-0.4-0.4-1.2-0.9-0.5-0.4-0.9-0.4-0.4-0.4-0.8-0.8-1.6-0.8-3.7-2.4-1.6-1.7-3.3-3.3-0.8-0.8-1.2-0.8-0.4-0.5-1.2-1.3l-1.2-0.8q6.9-7.8 12.3-14.3 4.5-5.4 8.2-9.5 4.1-4.5 4.5-4.5 1.6 1.2 3.2 2.9 1.7 1.2 3.3 2.9l4.1 4.1q7 6.9 16.4 14.3 9.5 7.4 16.8 12.7 0.9 0.8 2.5 2.1 1.6 1.2 2.5 2 2 1.2 3.6 2.5 1.7 1.2 2.9 1.2 0 1.2 4.1 2.9 0.4 0.4 1.2 0.8 0.5 0.4 0.9 0.4 0.4 0.4 1.2 0.8 1.6 1.3 2.5 2.1 0.4 0.4 0.8 0.4 0.4 0 0.8 0.4h1.2q0 0.8-0.8 2.9-0.8 2-2.5 5.3-1.2 3.3-5.7 10.7-4.5 6.9-23 18.8-7.7-7.8-10.6-13.5l-11.1-13.1-7.4-7.4q-0.4 0.4-0.4 0.8-0.8 0.8-1.6 1.2-3.3 4.1-9 11.1-5.4 6.6-12.3 13.9-6.6 7.4-13.6 15.2-4.8 5.3-9.3 9.8l49.9 47.2q3.3 3.3 3.3 8.2 0 4.9-3.3 8.2-3.3 3.7-8.6 3.7-4.9 0-8.6-3.7l-47-49.1q-5.5 5.4-7.5 7.3z"/>
	</g>
	<path id="path5844" class="s1" d="m612 459.5q-0.3 0-0.5-0.1-0.1-0.1-0.2-0.1h-0.5q-0.2 0-0.4-0.1-0.4-0.5-1.1-0.8 0.2-0.2 0.2-0.4 0-0.2-0.2-0.3l-0.1-0.1q0-0.1-0.1-0.1-0.4-0.2-0.7-0.2-0.4-0.1-0.8-0.1-0.2-0.1-0.5-0.1 0.1-0.3 0.1-0.6c0-0.6-0.4-0.9-0.9-0.9h-0.2q-0.2 0-0.3 0.1l-0.1 0.1q-0.2 0.2-0.2 0.4v0.2q0 0.2 0.1 0.4 0 0.2 0 0.4c-0.3-0.2-0.5-0.5-0.5-0.9 0-0.2 0.2-0.6 0.3-1 0.1-0.3 0.2-0.6 0.2-0.9v-0.2q-0.1-0.9-0.6-1.7-0.6-0.8-1.1-1.6 0 0 0-0.1v-0.1q0-0.2-0.1-0.4c-0.1-0.2-0.4-0.2-0.6-0.2q-0.1 0-0.1-0.1c0 0 0 0 0-0.1q0.1-0.6 0.3-1.2 0.3 0.2 0.8 0.2c0.5 0 0.7-0.3 0.9-0.7q0 0 0.1-0.1 0.1-0.6 0.2-1.4v-0.1c-0.1-1.8-0.6-3.6-1.6-5.1-1.5-2.3-2.7-4.9-3.6-7.6q-0.2-0.6-0.3-1.3c-0.2-0.9-0.5-1.8-0.8-2.6-0.2-0.4-0.4-0.9-0.7-1.3-0.4-0.7-0.9-1.3-1-2.1 0-0.2-0.2-0.3-0.4-0.4q-0.3 0-0.5-0.2c-0.3-0.4-0.7-0.8-1.1-1.2-0.6-0.5-1.1-1.1-1.6-1.7q-0.9-1.5-1.7-3.1-0.3-0.8-0.4-1.6c0-0.4-0.2-0.6-0.3-0.8q-0.2-0.4-0.3-0.8-0.1-0.3-0.1-0.6v-0.5c0-0.5-0.1-1-0.5-1.3q-0.1-0.2-0.1-0.5v-0.6c0-0.4-0.1-0.8-0.2-1.2q-0.1-0.5-0.2-1-0.1-0.4-0.1-0.8 0-0.4-0.1-0.8-0.1-0.2-0.1-0.5 0-0.4 0.1-0.7 0-0.3 0-0.6v-0.3q0 0 0-0.1-0.5-1.9-1.3-3.7-0.2-0.8-0.2-1.7v-2.2q-0.2-1.1-0.2-2.3v-0.4q0-0.2 0.1-0.4c0-0.4 0.2-1 0.2-1.4v-0.6c0-1.3-0.5-2.6-1.3-3.6q-0.2-0.2-0.5-0.6-0.4-0.5-0.7-1-0.2-0.5-0.4-0.9c-0.1-0.3-0.2-0.6-0.4-0.8-1.1-1.5-1.7-3.2-2.3-4.8-0.4-1-0.8-2-1.3-3-0.4-0.8-0.7-1.7-1.1-2.6-0.6-1.7-1.2-3.5-2.6-4.7-1.6-1.4-2.3-3.3-2.3-6.2q0-0.3 0-0.6 0-0.4 0-0.7v-0.4c0-0.8 0.1-1.7 0.2-2.6 0.1-0.8 0.2-1.7 0.2-2.5q0-0.3 0-0.6-0.1-0.3-0.1-0.5 0-0.1 0-0.2-0.1-0.3-0.2-0.7c0 0 0.1-0.1 0.1-0.1 0.1-0.3 0.4-0.5 0.6-0.7 0.2-0.2 0.3-0.4 0.4-0.6q0.1-0.3 0.1-0.7 0.1-0.3 0.1-0.6 0-0.3 0.2-0.5l0.2-0.5q0.1-0.2 0-0.4 0-0.1 0-0.2c0-0.6 0.3-1.4 0.5-2 0.2-0.5 0.3-0.9 0.4-1.2 0.1-0.3 0.1-0.7 0.1-1.1 0-0.8 0-1.5 0.5-2.2q0.4-0.7 0.3-1.5c-0.1-0.4 0.1-0.8 0.3-1.1q1-0.9 1.7-2 0.3-0.9 0.5-1.6c0.2-0.5 0.6-0.8 1.1-0.9 0.6 0 0.8-0.1 1.1-0.5 0.2-0.5 0.4-0.8 0.6-1.1 0.8-1.7 1.3-3.5 1.2-5.3q0-1.2-0.3-2.4-0.3-1.5-1.2-2.7-0.7-1.3-1-2.6-0.1-0.3-0.3-0.6c-0.1-0.2-0.3-0.4-0.3-0.7q0.1-0.8-0.2-1.7l-0.3-0.6q-0.1-0.1-0.1-0.1v-0.1q-0.1-0.1-0.1-0.1-0.1-0.3-0.1-0.7c0-0.3 0.2-0.6 0.5-0.7q0.1-0.1 0.2-0.1l0.2-0.3q0.2-0.1 0.4-0.2 0.4-0.1 0.4-0.6v-0.6c0-1-0.3-2-0.8-2.8q-0.9-1.8-1.5-3.7c-0.1-0.3-0.2-0.7-0.2-1q0-0.4-0.2-0.8c-0.1-0.5-0.5-1-0.9-1.4q-0.3-0.4-0.6-0.8c-0.5-0.8-0.8-1.6-0.9-2.5 0-0.2 0-0.4 0.2-0.5 0.2-0.1 0.2-0.4 0-0.6q0-0.1 0-0.1-0.5-0.3-0.7-0.8 0-0.3-0.1-0.4l-0.1-0.1q-0.1-0.2-0.1-0.4 0-0.5 0.1-1 0.1-0.2 0-0.3 0-0.1-0.1-0.2c0.1-0.1-0.1-0.3-0.2-0.6-0.1-0.2-0.3-0.5-0.3-0.9 0-0.2-0.2-0.5-0.4-0.5q-0.1 0-0.2-0.2 0 0-0.1-0.2-0.1-0.2-0.1-0.3-0.1-0.6-0.3-1.1c-0.4-1.3-1.7-2.5-2.8-3.6l-0.4-0.3c-0.9-0.7-1.6-1.8-2.2-2.8q-0.2-0.4-0.5-0.8-1.8-2.4-4-4.3l-0.1-0.1v-0.1q-0.1-0.2-0.2-0.3-0.6-0.4-0.9-1.1-0.2-0.4-0.5-0.9-0.2-0.4-0.4-0.8l-0.3-0.3q0.1-0.1 0.1-0.2v-0.6q0-0.1-0.1-0.2-0.3-0.8-0.8-1.4c0.1-0.2 0.2-0.4 0.1-0.6l-0.8-1.6q-0.1-0.2-0.2-0.3 0-0.2-0.1-0.3-0.3-0.4-0.3-0.8 0-0.1 0-0.1c0 0.1 0.2 0.3 0.4 0.3 0.2 0 0.5-0.2 0.6-0.4 0.1 0.1 0.4 0.1 0.6-0.1q0.1-0.1 0.1-0.2 0.7-0.7 0.9-1.6 0-0.1 0-0.1v-0.2q0-0.3 0-0.7-0.1-0.5-0.1-1c0-0.4 0.1-0.9 0.4-1.2l0.2-0.2c0.2-0.2 0.2-0.4 0-0.6l-0.3-0.4-0.2-0.1c-0.1-0.1-0.1-0.1-0.1-0.2 0.1 0 0.1-0.1 0.1-0.1q0.1-0.1 0.2-0.1h0.3q0.1 0 0.2 0.1c0.2 0.1 0.5 0 0.6-0.2q0.1-0.2 0.1-0.4-0.2-0.5-0.2-1.1 0-0.1 0.1-0.3 0-0.1 0-0.2 0-0.2-0.2-0.4c-0.1-0.1-0.2-0.1-0.3-0.1q-0.6-0.1-0.7-0.4l-0.1-0.1c0.1-0.4 0.2-0.8 0.5-1.1q0.2-0.3 0.4-0.5 0.3-0.3 0.4-0.6 0.1 0 0.1-0.1 0-0.4 0.2-0.7c0.1-0.1 0.2-0.3 0.4-0.5 0.2-0.3 0.2-0.8 0.2-1.4 0.1-0.5 0.1-0.9 0.2-1.4q0-0.1 0-0.2-0.1-0.3-0.1-0.6 0-0.6 0.2-1.2c0.2-0.6 0.3-1.3 0.3-2q0-0.7-0.3-1.3-0.1-0.4-0.4-0.7-0.2-0.2-0.3-0.5c0-0.2-0.1-0.3-0.2-0.4q-0.1-0.1-0.2-0.1-0.1-0.1-0.2-0.1-0.2-0.1-0.2-0.3 0.1-0.2 0.2-0.3 0.2-0.1 0.4-0.3c0.2-0.2 0.2-0.5 0-0.7q-0.1-0.1-0.3-0.1h-0.5c-0.1 0-0.3 0.1-0.4 0.3l-0.1 0.2q-0.2-0.1-0.4-0.3-0.1-0.2-0.3-0.2-0.4 0-0.8-0.3-0.2-0.1-0.4-0.5-0.1-1-0.4-2.1c-0.1-0.2-0.3-0.3-0.6-0.3q-0.1 0.1-0.1 0.1h-0.1c-0.2 0-0.4 0.2-0.4 0.4h-0.2q-0.2 0-0.4-0.2-0.1-0.1-0.1-0.3v-0.2q0-0.2-0.2-0.3l-0.2-0.3c-0.2-0.1-0.5-0.2-0.7 0q-0.1 0.2-0.1 0.4 0 0.2-0.2 0.3-0.5 0.1-1.1 0.2-0.7 0.2-1.3 0.2h-0.6q-0.1 0-0.2 0l-0.4 0.2q-0.1 0.1-0.1 0.1-0.1 0-0.2 0-0.3 0-0.5 0.1-0.1 0-0.2 0.1l-0.2 0.1c-0.1-0.2-0.2-0.3-0.4-0.3h-0.1q-0.1 0-0.3 0h-0.2c-0.2 0-0.4 0.2-0.4 0.4v0.1h-0.1c-0.1-0.2-0.4-0.2-0.6 0q0 0 0 0-0.1 0.1-0.2 0.2l-0.2-0.1c-0.1-0.1-0.4-0.1-0.6 0l-0.1 0.1-0.1 0.1q-0.1 0-0.2 0h-1q-0.2-0.1-0.3-0.1-0.3 0-0.4 0.1l-0.1 0.1c-0.1 0.2-0.1 0.2-0.2 0.2q-0.2-0.2-0.4-0.3-0.2-0.1-0.3-0.2-0.1 0-0.1 0-0.1-0.1-0.2-0.2-0.1 0-0.3-0.1c-0.6-0.4-1-0.9-1.3-1.5-0.4-0.5-0.6-1-0.6-1.6q0-0.2 0.1-0.3v-0.1c0.1-0.2 0-0.5-0.2-0.6q-0.1-0.1-0.2-0.1 0 0-0.1 0 0-0.1 0-0.2 0-0.2 0.1-0.3c0.1-0.2 0-0.5-0.3-0.6q0-0.1-0.1-0.1-0.2 0-0.4-0.1-0.1-0.1-0.1-0.2c0.2 0.1 0.5 0 0.5-0.3 0.1-0.2 0-0.5-0.3-0.5q-0.2-0.1-0.4 0.1-0.1-0.1-0.2-0.3l-0.3-0.6c-0.7-1.5-2-2.7-3.5-3.3q-1-0.3-2.1-0.3h-0.4q-0.2 0-0.5 0-0.3 0-0.7 0h-0.4l-0.5 0.1q-0.4 0.1-0.8 0.1h-0.9q-0.3 0-0.6 0.1-0.2 0-0.4 0-0.2 0-0.3 0.1h-0.2l-0.3 0.1q-0.1-0.1-0.2-0.1 0 0 0 0-0.4 0.1-0.8 0.1c-0.4 0.1-0.8 0.1-1.1 0.2l-0.4 0.1c-0.8 0.1-1.6 0.3-2.5 0.3l-0.8 0.1c-0.5 0.2-0.9 0.3-1.3 0.5q-0.2 0.2-0.4 0.4-0.3 0.2-0.5 0.5 0 0 0 0.1c-0.1 0.5-0.6 0.9-1.1 0.9h-0.2c0 0-0.1-0.1-0.2-0.1-0.1-0.2-0.3-0.3-0.6-0.2l-0.1 0.1q-0.4 0.2-0.8 0.2c-1.6 0.2-2.7 1-3.9 1.8q-0.5 0.3-1 0.7c-0.6 0.3-1.2 0.5-1.8 0.6q-0.6 0.1-1.2 0.3-0.9 0.3-1.8 0.8-0.1 0-0.1 0.1-0.6 0.6-1.3 1-0.2 0.1-0.5 0.1-0.4 0-0.6-0.3c-0.6-0.5-1.2-0.8-1.9-0.9q-0.3 0-0.5-0.1-0.2 0-0.4-0.1-0.4 0-0.6-0.3c-0.1-0.1-0.3-0.2-0.5-0.1h-0.1q-0.3-0.2-0.5-0.5l-0.1-0.2c-0.1-0.2-0.4-0.3-0.6-0.2q-0.2 0.1-0.2 0.2l-0.1 0.2c-0.2 0.2-0.4 0.3-0.6 0.3h-0.2q-0.5 0-0.9-0.3c-0.2-0.1-0.4-0.1-0.6 0h-0.1q-0.2 0-0.4-0.1-0.1-0.1-0.2-0.1h-0.4q-1.9 0.1-3.7 0.5-0.3 0.1-0.5 0.1-0.2 0-0.3-0.1c-0.2 0-0.4 0-0.5 0.1q-2.2 0.1-4.3 0.7c-0.5 0.2-1 0.5-1.5 0.8-0.7 0.4-1.5 0.8-2.4 1-1 0.2-2 0.6-2.8 1.3-0.2 0.2-0.4 0.4-0.6 0.4q-0.2-0.1-0.4-0.1h-0.3q-0.9 0-1.5-0.5-0.6-0.3-1.2-0.5c-0.5-0.2-0.9-0.3-1.4-0.6-0.5-0.5-1.1-0.8-1.8-1.2-0.8-0.4-1.7-0.9-2.4-1.6-0.6-0.7-1.2-1.4-1.8-2-0.6-0.8-1.3-1.6-2-2.3-0.1-0.2-0.4-0.3-0.8-0.5l-0.4-0.2q-0.8-0.3-1.5-0.8-0.3-0.2-0.3-0.6-0.1-0.2-0.3-0.3-0.4-0.1-0.6-0.4c-0.2-0.1-0.3-0.2-0.4-0.3q-0.2-0.2-0.4-0.3-0.6-0.2-1-0.8-0.3-0.5-0.8-1 0 0-0.1-0.1-2.2-1-4.3-2.3c0-0.2-0.2-0.4-0.5-0.4h-0.1q-0.7-0.2-1.4-0.4 0.1-0.1 0.1-0.3h0.1c0.2 0 0.4-0.2 0.4-0.4 0-0.2-0.1-0.4-0.2-0.4q-0.1-0.1-0.2-0.2-0.1-0.1-0.3-0.1 0 0-0.1 0 0-0.1 0-0.1-0.1-0.1-0.1-0.1c0-0.2-0.1-0.3-0.1-0.4q0-0.3-0.1-0.5-0.1-0.5-0.1-0.9c-0.1-0.3-0.3-0.4-0.5-0.4q-0.4 0-0.7-0.2c-0.2-0.2-0.3-0.4-0.3-0.7q0-0.2 0.1-0.4l0.1-0.2q0.1-0.2 0-0.4-0.1-0.2-0.1-0.5c0-0.2 0.1-0.4 0.2-0.4q0.1-0.1 0.1-0.1l0.1-0.1c0.2-0.2 0.2-0.5 0-0.7q-0.1 0-0.1-0.1-0.2 0-0.4-0.2-0.1 0-0.2-0.1v-0.1-0.3q0-0.1 0-0.1l-0.1-0.3v-0.5c0-0.3-0.2-0.5-0.4-0.5h-0.1q0-0.3-0.3-0.5-0.1-0.1-0.1-0.2-0.1-0.2-0.3-0.3-0.1 0-0.2-0.1 0 0 0-0.1-0.1-0.1 0-0.3v-0.3c0-0.3-0.3-0.5-0.5-0.5h-0.2c0-0.2-0.1-0.4-0.3-0.5q-0.3-0.1-0.5-0.3-0.4-0.2-0.4-0.5c0-0.2-0.2-0.4-0.4-0.4l-0.4-0.1q-0.2-0.3-0.6-0.5-0.5-0.2-1.1-0.6c-0.1-0.1-0.2-0.3-0.2-0.5 0-0.2-0.2-0.4-0.5-0.4q0.1-0.2 0.2-0.4 0.1-0.2 0.2-0.5c0-0.2-0.1-0.5-0.3-0.6q-0.1 0-0.2 0c-0.1 0-0.3 0.1-0.4 0.1l-0.1 0.1q-0.1-0.1-0.3-0.2l-0.7-0.1c-0.1 0-0.3-0.2-0.3-0.4l-0.1-0.4q0-0.6-0.5-1.2 0-0.1-0.2-0.2 0 0-0.1 0c-0.1-0.2-0.4-0.2-0.6 0q-0.1-0.1-0.2-0.2l0.1-0.2q0.1-0.2 0-0.4 0-0.1 0-0.2 0-0.2 0.1-0.4 0-0.1 0-0.2 0-0.2 0-0.3-0.3-0.5-0.3-0.9 0.1-0.2 0.1-0.4c0-0.2-0.2-0.4-0.5-0.4q-0.2 0-0.3 0.1l-0.2 0.1q-0.6 0.4-1.3 0.4c-0.1-0.2-0.3-0.4-0.5-0.4q-0.2 0-0.3-0.1-0.1-0.1-0.2-0.2l-0.1-0.1c-0.1-0.2-0.3-0.3-0.5-0.3l-0.2-0.3q0-0.1 0-0.1v-0.2q0.1-0.2 0.1-0.4c0-0.2-0.1-0.4-0.4-0.4q-0.3-0.1-0.6-0.4-0.1 0-0.1-0.1-0.2 0-0.3-0.1-0.1-0.2-0.3-0.2-0.1 0-0.1-0.1-0.1-0.1-0.1-0.2-0.2-0.2-0.2-0.4 0-0.1 0.1-0.2 0.1-0.1 0.1-0.3 0-0.1-0.1-0.3 0-0.1 0-0.2 0-0.1 0-0.1c0.2-0.2 0.1-0.5 0-0.6l-0.1-0.1q-0.1-0.1-0.1-0.2 0.1-0.6 0.3-1.1 0-0.1 0-0.2 0-0.1 0-0.3-0.2-0.4-0.3-0.9c0.3 0 0.4-0.3 0.4-0.5q0-0.1-0.1-0.2 0.1 0 0.2-0.1c0.3 0 0.6-0.2 0.6-0.4q0.1-0.1 0.2-0.2c0.2-0.1 0.3-0.4 0.1-0.7q0 0 0-0.1-0.3-0.1-0.5-0.2c0-0.2-0.2-0.4-0.5-0.4q0-0.3-0.2-0.4-0.1-1.3-0.7-2.5c-0.3-0.8-0.9-1.6-1.7-2q-0.2-0.1-0.3-0.1-0.2 0.1-0.4 0.2 0.1-0.1 0.1-0.2 0.3-0.2 0.6-0.4 0.3-0.2 0.6-0.3c0.3-0.1 0.4-0.2 0.5-0.3q1.4-1.6 2.3-3.5 0-0.1 0-0.2 0.3-0.9 0.6-1.7c0-0.1 0-0.2 0.1-0.3q0-0.1 0-0.2 0.1-0.1 0.1-0.2c0-1.7 0.6-3.3 1.2-4.8 0.5-1.4 1.1-2.7 1.2-4.2q0.1-0.6 0.1-1.3 0-2.1-0.3-4.2c0-0.7-0.2-1.4-0.6-2q-0.1-0.2-0.4-0.4c-0.3-0.3-0.6-0.7-0.7-1.1q0.2-0.1 0.2-0.3l0.3-0.5c0.1-0.2 0-0.5-0.2-0.6q0 0 0 0 0-0.1 0-0.1c0-0.4 0.2-0.7 0.5-1l0.4-0.5c0.3-0.2 0.5-0.6 0.5-1q-0.3-1.2-0.9-2.4c-0.2-0.2-0.4-0.3-0.7-0.1q0 0-0.1 0.1c-0.4-0.4-0.7-0.9-0.8-1.5q0-0.1-0.1-0.1-0.2-0.4-0.3-0.7c-0.1-0.2-0.2-0.4-0.4-0.4-0.2 0-0.4 0.2-0.5 0.3q-0.1 0.5-0.3 0.9 0 0-0.1 0-0.1-0.3-0.1-0.6c0.2-1.2 0.4-2.5 0.8-3.7q0.1-0.1 0.1-0.1c0.1-0.9 0.3-1.8 0.8-2.6q0.5-0.5 1.1-0.9 0.7-0.5 1.1-1.2 0.1-0.4 0.2-0.8v-0.4c0.1-0.3 0.3-0.6 0.6-0.8q0.2-0.1 0.2-0.4v-0.3c0-0.2 0.1-0.4 0.2-0.7q0.1-0.1 0.2-0.2c0.2-0.3 0.5-0.7 0.8-1.2q0.4-0.4 0.6-1c0.1-0.2 0-0.5-0.2-0.6l-0.3-0.1c0.6-1.1 1.6-1.9 2.6-2.8q0.7-0.5 1.3-1.1c1-1.1 1.3-2.2 1.5-3.5 0.2-0.7 0.3-1.4 0.7-2.2l0.2-0.6c0.5-1.6 1.1-3.2 2.7-4.1 2-1.2 3-2 3.7-4.1q0.3-0.9 0.8-1.7l0.2-0.6q0.1-0.2 0-0.4l0.1-0.1q0.1 0 0.2-0.1 0 0 0 0c0.3-0.2 0.4-0.4 0.6-0.7q0.2-0.2 0.3-0.4 0.2-0.1 0.3-0.2 0.9-0.2 1.8-0.4 0.5-0.1 1-0.1c1.7-0.3 3.4-1 4.8-2.2 0.7-0.7 1.6-1.3 2.4-2q0.7-0.6 1.5-1.3 1.8-1.7 3.3-3.8c0.7-0.9 1.2-2 1.4-3.2 0.1-0.5-0.1-0.9-0.5-1.2q-0.2-0.3-0.5-0.5-0.2-0.1-0.2-0.2 0.1-0.2 0.2-0.4 0.4-1.1 0.3-2.3c0.1-1.9 0.8-2.9 2.1-4.4 0.4-0.6 0.5-1.1 0.6-1.7 0-0.3 0.1-0.7 0.2-1.1 0.3-0.7 0.7-1.3 1.3-1.8q0.5-0.5 1-1c0.7-0.8 1.5-1.6 2.6-2.1q0.7-0.3 1.5-0.6c1.1-0.5 2.3-1 3.4-1.6 2.8-1.6 4.3-5.5 5.5-8.7l0.2-0.4q0.1-0.8 0.6-1.5 0.1-0.2 0.2-0.2h0.2q0.7 0 1.4-0.4 0.1 0 0.2 0h0.1q0.2 0 0.3 0.2c0.1 0.2 0.2 0.4 0.3 0.6 0.3 0.8 0.8 1.6 1.6 2 0.7 0.5 1.6 0.8 2.5 0.8q1.1 0 2.1-0.2h0.4q0.5 0 1 0.1 0.5 0 0.9 0c0.6-0.1 1.3-0.2 1.8-0.8h0.1q0.1 0.4 0.2 0.7 0.1 0.2 0.3 0.3c0.3 0.3 0.6 0.5 1 0.5q0.4 0 0.7-0.2 0 0 0.2 0 0.3 0 0.5 0.2 0.2 0.1 0.3 0c1.2 0 2.3-0.4 3.3-1q0.4-0.1 0.7-0.3 0.4-0.2 0.6-0.5c0.2-0.5 0.6-0.9 1-1.3q0.5-0.3 1-0.4 0.1 0 0.2 0.1 0.2 0.1 0.4 0 0.5-0.2 0.9-0.6 0.2-0.1 0.4-0.2 0.6 0.1 1.1 0.3 0.1 0 0.2 0c0.4 0 0.6-0.2 0.8-0.7 1.2-2.2 5-2.9 6.6-3.1 0.5-0.1 1-0.2 1.6-0.2 0.7-0.2 1.5-0.3 2.2-0.3h0.6q0.7-0.1 1.2-0.4c0.3-0.3 0.7-0.5 1.1-0.5 0 0 0.2 0 0.3 0.1 0.2 0.1 0.4 0.1 0.5-0.1q0.1 0 0.1 0h0.7q0.5 0 1.1-0.1 0 0 0.1 0 1.1-0.5 2.3-0.5l2.2 0.1c0.8 0 1.5 0.3 2.1 0.8 0.2 0.3 0.5 0.4 0.9 0.4 0.3 0 0.5-0.1 0.7-0.3q0.1 0 0.2-0.1 0.5-0.4 1-0.5 0.5 0 1.1-0.1 0.5-0.1 1-0.3c0.2-0.1 0.3-0.2 0.3-0.4v-0.2q0-0.2 0.1-0.3 0.1-0.1 0.2-0.1 0.7 0.1 1.3 0.4c0.4 0.4 1 0.5 1.6 0.6q0.6-0.1 1.1-0.4 0.2-0.2 0.3-0.5 0.1-0.2 0.2-0.1h0.1q0.1 0 0.3 0 0.4 0.2 0.7 0.3c0.3 0.2 0.6 0.3 0.9 0.3-0.1 0.2 0 0.5 0.2 0.6q0.1 0 0.2 0h0.1q0.4 0 0.8-0.1c0.4-0.1 0.8-0.1 1.2-0.1 0.4 0 0.8 0 1.2-0.1q0.1 0 0.2-0.1h0.1 0.1q0.1 0 0.2-0.1 0.1 0 0.1 0 0.2 0 0.4-0.2 0.1 0 0.2-0.1c0.7-0.7 1.5-1.2 2.4-1.4q0.6-0.2 1.3-0.3 0.1 0 0.2 0 0.1 0.1 0.2 0.1 0.1 0.2 0.3 0.2 0.3 0.1 0.5 0.1 0.2 0 0.4 0.1 0.4 0.2 0.5 0.5 0 0.1 0 0.1-0.1 0.2-0.1 0.3c0 0.2 0.1 0.3 0.3 0.4 0.1 0.1 0.2 0.3 0.2 0.5 0 0.1-0.1 0.2-0.1 0.3 0 0.3 0.2 0.5 0.5 0.5 0 0 0.2 0 0.3-0.1q0.7-0.3 1.3-0.9c0.2-0.1 0.3-0.2 0.5-0.4q0.2-0.2 0.4-0.3 0.1 0.1 0.2 0.1c0.2 0.1 0.4 0.4 0.4 0.7q0 0.3-0.2 0.6-0.6 0.9-1.5 1.6c-0.8 0.7-1.2 1.2-1.2 1.7 0 1 0.5 1.9 1.3 2.4q0.6 0.3 1 0.8 0.3 0.6 0.4 1.2c0.1 0.3 0.1 0.5 0.1 0.7 0 1.3-0.8 2.7-2.2 3.9q-0.4 0.3-0.9 0.5-0.4 0.3-0.8 0.6c-0.4 0.3-0.9 0.7-0.9 1.3q0.1 0.8 0.5 1.3 0.4 0.6 1 1c0.2 0.2 0.4 0.2 0.5 0.2q0.2 0 0.4 0 0.1-0.1 0.4-0.1c0.2 0 0.4-0.2 0.4-0.5v-0.2c0-0.2 0.1-0.3 0.1-0.3q0.1 0 0.1-0.1 0.2-0.1 0.4-0.1h0.1 0.1q0.2 0 0.5 0.1c-0.1 0 0 0.1 0 0.2q0 0.2-0.1 0.3c-0.2 0.2-0.2 0.5 0 0.7q0.1 0.1 0.3 0.1c0.1 0 0.2 0.1 0.2 0.3v0.3q0 0.2 0.1 0.4 0.1 0.1 0.2 0.2 0.1 0.1 0.2 0.2 0 0 0 0.1c0 0.3 0.2 0.5 0.5 0.5q0 0 0 0h0.2c0.2 0 0.3 0 0.3 0.1q0.1 0 0.2 0l0.1 0.1 0.1 0.1c0.5 0.4 1.1 0.6 1.6 0.9 0.5 0.2 0.9 0.3 1.3 0.6 0.7 0.4 1.5 0.7 2.3 0.7h0.7q0 0 0.1-0.1 1.1-0.3 2.2-0.5 0.3 0.1 0.6 0.2c0.5 0.2 0.9 0.3 1.4 0.4 0.5 0.1 1.1 0.2 1.6 0.4 0.4 0.2 0.7 0.4 1.1 0.6 0.4 0.3 0.8 0.6 1.3 0.8 0.3 0.1 0.6 0.1 0.9 0.1 0.5 0 1.1 0 1.6 0.3 0.6 0.5 1 1.4 1 2.3 0.2 1.1 0.7 2.1 1.6 2.9 1.1 0.9 2.4 1 3.8 1.1q0.8 0.1 1.7 0.2c2.2 0.4 4.3 1.3 6.1 2.5q0.4 0.4 0.8 0.8c1 0.9 1.9 1.8 3.1 1.8h0.2c2.3-0.3 4.1-1.8 4.8-4q0-0.1 0-0.1v-0.3q0-0.1 0-0.1-0.3-1.1-0.8-2.1-0.3-1-0.3-1.9 0-0.5 0.2-1c0.4-1 1.2-1.9 2.1-2.6 0.9-0.8 2-1.2 3.2-1.4 0.4 0 0.8-0.2 1.2-0.4 0.3-0.1 0.7-0.3 1.2-0.4q0.4-0.1 0.9-0.1h0.1q0.2 0 0.3 0 0.7 0 1.4 0.2 1.4 0.5 2.8 1.1 0.5 0.2 0.8 0.5 0.2 0.2 0.1 0.4v0.7c0 0.4 0.4 0.6 0.8 0.8q0.1 0 0.1 0.1 0.6 0.1 1.2 0.2 1.5 0.2 2.9 0.8c0.4 0.1 0.7 0.2 1 0.2h0.2q0.3 0 0.7-0.1 0.3 0 0.6 0h0.2q0.3 0 0.5 0 0.5 0.2 0.8 0.6 0.1 0.3 0.2 0.4 0.1 0.2 0.2 0.3 0 0.1 0.1 0.1v0.5c0 0.2 0 0.4 0.2 0.6 0.2 0.2 0.5 0.2 0.7 0.2q0.6 0 1.2-0.2c0.3-0.1 0.7-0.1 1.1-0.2 0.8 0.1 1.6 0.2 2.4 0.4q2.1 0.3 4.1 0.8 0.4 0.1 0.6 0.4 0.3 0.3 0.6 0.5 0.3 0.1 0.7 0.1h0.1q0.2 0 0.4 0 0.1 0 0.3 0 0.3 0 0.4 0.1 0.1 0.1 0.2 0.2 0.1 0 0.2 0.1 0.1 0.1 0.3 0.1 0.2 0 0.5 0 0.3 0.1 0.7 0.1c0.7 0.1 1.4 0.4 2 0.6 0.5 0.3 0.9 0.5 1.5 0.6h0.4c1.1-0.1 2.2-0.6 3-1.4q0.6-0.6 1.3-1.2 0 0 0.1 0.1c0.2 0.1 0.4 0.1 0.6 0q0.6-0.4 0.8-1 0.2 0.1 0.4 0.1c0 0 0.1 0 0.1 0 0.3 0 0.5-0.1 0.7-0.2 0.3-0.1 0.6-0.3 1-0.3h0.2c0.2 0 0.4-0.1 0.5-0.2q0.7 0 1.2 0.4 0.5 0.3 1.1 0.4c0 0 0.1 0 0.2 0 0.1 0 0.3-0.1 0.4-0.2q0.2 0 0.4-0.1 0 0 0-0.1 0.2-0.1 0.5-0.1 0.1 0.1 0.2 0.1 0.4 0.1 0.5 0.4 0.3 0.4 0.6 0.7 0.1 0.1 0.2 0.1 0.7 0.2 1.3 0.6c0.3 0.4 0.8 0.6 1.3 0.6h0.2q0.1 0 0.2 0 0.2-0.1 0.4-0.2 0.4-0.1 0.7-0.2 0.1 0.1 0.2 0.1v0.1c0.2 0.1 0.4 0.1 0.5 0.1 0.4-0.1 0.8-0.2 1.2-0.2 0.3 0 0.6 0 1-0.1q1.2-0.3 2.1-1l3.8 9.9c-0.5 0.7-0.7 1.7-0.9 2.7-0.1 0.8-0.2 1.6-0.4 2.3q-0.4 0.8-0.4 1.8v0.4q0 0.5-0.3 0.9-0.4 0.5-0.5 1l-0.2 0.1q-0.2-0.1-0.5-0.3-0.4-0.2-0.7-0.4-1-0.7-1.6-1.7-0.5-0.6-1.2-1.1c-0.4-0.3-0.7-0.8-0.7-1.2v-0.6c0-0.7-0.6-1.3-1.2-2q-0.2-0.3-0.5-0.6-1-1.5-1.5-3.3c-0.1-0.2-0.4-0.3-0.6-0.3q-0.2 0.1-0.3 0.3-0.3 0.5-0.3 1.2 0 0.4 0.3 0.7c0.5 0.7 0.8 1.5 1 2.2 0.2 0.6 0.3 1.2 0.7 1.7q1.1 1.8 2.4 3.3 0.7 0.6 1.3 1.1 0 0.2 0.2 0.3 0 0.1 0.1 0.2 0 0.1 0 0.1 0.2 0.2 0.2 0.4c-0.1 0.2-0.1 0.3 0 0.5q0 0.2 0 0.3v0.3c0 0.3 0 0.5 0.2 0.7q0.9 1 1.4 2.2 0.2 0.7 0.7 1.3 0 0 0 0.1 0 0.1-0.1 0.2-0.1 0.2-0.2 0.4 0 0.2 0.2 0.4c0 0.2 0.1 0.3 0.2 0.4q0.3 0.2 0.4 0.4 0.3 0.6 0.6 1.2 0.3 0.5 0.6 1.1c1.3 2.3 2.5 4.7 3.7 7.2q0.9 1.4 1.8 2.5c0.2 0.4 0.6 0.7 1 1 0.3 0.2 0.6 0.4 0.9 0.8h-0.1q-0.3 0-0.6-0.1c-0.3-0.1-0.5 0.1-0.6 0.3q0 0 0 0-0.1 0.5-0.1 1.1c-0.1 0.9 0.1 1.8 0.6 2.6q0 0 0.1 0.1l0.1 0.1q0 0 0 0l0.1 0.4c0.4 1.2 1.1 1.6 2 2.2l0.5 0.3c0.6 0.3 1.1 0.9 1.5 1.4 0.4 0.4 0.8 0.9 1.2 1.2 0.5 0.3 0.8 0.7 0.9 1.2q0 0.9 0.2 1.7c0.3 0.7 0.7 1.2 1.1 1.7q0.6 0.5 0.8 1.2h-0.3c-0.3 0.1-0.4 0.3-0.4 0.5q0 0.2 0.1 0.3 0 0 0 0.1 0.5 0.9 0.5 2v0.4q-0.1 0.5-0.1 1c0 0.7 0.2 1.5 0.3 2.3q0.1 0.9 0.2 2 0.1 1.3 0.5 2.6c0.1 0.9 0.7 1.6 1.5 2 0.6 0.2 1.1 0.6 1.5 1.1q0.6 0.7 1.3 1.2 0.1 0.1 0.3 0.1c0.1 0.2 0.2 0.4 0.5 0.5q0.1 0.1 0.1 0.1 0.4 0.1 0.7 0.4 0 0 0.1 0 0.2 0.1 0.2 0.3 0 0.2 0 0.3 2 4 3.1 8.5c0.1 0.6 0.2 1.3 0.5 2q0 0 0 0.1 0.6 1 0.9 2.1c0 0.3 0.2 0.4 0.4 0.6q0 0.1 0.2 0.2c0.1 0.1 0.2 0.2 0.3 0.4 0 0.3 0.3 0.4 0.5 0.4 0.2-0.1 0.4-0.2 0.4-0.5q0.1 0 0.2-0.1h0.1c0.2 0.1 0.5 0.2 0.6 0.4q0.3 0.3 0.3 0.6c0 0.7 0.4 1.4 0.9 1.8q0.1 0.1 0.3 0.1h0.2c0.1 0 0.3-0.1 0.4-0.1q0.3-0.2 0.6-0.2 0.3 0.1 0.5 0.3 0.3 0.3 0.5 0.5 0.2 0.2 0.3 0.4c0.2 0.2 0.6 0.4 1 0.5 1 0.1 1.5 0.8 1.9 1.6l0.2 0.2q0.8 1.4 2 2.3 0.1 0.1 0.1 0.1 0.5 0.2 0.8 0.6l1 0.6c0.4 0.4 0.5 0.9 0.6 1.4q0 0.3 0.1 0.5 0.1 0.1 0.1 0.2 0.2 0.2 0.5 0.3 0 0 0.1 0 0.3 0 0.4 0.2 0.2 0.2 0.3 0.4 0.2 0.3 0.3 0.5 0.4 0.5 0.9 0.9c0.2 0.2 0.4 0.1 0.6-0.1q0.1 0 0.1-0.1c0.2 0.1 0.4 0.4 0.5 0.7v0.1q0 0.1 0 0.2 0.1 0.2 0.3 0.4c0.2 0.2 0.4 0.5 0.5 0.8q0.6 0.8 0.7 1.6 0 0.3-0.2 0.6-1 1-2.4 1.4 0 0-0.1 0.1-0.4 0.2-0.7 0.7c-0.1 0.2-0.1 0.5 0.2 0.6q0.1 0.1 0.4 0 0.5-0.2 1.1-0.2 0.1 0 0.2 0 0.2 0.1 0.4 0.3 0.1 0.1 0.1 0.2 0.1 0 0.2 0.1c1 0.5 1.6 1.6 2.3 2.6 0.3 0.6 0.7 1.1 1 1.5 0.8 1.1 2.2 1.7 3.5 1.7q1 0 1.8-0.3 1.4-0.6 2.5-1.4 0.6-0.7 1.4-0.7 0.6 0.1 1.3 0.2 0.9 0.2 1.8 0.3c0.6 0 1.2-0.2 1.7-0.6 0.5-0.4 0.9-0.7 1.3-1q0.7-0.6 1.6-0.7 0.1 0 0.3 0.1 0.6 0.2 1.3 0.3 0.8-0.1 1.4-0.4 0.9-0.4 1.9-0.7 0.1 0 0.3 0c0.4 0 0.6 0 0.9 0.1 0.2 0.1 0.5 0.1 0.8 0.1h0.1q1.6-0.2 2.9-1c0.5-0.2 1-0.3 1.6-0.3 0.6-0.1 1.2-0.2 1.7-0.5q0.6-0.4 0.9-1.1c0.2-0.3 0.5-0.7 0.9-0.9q0.1-0.1 0.3-0.1c0 0 0.2 0 0.2 0q0.7 0 1.4 0.3c0.5 0.3 0.7 0.5 0.7 0.9v0.2q-0.4 1.2-0.4 2.5 0 0.6 0.1 1.1 0.1 0.8 0.2 1.6 0 0 0 0.1-0.1 0-0.2 0.1c-0.2 0.2-0.3 0.4-0.3 0.8v1.5q0.1 1.4-0.3 2.7-0.6 1.6-1.6 2.9c-0.4 0.5-0.5 1.2-0.7 1.8-0.2 0.8-0.4 1.6-0.9 2.2q-0.4 0.3-0.6 0.5-0.3 0.2-0.6 0.5c-0.2 0.3-0.2 0.7-0.2 1.1 0 0.2 0 0.5-0.1 0.8q-0.9 1.9-2.1 3.6c-0.5 1-0.8 2-1 3-0.2 0.8-0.4 1.6-0.7 2.3q-1.3 2.6-2.9 4.9c-0.5 0.6-0.8 1.4-1.2 2.1-0.5 0.9-1 1.8-1.6 2.6-1.3 1.6-2.6 3.2-3.8 4.7l-0.1 0.1c-2.4 3-5.4 5.7-8.6 7.8q-2.3 1.3-4.1 3.1-0.6 0.6-1.2 1.2c-1 1-2.1 2-3 3.1q-0.9 1.1-1.8 2.2-0.9 1.1-1.8 2.1c-0.4 0.5-0.8 1-1.2 1.5q-0.2 0.4-0.5 0.8-0.5 0.6-1 1.2-0.2 0.1-0.3 0.1c-0.1 0.1-0.3 0.2-0.3 0.4-0.3 1.3-0.9 2.5-1.8 3.5q-0.1 0.1-0.1 0.1l-0.3 0.6c-0.4 0.6-1.1 1-1.8 1.2q-0.2-0.1-0.4-0.1c-0.3 0-0.5 0.2-0.5 0.5q0 0.1 0.1 0.2 0.1 0.3 0.1 0.6 0 0.3-0.2 0.5l-0.2 0.2c-0.2 0-0.4 0.1-0.5 0.2-0.2 0.5-0.7 0.8-1.2 0.8-0.9 0-1.6 0.8-1.6 1.7q0 0 0 0 0 0.4 0.2 0.7 0 0 0 0.1 0 0.5-0.3 1-0.3 0.5-0.7 0.9-0.1 0.1-0.1 0.1-0.4 0.6-0.6 1.3-0.2 0.9-0.6 1.7-0.1 0.3-0.4 0.5-0.1 0.1-0.1 0.3c-0.1 0.8-0.4 1.3-0.7 1.9-0.3 0.4-0.5 0.8-0.6 1.2q-0.1 0-0.2 0c-0.3 0-0.4 0.1-0.6 0.3q-0.1 0.1-0.1 0.3v0.2q-0.3 2-1.2 3.8-0.4 0.9-0.7 1.9-0.2 0.4-0.2 0.9c-0.1 0.2 0 0.4 0.1 0.6q0.1 0.3 0.2 0.6v0.3q0 0.4 0.3 0.8c0.1 0.2 0.4 0.2 0.6 0q0.2-0.1 0.2-0.3 0-0.3 0.2-0.5 0.2-0.2 0.2-0.3 0.2-0.2 0.2-0.3c0.3 0.5 0.5 1.1 0.5 1.7 0 0.2 0.1 0.4 0.3 0.5q0.2 0 0.3 0.2 0 0.2 0 0.4 0 0.3-0.1 0.6c0 0.2 0 0.4 0.2 0.5q0 0 0 0.1 0.2 0.3 0.2 0.6 0 0.6-0.4 1.1c-0.3 0.6-0.5 1.2-0.5 1.8q0 0.5-0.1 0.9c-0.1 0.2 0.1 0.5 0.3 0.5q0.1 0 0.1 0c0 0.1 0 0.1 0 0.2q0.1 0.3 0.1 0.5 0 0.5-0.1 0.9-0.5 1-0.5 2v0.3q0 0.6 0.3 1.1 0.3 0.3 0.3 0.7v0.1c-0.1 0.1-0.1 0.3 0 0.5q0 0.1 0.1 0.2 0 0.1 0 0.1 0.1 0.2 0.1 0.3c0 0.2 0.2 0.5 0.4 0.5q0.1 0 0.1 0c0.2 0 0.2 0.1 0.2 0.2q0 0.5-0.2 0.8 0 0.1 0 0.2c0 0.4 0 0.6 0.3 0.8q0.1 0.3 0.3 0.6v0.1q0 0.2-0.1 0.4 0 0.1 0 0.1c0 0.2 0 0.4 0.1 0.5q0.2 0.1 0.2 0.4v0.2c0 0.1 0.1 0.3 0.2 0.4q0.3 0.1 0.4 0.3l0.1 0.1q0 0.1 0.1 0.2 0.2 0.1 0.4 0.1h0.2c0.3 0.1 0.7 0.2 0.9 0.5q0.5 0.4 0.6 1.1c0 0.2 0.2 0.4 0.4 0.5 0.2 0 0.4 0.2 0.4 0.5q0 0.2-0.1 0.3c-0.1 0.2-0.1 0.4 0.1 0.6q-0.2 0.4-0.2 0.9 0 0.5-0.2 1-0.1 0.2-0.3 0.3-0.3 0.2-0.3 0.6 0 0.1 0.1 0.2c0.2 0.4 0.4 0.7 0.4 1.1q0.1 0.8 0.1 1.4 0 0.1 0 0.1 0.1 0.4 0.1 0.9v0.5q-0.1 0.2-0.1 0.4l-0.1 0.1q0 0.1 0 0.3 0 0.1 0.1 0.3v0.2q0 0.2-0.1 0.4 0 0.1 0 0.2c0 0.3 0 0.4 0.2 0.6q0.1 0.1 0.2 0.3 0 0.2 0 0.3 0 0.6-0.2 1.1c-0.1 0.1 0 0.3 0.1 0.5l0.2 0.2q0 0.1 0 0.2-0.1 0.6-0.2 1.2-0.2 0.5-0.2 0.9-0.1 0.2 0.1 0.4 0.2 0.2 0.3 0.4c0 0.2 0 0.4 0 0.6 0 0.4 0 0.8-0.1 1.2q0 0.5-0.1 1c0 0.3 0.3 0.5 0.5 0.5q0 0.3-0.1 0.6c-0.1 0.3 0 0.5 0.2 0.7q0 0 0 0c0.2 0 0.4 0.2 0.4 0.4v0.3q-0.1 0.2-0.1 0.5-0.1 0.3-0.1 0.5-0.1 0.3-0.2 0.5c-0.2 0.1-0.2 0.3-0.2 0.5l-0.1 0.1q0 0.1 0 0.2v0.2q0 0.1 0 0.1l-0.2 0.2c-0.2 0.2-0.2 0.4-0.1 0.6q-0.1 0.7-0.5 1.3c-0.3 0.6-0.7 1-1 1.4-0.4 0.4-0.8 0.8-1.1 1.3q-0.5 0.8-1.1 1.6 0 0-0.1 0.1 0 0.2-0.1 0.4 0 0.2 0 0.3-0.1 0-0.1 0h-0.1q-0.2 0-0.3 0.2-0.6 0.6-1.5 1-0.9 0.5-1.7 1.2l-0.1 0.1q-0.1 0.1-0.1 0.3 0 0.2-0.1 0.2 0 0-0.1 0.1-0.1 0-0.2 0.1-0.4 0.1-0.7 0.2-0.8 0.2-1.5 0.5-0.6 0.3-1.3 0.6-0.2 0.1-0.4 0.1-0.1 0-0.1 0c-0.2 0-0.4 0.1-0.6 0.3q-1.2 0.9-2.6 1.4-0.1 0.1-0.2 0.1-0.1 0.1-0.3 0.3c-0.2 0.3-0.6 0.6-0.8 0.8q-0.6 0.6-1.3 0.8c-0.3 0.1-0.4 0.4-0.3 0.6q0 0.1 0 0.1c0 0.1 0.1 0.1 0.1 0.1 0 0.6-0.6 1-1.1 1.5l-0.2 0.2c-0.9 0.7-1.4 1.3-1.4 1.9v0.2 0.1q0 0.1 0 0.1-0.2-0.1-0.4 0l-0.3 0.2q-0.1 0-0.2 0.1c0 0-0.1 0-0.1 0q-0.1-0.1-0.4-0.1-0.1 0-0.2 0-1.2 0.8-2.1 1.8-0.9 1.3-2 2.4 0 0-0.1 0.1-0.2 0.3-0.6 0.6-0.4 0.4-1 0.5h-0.1c-0.2 0-0.5 0.2-0.5 0.4q0 0.1 0.1 0.2 0.1 0.2 0 0.3 0 0.3-0.1 0.6-0.1 0.1-0.2 0.2c-0.1 0.2-0.2 0.4-0.1 0.6q0.1 0.1 0.1 0.2v0.7c0 0.3 0 0.5 0.2 0.7 0.1 0.2 0.2 0.3 0.4 0.4q0.2 0.2 0.5 0.5c0.4 0.5 0.6 1.1 0.5 1.7v0.1 0.2q-0.1 0.4-0.1 0.8 0 0.2 0.1 0.3 0 0.2 0 0.3c0 0.4 0.2 0.9 0.3 1.4 0.2 0.5 0.3 0.9 0.4 1.4q0 0.2 0 0.5 0 0.2 0.2 0.3 0 0.2-0.1 0.5 0 0 0 0.1v0.1c0 0.2 0.3 0.4 0.5 0.4q0.2 0 0.3 0v0.3q0 0.2 0.1 0.3-0.1 0.4-0.1 0.7-0.1 0.6-0.2 1.2 0 0 0 0.1c0 0.3 0.1 0.5 0.2 0.8 0.1 0.2 0.2 0.5 0.2 0.8v0.2c-0.1 0.6-0.4 1.3-0.6 1.9-0.2 0.5-0.4 1-0.5 1.5q-0.1 0.2 0 0.4l0.5 0.7q0.2 0.3 0.2 0.7c0 1.1-1 2.3-1.5 2.9-1.3 1.2-2.9 2-4.6 2.5q-2.8 0.8-5.4 2.4c-0.8 0.3-1.5 0.9-2 1.7q-0.2 0.6-0.5 1.1-0.1 0.2-0.3 0.3c-0.2 0.1-0.3 0.4-0.2 0.6q0 0.1 0.1 0.1l0.8 0.8c0.2 0.2 0.5 0.2 0.6 0.1h0.1q0 0.3 0 0.8 0.1 0.5 0.1 1.1 0 0.6-0.2 1.2c-0.1 0.2-0.2 0.4-0.2 0.4q-0.3 0.1-0.3 0.3c-0.4 1.6-0.8 3-1.2 4.5q-0.3 1-0.7 2.1-0.2 1.1-0.8 2.2c-0.2 0.6-0.7 1.1-1.4 1.3-0.2 0-0.3 0.2-0.3 0.4q-0.1 0.1-0.2 0.1-0.3 0.1-0.5 0.1c-0.6 0-1.2 0.8-1.3 1-1.1 1.2-1.9 2.5-2.5 3.9q-0.5 1.1-1.3 2 0 0 0 0c-0.7 1.1-1.3 2.2-2 3.3q-2 2.6-4.5 4.5c-0.7 0.6-1.3 1.3-1.8 2.1-0.6 0.7-1.2 1.4-2 2.1-1.8 1.5-3.6 3.1-5.5 4.5l-0.5 0.4c-1.3 1-2.8 2.1-4.6 2.4h-0.3q-0.5 0-1-0.1-0.4-0.1-0.8-0.1-0.3 0-0.6 0.1-0.5 0.1-0.8 0.4 0 0.1-0.1 0.1l-0.1 0.4c-0.1 0.2-0.1 0.4 0.1 0.5l0.1 0.2q-0.1 0-0.2 0-0.6-0.1-1.1-0.3c-0.4-0.1-0.7-0.2-1.1-0.2q-0.4 0-0.7 0.1-0.3 0.2-0.7 0.5c-0.4 0.3-0.7 0.5-1.1 0.5q-0.7-0.1-1.3-0.3-1.3-0.5-2.8-0.6-0.7 0-1.3 0.2-0.3 0.1-0.5 0.3 0 0 0 0.1-0.1 0-0.2 0-0.2 0-0.4-0.1-0.5-0.2-1.1-0.2-0.2 0-0.4 0-0.1-0.1-0.2-0.1h-0.6c-1.4 0-2.7 0.6-3.6 1.7-0.2 0.4-0.7 0.6-1.2 0.5q-0.8 0-1.5-0.1-0.6 0-1.1-0.1-0.3 0.1-0.6 0.2-0.1 0-0.1 0c-0.3 0.2-0.6 0.2-0.9 0.2-0.3 0-0.5 0-0.7 0.2q-1.1 0.5-1.9 1.3-0.3 0.2-0.5 0.4-0.1 0-0.2 0zm145.4-109.7c-0.1-2.8-0.7-5.6-1.8-8.1l-0.2-0.5-0.4 0.2-0.2-0.3v-0.1c0-0.1 0.1-0.2 0.1-0.3q-0.1-0.3-0.2-0.6c-0.1 0-0.2-0.4-0.4-0.7l-0.3-0.6-0.1-0.2q0.1-0.1 0.1-0.3-0.1-0.5-0.4-0.8c-0.2-0.2-0.5-0.3-0.7-0.3q-0.4 0-0.6 0.3-0.1 0.2-0.2 0.5v0.3q-0.2 0.5-0.6 0.9-0.4 0.4-0.9 0.5h-0.2l-0.7 0.4 0.7 0.4c0.3 0.1 0.5 0.5 0.4 0.8q0 1-0.4 1.9-0.1 0.7-0.5 1.3c-0.2 0.2-0.2 0.4-1 0.4h-0.3c0-0.4-0.2-0.8-0.5-1l-0.3-0.3-0.3 0.3c-0.2 0.1-0.4 0.5-0.4 0.8q0 0.3 0.3 0.6 0.3 0.3 0.7 0.3l0.1-0.4 0.4 0.2c-0.2 0.1-0.3 0.2-0.5 0.3q-0.2 0.3-0.4 0.7c-0.1-0.1-0.2-0.3-0.2-0.3q-0.2-0.3-0.5-0.5-0.3-0.2-0.6-0.3c-0.3 0-0.5 0.2-0.6 0.4q-0.2 0.3-0.2 0.7v0.3q0.1 0.9 0.5 1.6v0.3q0 0.3-0.1 0.5h-0.3c0 0.1-0.3 0.2-0.6 0.3-0.4 0.2-0.6 0.6-0.7 1q0.1 0.4 0.2 0.8 0.1 0.2 0.3 0.3l-0.2 0.1q-0.4 0.3-0.5 0.8v-0.4l-0.1-0.4-0.4 0.1c-0.4 0.1-0.7 0.3-0.8 0.7-0.1 0.2-0.1 0.4-0.3 0.6l-0.5 0.5c-0.4 0.3-0.6 0.6-0.7 1v0.3q-0.2-0.1-0.4-0.1h-0.1c-0.5 0.1-0.8 0.3-1.1 0.6q-0.4 0.4-0.8 0.6c0 0.1-0.4 0.3-0.7 0.5-0.3 0.2-0.6 0.6-0.5 1v0.3c-0.2-0.2-0.4-0.3-0.7-0.3-0.3 0-0.6 0.2-0.7 0.4q-0.4-0.1-0.8 0-0.4-0.1-0.7 0c-0.3 0.2-0.5 0.5-0.5 0.9h-0.2q-0.5 0-0.8 0.3l-0.1 0.1c-0.1-0.1-0.2-0.2-0.2-0.2l-0.3-0.3-0.2 0.2c-0.7 0.4-1.1 1.1-1.5 1.2h-0.3c-0.3 0-0.6-0.1-1-0.1-0.3-0.1-0.7 0-0.9 0.2q-0.2 0.3-0.2 0.7v0.6l-0.4-0.3 0.3 1.2v0.2q-0.1 0.9-0.6 1.7c-0.2 0.3-0.8 0.9-1.1 1.5-0.5 0.6-0.8 1.3-0.8 2q0 0.5 0.1 0.8 0.2 0.5 0.2 1c0 0.5-0.1 1.2-0.1 1.8v0.3c0.1 1.2 0.9 2.1 0.9 3v0.5c-0.1 0.8 0.1 1.5 0.5 2.1q0.2 0.4 0.3 0.8-0.1 0.6-0.4 1.2c0 0-0.1 0.1-0.1 0.3q0.1 0.4 0.3 0.8 0.1 0.1 0.1 0.2 0 0.1-0.1 0.2c-0.4 0.7-0.9 1.5-1.4 2.2q-0.8 1.2-1.4 2.6-0.2 0.6-0.3 1.2c-0.1 0.4-0.2 0.6-0.5 0.7q-0.6 0.2-1.2 0.5c-0.2 0.4-0.4 0.9-0.4 1.4 0 0.7-0.9 1.7-1.2 2.8l0.4 0.1-0.4 0.1q0.1 0.5 0.1 1v1.5c-0.1 0.9 0.2 1.7 0.7 2.4q0.6 0.9 0.7 2 0.2 0.3 0.4 0.6l0.1 0.2c0 0 0 0.1-0.2 0.3-0.4 0.7-0.6 1.5-0.5 2.3q-0.1 1.1 0.3 2.3 0.7 1 1 2.2c0.3 0.8 0.8 1.5 1.4 2 0 0.1 0.1 0.1 0.1 0.2q0.3 0.5 0.8 0.7 0.7 0.1 1.3 0.2 0.7 0.2 1.1 0.7c0.4 0.4 0.9 0.7 1.5 0.8q0.2 0 0.4 0.1c1-0.1 1.9-0.5 2.6-1.1q1-0.8 2.2-1.3h0.3c0.2 0 0.5 0.1 0.9 0.1q0.3 0 0.5-0.1 0.6-0.3 1.2-0.4c0.9-0.2 1.3-1.1 1.6-1.7q0.5-1 0.7-2.2c0.3-0.9 0.8-1.7 1.2-2.8 0.5-1.8 1.2-3.6 1.7-5.5 0.8-2.6 1.8-4.9 2.7-7.6 0.7-2.1 1.2-4.2 2.1-6.2q0.5-0.9 0.6-1.9v-0.3l0.1-0.2q0.3-0.6 0.6-1.4c0.5-1.4 0.8-2.9 1.3-4.3q1.4-2.9 2.1-6 0.1-0.4 0.1-0.8c0-0.6-0.1-1.3-0.1-1.9-0.1-0.8 0.3-1.6 1-2l0.3-0.3c0 0.1-0.1 0.3-0.1 0.4q0 0.2 0.1 0.4l0.3 0.6 0.4-0.6c0.3-0.5 0.4-1.1 0.7-1.5h-0.1l0.1-0.1h0.1v-0.3l-0.8-0.2c0 0.1-0.1 0.3-0.2 0.4q0.2-0.6 0.3-1.2v-1.5c0-0.3-0.2-0.6-0.4-0.8-0.2-0.1-0.2-0.1-0.2-0.2 0-0.3-0.1-1-0.1-1.7q0-0.5 0.1-1 0-0.1 0.1-0.2c0.2 0.1 0.4 0.5 0.5 1.1 0.2 0.5 0.3 1.3 1 1.5 0.1 0 0.2 0.1 0.3 0.1 0.4 0 0.7-0.2 0.9-0.5q0.9-1.3 1.1-2.9v-0.3c0-0.9-0.5-1.4-0.7-1.9q-0.4-1.8-0.3-3.7z"/>
	<path id="Text" d="m68.9 539h-9.4l10.6-56.2h10.4l10.7 56.2h-9.8l-1.8-11.1h-8.9zm6.2-38.4l-3 18.5h6zm42.8 39h-9.8v-5.8q-7.5-1.2-12.2-7.2-4.7-6-4.7-15.6v-0.4q0-9.7 4.6-15.6 4.7-6 12.3-7.2v-5.5h9.8v5.5q7.6 1.2 12.2 7.2 4.7 5.9 4.7 15.6v0.4q0 9.6-4.7 15.6-4.7 6-12.2 7.2zm7.2-28.4v-0.8q0-11.9-7.5-14.1v29.2q7.5-2.1 7.5-14.3zm-24.2-0.8v0.8q0 11.8 7.5 14.3v-29.3q-7.5 2.1-7.5 14.2zm48.2 28.6h-9.8v-56h8.7q8.4 0 13.2 4.7 4.9 4.7 4.9 14.2v0.1q0 9.2-4.6 14-4.6 4.9-12.3 5.4h-0.1zm0-47v20.4h0.1q3.2-0.2 5.2-2.7 2-2.5 2-7.3v-0.2q0-10.2-7-10.2zm49.5-9v56h-9.4v-31.5l-9.9 31.5h-9.2v-56h9.5v30.2l9.3-30.2zm15.6 56h-9.8v-56h9.8v23.4h1.3l6.7-23.4h10.7l-8.7 26.8 8.7 28.2 10.5-55.2h10.4l10.6 56.2h-9.8l-1.8-11.1h-8.9l-1.7 11.1h-19.6l-7.1-23.7h-1.3zm34.2-38.4l-3 18.5h6zm28.7 38.4h-9.8v-56h9.8v23.2h8.5v-23.2h9.7v56h-9.7v-23.5h-8.5zm38.8 0.4q-7.1 0-11.5-6.7-4.3-6.8-4.3-20.8v-1.9q0-14 4.5-20.7 4.6-6.7 11.9-6.7 3.5 0 6.4 1.3v10q-3-1.8-5.4-1.8-3.5 0-5.5 4-2 4-2 13.8v2.1q0 10.3 2 14.1 1.9 3.8 5.6 3.8 2.5 0 5.5-1.8v9.6q-3 1.7-7.2 1.7zm21.8-0.4h-9.7v-56h9.7v23.3h1.4l6.6-23.3h10.7l-8.6 26.8 8.7 28.2 10.4-55.2h10.4l10.5 55.3 7.8-21.5q-6.8-5-6.8-15v-0.6q0-8.3 4.5-13.1 4.6-4.9 13.6-4.9h9.3v56h-9.8v-19.5h-1.6l-6.8 19.5h-19.8l-1.8-11.1h-8.9l-1.8 11.1h-19.5l-7.1-23.7h-1.4zm34.3-38.4l-3.1 18.5h6zm34.5 10.1v-18.6h-0.2q-7.6 0-7.6 8.9v0.6q0 9.1 7.3 9.1zm43 28.7q-7.1 0-11.5-6.7-4.3-6.8-4.3-20.8v-1.9q0-14 4.5-20.7 4.6-6.7 11.9-6.7 3.5 0 6.4 1.3v10q-3-1.8-5.4-1.8-3.5 0-5.5 4-2 4-2 13.8v2.1q0 10.3 2 14.1 1.9 3.8 5.6 3.8 2.5 0 5.5-1.8v9.6q-3 1.7-7.2 1.7zm20.8-0.4h-8.7v-56h8.3q9.8 0 14.5 4.7 3.7 3.7 3.7 9.5v0.4q0 8.8-8.1 12.7 4.2 1.9 6.5 4.8 2.3 2.8 2.3 7.6v0.8q0 7.2-5.1 11.4-5.1 4.1-13.4 4.1zm8.2-39.9v-0.1q0-7-7.2-7h-0.1v14.5h0.1q3.4 0 5.3-1.8 1.9-2 1.9-5.6zm0.6 23.6v-0.4q0-3.5-2.2-5.4-2.1-1.9-5.5-1.9h-0.2v14.9h0.2q3.4 0 5.5-1.9 2.2-1.9 2.2-5.3zm42.3-39.7v56h-9.4v-31.5l-9.9 31.5h-9.2v-56h9.5v30.1l9.3-30.1zm20.7 56h-9.7v-46.7h-6.9v-9.3h23.5v9.3h-6.9zm34.2-6.2q-4 7-10.9 7-6.9 0-10.9-7-4-7-4-20.4v-2.9q0-13.4 4-20.4 4-6.9 10.9-6.9 6.9 0 10.9 6.9 4 7 4 20.4v2.9q0 13.4-4 20.4zm-13.5-3.5q1 1.5 2.6 1.5 1.6 0 2.7-1.5 1-1.5 1.6-5.7 0.7-4.2 0.7-11.2v-2.9q0-6.9-0.7-11.1-0.6-4.2-1.6-5.8-1.1-1.5-2.7-1.5-1.6 0-2.6 1.5-1.1 1.6-1.7 5.8-0.6 4.2-0.6 11.1v2.9q0 7 0.6 11.2 0.6 4.2 1.7 5.7zm66.9 9.7h-44.6v-56h9.8v46.7h7.6v-46.7h9.8v46.7h7.6v-46.7h9.8zm34.2-56v56h-9.4v-31.6l-9.9 31.6h-9.2v-56h9.5v30.1l9.3-30.1zm15.5 56h-9.7v-56h9.7v23.2h8.5v-23.2h9.8v56h-9.8v-23.6h-8.5zm38.8 0.4q-7.1 0-11.4-6.7-4.3-6.8-4.3-20.7v-1.9q0-14 4.5-20.7 4.5-6.8 11.9-6.8 3.5 0 6.4 1.3v10.1q-3.1-1.8-5.5-1.8-3.5 0-5.5 4-1.9 4-1.9 13.8v2.1q0 10.3 1.9 14.1 1.9 3.7 5.7 3.7 2.5 0 5.4-1.7v9.6q-2.9 1.6-7.2 1.6zm21.9-0.4h-9.8v-56h9.8v23.4h1.3l6.7-23.4h10.7l-8.6 26.8 8.6 28.3 10.5-55.2h10.4l10.5 55.3 7.7-21.6q-6.8-4.9-6.7-14.9v-0.7q0-8.2 4.5-13.1 4.5-4.9 13.6-4.9h9.3v56h-9.8v-19.5h-1.7l-6.8 19.5h-19.7l-1.9-11.1h-8.9l-1.7 11.1h-19.5l-7.2-23.6h-1.3zm34.2-38.4l-3 18.4h6zm34.5 10.1v-18.5h-0.3q-7.6 0-7.6 8.8v0.7q0 9 7.4 9zm37.9 28.3h-9.8v-56h8.8q8.3 0 13.2 4.8 4.8 4.6 4.8 14.1v0.2q0 9.1-4.6 14-4.6 4.9-12.3 5.3h-0.1zm0-46.9v20.3h0.1q3.3-0.2 5.2-2.6 2-2.5 2-7.4v-0.2q0-10.1-7-10.1zm42.7 46.9h-21.6v-56h21.4v9.3h-11.7v13.9h10.3v9.3h-10.3v14.3h11.9zm18.8 0.4q-7.2 0-11.5-6.8-4.3-6.8-4.3-20.7v-1.9q0-14 4.5-20.7 4.5-6.7 11.9-6.7 3.5 0 6.4 1.2v10.1q-3-1.8-5.4-1.8-3.6 0-5.6 4-1.9 4-1.9 13.8v2.1q0 10.3 1.9 14.1 2 3.7 5.7 3.7 2.5 0 5.5-1.7v9.6q-3 1.7-7.2 1.7zm21.8-0.4h-9.8v-56h28v56h-9.7v-46.8h-8.5zm52.2-56l-14.8 56h-9.7l4.1-16.1-10.5-39.9h9.9l5.7 24.8 5.5-24.8zm10.3 56h-7.4v-56h24v9.3h-14.3v11.7q8 0.3 12.5 4.6 4.6 4.1 4.6 12.5v0.2q0 8.6-5.1 13.2-5 4.5-14.3 4.5zm2.3-26.1v17.1h0.1q3.3-0.2 5.2-2.2 2-2.1 2-6.2v-0.2q0-8.5-6.9-8.5zm28.2-30h10.1l10.2 56.1h-9.9l-5.5-35.9-5.5 35.9h-9.6zm51.7 0.2v56h-9.4v-31.5l-9.9 31.5h-9.2v-56h9.5v30.2l9.3-30.2zm15.6 56h-9.8v-56h9.8v23.4h1.3l6.7-23.4h10.7l-8.7 26.8 8.7 28.2 10.5-55.2h10.4l10.6 56.2h-9.8l-1.8-11.1h-8.9l-1.7 11.1h-19.6l-7.1-23.7h-1.3zm34.2-38.4l-3 18.5h6z"/>
</g>
</svg>