<!-- painting by www.photopea.com 26/01/2023 -->
<svg xmlns="http://www.w3.org/2000/svg" width="1200" height="600">
	<title>Svito West</title>
  <rect width="1200" height="600" style="fill:rgb(0,0,147)"/>
<g id="Icon" style="fill:rgb(213,255,255)">
	<path id="Text2" d="m203.7 532.4q-15.5 0-26.4-10.6-10.8-10.7-10.8-26.6v-0.2q0-15.9 10.8-26.7 10.9-10.8 27.1-10.8 19.9 0 30.6 14.9l-15 11.6q-6.9-8.4-15.8-8.4-7.4 0-12.3 5.5-4.9 5.6-4.9 13.6v0.3q0 8.2 4.9 13.8 4.8 5.4 12.3 5.4 5.3 0 8.9-2.2 3.7-2.1 7.4-6.5l15 10.7q-5.7 7.8-13.3 12-7.4 4.2-18.5 4.2zm108.6-1.4h-37.2v-72.1h37q13 0 19.6 6.4 4.7 4.8 4.7 11.7v0.2q0 11.4-11.2 16.1 7.1 2.3 10.7 6.5 3.7 4.1 3.7 11.1v0.2q0 9.4-7.2 14.6-7.2 5.3-20.1 5.3zm4.4-49.6v-0.3q0-6.1-9.1-6.1h-13v12.6h12.5q9.6 0 9.6-6.2zm2.9 26.9v-0.2q0-6.5-9.8-6.5h-15.2v13.3h15.4q9.6 0 9.6-6.6zm128.1-49.4v72.1h-20v-41.1l-30.7 41.1h-17.4v-72.1h20v39.6l29.7-39.6zm81.2 72.1h-19.9v-54.6h-21.6v-17.5h63.2v17.5h-21.7zm59-35.8v-0.2q0-15.7 11.1-26.6 11.2-10.9 27.8-10.9 16.6 0 27.6 10.9 11.1 10.8 11.1 26.4v0.2q0 15.6-11.2 26.5-11.1 11-27.7 11-16.6 0-27.7-10.9-11-10.9-11-26.4zm57.1 0v-0.2q0-8.1-5.2-13.7-5.2-5.8-13.2-5.8-8 0-13.2 5.7-5.1 5.5-5.1 13.6v0.2q0 7.9 5.2 13.7 5.3 5.7 13.3 5.7 8 0 13.1-5.5 5.1-5.7 5.1-13.7zm165 35.8h-103.3v-72.1h20v54.4h21.7v-54.4h20v54.4h21.6v-54.4h20zm111.8-72.1v72.1h-20v-41.1l-30.7 41.1h-17.4v-72.1h20v39.6l29.6-39.6zm63.7 72.1h-20v-72.1h20v27h25.7v-27h19.9v72.1h-19.9v-27.4h-25.7z"/>
	<path id="83837" fill-rule="evenodd" class="s1" d="m176.1 58.1l-24.2 18.5 8.6 28.7-24.2-18.1-25 18.1 9.5-28.7-25-18.5h31.1l9.4-29.1 8.7 29.1zm-66.1 4.5l15.6 11.9-5.7 18.5 16.4-11.9 15.6 11.9-5.8-18.5 15.6-11.9h-19.7l-5.7-19.2-6.6 19.2zm34.9 174.7q-10.3 10.2-18.1 18-7.3 7.8-13.5 14.4-5.7 6.1-10.7 11.9-4.5 5.3-9 11-5.7 6.6-10.2 11.9-4.1 4.9-6.2 8.6-1.6 2.1-2 2.5 0 0.4-0.8 0.4h-2.1q-2.9-1.6-7-5.7-3.7-4.1-4.5-7v-0.8l0.8-1.3q2.1-3.6 5-7.3 3.2-3.7 6.5-8.2 2.5-2.9 4.9-5.4 2.5-2.8 6.2-6.5 4.1-4.1 10.2-10.3 6.6-6.1 16.9-16.4 12.7-12.7 20.9-21.3l7.9-8.6-33.8-35.3-19.2 19.7-21.4-21.3 42.7-41.8 37.7 4.9-27.1 27.1 34.4 32.4q1-1.4 2.1-2.5 3.7-4.5 7.8-9.5 5.4-5.7 8.6-10.6 3.7-4.9 8.2-13.9 5-8.7 7.4-12.3 2.9-3.7 4.9-5.8l2.1-2q-0.4-0.4-1.2-0.9-0.5-0.4-0.9-0.4-0.4-0.4-0.8-0.8-1.6-0.8-3.7-2.4-1.6-1.7-3.3-3.3-0.8-0.8-1.2-0.8-0.4-0.5-1.2-1.3l-1.2-0.8q6.9-7.8 12.3-14.3 4.5-5.4 8.2-9.5 4.1-4.5 4.5-4.5 1.6 1.2 3.2 2.9 1.7 1.2 3.3 2.9l4.1 4.1q7 6.9 16.4 14.3 9.5 7.4 16.8 12.7 0.9 0.8 2.5 2.1 1.6 1.2 2.5 2 2 1.2 3.6 2.5 1.7 1.2 2.9 1.2 0 1.2 4.1 2.9 0.4 0.4 1.2 0.8 0.5 0.4 0.9 0.4 0.4 0.4 1.2 0.8 1.6 1.3 2.5 2.1 0.4 0.4 0.8 0.4 0.4 0 0.8 0.4h1.2q0 0.8-0.8 2.9-0.8 2-2.5 5.3-1.2 3.3-5.7 10.7-4.5 6.9-23 18.8-7.7-7.8-10.6-13.5l-11.1-13.1-7.4-7.4q-0.4 0.4-0.4 0.8-0.8 0.8-1.6 1.2-3.3 4.1-9 11.1-5.4 6.6-12.3 13.9-6.6 7.4-13.6 15.2-4.8 5.3-9.3 9.8l49.9 47.2q3.3 3.3 3.3 8.2 0 4.9-3.3 8.2-3.3 3.7-8.6 3.7-4.9 0-8.6-3.7l-47-49.1q-5.5 5.4-7.5 7.3z"/>
	<path id="Text1" d="m63 429h-25.6v-49.7h25.5q9 0 13.5 4.4 3.2 3.3 3.2 8.1v0.1q0 7.8-7.6 11.1 4.8 1.6 7.3 4.5 2.5 2.8 2.5 7.7v0.1q0 6.5-4.9 10.1-4.9 3.6-13.9 3.6zm3.1-34.2v-0.2q0-4.2-6.3-4.2h-9v8.7h8.7q6.6 0 6.6-4.3zm2 18.6v-0.2q0-4.4-6.8-4.4h-10.5v9.1h10.7q6.6 0 6.6-4.5zm60.4 15.6h-40.3v-49.7h39.9v11.6h-26.3v7.6h23.8v10.9h-23.8v7.9h26.7zm30.7 1q-10.7 0-18.1-7.3-7.5-7.4-7.5-18.4v-0.2q0-10.9 7.5-18.4 7.4-7.4 18.6-7.4 13.7 0 21.1 10.3l-10.4 8q-4.7-5.8-10.8-5.8-5.1 0-8.5 3.8-3.4 3.9-3.4 9.4v0.1q0 5.7 3.4 9.5 3.3 3.8 8.5 3.8 3.6 0 6.1-1.5 2.5-1.5 5.1-4.5l10.4 7.4q-4 5.4-9.2 8.3-5.1 2.9-12.8 2.9zm53.8-1h-13.7v-37.6h-14.9v-12.1h43.6v12.1h-15zm50.4-19.9l-20.8 0.1v-10.5l20.7 0.2q-1.2-4.1-4.4-6.3-3.1-2.3-7.7-2.3-6.8 0-13.6 5.1l-6.9-10q8.8-7.1 21-7.1 11.7 0 18.6 7.2 7.1 7.2 7.1 18.4v0.2q0 11-7.3 18.5-7.1 7.3-19 7.3-12.1 0-20.7-7.3l7.1-9.9q6.6 5.1 13.4 5.1 4.7 0 7.9-2.3 3.4-2.3 4.6-6.4zm34.9 19.9h-13.8v-49.7h21.4q9.5 0 15 4.6 5.6 4.6 5.6 12.8v0.1q0 8.6-5.9 13.3-5.9 4.7-15.4 4.7h-6.9zm0-38.2v13.2h6.6q3.6 0 5.8-1.8 2.1-1.8 2.1-4.8v-0.1q0-3.1-2.1-4.8-2.1-1.7-5.8-1.7zm47.7 38.2h-13.7v-49.7h13.7v18.6h17.7v-18.6h13.8v49.7h-13.8v-18.9h-17.7zm50.8 0h-14.4l21.1-50.1h13.3l21.1 50.1h-14.8l-3.5-9h-19.2zm13.2-33.7l-5.7 14.1h11.2zm67.8 33.7h-13.8v-49.7h21.4q9.4 0 15 4.6 5.6 4.6 5.6 12.8v0.1q0 8.6-5.9 13.3-5.9 4.7-15.4 4.7h-6.9zm0-38.1v13.1h6.6q3.6 0 5.8-1.8 2.1-1.8 2.1-4.7v-0.2q0-3.1-2.1-4.7-2.1-1.7-5.9-1.7zm46.8 13.3l-19.1-24.9h16.4l13.8 18.8h1.7l-0.2-18.8h13.7l-0.2 18.8h1.6l14.3-18.8h16l-19.4 24.2 20.6 25.5h-16.4l-14.9-19.2h-1.8l0.2 19.2h-13.7l0.2-19.2h-2.1l-14.9 19.2h-16.2zm92.9 4.9l-20.8 0.1v-10.5l20.7 0.2q-1.2-4.1-4.4-6.3-3.1-2.3-7.6-2.3-6.9 0-13.7 5.1l-6.8-10q8.7-7.1 21-7.1 11.6 0 18.6 7.2 7 7.3 7 18.4v0.2q0 11-7.2 18.5-7.2 7.4-19.1 7.4-12.1 0-20.7-7.4l7.2-9.9q6.5 5.1 13.3 5.1 4.7 0 8-2.3 3.3-2.3 4.5-6.4zm63.1 19.9h-13.7v-15q-5.7 1-10 1-9.7 0-14.8-4.6-5-4.8-5-13.7v-17.4h13.8v15.5q0 4.1 1.9 5.9 1.9 1.8 6.2 1.8 4.4 0 7.9-0.9v-22.3h13.7zm-8.1-53.1h-11.7v-9.8h11.7zm-15.7 0h-11.7v-9.8h11.7zm46.4 53.1h-13.8v-49.7h45v49.7h-13.8v-37.5h-17.4zm38.3-24.7v-0.2q0-10.8 7.7-18.3 7.8-7.5 19.2-7.5 11.4 0 19 7.5 7.7 7.5 7.7 18.2v0.1q0 10.8-7.8 18.3-7.6 7.6-19.1 7.6-11.4 0-19.1-7.5-7.6-7.5-7.6-18.2zm39.5 0v-0.2q0-5.5-3.7-9.4-3.5-4-9.1-4-5.5 0-9 3.9-3.6 3.8-3.6 9.4v0.1q0 5.5 3.6 9.5 3.6 3.9 9.2 3.9 5.5 0 9-3.8 3.6-3.9 3.6-9.4zm45.2 25.7q-10.7 0-18.2-7.3-7.4-7.4-7.4-18.4v-0.2q0-10.9 7.4-18.4 7.5-7.4 18.7-7.4 13.7 0 21.1 10.3l-10.4 8q-4.8-5.8-10.9-5.8-5.1 0-8.5 3.8-3.3 3.8-3.3 9.4v0.1q0 5.7 3.3 9.5 3.4 3.8 8.5 3.8 3.7 0 6.1-1.5 2.6-1.5 5.2-4.5l10.3 7.4q-4 5.3-9.1 8.3-5.2 2.9-12.8 2.9zm41.7-1h-13.8v-49.7h44.9v49.7h-13.7v-37.5h-17.4zm38.3-24.7v-0.2q0-10.8 7.7-18.3 7.7-7.5 19.1-7.5 11.5 0 19.1 7.5 7.6 7.5 7.6 18.2v0.1q0 10.8-7.7 18.4-7.7 7.5-19.1 7.5-11.4 0-19.1-7.5-7.6-7.5-7.6-18.2zm39.4 0v-0.2q0-5.5-3.6-9.4-3.6-4-9.1-4-5.5 0-9.1 3.9-3.5 3.9-3.5 9.4v0.1q0 5.5 3.6 9.5 3.6 4 9.1 4 5.6 0 9.1-3.9 3.5-3.9 3.5-9.4zm34.9-25.4h12.6l20.8 50.1h-15.3l-12-31-12 31h-14.9zm85.2 0.3v49.7h-13.7v-28.3l-21.2 28.3h-12v-49.7h13.8v27.3l20.4-27.3zm34.7 49.7h-13.7v-37.6h-14.9v-12.1h43.6v12.1h-15zm25.1 0h-14.4l21.1-50h13.3l21.1 50h-14.8l-3.5-8.9h-19.2zm13.2-33.8l-5.6 14.1h11.1z"/>
</g>
</svg>