<svg version="1.2" xmlns="http://www.w3.org/2000/svg" viewBox="0 0 1200 600" width="1200" height="600">
	<title>Derega2</title>
	<style>
		.s0 { fill: #04a436 } 
		.s1 { fill: #e9fff4 } 
	</style>
	<path id="Layer" class="s0" d="m0 0h1200v600h-1200z"/>
	<g id="Derega">
		<path id="Sovet" fill-rule="evenodd" class="s1" d="m179.8 56.6l-24.4 16.4 9.6 27.6-24-16.4-23.6 16.4 9.6-27.6-24.4-16.4h29.6l8.8-27.6 9.2 27.6zm-63.2 4.4l15.6 11.2-6 17.2 14.8-11.2 15.6 11.2-6.4-17.2 15.6-11.2h-18.8l-6-18.4-5.2 18.4zm24.4 174.8q-4 3.2-7.2 6.4-2.8 3.2-4.4 4-2 2-2.4 2.4 0 0.4 0 1.2 1.6 0.4 2.8 0.8 1.2 0.8 2.4 1.2 1.6 0 2.4 0.8 5.6 2.4 13.2 2.4 6 1.2 6 2.4v0.4q0 1.6-7.6 5.2-5.2 2.4-7.2 2.4-1.2 0-2.4-0.4-0.8-0.8-5.2-2-4.4-2.8-6.8-3.6-2.4-0.8-3.6-1.6-0.4-0.8-0.8-0.8 0-0.4-0.4-0.4h-1.2q-0.4 0-0.8 0.4 0 0-0.4 0.8-0.4 1.2-1.2 2.4-0.4 0.8-2 2.4-1.2 1.2-4 3.6-2.4 2.4-6.8 6.8-5.6 6.8-8 9.2l-4.8 4.8q-4.4 5.2-6.8 8.8-2 3.2-2.8 5.2-0.8 0.8-0.8 2.4 0 1.6-0.4 2 0 0.4-1.2 1.6-2.4 2-4.8 2-1.2 0-2.4-0.4-4-1.2-8.4-5.2-4.4-4-6.4-8.4-1.2-2-1.6-3.6 0-1.6 0-2 0-1.6 0.8-2.4 1.2-3.6 5.2-3.6h2q2.4-1.2 9.2-6 4.8-4 9.2-8 4.8-4 12.8-11.6 6.4-7.2 8-8.8 2-2 4.8-3.6h0.8q-0.8-0.8-0.8-1.2 0-0.4-0.8-1.2-0.8-1.6-1.6-3.2-0.8-2-2.8-7.2-2-4-2.4-5.2 0-1.2 0-2.8 0-1.2 0.8-4 1.2-3.2 2.4-6.4 2.4-4.4 3.6-4.4 1.2 0 1.6 2 0.4 0.8 0.4 1.6 0.4 0.8 0.4 2.8 0.8 4 1.2 7.6 0.8 3.6 1.6 6 0.8 2.8 1.6 5.2 1.2 2 2 2v0.4q0.4-0.8 1.6-2.4l14.8-14.8q6.8-7.2 11.2-12l2.2-2.3-29-30.5-19.2 18.8-20-20.8 40-38.8 35.6 4.4-25.2 25.2 30.1 28.7 2.7-2.7q6-8 10.8-13.2 4.8-5.2 9.2-9.6 5.2-5.2 11.2-10 6-5.2 18.4-15.2 3.2-2.4 7.2-5.6 4.4-3.2 8.4-6 4-3.2 7.2-5.6 3.6-2.4 4.8-3.6 1.6-0.8 3.6-2 2.4-1.6 4.8-3.2l5.2-3.2h0.4q0 0.8-2.4 5.2-2.4 4-4 6.8-2 2.8-6 8.4-4 5.2-12 15.2-3.2 4.4-6 8-2.4 3.2-4.8 6.4-2.4 3.2-5.2 6.4-2.4 2.8-5.6 6.8-2.8 2.8-8.4 8.4-5.6 5.2-8.8 8-3.2 3.2-6.8 6-3.2 2.8-6.4 6-1.2 1.2-2.7 2.3l45.9 43.7q3.2 3.2 3.2 8 0 4.4-3.2 7.6-3.2 3.2-8 3.2-4.4 0-7.6-3.2l-44.3-46.5q-10.4 9.6-16.9 16.1z"/>
		<path id="В С Ё   Б У Д Е Т" fill-rule="evenodd" class="s1" d="m249 421h-33.2v-64.4h33q11.7 0 17.6 5.7 4.1 4.3 4.1 10.5v0.2q0 10.1-9.9 14.3 6.3 2.1 9.5 5.8 3.3 3.7 3.3 10v0.1q0 8.4-6.4 13.1-6.4 4.7-18 4.7zm4-44.3v-0.2q0-5.5-8.1-5.5h-11.7v11.3h11.2q8.6 0 8.6-5.6zm2.6 24.1v-0.2q0-5.8-8.8-5.8h-13.6v11.8h13.8q8.6 0 8.6-5.8zm84.7 21.5q-13.9 0-23.6-9.5-9.6-9.6-9.6-23.8v-0.2q0-14.2 9.6-23.8 9.7-9.7 24.2-9.7 17.8 0 27.4 13.4l-13.5 10.3q-6.1-7.5-14.1-7.5-6.6 0-11 5-4.3 4.9-4.3 12.1v0.2q0 7.4 4.3 12.3 4.3 4.9 11 4.9 4.7 0 8-1.9 3.3-2 6.6-5.9l13.4 9.6q-5.1 6.9-11.9 10.7-6.6 3.8-16.5 3.8zm107.5-70.1h-15.1v-12.7h15.1zm-20.3 0h-15.2v-12.7h15.2zm28.8 68.8h-52.3v-64.4h51.8v15.1h-34.1v9.8h30.9v14.1h-30.9v10.2h34.6zm122.9 0h-30.9v-64.4h50.9v14.9h-33.5v9.5h14.7q11.7 0 17.9 5 6.1 4.9 6.1 14.1v0.2q0 9.7-6.4 15.2-6.4 5.5-18.8 5.5zm-13.5-26.3v12.1h12.7q3.9 0 6.1-1.6 2.2-1.7 2.2-4.5v-0.2q0-5.8-8.5-5.8zm137.7-38.1l-35.6 64.4h-19.9l12.3-21.7-24.9-42.7h20.4l14.3 26 13.5-26zm29.5 78.3v-29.7h7.9l21.1-49h19.6l20.9 49h8v29.7h-16.5v-13.9h-44.5v13.9zm50.9-29.1l-12.4-31.4-12.4 31.4zm114.2 15.2h-52.3v-64.4h51.8v15.1h-34.1v9.9h30.9v14h-30.9v10.2h34.6zm70.3 0h-17.8v-48.7h-19.2v-15.7h56.4v15.7h-19.4z"/>
		<path id="Д Е Р Е Г О Ж И Н !" fill-rule="evenodd" class="s1" d="m61.3 548.3v-34.9h9.3l24.7-57.5h23l24.6 57.5h9.4v34.9h-19.4v-16.3h-52.3v16.3zm59.9-34.1l-14.6-37-14.6 37zm134 17.8h-61.3v-75.6h60.8v17.7h-40.1v11.6h36.3v16.5h-36.3v12h40.6zm64.2 0h-21v-75.6h32.5q14.4 0 22.8 7 8.6 7 8.6 19.4v0.3q0 13-9 20.2-9 7.1-23.4 7.1h-10.5zm0-58v20h10q5.5 0 8.8-2.7 3.2-2.7 3.2-7.3v-0.2q0-4.7-3.2-7.2-3.2-2.6-8.9-2.6zm145.5 58h-61.4v-75.6h60.9v17.7h-40.1v11.5h36.3v16.6h-36.3v12h40.6zm64.1 0h-20.9v-75.6h57.6v18.1h-36.7zm75.6-37.6v-0.2q0-16.4 11.7-27.9 11.8-11.4 29.2-11.4 17.4 0 28.9 11.4 11.7 11.4 11.7 27.7v0.2q0 16.4-11.8 27.9-11.7 11.4-29 11.4-17.4 0-29.1-11.3-11.6-11.5-11.6-27.8zm60 0v-0.2q0-8.4-5.5-14.4-5.4-6-13.8-6-8.5 0-13.9 5.9-5.4 5.9-5.4 14.3v0.2q0 8.3 5.5 14.4 5.5 6 14 6 8.4 0 13.7-5.8 5.4-6 5.4-14.4zm88.2-0.1l-29.1-37.9h24.9l21.1 28.6h2.6l-0.4-28.6h20.9l-0.3 28.6h2.4l21.7-28.6h24.5l-29.5 36.8 31.2 38.8h-25l-22.6-29.2h-2.7l0.3 29.2h-20.9l0.4-29.2h-3.2l-22.8 29.2h-24.5zm199.8-37.9v75.6h-20.9v-43.1l-32.2 43.1h-18.3v-75.6h21v41.5l31.1-41.5zm66.7 75.6h-20.9v-75.6h20.9v28.3h26.9v-28.3h21v75.6h-21v-28.7h-26.9zm109.9-24.7h-10.7l-6.4-41.8v-9.1h23.3v9.1zm5.3 24.7h-21.2v-18.4h21.2z"/>
	</g>
</svg>