<!-- painting by www.photopea.com 26/01/2023 -->
<svg xmlns="http://www.w3.org/2000/svg" width="1200" height="600">
	<title>Derega</title>
    <rect width="1200" height="600" style="fill:rgb(4, 164, 54)"/>
<g id="Derega" style='fill:rgb(233,255,244)'>
<path id="Text2" d="m48.7 552.6v-40h11.3l23.9-55.2h29.1l24 55.2h11.2v40h-23.7v-17.6h-52.1v17.6zm61.5-39.2l-12-31.1-12.1 31.1zm143.2 21.6h-66.2v-77h65.7v21.1h-40.4v7.8h37.6v18.6h-37.6v8.4h40.9zm65.7 0h-25.8v-77h34.7q15.8 0 25.1 7 9.3 7.1 9.3 20.4v0.2q0 13.6-9.6 21.1-9.4 7.4-25.4 7.4h-8.3zm0-56.5v17.2h6.9q5.1 0 8-2.2 3-2.2 3-6.3v-0.2q0-8.5-10.9-8.5zm148.1 56.5h-66.2v-77h65.6v21.1h-40.3v7.8h37.6v18.6h-37.6v8.4h40.9zm65.6 0h-25.7v-77h61.9v21.6h-36.2zm115 1.7q-17.8 0-29.9-11.6-12-11.5-12-28.3v-0.3q0-16.8 12.2-28.5 12.2-11.6 29.9-11.6 17.8 0 29.8 11.5 12.1 11.6 12.1 28.4v0.2q0 16.9-12.2 28.5-12.2 11.7-29.9 11.7zm16.2-39.9v-0.3q0-7.1-4.5-12.2-4.6-5.1-11.7-5.1-7.2 0-11.6 5-4.4 5.1-4.4 12.1v0.2q0 7.2 4.6 12.3 4.5 5.1 11.6 5.1 7.2 0 11.6-5.1 4.4-5 4.4-12zm88.8 0.8l-28.4-39.6h30.6l19.6 29-0.3-29h25.6l-0.4 28.8 20.4-28.8h30l-29.2 37.7 29.9 39.3h-30.7l-20.4-28.6 0.4 28.6h-25.6l0.4-29.6-21.2 29.6h-29.9zm210.2-39.6v77h-25.7v-37.5l-29.2 37.5h-22.1v-77h25.7v35.9l28-35.9zm67.5 77h-25.7v-77h25.7v27.2h23.6v-27.2h25.7v77h-25.7v-27.6h-23.6zm110.8-24h-12.6l-7.7-36.5v-16.5h28v16.5zm6.5 24h-25.5v-19.8h25.5z"/>
<path id="Text1" d="m216.5 422h-38.8v-70h39.2q13.6 0 19.9 6.3 4.3 4.3 4.3 10.9v0.2q0 11.6-12.5 16 7.3 2.2 11 6.2 3.8 3.9 3.8 10.8v0.2q0 8.7-7 14.1-7 5.3-19.9 5.3zm1.6-47.3v-0.2q0-4.8-7.5-4.8h-10.1v9.8h10.2q7.4 0 7.4-4.8zm1.8 24.5v-0.2q0-5.1-7.6-5.1h-11.8v10.4h11.7q7.7 0 7.7-5.1zm93.3 24.3q-15 0-25.7-10.2-10.6-10.2-10.6-26.1v-0.2q0-15.6 10.7-26 10.8-10.5 26.5-10.5 21.7 0 31.7 18.2l-19.3 11.3q-4.5-8.5-12.7-8.5-5.8 0-9.5 4.5-3.6 4.4-3.6 10.8v0.2q0 6.8 3.6 11.2 3.7 4.3 9.5 4.3 4.7 0 7.7-2.2 3.1-2.3 5.5-6.6l19.3 10.9q-10.7 18.9-33.1 18.9zm127.8-1.5h-60.2v-70h59.7v19.2h-36.7v7.1h34.2v16.9h-34.2v7.6h37.2zm-9.7-74h-18.4v-15h18.4zm-22.4 0h-18.4v-15h18.4zm163.6 74h-35.2v-70h58.8v18.8h-36v7h14.3q13.4 0 20.1 5.5 7 5.4 6.9 15.4v0.2q0.1 10.7-7.1 16.9-7.3 6.2-21.8 6.2zm-12.4-27.7v10.3h10.2q7.8 0 7.8-5.2v-0.2q0-4.9-8.2-4.9zm150.5-42.3l-38.5 70h-26.3l13.2-23.2-27.1-46.8h26.7l13.1 24.4 12.6-24.4zm30 86v-36.4h10.2l21.8-50.1h26.4l21.8 50.1h10.2v36.4h-21.5v-16h-47.4v16zm55.9-35.6l-10.9-28.3-11 28.3zm130.3 19.6h-60.3v-70h59.8v19.2h-36.8v7.1h34.3v16.9h-34.3v7.6h37.3zm77.5 0h-23.4v-50.2h-20.6v-19.8h64.6v19.8h-20.6z"/>
<path id="Sovet" d="m179.8 56.6l-24.4 16.4 9.6 27.6-24-16.4-23.6 16.4 9.6-27.6-24.4-16.4h29.6l8.8-27.6 9.2 27.6zm-63.2 4.4l15.6 11.2-6 17.2 14.8-11.2 15.6 11.2-6.4-17.2 15.6-11.2h-18.8l-6-18.4-5.2 18.4zm24.4 174.8q-4 3.2-7.2 6.4-2.8 3.2-4.4 4-2 2-2.4 2.4 0 0.4 0 1.2 1.6 0.4 2.8 0.8 1.2 0.8 2.4 1.2 1.6 0 2.4 0.8 5.6 2.4 13.2 2.4 6 1.2 6 2.4v0.4q0 1.6-7.6 5.2-5.2 2.4-7.2 2.4-1.2 0-2.4-0.4-0.8-0.8-5.2-2-4.4-2.8-6.8-3.6-2.4-0.8-3.6-1.6-0.4-0.8-0.8-0.8 0-0.4-0.4-0.4h-1.2q-0.4 0-0.8 0.4 0 0-0.4 0.8-0.4 1.2-1.2 2.4-0.4 0.8-2 2.4-1.2 1.2-4 3.6-2.4 2.4-6.8 6.8-5.6 6.8-8 9.2l-4.8 4.8q-4.4 5.2-6.8 8.8-2 3.2-2.8 5.2-0.8 0.8-0.8 2.4 0 1.6-0.4 2 0 0.4-1.2 1.6-2.4 2-4.8 2-1.2 0-2.4-0.4-4-1.2-8.4-5.2-4.4-4-6.4-8.4-1.2-2-1.6-3.6 0-1.6 0-2 0-1.6 0.8-2.4 1.2-3.6 5.2-3.6h2q2.4-1.2 9.2-6 4.8-4 9.2-8 4.8-4 12.8-11.6 6.4-7.2 8-8.8 2-2 4.8-3.6h0.8q-0.8-0.8-0.8-1.2 0-0.4-0.8-1.2-0.8-1.6-1.6-3.2-0.8-2-2.8-7.2-2-4-2.4-5.2 0-1.2 0-2.8 0-1.2 0.8-4 1.2-3.2 2.4-6.4 2.4-4.4 3.6-4.4 1.2 0 1.6 2 0.4 0.8 0.4 1.6 0.4 0.8 0.4 2.8 0.8 4 1.2 7.6 0.8 3.6 1.6 6 0.8 2.8 1.6 5.2 1.2 2 2 2v0.4q0.4-0.8 1.6-2.4l14.8-14.8q6.8-7.2 11.2-12l2.2-2.3-29-30.5-19.2 18.8-20-20.8 40-38.8 35.6 4.4-25.2 25.2 30.1 28.7 2.7-2.7q6-8 10.8-13.2 4.8-5.2 9.2-9.6 5.2-5.2 11.2-10 6-5.2 18.4-15.2 3.2-2.4 7.2-5.6 4.4-3.2 8.4-6 4-3.2 7.2-5.6 3.6-2.4 4.8-3.6 1.6-0.8 3.6-2 2.4-1.6 4.8-3.2l5.2-3.2h0.4q0 0.8-2.4 5.2-2.4 4-4 6.8-2 2.8-6 8.4-4 5.2-12 15.2-3.2 4.4-6 8-2.4 3.2-4.8 6.4-2.4 3.2-5.2 6.4-2.4 2.8-5.6 6.8-2.8 2.8-8.4 8.4-5.6 5.2-8.8 8-3.2 3.2-6.8 6-3.2 2.8-6.4 6-1.2 1.2-2.7 2.3l45.9 43.7q3.2 3.2 3.2 8 0 4.4-3.2 7.6-3.2 3.2-8 3.2-4.4 0-7.6-3.2l-44.3-46.5q-10.4 9.6-16.9 16.1z"/>
</g>
</svg>
