<svg
   width="1200"
   height="600"
   id="svg1"
   sodipodi:docname="Magnolia.svg"
   inkscape:version="1.3 (0e150ed6c4, 2023-07-21)"
   xmlns:inkscape="http://www.inkscape.org/namespaces/inkscape"
   xmlns:sodipodi="http://sodipodi.sourceforge.net/DTD/sodipodi-0.dtd"
   xmlns:xlink="http://www.w3.org/1999/xlink"
   xmlns="http://www.w3.org/2000/svg"
   xmlns:svg="http://www.w3.org/2000/svg"
   xmlns:rdf="http://www.w3.org/1999/02/22-rdf-syntax-ns#"
   xmlns:cc="http://creativecommons.org/ns#"
   xmlns:dc="http://purl.org/dc/elements/1.1/">
  <defs
     id="defs1">
    <linearGradient
       id="linearGradient1">
      <stop
         style="stop-color:#ffe32a;stop-opacity:1;"
         offset="0"
         id="stop4" />
      <stop
         style="stop-color:#e31414;stop-opacity:1;"
         offset="1"
         id="stop3" />
    </linearGradient>
    <linearGradient
       inkscape:collect="always"
       xlink:href="#linearGradient1"
       id="linearGradient2"
       x1="0"
       y1="300"
       x2="1200"
       y2="300"
       gradientUnits="userSpaceOnUse"
       gradientTransform="matrix(0,0.5,-1.9999999,0,1200,0)" />
  </defs>
  <sodipodi:namedview
     id="namedview1"
     pagecolor="#ffffff"
     bordercolor="#000000"
     borderopacity="0.25"
     inkscape:showpageshadow="2"
     inkscape:pageopacity="0.0"
     inkscape:pagecheckerboard="0"
     inkscape:deskcolor="#d1d1d1"
     inkscape:zoom="0.59220193"
     inkscape:cx="814.75587"
     inkscape:cy="439.88374"
     inkscape:window-width="1920"
     inkscape:window-height="1009"
     inkscape:window-x="-8"
     inkscape:window-y="-8"
     inkscape:window-maximized="1"
     inkscape:current-layer="svg1" />
  <title
     id="title1">Poznyakitaj</title>
  <style
     id="style1">&#10;		.s0 { fill: #e98906 } &#10;		.s1 { fill: #ffffff } &#10;	</style>
  <path
     id="Layer"
     class="s0"
     d="M 1200,0 V 600 H 0 V 0 Z"
     style="fill:url(#linearGradient2);stroke-width:1;stroke:none;stroke-dasharray:none" />
  <g
     id="g1"
     inkscape:label="g1" />
  <g
     id="Текст">
    <path
       id="М А Г Н О Л И Я"
       fill-rule="evenodd"
       class="s1"
       d="m93 541h-19.6v-91h21.6l23.9 38.5 23.9-38.5h21.6v91h-19.9v-59.4l-25.6 38.9h-0.5l-25.4-38.5zm144.8 0h-20.4l39-91.7h18.5l39 91.7h-21l-8.3-20.4h-38.5zm27.6-67.6l-12.1 29.5h24.2zm121.5 67.6h-20v-91h65.4v18.2h-45.4zm119.5 0h-20v-91h20v36h36.9v-36h20.1v91h-20.1v-36.5h-36.9zm196.6-12.1q-13.8 13.6-34.6 13.6-20.8 0-34.6-13.5-13.6-13.7-13.6-33.3v-0.2q0-19.7 13.7-33.3 14-13.8 34.8-13.8 20.8 0 34.4 13.6 13.8 13.6 13.8 33.2v0.3q0 19.6-13.9 33.4zm-54.1-13.2q7.8 8.4 19.8 8.4 11.9 0 19.6-8.2 7.7-8.2 7.7-20.2v-0.2q0-12-7.8-20.3-7.9-8.3-19.8-8.3-12-0.1-19.6 8.1-7.7 8.2-7.7 20.2v0.3q0 11.9 7.8 20.2zm155.1-66.4h17.7l38.1 91.7h-22.1l-25.3-63.6-24.9 63.6h-21.6zm189.7 0.6v91h-20.1v-59.4l-43.1 59.4h-17.7v-91h20v57.6l41.8-57.6zm95.1 0h37.8v91h-20v-29.1h-14.5l-20.4 29.1h-23.7l23-32.2q-9.4-3.3-14.8-10.2-5.5-6.9-5.5-17.1v-0.2q0-15.6 10-23.4 10.2-7.9 28.1-7.9zm17.8 44.2v-26.1h-19.9q-15.7 0-15.7 13.1v0.1q0 6 4 9.5 4.1 3.5 11.3 3.4z" />
    <path
       id="Р Е С П У Б Л И К А"
       fill-rule="evenodd"
       class="s1"
       d="m149.9 417h-14.5v-65.8h26.9q11.6 0 18.4 6.3 6.8 6.2 6.8 16.4v0.2q0 11.1-7.5 17.1-7.6 6.1-19.1 6.1h-11zm0-52.8v20.1h11.4q5.3 0 8.4-2.8 3.1-2.8 3.1-7.1v-0.2q0-4.8-3.1-7.3-3.1-2.7-8.6-2.7zm126.6 52.8h-50.1v-65.8h49.6v12.8h-35.2v13.4h31v12.9h-31v13.8h35.7zm71.9 1.1q-14.5 0-24.2-9.8-9.6-9.7-9.6-24v-0.2q0-14.3 9.7-24.2 9.7-9.8 24.7-9.8 15.8 0 25.9 10.1l-9.2 10.6q-8.4-7.4-16.8-7.4-8.2 0-13.7 6-5.4 5.9-5.4 14.5v0.2q0 8.6 5.3 14.6 5.5 6.1 13.8 6.1 5.2 0 9.1-1.9 3.9-1.9 8.2-5.8l9.2 9.3q-5.5 5.9-11.8 8.8-6.2 2.9-15.2 2.9zm81.2-1.1h-14.5v-65.8h55.2v65.8h-14.5v-52.7h-26.2zm143.8-65.8l-36.5 65.8h-16.1l12.9-22.5-25.3-43.3h16.3l17.1 30.1 15.6-30.1zm67.2 65.8h-30.1v-65.8h48.7v12.8h-34.6v12.8h16.5q11.4 0 17.6 5.1 6.2 5 6.2 14.5v0.1q0 9.6-6.4 15.1-6.3 5.4-17.9 5.4zm-16-27.7v15h16.2q4.4 0 7-2 2.6-2 2.6-5.6v-0.1q0-3.4-2.5-5.3-2.4-2-7-2zm102.6-38.5h12.8l27.5 66.2h-16l-18.2-45.9-18 45.9h-15.6zm137.1 0.5v65.8h-14.5v-42.9l-31.2 42.9h-12.8v-65.8h14.5v41.7l30.2-41.7zm58.5 65.8h-14.5v-65.8h14.5l-0.2 26.4h4.6l23-26.4h18l-29.5 31.9 31.2 33.9h-18.4l-24-26.8h-4.9zm92.4 0h-14.8l28.2-66.2h13.4l28.2 66.2h-15.2l-6-14.7h-27.8zm19.9-48.9l-8.7 21.3h17.5z" />
  </g>
  <path
     fill="#ffffff"
     d="m 266.41391,166.89862 108.51421,-35.25432 -67.0696,92.30265 V 109.85029 l 67.0696,92.30265 z m 7.39798,64.15038 a 119.96705,119.96705 0 1 1 0,-128.30076 95.97364,95.97364 0 1 0 0,128.30076 z"
     id="path2"
     style="stroke-width:0.0079978" />
  <metadata
     id="metadata6">
    <rdf:RDF>
      <cc:Work
         rdf:about="">
        <dc:title>Poznyakitaj</dc:title>
      </cc:Work>
    </rdf:RDF>
  </metadata>
</svg>
