<svg version="3.10" xmlns="http://www.w3.org/2000/svg" width="1200" height="600">
<title>РЕСПУБЛИКА МИРДОГОЖИН</title>
<rect width="1200" height="600" style="fill:rgb(223,23,23)"/>
<path id="Слой" style="fill:rgb(0,167,61)" d="m0 400h1200v200h-1200z"/>
<g id="Text" style="fill:white" >
<path id="РЕСПУБЛИКА МИРДОГОЖИН" d="m236.8 535h-13.2v-75.6h11.8q11.3 0 17.8 6.4 6.6 6.2 6.6 19.1v0.2q0 12.3-6.2 18.9-6.2 6.6-16.7 7.2h-0.1zm0-63.4v27.5h0.1q4.5-0.2 7.1-3.6 2.7-3.3 2.7-9.9v-0.2q0-13.8-9.4-13.8zm57.6 63.4h-29.2v-75.6h28.9v12.6h-15.8v18.8h14v12.5h-14v19.2h16.1zm25.3 0.6q-9.6 0-15.4-9.1-5.9-9.2-5.9-28v-2.6q0-18.9 6.1-28 6.1-9 16.1-9 4.7 0 8.6 1.7v13.6q-4.1-2.5-7.3-2.5-4.8 0-7.5 5.4-2.6 5.4-2.6 18.7v2.8q0 13.9 2.6 19 2.6 5.1 7.7 5.1 3.3 0 7.3-2.4v13q-4 2.3-9.7 2.3zm29.5-0.6h-13.2v-75.6h37.8v75.6h-13.2v-63.1h-11.4zm70.4-75.6l-19.9 75.6h-13.1l5.6-21.8-14.3-53.8h13.4l7.7 33.5 7.4-33.5zm14 75.6h-10.1v-75.6h32.4v12.6h-19.2v15.7q10.7 0.5 16.8 6.2 6.2 5.6 6.2 16.9v0.3q0 11.6-6.8 17.8-6.8 6.1-19.3 6.1zm3.1-35.3v23.1h0.1q4.4-0.2 7-3 2.7-2.8 2.7-8.3v-0.2q0-11.6-9.4-11.6zm38.1-40.5h13.7l13.8 75.8h-13.4l-7.5-48.5-7.4 48.5h-13zm69.9 0.3v75.6h-12.7v-42.6l-13.3 42.6h-12.5v-75.6h12.8v40.7l12.6-40.7zm21 75.6h-13.2v-75.6h13.2v31.5h1.8l9-31.5h14.5l-11.7 36.1 11.7 38.2 14.1-74.6h14l14.4 75.9h-13.2l-2.5-15.1h-11.9l-2.4 15.1h-26.4l-9.6-32h-1.8zm46.2-51.9l-4.1 25h8.1zm74.2 51.8h-12.6v-75.6h13.2l9.1 28.8 9.1-28.8h13.3v75.6h-12.7v-45.9l-9.6 28.9h-0.2l-9.6-28.9zm78.3-75.6v75.6h-12.7v-42.5l-13.3 42.5h-12.5v-75.6h12.8v40.8l12.6-40.8zm21 75.6h-13.2v-75.6h11.8q11.2 0 17.8 6.4 6.6 6.3 6.6 19.1v0.2q0 12.4-6.3 18.9-6.1 6.6-16.6 7.3h-0.1zm0-63.4v27.4h0.1q4.4-0.2 7-3.6 2.7-3.3 2.7-9.9v-0.2q0-13.7-9.4-13.7zm19.1 75.5v-24.9h4.9l11.8-63h14.9l11.7 63h4.9v24.9h-12.1v-12.1h-24v12.1zm30.2-24.2l-6.3-40.2-6.4 40.2zm53.8 3.8q-5.4 9.4-14.7 9.4-9.3 0-14.7-9.4-5.4-9.4-5.4-27.6v-3.9q0-18.1 5.4-27.5 5.4-9.4 14.7-9.4 9.3 0 14.7 9.4 5.4 9.4 5.4 27.5v3.9q0 18.2-5.4 27.6zm-18.2-4.8q1.4 2.1 3.5 2.1 2.2 0 3.6-2.1 1.4-2 2.2-7.7 0.9-5.7 0.9-15.1v-3.9q0-9.4-0.9-15-0.8-5.7-2.2-7.8-1.4-2-3.6-2-2.1 0-3.5 2-1.5 2.1-2.3 7.8-0.9 5.6-0.9 15v3.9q0 9.4 0.9 15.1 0.8 5.7 2.3 7.7zm43.3 13.1h-13.2v-75.6h27.1v12.5h-13.9zm49.4-8.3q-5.4 9.4-14.7 9.4-9.3 0-14.7-9.4-5.4-9.4-5.4-27.6v-3.8q0-18.2 5.4-27.6 5.4-9.4 14.7-9.4 9.3 0 14.7 9.4 5.4 9.4 5.4 27.6v3.8q0 18.2-5.4 27.6zm-18.2-4.8q1.4 2.1 3.5 2.1 2.2 0 3.6-2.1 1.4-2 2.3-7.6 0.8-5.8 0.8-15.2v-3.8q0-9.4-0.8-15.1-0.9-5.7-2.3-7.7-1.4-2.1-3.6-2.1-2.1 0-3.5 2.1-1.4 2-2.3 7.7-0.9 5.7-0.9 15.1v3.8q0 9.4 0.9 15.2 0.9 5.6 2.3 7.6zm36.9-25.8l-12.3-36.7h14.6l9.6 31.6h1.7l-0.3-31.6h13.2l-0.4 31.6h1.8l9.6-31.6h14.5l-12.4 36.4 12.6 39.2h-14.3l-10.1-32.1h-1.8l0.5 32.1h-13.2l0.3-32.1h-1.7l-10.3 32.1h-14.1zm95.3-36.7v75.6h-12.7v-42.6l-13.3 42.6h-12.4v-75.6h12.7v40.7l12.7-40.7zm20.9 75.6h-13.1v-75.6h13.1v31.3h11.5v-31.3h13.2v75.6h-13.2v-31.8h-11.5z"/>
<path id="Сло1" d="m0 0h133.3v600h-133.3z"/>
<path id="Советский Союз" d="m290.1 58.9l-23.8 16 9.3 26.9-23.4-16-23 16 9.4-26.9-23.8-16h28.9l8.5-26.9 9 26.9zm-61.6 4.3l15.2 10.9-5.8 16.8 14.4-10.9 15.2 10.9-6.2-16.8 15.2-10.9h-18.4l-5.8-17.9-5.1 17.9zm23.8 170.4q-3.9 3.1-7 6.3-2.7 3.1-4.3 3.9-2 1.9-2.3 2.3 0 0.4 0 1.2 1.5 0.4 2.7 0.8 1.2 0.7 2.3 1.1 1.6 0 2.4 0.8 5.4 2.3 12.8 2.3 5.9 1.2 5.9 2.4v0.4q0 1.5-7.4 5-5.1 2.4-7 2.4-1.2 0-2.4-0.4-0.8-0.8-5.1-2-4.2-2.7-6.6-3.5-2.3-0.7-3.5-1.5-0.4-0.8-0.8-0.8 0-0.4-0.4-0.4h-1.1q-0.4 0-0.8 0.4 0 0-0.4 0.8-0.4 1.1-1.2 2.3-0.4 0.8-1.9 2.4-1.2 1.1-3.9 3.5-2.4 2.3-6.7 6.6-5.4 6.6-7.8 9l-4.6 4.7q-4.3 5-6.7 8.5-1.9 3.1-2.7 5.1-0.8 0.8-0.8 2.3 0 1.6-0.4 2 0 0.4-1.1 1.6-2.4 1.9-4.7 1.9-1.2 0-2.4-0.4-3.9-1.2-8.1-5.1-4.3-3.9-6.3-8.1-1.2-2-1.5-3.6 0-1.5 0-1.9 0-1.6 0.7-2.3 1.2-3.6 5.1-3.6h2q2.3-1.1 8.9-5.8 4.7-3.9 9-7.8 4.7-3.9 12.5-11.3 6.2-7 7.8-8.6 1.9-1.9 4.7-3.5h0.7q-0.7-0.8-0.7-1.2 0-0.4-0.8-1.2-0.8-1.5-1.6-3.1-0.8-1.9-2.7-7-2-3.9-2.4-5.1 0-1.1 0-2.7 0-1.2 0.8-3.9 1.2-3.1 2.4-6.2 2.3-4.3 3.5-4.3 1.1 0 1.5 1.9 0.4 0.8 0.4 1.6 0.4 0.8 0.4 2.7 0.8 3.9 1.2 7.4 0.8 3.5 1.5 5.9 0.8 2.7 1.6 5 1.2 2 2 2v0.4q0.3-0.8 1.5-2.4l14.4-14.4q6.7-7 11-11.7l2.1-2.2-28.3-29.8-18.7 18.4-19.5-20.3 39-37.8 34.7 4.2-24.5 24.6 29.3 28 2.6-2.6q5.9-7.8 10.6-12.9 4.6-5.1 8.9-9.4 5.1-5 11-9.7 5.8-5.1 17.9-14.8 3.1-2.4 7-5.5 4.3-3.1 8.2-5.8 3.9-3.2 7-5.5 3.5-2.3 4.7-3.5 1.6-0.8 3.5-2 2.4-1.5 4.7-3.1l5.1-3.1h0.4q0 0.8-2.4 5.1-2.3 3.9-3.9 6.6-1.9 2.7-5.8 8.2-3.9 5.1-11.7 14.8-3.2 4.3-5.9 7.8-2.3 3.1-4.7 6.3-2.3 3.1-5 6.2-2.4 2.7-5.5 6.6-2.7 2.7-8.2 8.2-5.4 5.1-8.6 7.8-3.1 3.1-6.6 5.9-3.1 2.7-6.2 5.8-1.2 1.1-2.7 2.3l44.8 42.6q3.1 3.1 3.1 7.8 0 4.2-3.1 7.4-3.1 3.1-7.8 3.1-4.3 0-7.4-3.1l-43.2-45.4q-10.1 9.4-16.5 15.7z"/>
</g>
<g id="a" style="fill:rgb(223,23,23)">
<path d="m23.2 0h17.4v9.8h5.8v9.9h5.8v9.8h5.8v9.8h5.8v9.9h-5.8v9.8h-5.8v9.9h-5.8v9.8h-5.8v9.8h-5.8v9.9h-5.8v-9.9h-5.8v-9.8h-5.8v-9.8h-5.8v-9.9h-5.8v-9.8h-5.8v-9.9h5.8v-9.8h5.8v-9.8h5.8v-9.9h5.8zm5.8 29.5h-5.8v9.9h-5.8v9.8h5.8v9.8h5.8v9.9h5.8v-9.9h5.8v-9.8h5.8v-9.8h-5.8v-9.9h-5.8v-9.8h-5.8zm0 9.8h5.8v9.9h-5.8zm-29-29.5h5.8v9.8h-5.8zm0 59h5.8v9.8h-5.8zm63.8-68.8h5.8v19.7h-5.8zm0 68.8h5.8v19.7h-5.8zm-52.2 19.6h5.8v9.9h5.8v9.8h5.8v9.9h-5.8v9.8h-5.8v9.8h-5.8v-9.8h-5.8v-9.8h-5.8v-9.9h5.8v-9.8h5.8zm0 29.5h5.8v-9.8h-5.8zm34.8-29.6h5.8v9.9h5.8v9.8h5.8v9.9h-5.8v9.8h-5.8v9.8h-5.8v-9.8h-5.8v-9.8h-5.8v-9.9h5.8v-9.8h5.8zm0 29.5h5.8v-9.8h-5.8zm-46.4 59h5.8v-9.9h5.8v-9.8h5.8v-9.8h5.8v-9.9h5.8v-9.8h5.8v9.8h5.8v9.9h5.8v9.8h5.8v9.8h5.8v9.9h5.8v9.8h5.8v39.4h-5.8v9.8h-5.8v9.8h-5.8v9.9h-5.8v9.8h-5.8v9.8h-5.8v29.6h-11.6v-9.9h-5.8v-9.8h-5.8v-9.9h-5.8v-9.8h-5.8v-29.5h5.8v9.8h5.8v9.9h5.8v9.8h5.8v-9.8h5.8v-9.9h5.8v-9.8h5.8v-9.8h5.8v-9.9h5.8v-9.8h-5.8v-9.9h-5.8v-9.8h-17.4v9.8h11.6v9.9h-5.8v9.8h-5.8v9.9h-5.8v-9.9h-5.8v-9.8h-5.8v-9.9h-5.8zm63.8-39.3h5.8v19.7h-5.8zm-63.8 9.8h5.8v9.8h-5.8zm0 68.9h5.8v9.8h-5.8zm63.8 29.5h5.8v9.9h-5.8zm-11.6 19.6h5.8v9.9h5.8v9.8h5.8v19.7h-5.8v-9.9h-5.8v-9.8h-5.8zm-11.6 29.5h5.8v9.9h-5.8z"/>
<path d="m110.2 9.8h5.7v9.9h5.8v9.8h5.8v9.8h5.8v9.9h-5.8v9.8h-5.8v9.9h-5.8v9.8h-5.7v9.8h-5.8v9.9h-5.8v-9.9h-5.8v-9.8h-5.8v-9.8h-5.8v-9.9h-5.8v-9.8h-5.8v-9.9h5.8v-9.8h5.8v-9.8h5.8v-9.9h5.8v-9.8h17.3zm-5.8 9.8h-5.8v9.9h-5.8v9.8h-5.7v9.8h5.7v9.9h5.8v9.8h5.8v-9.8h5.8v-9.9h5.8v-9.8h-5.8v-9.8h-5.8zm-5.8 19.6h5.8v9.9h-5.8zm29-29.5h5.8v9.8h-5.8zm0 59h5.8v9.8h-5.8zm-63.7-68.8h5.8v19.7h-5.8zm0 68.8h5.8v19.7h-5.8zm57.9 29.5h5.8v9.8h5.8v9.9h-5.8v9.8h-5.8v9.8h-5.8v-9.8h-5.8v-9.8h-5.7v-9.9h5.7v-9.8h5.8v-9.9h5.8zm-5.8 19.7h5.8v-9.8h-5.8zm-28.9-19.7h5.8v9.8h5.8v9.9h-5.8v9.8h-5.8v9.9h-5.8v-9.9h-5.8v-9.8h-5.8v-9.9h5.8v-9.8h5.8v-9.8h5.8zm-5.8 19.6h5.8v-9.8h-5.8zm52.1 78.7h-5.8v9.8h-5.8v9.9h-5.8v9.8h-5.8v-9.8h-5.8v-9.9h-5.8v-9.8h11.6v-9.8h-17.4v9.8h-5.7v9.8h-5.8v9.9h5.8v9.8h5.7v9.8h5.8v9.9h5.8v9.8h5.8v9.9h5.8v-9.9h5.8v-9.8h5.8v-9.9h5.8v29.6h-5.8v9.8h-5.8v9.8h-5.8v9.9h-5.8v9.8h-11.6v-29.5h-5.8v-9.8h-5.7v-9.9h-5.8v-9.8h-5.8v-9.9h-5.8v-9.8h-5.8v-39.3h5.8v-9.9h5.8v-9.8h5.8v-9.8h5.8v-9.9h5.7v-9.8h5.8v-9.9h5.8v9.9h5.8v9.8h5.8v9.9h5.8v9.8h5.8v9.8h5.8zm-63.7-39.3h-5.8v-19.7h5.8zm57.9-9.8h5.8v9.8h-5.8zm0 68.9h5.8v9.8h-5.8zm-57.9 39.3h-5.8v-9.8h5.8zm11.6 29.5h-5.8v9.8h-5.8v9.9h-5.8v-19.7h5.8v-9.8h5.8v-9.9h5.8zm5.8 9.9h5.8v9.9h-5.8z"/>
<path d="m23.2 590.2h-5.8v-9.9h-5.8v-9.8h-5.8v-9.8h-5.8v-9.9h5.8v-9.8h5.8v-9.9h5.8v-9.8h5.8v-9.8h5.8v-9.9h5.8v9.9h5.8v9.8h5.8v9.8h5.8v9.9h5.8v9.8h5.8v9.9h-5.8v9.8h-5.8v9.8h-5.8v9.9h-5.8v9.8h-17.4zm5.8-9.8h5.8v-9.9h5.8v-9.8h5.8v-9.8h-5.8v-9.9h-5.8v-9.8h-5.8v9.8h-5.8v9.9h-5.8v9.8h5.8v9.8h5.8zm0-29.5h5.8v9.9h-5.8zm-29 29.5h5.8v9.8h-5.8zm0-59h5.8v9.8h-5.8zm63.8 59.1h5.8v19.6h-5.8zm0-68.8h5.8v19.6h-5.8zm-52.2-9.8h-5.8v-9.8h-5.8v-9.9h5.8v-9.8h5.8v-9.8h5.8v9.8h5.8v9.8h5.8v9.9h-5.8v9.8h-5.8v9.8h-5.8zm0-9.8h5.8v-9.8h-5.8zm34.8 9.8h-5.8v-9.8h-5.8v-9.9h5.8v-9.8h5.8v-9.8h5.8v9.8h5.8v9.8h5.8v9.9h-5.8v9.8h-5.8v9.8h-5.8zm0-9.8h5.8v-9.8h-5.8zm-46.4-88.6h5.8v-9.8h5.8v-9.8h5.8v-9.9h5.8v9.9h5.8v9.8h5.8v9.8h-11.6v9.9h17.4v-9.9h5.8v-9.8h5.8v-9.8h-5.8v-9.9h-5.8v-9.8h-5.8v-9.8h-5.8v-9.9h-5.8v-9.8h-5.8v9.8h-5.8v9.9h-5.8v9.8h-5.8v-29.5h5.8v-9.9h5.8v-9.8h5.8v-9.8h5.8v-9.9h11.6v29.5h5.8v9.9h5.8v9.8h5.8v9.9h5.8v9.8h5.8v9.8h5.8v39.4h-5.8v9.8h-5.8v9.8h-5.8v9.9h-5.8v9.8h-5.8v9.9h-5.8v9.8h-5.8v-9.8h-5.8v-9.9h-5.8v-9.8h-5.8v-9.9h-5.8v-9.8h-5.8zm63.8 39.4h5.8v19.6h-5.8zm-63.8 0h5.8v9.9h-5.8zm0-68.9h5.8v9.8h-5.8zm63.8-29.5h5.8v9.9h-5.8zm-11.6-29.5h5.8v-9.9h5.8v-9.9h5.8v19.8h-5.8v9.8h-5.8v9.8h-5.8zm-11.6-19.7h5.8v9.9h-5.8z"/>
<path d="m110.1 600h-17.3v-9.8h-5.8v-9.9h-5.8v-9.8h-5.8v-9.8h-5.8v-9.9h5.8v-9.8h5.8v-9.9h5.8v-9.8h5.8v-9.8h5.8v-9.9h5.8v9.9h5.8v9.8h5.7v9.8h5.8v9.9h5.8v9.8h5.8v9.9h-5.8v9.8h-5.8v9.8h-5.8v9.9h-5.7zm-5.8-29.5h5.8v-9.9h5.7v-9.8h-5.7v-9.8h-5.8v-9.9h-5.8v9.9h-5.8v9.8h-5.8v9.8h5.8v9.9h5.8v9.8h5.8zm-5.8-19.7h5.8v9.9h-5.8zm28.9 29.5h5.8v9.8h-5.8zm0-59h5.8v9.8h-5.8zm-63.7 59.1h5.8v19.6h-5.8zm0-68.8h5.8v19.6h-5.8zm58 0h-5.8v-9.8h-5.8v-9.8h-5.8v-9.9h5.8v-9.8h5.8v-9.8h5.8v9.8h5.8v9.8h5.7v9.9h-5.7v9.8h-5.8zm-5.8-19.7h5.8v-9.8h-5.8zm-29 19.7h-5.8v-9.9h-5.8v-9.8h-5.8v-9.8h5.8v-9.9h5.8v-9.8h5.8v9.8h5.8v9.9h5.8v9.8h-5.8v9.8h-5.8zm-5.8-19.6h5.8v-9.9h-5.8zm52.1-68.8h-5.8v9.8h-5.8v9.8h-5.8v9.9h-5.7v9.8h-5.8v9.8h-5.8v-9.8h-5.8v-9.8h-5.8v-9.9h-5.8v-9.8h-5.8v-9.8h-5.8v-9.9h-5.8v-39.3h5.8v-9.9h5.8v-9.8h5.8v-9.8h5.8v-9.9h5.8v-9.8h5.8v-29.5h11.6v9.8h5.7v9.9h5.8v9.8h5.8v9.8h5.8v29.5h-5.8v-9.8h-5.8v-9.8h-5.8v-9.9h-5.7v9.9h-5.8v9.8h-5.8v9.8h-5.8v9.9h-5.8v9.8h-5.8v9.9h5.8v9.8h5.8v9.8h17.3v-9.8h-11.5v-9.8h5.7v-9.9h5.8v-9.8h5.8v9.8h5.8v9.9h5.8v9.8h5.8zm-63.7 39.3h-5.8v-19.6h5.8zm57.9-19.7h5.8v9.8h-5.8zm0-68.8h5.8v9.8h-5.8zm-57.9-19.7h-5.8v-9.8h5.8zm11.6-19.7h-5.8v-9.8h-5.8v-9.8h-5.8v-19.8h5.8v9.9h5.8v9.9h5.8zm5.8-39.4h5.8v9.9h-5.8z"/>
</g>
</svg>