<svg version="1.2" xmlns="http://www.w3.org/2000/svg" viewBox="0 0 1200 600" width="1200" height="600">
	<title>Mirdogozhyn2</title>
	<style>
		.s0 { fill: #df1717 } 
		.s1 { fill: #00a73d } 
		.s2 { fill: #ffffff } 
	</style>
	<path id="Layer" class="s0" d="m0 0h1200v600h-1200z"/>
	<path id="Слой" class="s1" d="m0 400h1200v200h-1200z"/>
	<g id="Text">
		<path id="Сло1" class="s2" d="m0 0h133.3v600h-133.3z"/>
		<path id="Советский Союз" fill-rule="evenodd" class="s2" d="m261.2 58.9l-9-26.9-8.5 26.9h-28.9l23.8 16-9.4 26.9 23-16 23.4 16-9.3-26.9 23.8-16zm-14 4.3l5.1-17.9 5.8 17.9h18.4l-15.2 10.9 6.2 16.8-15.2-10.9-14.4 10.9 5.8-16.8-15.2-10.9zm21.6 154.7l43.2 45.4q3.1 3.1 7.4 3.1 4.7 0 7.8-3.1 3.1-3.2 3.1-7.4 0-4.7-3.1-7.8l-44.8-42.6q1.5-1.2 2.7-2.3 3.1-3.1 6.2-5.8 3.5-2.8 6.6-5.9 3.2-2.7 8.6-7.8 5.5-5.5 8.2-8.2 3.1-3.9 5.5-6.6 2.7-3.1 5-6.2 2.4-3.2 4.7-6.3 2.7-3.5 5.9-7.8 7.8-9.7 11.7-14.8 3.9-5.5 5.8-8.2 1.6-2.7 3.9-6.6 2.4-4.3 2.4-5.1h-0.4l-5.1 3.1q-2.3 1.6-4.7 3.1-1.9 1.2-3.5 2-1.2 1.2-4.7 3.5-3.1 2.3-7 5.5-3.9 2.7-8.2 5.8-3.9 3.1-7 5.5-12.1 9.7-17.9 14.8-5.9 4.7-11 9.7-4.3 4.3-8.9 9.4-4.7 5.1-10.6 12.9l-2.6 2.6-29.3-28 24.5-24.6-34.7-4.2-39 37.8 19.5 20.3 18.7-18.4 28.3 29.8-2.1 2.2q-4.3 4.7-11 11.7l-14.4 14.4q-1.2 1.6-1.5 2.4v-0.4q-0.8 0-2-2-0.8-2.3-1.6-5-0.7-2.4-1.5-5.9-0.4-3.5-1.2-7.4 0-1.9-0.4-2.7 0-0.8-0.4-1.6-0.4-1.9-1.5-1.9-1.2 0-3.5 4.3-1.2 3.1-2.4 6.2-0.8 2.7-0.8 3.9 0 1.6 0 2.7 0.4 1.2 2.4 5.1 1.9 5.1 2.7 7 0.8 1.6 1.6 3.1 0.8 0.8 0.8 1.2 0 0.4 0.7 1.2h-0.7q-2.8 1.6-4.7 3.5-1.6 1.6-7.8 8.6-7.8 7.4-12.5 11.3-4.3 3.9-9 7.8-6.6 4.7-8.9 5.8h-2q-3.9 0-5.1 3.6-0.7 0.7-0.7 2.3 0 0.4 0 1.9 0.3 1.6 1.5 3.6 2 4.2 6.3 8.1 4.2 3.9 8.1 5.1 1.2 0.4 2.4 0.4 2.3 0 4.7-1.9 1.1-1.2 1.1-1.6 0.4-0.4 0.4-2 0-1.5 0.8-2.3 0.8-2 2.7-5.1 2.4-3.5 6.7-8.5l4.6-4.7q2.4-2.4 7.8-9 4.3-4.3 6.7-6.6 2.7-2.4 3.9-3.5 1.5-1.6 1.9-2.4 0.8-1.2 1.2-2.3 0.4-0.8 0.4-0.8 0.4-0.4 0.8-0.4h1.1q0.4 0 0.4 0.4 0.4 0 0.8 0.8 1.2 0.8 3.5 1.5 2.4 0.8 6.6 3.5 4.3 1.2 5.1 2 1.2 0.4 2.4 0.4 1.9 0 7-2.4 7.4-3.5 7.4-5v-0.4q0-1.2-5.9-2.4-7.4 0-12.8-2.3-0.8-0.8-2.4-0.8-1.1-0.4-2.3-1.1-1.2-0.4-2.7-0.8 0-0.8 0-1.2 0.3-0.4 2.3-2.3 1.6-0.8 4.3-3.9 3.1-3.2 7-6.3 6.4-6.3 16.5-15.7z"/>
		<path id="Р Е С П У Б Л И К А " fill-rule="evenodd" class="s2" d="m294.9 419.2h30.3q5.8 0 10.1 1.6 4.3 1.5 7 4.2 2.7 2.6 4 5.9 1.3 3.3 1.3 6.9 0 3.1-1.2 6.3-1.1 3.3-3.8 6-2.6 2.5-6.8 4.3-4.2 1.7-10.2 1.7h-10.9v14.9h-19.8zm19.3 12v12.9h4.3q0.9 0 2.4-0.1 1.6-0.2 3-0.7 1.6-0.7 2.6-2 1.1-1.3 1.1-3.7 0-1.1-0.3-2.2-0.4-1.2-1.4-2.1-1-0.9-2.8-1.5-1.8-0.6-4.6-0.6zm56.5-12h45.2v12.2h-25.4v7.5h24.3v11.8h-24.3v8.1h25.9v12.2h-45.7zm112.3 36.9v13.7q-4.6 1.3-8.2 1.7-3.5 0.4-6.3 0.4-7.6 0-13.4-2-5.7-2-9.7-5.6-3.9-3.5-5.9-8.4-2-5-2-10.8 0-5 1.7-9.8 1.7-4.9 5.4-8.6 3.7-3.8 9.7-6.1 6-2.3 14.7-2.3 4.4 0 7.6 0.5 3.3 0.5 5 0.9l1.2 0.2v13.7q-2.1-0.8-4.8-1.4-2.6-0.6-5.6-0.6-3.2 0-5.8 1.1-2.5 0.9-4.4 2.7-1.8 1.7-2.8 4.1-1 2.3-1 5.2 0 1.7 0.4 4.1 0.6 2.3 2.1 4.4 1.6 2 4.4 3.4 2.8 1.5 7.5 1.5 1.4 0 3.8-0.4 2.4-0.4 6.4-1.6zm22.4-36.9h52.6v51.8h-19.8v-37.7h-13v37.7h-19.8zm74.3 0h22.6l7.2 22.4h0.3l7.1-22.4h19.5l-19.9 51.8h-19l4.8-10.8zm78.5 0h46.1v12.9h-26.3v7.2h12.1q5.4 0 9.1 1.4 3.7 1.4 6 3.7 2.4 2.2 3.4 5.1 1.1 2.8 1.1 5.7 0 2.6-0.9 5.4-0.9 2.8-3.4 5.1-2.3 2.3-6.5 3.8-4.1 1.5-10.6 1.5h-30.1zm19.3 30.3v11h5.8q2.8 0 4.4-1.6 1.7-1.6 1.7-3.9 0-2-1.6-3.7-1.6-1.8-4.9-1.8zm99.9-30.3l17.7 51.8h-19.9l-11.6-39.5h-0.3l-11.5 39.5h-20l17.8-51.8zm40.9 0h19.8v29.6h0.3l13.1-29.6h23.2v51.8h-19.9v-29h-0.3l-13.1 29h-23.1zm100.8 0v20.3h0.3l12.2-20.3h22.6l-17.4 24.3 19 27.5h-23.6l-12.8-22h-0.3v22h-19.8v-51.8zm102.5 0l17.8 51.8h-20l-3.3-11.2h-16.8l-3.3 11.2h-20l17.8-51.8zm-18.8 28.5h9.7l-4.7-16.2h-0.3z"/>
		<path id="М И Р Д О Г О Ж И Н" fill-rule="evenodd" class="s2" d="m218.6 506.7v47.3h-19.8v-60.2h34.3l7.5 34.7h0.5l7.5-34.7h34.3v60.2h-19.8v-47.3h-0.8l-11.3 47.3h-20.3l-11.3-47.3zm93.9-12.9h23v34.4h0.4l15.2-34.4h26.9v60.2h-23v-33.7h-0.4l-15.2 33.7h-26.9zm94.1 0h35.3q6.8 0 11.7 1.8 5 1.8 8.2 4.9 3.1 3 4.6 6.9 1.6 3.9 1.6 8 0 3.6-1.4 7.4-1.4 3.8-4.5 6.9-3 3-7.9 4.9-4.8 2-11.9 2h-12.6v17.4h-23.1zm22.5 13.9v15h5.1q1 0 2.7-0.1 1.8-0.2 3.5-0.9 1.8-0.7 3-2.2 1.3-1.5 1.3-4.3 0-1.3-0.4-2.6-0.4-1.3-1.6-2.4-1.1-1.1-3.3-1.8-2.1-0.7-5.3-0.7zm72.6 30.2l14.2-44.1h31l14.3 44.1h9.4v29.4h-23v-13.3h-32.4v13.3h-23v-29.4zm29.9-29.8h-0.3l-7.2 29.8h14.8zm96-15.3q8 0 14.2 2.2 6.3 2.1 10.6 6.2 4.3 4 6.5 9.8 2.3 5.7 2.3 12.9 0 7.3-2.3 13-2.2 5.8-6.5 9.8-4.3 4.1-10.6 6.2-6.2 2.2-14.2 2.2-8 0-14.3-2.2-6.2-2.1-10.5-6.2-4.3-4-6.5-9.8-2.2-5.7-2.2-13 0-7.2 2.2-12.9 2.2-5.8 6.5-9.8 4.3-4.1 10.5-6.2 6.3-2.2 14.3-2.2zm0 14.5q-3.3 0-5.1 1.7-1.9 1.7-2.8 4.3-0.9 2.5-1.2 5.4-0.2 2.9-0.2 5.2 0 2.4 0.2 5.3 0.3 2.9 1.2 5.5 0.9 2.5 2.8 4.2 1.8 1.7 5.1 1.7 3.3 0 5.1-1.7 1.9-1.7 2.8-4.2 1-2.6 1.1-5.5 0.3-2.9 0.3-5.3 0-2.3-0.3-5.2-0.1-2.9-1.1-5.4-0.9-2.6-2.8-4.3-1.8-1.7-5.1-1.7zm59.6-13.5h49.3v17.2h-26.2v43h-23.1zm105.4-1q8 0 14.2 2.2 6.3 2.1 10.6 6.2 4.3 4 6.6 9.8 2.2 5.7 2.2 12.9 0 7.3-2.2 13-2.3 5.8-6.6 9.8-4.3 4.1-10.6 6.2-6.2 2.2-14.2 2.2-8 0-14.2-2.2-6.2-2.1-10.5-6.2-4.3-4-6.6-9.8-2.2-5.7-2.2-13 0-7.2 2.2-12.9 2.3-5.8 6.6-9.8 4.3-4.1 10.5-6.2 6.2-2.2 14.2-2.2zm0 14.5q-3.2 0-5.1 1.7-1.8 1.7-2.8 4.3-0.9 2.5-1.2 5.4-0.1 2.9-0.1 5.2 0 2.4 0.1 5.3 0.3 2.9 1.2 5.5 1 2.5 2.8 4.2 1.9 1.7 5.1 1.7 3.3 0 5.1-1.7 1.9-1.7 2.9-4.2 0.9-2.6 1.1-5.5 0.2-2.9 0.2-5.3 0-2.3-0.2-5.2-0.2-2.9-1.1-5.4-1-2.6-2.9-4.3-1.8-1.7-5.1-1.7zm119.5 46.7h-22.2v-27.2h-0.5l-13.5 27.2h-27.5l21.5-32-18.9-28.2h24.9l13.5 25.4h0.5v-25.4h22.2v25.4h0.5l13.5-25.4h25l-19 28.2 21.5 32h-27.5l-13.5-27.2h-0.5zm66.3-60.2h23.1v34.4h0.3l15.2-34.4h26.9v60.2h-23v-33.7h-0.4l-15.2 33.7h-26.9zm132.6 20.8v-20.8h23.1v60.2h-23.1v-22.2h-15.4v22.2h-23v-60.2h23v20.8z"/>
	</g>
	<g id="a">
		<path id="Layer" fill-rule="evenodd" class="s0" d="m23.2 0h17.4v9.8h5.8v9.9h5.8v9.8h5.8v9.8h5.8v9.9h-5.8v9.8h-5.8v9.9h-5.8v9.8h-5.8v9.8h-5.8v9.9h-5.8v-9.9h-5.8v-9.8h-5.8v-9.8h-5.8v-9.9h-5.8v-9.8h-5.8v-9.9h5.8v-9.8h5.8v-9.8h5.8v-9.9h5.8zm5.8 29.5h-5.8v9.9h-5.8v9.8h5.8v9.8h5.8v9.9h5.8v-9.9h5.8v-9.8h5.8v-9.8h-5.8v-9.9h-5.8v-9.8h-5.8zm0 9.8h5.8v9.9h-5.8zm-29-29.5h5.8v9.8h-5.8zm0 59h5.8v9.8h-5.8zm63.8-68.8h5.8v19.7h-5.8zm0 68.8h5.8v19.7h-5.8zm-52.2 19.6h5.8v9.9h5.8v9.8h5.8v9.9h-5.8v9.8h-5.8v9.8h-5.8v-9.8h-5.8v-9.8h-5.8v-9.9h5.8v-9.8h5.8zm0 29.5h5.8v-9.8h-5.8zm34.8-29.6h5.8v9.9h5.8v9.8h5.8v9.9h-5.8v9.8h-5.8v9.8h-5.8v-9.8h-5.8v-9.8h-5.8v-9.9h5.8v-9.8h5.8zm0 29.5h5.8v-9.8h-5.8zm-46.4 59h5.8v-9.9h5.8v-9.8h5.8v-9.8h5.8v-9.9h5.8v-9.8h5.8v9.8h5.8v9.9h5.8v9.8h5.8v9.8h5.8v9.9h5.8v9.8h5.8v39.4h-5.8v9.8h-5.8v9.8h-5.8v9.9h-5.8v9.8h-5.8v9.8h-5.8v29.6h-11.6v-9.9h-5.8v-9.8h-5.8v-9.9h-5.8v-9.8h-5.8v-29.5h5.8v9.8h5.8v9.9h5.8v9.8h5.8v-9.8h5.8v-9.9h5.8v-9.8h5.8v-9.8h5.8v-9.9h5.8v-9.8h-5.8v-9.9h-5.8v-9.8h-17.4v9.8h11.6v9.9h-5.8v9.8h-5.8v9.9h-5.8v-9.9h-5.8v-9.8h-5.8v-9.9h-5.8zm63.8-39.3h5.8v19.7h-5.8zm-63.8 9.8h5.8v9.8h-5.8zm0 68.9h5.8v9.8h-5.8zm63.8 29.5h5.8v9.9h-5.8zm-11.6 19.6h5.8v9.9h5.8v9.8h5.8v19.7h-5.8v-9.9h-5.8v-9.8h-5.8zm-11.6 29.5h5.8v9.9h-5.8z"/>
		<path id="Layer" fill-rule="evenodd" class="s0" d="m110.2 9.8h5.7v9.9h5.8v9.8h5.8v9.8h5.8v9.9h-5.8v9.8h-5.8v9.9h-5.8v9.8h-5.7v9.8h-5.8v9.9h-5.8v-9.9h-5.8v-9.8h-5.8v-9.8h-5.8v-9.9h-5.8v-9.8h-5.8v-9.9h5.8v-9.8h5.8v-9.8h5.8v-9.9h5.8v-9.8h17.3zm-5.8 9.8h-5.8v9.9h-5.8v9.8h-5.7v9.8h5.7v9.9h5.8v9.8h5.8v-9.8h5.8v-9.9h5.8v-9.8h-5.8v-9.8h-5.8zm-5.8 19.6h5.8v9.9h-5.8zm29-29.5h5.8v9.8h-5.8zm0 59h5.8v9.8h-5.8zm-63.7-68.8h5.8v19.7h-5.8zm0 68.8h5.8v19.7h-5.8zm57.9 29.5h5.8v9.8h5.8v9.9h-5.8v9.8h-5.8v9.8h-5.8v-9.8h-5.8v-9.8h-5.7v-9.9h5.7v-9.8h5.8v-9.9h5.8zm-5.8 19.7h5.8v-9.8h-5.8zm-28.9-19.7h5.8v9.8h5.8v9.9h-5.8v9.8h-5.8v9.9h-5.8v-9.9h-5.8v-9.8h-5.8v-9.9h5.8v-9.8h5.8v-9.8h5.8zm-5.8 19.6h5.8v-9.8h-5.8zm52.1 78.7h-5.8v9.8h-5.8v9.9h-5.8v9.8h-5.8v-9.8h-5.8v-9.9h-5.8v-9.8h11.6v-9.8h-17.4v9.8h-5.7v9.8h-5.8v9.9h5.8v9.8h5.7v9.8h5.8v9.9h5.8v9.8h5.8v9.9h5.8v-9.9h5.8v-9.8h5.8v-9.9h5.8v29.6h-5.8v9.8h-5.8v9.8h-5.8v9.9h-5.8v9.8h-11.6v-29.5h-5.8v-9.8h-5.7v-9.9h-5.8v-9.8h-5.8v-9.9h-5.8v-9.8h-5.8v-39.3h5.8v-9.9h5.8v-9.8h5.8v-9.8h5.8v-9.9h5.7v-9.8h5.8v-9.9h5.8v9.9h5.8v9.8h5.8v9.9h5.8v9.8h5.8v9.8h5.8zm-63.7-39.3h-5.8v-19.7h5.8zm57.9-9.8h5.8v9.8h-5.8zm0 68.9h5.8v9.8h-5.8zm-57.9 39.3h-5.8v-9.8h5.8zm11.6 29.5h-5.8v9.8h-5.8v9.9h-5.8v-19.7h5.8v-9.8h5.8v-9.9h5.8zm5.8 9.9h5.8v9.9h-5.8z"/>
		<path id="Layer" fill-rule="evenodd" class="s0" d="m23.2 590.2h-5.8v-9.9h-5.8v-9.8h-5.8v-9.8h-5.8v-9.9h5.8v-9.8h5.8v-9.9h5.8v-9.8h5.8v-9.8h5.8v-9.9h5.8v9.9h5.8v9.8h5.8v9.8h5.8v9.9h5.8v9.8h5.8v9.9h-5.8v9.8h-5.8v9.8h-5.8v9.9h-5.8v9.8h-17.4zm5.8-9.8h5.8v-9.9h5.8v-9.8h5.8v-9.8h-5.8v-9.9h-5.8v-9.8h-5.8v9.8h-5.8v9.9h-5.8v9.8h5.8v9.8h5.8zm0-29.5h5.8v9.9h-5.8zm-29 29.5h5.8v9.8h-5.8zm0-59h5.8v9.8h-5.8zm63.8 59.1h5.8v19.6h-5.8zm0-68.8h5.8v19.6h-5.8zm-52.2-9.8h-5.8v-9.8h-5.8v-9.9h5.8v-9.8h5.8v-9.8h5.8v9.8h5.8v9.8h5.8v9.9h-5.8v9.8h-5.8v9.8h-5.8zm0-9.8h5.8v-9.8h-5.8zm34.8 9.8h-5.8v-9.8h-5.8v-9.9h5.8v-9.8h5.8v-9.8h5.8v9.8h5.8v9.8h5.8v9.9h-5.8v9.8h-5.8v9.8h-5.8zm0-9.8h5.8v-9.8h-5.8zm-46.4-88.6h5.8v-9.8h5.8v-9.8h5.8v-9.9h5.8v9.9h5.8v9.8h5.8v9.8h-11.6v9.9h17.4v-9.9h5.8v-9.8h5.8v-9.8h-5.8v-9.9h-5.8v-9.8h-5.8v-9.8h-5.8v-9.9h-5.8v-9.8h-5.8v9.8h-5.8v9.9h-5.8v9.8h-5.8v-29.5h5.8v-9.9h5.8v-9.8h5.8v-9.8h5.8v-9.9h11.6v29.5h5.8v9.9h5.8v9.8h5.8v9.9h5.8v9.8h5.8v9.8h5.8v39.4h-5.8v9.8h-5.8v9.8h-5.8v9.9h-5.8v9.8h-5.8v9.9h-5.8v9.8h-5.8v-9.8h-5.8v-9.9h-5.8v-9.8h-5.8v-9.9h-5.8v-9.8h-5.8zm63.8 39.4h5.8v19.6h-5.8zm-63.8 0h5.8v9.9h-5.8zm0-68.9h5.8v9.8h-5.8zm63.8-29.5h5.8v9.9h-5.8zm-11.6-29.5h5.8v-9.9h5.8v-9.9h5.8v19.8h-5.8v9.8h-5.8v9.8h-5.8zm-11.6-19.7h5.8v9.9h-5.8z"/>
		<path id="Layer" fill-rule="evenodd" class="s0" d="m110.1 600h-17.3v-9.8h-5.8v-9.9h-5.8v-9.8h-5.8v-9.8h-5.8v-9.9h5.8v-9.8h5.8v-9.9h5.8v-9.8h5.8v-9.8h5.8v-9.9h5.8v9.9h5.8v9.8h5.7v9.8h5.8v9.9h5.8v9.8h5.8v9.9h-5.8v9.8h-5.8v9.8h-5.8v9.9h-5.7zm-5.8-29.5h5.8v-9.9h5.7v-9.8h-5.7v-9.8h-5.8v-9.9h-5.8v9.9h-5.8v9.8h-5.8v9.8h5.8v9.9h5.8v9.8h5.8zm-5.8-19.7h5.8v9.9h-5.8zm28.9 29.5h5.8v9.8h-5.8zm0-59h5.8v9.8h-5.8zm-63.7 59.1h5.8v19.6h-5.8zm0-68.8h5.8v19.6h-5.8zm58 0h-5.8v-9.8h-5.8v-9.8h-5.8v-9.9h5.8v-9.8h5.8v-9.8h5.8v9.8h5.8v9.8h5.7v9.9h-5.7v9.8h-5.8zm-5.8-19.7h5.8v-9.8h-5.8zm-29 19.7h-5.8v-9.9h-5.8v-9.8h-5.8v-9.8h5.8v-9.9h5.8v-9.8h5.8v9.8h5.8v9.9h5.8v9.8h-5.8v9.8h-5.8zm-5.8-19.6h5.8v-9.9h-5.8zm52.1-68.8h-5.8v9.8h-5.8v9.8h-5.8v9.9h-5.7v9.8h-5.8v9.8h-5.8v-9.8h-5.8v-9.8h-5.8v-9.9h-5.8v-9.8h-5.8v-9.8h-5.8v-9.9h-5.8v-39.3h5.8v-9.9h5.8v-9.8h5.8v-9.8h5.8v-9.9h5.8v-9.8h5.8v-29.5h11.6v9.8h5.7v9.9h5.8v9.8h5.8v9.8h5.8v29.5h-5.8v-9.8h-5.8v-9.8h-5.8v-9.9h-5.7v9.9h-5.8v9.8h-5.8v9.8h-5.8v9.9h-5.8v9.8h-5.8v9.9h5.8v9.8h5.8v9.8h17.3v-9.8h-11.5v-9.8h5.7v-9.9h5.8v-9.8h5.8v9.8h5.8v9.9h5.8v9.8h5.8zm-63.7 39.3h-5.8v-19.6h5.8zm57.9-19.7h5.8v9.8h-5.8zm0-68.8h5.8v9.8h-5.8zm-57.9-19.7h-5.8v-9.8h5.8zm11.6-19.7h-5.8v-9.8h-5.8v-9.8h-5.8v-19.8h5.8v9.9h5.8v9.9h5.8zm5.8-39.4h5.8v9.9h-5.8z"/>
	</g>
</svg>