<svg version="3.10" xmlns="http://www.w3.org/2000/svg" width="1200" height="600">
	<title>Республика Троещина</title>
    <rect width="1200" height="600" style="fill:rgb(212,39,39)"/>
<g style="fill:rgb(255,255,255)">
<path id="Советский Союз" d="m179.8 56.6l-24.4 16.4 9.6 27.6-24-16.4-23.6 16.4 9.6-27.6-24.4-16.4h29.6l8.8-27.6 9.2 27.6zm-63.2 4.4l15.6 11.2-6 17.2 14.8-11.2 15.6 11.2-6.4-17.2 15.6-11.2h-18.8l-6-18.4-5.2 18.4zm24.4 174.8q-4 3.2-7.2 6.4-2.8 3.2-4.4 4-2 2-2.4 2.4 0 0.4 0 1.2 1.6 0.4 2.8 0.8 1.2 0.8 2.4 1.2 1.6 0 2.4 0.8 5.6 2.4 13.2 2.4 6 1.2 6 2.4v0.4q0 1.6-7.6 5.2-5.2 2.4-7.2 2.4-1.2 0-2.4-0.4-0.8-0.8-5.2-2-4.4-2.8-6.8-3.6-2.4-0.8-3.6-1.6-0.4-0.8-0.8-0.8 0-0.4-0.4-0.4h-1.2q-0.4 0-0.8 0.4 0 0-0.4 0.8-0.4 1.2-1.2 2.4-0.4 0.8-2 2.4-1.2 1.2-4 3.6-2.4 2.4-6.8 6.8-5.6 6.8-8 9.2l-4.8 4.8q-4.4 5.2-6.8 8.8-2 3.2-2.8 5.2-0.8 0.8-0.8 2.4 0 1.6-0.4 2 0 0.4-1.2 1.6-2.4 2-4.8 2-1.2 0-2.4-0.4-4-1.2-8.4-5.2-4.4-4-6.4-8.4-1.2-2-1.6-3.6 0-1.6 0-2 0-1.6 0.8-2.4 1.2-3.6 5.2-3.6h2q2.4-1.2 9.2-6 4.8-4 9.2-8 4.8-4 12.8-11.6 6.4-7.2 8-8.8 2-2 4.8-3.6h0.8q-0.8-0.8-0.8-1.2 0-0.4-0.8-1.2-0.8-1.6-1.6-3.2-0.8-2-2.8-7.2-2-4-2.4-5.2 0-1.2 0-2.8 0-1.2 0.8-4 1.2-3.2 2.4-6.4 2.4-4.4 3.6-4.4 1.2 0 1.6 2 0.4 0.8 0.4 1.6 0.4 0.8 0.4 2.8 0.8 4 1.2 7.6 0.8 3.6 1.6 6 0.8 2.8 1.6 5.2 1.2 2 2 2v0.4q0.4-0.8 1.6-2.4l14.8-14.8q6.8-7.2 11.2-12l2.2-2.3-29-30.5-19.2 18.8-20-20.8 40-38.8 35.6 4.4-25.2 25.2 30.1 28.7 2.7-2.7q6-8 10.8-13.2 4.8-5.2 9.2-9.6 5.2-5.2 11.2-10 6-5.2 18.4-15.2 3.2-2.4 7.2-5.6 4.4-3.2 8.4-6 4-3.2 7.2-5.6 3.6-2.4 4.8-3.6 1.6-0.8 3.6-2 2.4-1.6 4.8-3.2l5.2-3.2h0.4q0 0.8-2.4 5.2-2.4 4-4 6.8-2 2.8-6 8.4-4 5.2-12 15.2-3.2 4.4-6 8-2.4 3.2-4.8 6.4-2.4 3.2-5.2 6.4-2.4 2.8-5.6 6.8-2.8 2.8-8.4 8.4-5.6 5.2-8.8 8-3.2 3.2-6.8 6-3.2 2.8-6.4 6-1.2 1.2-2.7 2.3l45.9 43.7q3.2 3.2 3.2 8 0 4.4-3.2 7.6-3.2 3.2-8 3.2-4.4 0-7.6-3.2l-44.3-46.5q-10.4 9.6-16.9 16.1z"/>
<path id="Р Е С П У Б Л И К А" d="m191.4 322.5q12.2 0 17.2 5.3 5.2 5.2 5.2 12.4 0 3.6-1.4 7.1-1.3 3.4-4 6.2-2.8 2.6-7.1 4.2-4.2 1.7-10 1.7-1 0-1.9-0.1-1-0.1-2.2-0.3-1.2-0.3-2.7-0.6-1.4-0.4-3.6-0.8v23.4q0 0.8 0.1 1.9 0.1 1.2 0.8 2.3 0.7 1 2.3 1.8 1.7 0.8 4.8 0.8h1.6v1.2h-29.7v-1.2h1.6q3 0 4.6-0.8 1.7-0.8 2.4-1.8 0.8-1.1 0.9-2.3 0.1-1.1 0.1-1.9v-36.5q0-4.4 1.4-8.4 1.5-4 4.2-7 2.7-3.1 6.6-4.8 3.9-1.8 8.8-1.8zm-10.5 16.8v14.8q2.9 1 4.9 1.2 2.2 0.1 2.9 0.1 3.5 0 6.1-1.2 2.5-1.2 4.2-3.1 1.7-2 2.4-4.5 0.9-2.5 0.9-5.3 0-8.1-2.6-11.4-2.6-3.4-8.2-3.4-3.7 0-5.8 1.8-2 1.7-3.2 3.9-1 2.2-1.3 4.3-0.3 2.1-0.3 2.8zm98-13.2h-18.2v26.3h4.6q5.7 0 7.6-1.7 2.5-2.3 2.8-8h1.8v23.2h-1.8q-0.6-4.8-1.3-6.3-0.9-1.7-3-2.6-2-1-6.1-1h-4.6v21.9q0 4.5 0.4 5.4 0.5 1 1.4 1.5 1 0.6 3.7 0.6h11.3q5.6 0 8.2-0.8 2.6-0.8 4.9-3.1 3.1-3 6.2-9.2h2l-5.8 16.7h-51.2v-1.8h2.4q2.3 0 4.4-1.1 1.6-0.8 2.1-2.3 0.6-1.6 0.6-6.5v-43.2q0-6.4-1.2-7.8-1.8-2-5.9-2h-2.4v-1.8h51.2l0.8 14.5h-1.9q-1.1-5.2-2.3-7.1-1.3-2-3.7-3-2-0.8-7-0.8zm107.7-4l1 21.2-1.2 0.2q-1.2-5-3.4-8.5-2.3-3.4-5.4-5.6-3-2.1-6.4-3.1-3.4-0.9-6.9-0.9-5.1 0-9.5 1.9-4.5 1.9-7.9 5.7-3.4 3.8-5.3 9.4-1.9 5.6-1.9 12.7 0 8.5 2.4 14.2 2.5 5.7 6.3 9.3 3.8 3.4 8.3 4.9 4.6 1.4 9 1.4 2.1 0 4.7-0.5 2.7-0.4 5.5-1.8 3-1.3 6.1-3.6 3.2-2.4 6.2-6.1l2 1.9q-3.3 4.7-6.9 7.6-3.5 3-7 4.6-3.5 1.6-6.9 2.3-3.4 0.6-6.5 0.6-7.2 0-13.6-2.6-6.2-2.6-11-7.1-4.6-4.7-7.4-11-2.7-6.3-2.7-13.8 0-6 2.2-12 2.2-6.1 6.6-10.8 4.4-4.9 10.9-7.9 6.7-3.1 15.6-3.1 3.3 0 6.2 0.6 2.9 0.5 6.5 1.6 2.4 0.8 3.7 1.4 1.4 0.4 2.4 0.4 1 0 2-0.6 1-0.8 1.1-2.9zm32.1 0.4h71.2v1.2h-1.6q-3.1 0-4.8 0.8-1.6 0.8-2.3 1.9-0.7 1-0.8 2.2-0.1 1.1-0.1 1.9v50.5q0 0.8 0.1 1.9 0.1 1.2 0.8 2.3 0.7 1 2.3 1.8 1.7 0.8 4.8 0.8h1.6v1.2h-29.7v-1.2h1.6q3 0 4.6-0.8 1.7-0.8 2.4-1.8 0.8-1.1 0.9-2.3 0.1-1.1 0.1-1.9v-54.9h-31v54.9q0 0.8 0.1 1.9 0.1 1.2 0.7 2.3 0.8 1 2.4 1.8 1.7 0.8 4.8 0.8h1.6v1.2h-29.7v-1.2h1.6q3 0 4.6-0.8 1.7-0.8 2.4-1.8 0.8-1.1 0.9-2.3 0-1.1 0-1.9v-50.5q0-0.8 0-1.9-0.1-1.2-0.9-2.2-0.7-1.1-2.4-1.9-1.6-0.8-4.6-0.8h-1.6zm135.3 41.6l14.8-32.1q0.4-0.8 0.8-2.2 0.5-1.5 0.5-2.4 0-0.6-0.3-1.2-0.3-0.6-1-1.2-0.8-0.6-1.9-0.8-1.1-0.4-2.5-0.4h-0.8v-1.3h20.2v1.3q-2.3 0.1-4.1 1.1-1.7 1.1-3 2.6-1.2 1.4-2.1 2.9-0.8 1.5-1.3 2.7l-19.4 42q-2.3 5.1-5 8-2.6 3-5.2 4.5-2.6 1.5-5 1.9-2.3 0.4-4.2 0.4-3.1 0-5.5-1.3-2.3-1.5-2.3-4.7 0-2.2 1.7-3.2 1.7-1.2 3.6-1.2 1.6 0 2.6 0.6 1.2 0.5 2.2 1.2 0.8 0.6 1.7 1.3 1.1 0.5 2.4 0.5 1.9 0 4-1.4 2.1-1.5 3.4-5.4l-21.2-44q-0.8-1.7-1.8-3.2-0.9-1.5-2.2-2.7-1.3-1.2-2.9-1.9-1.6-0.7-3.7-0.7v-1.3h26.9v1.3q-2.5 0-4.5 0.6-1.9 0.6-1.9 2.7 0 0.8 0.2 1.7 0.2 1 0.6 1.6zm63 17v-46.9q0-6.4-1.3-7.8-1.8-2-5.9-2h-2.4v-1.8h49.3l0.7 14.5h-1.9q-1-5.2-2.2-7.1-1.3-2-3.7-3-2-0.8-7-0.8h-15.1v24.8q2.5-0.5 4.5-0.6 2-0.1 4.1-0.1 0.7 0 2.9 0.1 2.3 0.1 5.1 0.7 2.9 0.6 6 1.7 3.2 1.2 5.7 3.3 2.7 2.2 4.4 5.6 1.7 3.3 1.7 8.1 0 2.3-0.8 5.6-0.6 3.4-3.3 6.4-2.5 3-7.6 5.2-5 2.1-13.6 2.1h-29.2v-1.2h1.6q3 0 4.6-0.8 1.8-0.7 2.4-1.8 0.8-1.1 0.9-2.3 0.1-1.1 0.1-1.9zm10.5-26v29.1q1.9 0.6 3.6 0.9 1.7 0.2 3.6 0.2 4.8 0 7.9-1.4 3.2-1.5 5.1-3.7 1.9-2.3 2.7-4.9 0.9-2.5 0.9-4.7 0-3.1-1.1-5.9-0.9-3-3-5.2-2.1-2.3-5.4-3.7-3.3-1.5-7.9-1.5-1.4 0-3.3 0.3-1.7 0.2-3.1 0.5zm61.9 34v-1.2q3.3-0.5 5.3-3 2-2.4 3.3-6.1l20.5-57h2.8l23.4 57q1 2.4 1.8 4 0.9 1.7 1.9 2.7 1.1 1 2.5 1.6 1.4 0.5 3.6 0.8v1.2h-26.6v-1.2q2.2-0.4 3.5-0.9 1.4-0.5 2-0.9 0.8-0.5 1-1.1 0.2-0.6 0.2-1.3 0-0.9-0.2-1.8-0.2-1.1-0.5-1.8l-17.1-42.6-15.1 42.5q-0.3 0.9-0.8 1.8-0.3 0.8-0.3 1.8 0 1.1 0.6 2 0.7 0.8 1.6 1.3 1.1 0.5 2.2 0.8 1.3 0.2 2.4 0.2v1.2zm111.1-16.8l37.3-49.7h3.2v54.3q0 6.5 1.7 8.4 1.7 1.7 8 2v1.8h-29.1v-1.8q6.3-0.3 8-2 1.7-1.9 1.7-8.4v-37.5l-37.3 49.7h-3.2v-54.2q0-6.6-1.7-8.5-1.7-1.7-8-2v-1.8h29.1v1.8q-6.3 0.3-8 2-1.7 1.9-1.7 8.5zm80.5-49.7h29.8v1.2h-1.7q-3 0-4.7 0.8-1.6 0.7-2.4 1.9-0.6 1-0.7 2.2-0.1 1.1-0.1 1.9v50.5q0 0.8 0.1 1.9 0.1 1.1 0.7 2.3 0.8 1 2.4 1.8 1.7 0.7 4.7 0.7h1.7v1.3h-29.8v-1.3h1.6q3.1 0 4.7-0.7 1.7-0.8 2.4-1.8 0.7-1.2 0.8-2.3 0.1-1.1 0.1-1.9v-50.5q0-0.8-0.1-1.9-0.1-1.2-0.8-2.2-0.7-1.2-2.4-1.9-1.6-0.8-4.7-0.8h-1.6zm40 0h22.9v1.2q-4.6 0.7-8.1 2.8-3.3 2-6.3 5.1-3 3.1-6.1 7-3.1 3.9-7.3 8.1l-4.7 4.9 22 23.9q4.9 5.4 9 8.6 4.1 3.1 8.9 3.7v1.2h-29.7v-1.2q1-0.1 2-0.2 1-0.1 1.8-0.3 0.8-0.3 1.3-0.9 0.5-0.5 0.5-1.5 0-1-0.8-1.9-0.6-0.9-1.5-1.9l-23.7-26.7q0.9-0.7 3.1-2.7 2.3-2.1 5-4.9 2.9-2.7 5.8-5.8 3-3.1 5.4-5.9 2.5-2.9 4-5.2 1.6-2.4 1.6-3.5 0-0.9-0.4-1.4-0.5-0.6-1.3-0.8-0.6-0.3-1.6-0.4-0.9-0.1-1.8-0.1zm91.9 44.2h-23.6l-4.9 13.2q-0.5 1-0.9 1.8-0.3 0.9-0.3 1.8 0 1.2 0.7 2 0.7 0.8 1.6 1.4 1.1 0.4 2.2 0.7 1.2 0.2 2.4 0.2v1.2h-18v-1.2q3.4-0.5 5.3-2.9 1.9-2.5 3.4-6.1l22.3-57.1h2.8l23.4 57.1q1 2.4 1.8 4 1 1.6 1.9 2.6 1.1 1 2.5 1.6 1.4 0.5 3.6 0.8v1.2h-26.6v-1.2q2.2-0.4 3.5-0.8 1.3-0.5 2-1 0.8-0.5 1-1 0.2-0.7 0.2-1.4 0-0.8-0.2-1.8-0.2-1-0.5-1.8zm-1.5-3.5l-10.6-26.7-10.1 26.7z"/>
<path id="Т Р О Е Щ И Н А" d="m90.2 431.3h77.9l1.2 20.7h-1.8q-0.1-1.7-0.7-4.2-0.5-2.5-2.3-5.4-1.7-3-5-4.5-3.1-1.8-8.5-1.8h-14.6v74.6q0 1 0.2 2.6 0.1 1.6 1 3.2 1.1 1.4 3.3 2.4 2.4 1.1 6.5 1.1h2.3v3h-41v-3h2.2q4.2 0 6.4-1.1 2.4-1 3.3-2.4 1-1.6 1.2-3.2 0.1-1.6 0.1-2.6v-74.6h-14.5q-5.4 0-8.7 1.8-3.1 1.5-5 4.5-1.7 2.9-2.2 5.4-0.5 2.5-0.6 4.2h-1.9zm160.5 0q16.9 0 23.8 7.3 7.1 7.2 7.1 17.1 0 4.9-1.8 9.8-1.9 4.7-5.7 8.5-3.8 3.7-9.7 5.9-5.7 2.2-13.8 2.2-1.3 0-2.7-0.1-1.3-0.1-3-0.4-1.5-0.4-3.6-0.8-2-0.5-5-1.2v32.4q0 1 0.1 2.6 0.1 1.6 1.1 3.2 1 1.4 3.2 2.4 2.4 1.1 6.6 1.1h2.2v1.7h-41v-1.7h2.2q4.2 0 6.5-1.1 2.3-1 3.2-2.4 1.1-1.6 1.2-3.2 0.1-1.6 0.1-2.6v-50.3q0-6.2 2-11.7 2.1-5.5 5.8-9.7 3.8-4.2 9.1-6.5 5.4-2.5 12.1-2.5zm-14.4 23.2v20.4q3.9 1.3 6.8 1.6 3 0.1 3.9 0.1 4.9 0 8.4-1.5 3.5-1.8 5.8-4.4 2.3-2.7 3.4-6.1 1.2-3.6 1.2-7.4 0-11.1-3.6-15.7-3.5-4.7-11.2-4.7-5.2 0-8 2.5-2.9 2.3-4.5 5.4-1.4 3-1.8 5.9-0.4 2.8-0.4 3.9zm128.1 69.7q-9.4 0-17.3-3.7-7.9-3.8-13.5-10.2-5.6-6.6-8.8-15.1-3.1-8.6-3.1-18.4 0-10.8 3.7-19.4 3.8-8.7 9.9-14.7 6.3-6 14.4-9.3 8.3-3.3 17.2-3.3 9.4 0 17.3 3.7 7.8 3.7 13.5 10.1 5.6 6.4 8.8 15 3.1 8.7 3.1 18.6 0 9.9-3.3 18.4-3.3 8.5-9.3 14.8-6 6.3-14.3 9.9-8.2 3.6-18.3 3.6zm0.7-5.3q5.5 0 10.6-2.5 5.1-2.4 9-7.6 4.1-5.1 6.4-12.8 2.5-7.7 2.5-18.3 0-12.2-2.7-20.3-2.7-8.2-6.7-13-4.1-5-8.9-6.9-4.7-2.1-9.1-2.1-3.5 0-8.5 1.8-4.8 1.7-9.3 6.3-4.4 4.6-7.6 12.7-3.1 8-3.1 20.4 0 11.4 2.3 19.4 2.5 8 6.3 13.1 4 5.1 8.8 7.5 5 2.3 10 2.3zm137-82.6h-25.2v36.3h6.3q7.9 0 10.5-2.4 3.5-3.1 3.9-11h2.5v32h-2.5q-0.8-6.7-1.8-8.7-1.2-2.3-4.1-3.6-2.7-1.4-8.5-1.4h-6.3v30.2q0 6.1 0.6 7.4 0.6 1.3 1.9 2.1 1.3 0.8 5.1 0.8h15.6q7.7 0 11.3-1 3.5-1.2 6.8-4.4 4.2-4.1 8.5-12.7h2.8l-8 23.1h-70.6v-2.5h3.2q3.3 0 6.2-1.6 2.1-1 2.9-3.1 0.8-2.2 0.8-8.9v-59.6q0-8.8-1.7-10.8-2.5-2.7-8.2-2.7h-3.2v-2.5h70.6l1 20h-2.6q-1.4-7.2-3.1-9.8-1.7-2.7-5.2-4.2-2.7-1-9.5-1zm67.1 86.7v-1.7h2.2q4.2 0 6.4-1.1 2.4-1 3.3-2.4 1-1.6 1.2-3.2 0.1-1.6 0.1-2.6v-69.7q0-1-0.1-2.6-0.2-1.6-1.2-3-0.9-1.6-3.3-2.7-2.2-1-6.4-1h-2.2v-1.7h41v1.7h-2.3q-4.2 0-6.5 1-2.2 1.1-3.3 2.7-0.9 1.4-1 3-0.2 1.6-0.2 2.6v65.4q0 6.1 0.5 7.4 0.7 1.3 2 2.1 1.3 0.8 5.1 0.8h18.9q3.8 0 5.1-0.8 1.3-0.8 1.8-2.1 0.7-1.3 0.7-7.4v-65.4q0-1-0.1-2.6-0.2-1.6-1.2-3-0.9-1.6-3.3-2.7-2.2-1-6.4-1h-2.2v-1.7h41v1.7h-2.3q-4.2 0-6.5 1-2.2 1.1-3.3 2.7-0.9 1.4-1 3-0.2 1.6-0.2 2.6v65.4q0 6.1 0.6 7.4 0.6 1.3 1.9 2.1 1.3 0.8 5.1 0.8h18.9q3.8 0 5.1-0.8 1.3-0.8 1.8-2.1 0.7-1.3 0.7-7.4v-65.4q0-1-0.1-2.6-0.2-1.6-1.2-3-0.9-1.6-3.3-2.7-2.2-1-6.4-1h-2.2v-1.7h41v1.7h-2.3q-4.2 0-6.5 1-2.2 1.1-3.3 2.7-0.9 1.4-1 3-0.2 1.6-0.2 2.6c0 0.7 0 68.3 0 69.4q0.2 1.6 0.7 3.3 0.6 1.7 1.8 3.3 1.2 1.4 3.4 2.2 1.5 0.5 3 1.7 1.6 1.1 2.9 2.8 1.5 1.7 2.4 3.9 0.9 2.2 0.9 4.7 0 2.5-1.1 5.4-1 2.9-3.5 5.4-2.4 2.3-6.4 4-4.1 1.6-10 1.6-3.2 0-6.6-0.5-3.5-0.6-6.3-1.1-2.9-0.6-4.9-1.2-1.8-0.5-2.1-0.5-5-1.4-9.3-3.1-4.3-1.7-8.4-3-3.9-1.5-7.8-2.4-4-0.9-8.3-0.9-0.6 0-1.9 0.1-1.2 0-2.5 0.4-1.2 0.4-2.3 1.2-1 0.8-1.3 2.3 0.3-0.1 0.9-0.1 2.3 0 3.5 1.4 1.1 1.4 1.1 3.2 0 2-1.3 3.3-1.3 1.3-3.3 1.3-2.2 0-3.8-1.7-1.5-1.9-1.5-5.3 0-2.6 0.9-4.9 0.9-2.4 3-4.1 2.1-1.8 5.5-2.9 3.4-1 8.3-1 1.7 0 3.9 0.2 2.2 0.2 4.7 0.4 2.5 0.3 4.9 0.7 2.3 0.4 4.3 0.9 5.9 1.4 11.1 3.3 5.3 1.8 9.8 3.4 4.6 1.5 8.7 2.6 4 1 7.6 1 2.7 0 4.6-0.9 1.9-0.9 3.1-2.3 1.2-1.5 1.7-3 0.5-1.6 0.5-3.1 0-3.6-1.8-5.7-1.7-2.3-4.1-3.3-2.3-1.2-4.9-1.4-2.5-0.3-4.1-0.3zm205-23.2l51.5-68.5h4.5v74.8q0 9 2.3 11.7 2.4 2.3 11 2.7v2.5h-40.1v-2.5q8.7-0.4 11-2.7 2.4-2.7 2.4-11.7v-51.6l-51.5 68.5h-4.4v-74.8q0-9-2.4-11.7-2.4-2.3-11-2.7v-2.5h40.1v2.5q-8.7 0.4-11 2.7-2.4 2.7-2.4 11.7zm138.9-27.5h42v-30q0-1.1-0.1-2.6-0.1-1.6-1.2-3-0.9-1.6-3.3-2.7-2.2-1-6.4-1h-2.2v-1.7h41v1.7h-2.2q-4.2 0-6.6 1-2.2 1.1-3.2 2.7-1 1.4-1.1 3-0.1 1.5-0.1 2.6v69.7q0 1 0.1 2.6 0.1 1.6 1.1 3.1 1 1.5 3.2 2.5 2.4 1.1 6.6 1.1h2.2v1.7h-41v-1.7h2.2q4.2 0 6.4-1.1 2.4-1 3.3-2.5 1.1-1.5 1.2-3.1 0.1-1.6 0.1-2.6v-33.6h-42v33.6q0 1 0.1 2.6 0.1 1.6 1.1 3.1 1 1.5 3.2 2.5 2.4 1.1 6.6 1.1h2.2v1.7h-41v-1.7h2.2q4.2 0 6.5-1.1 2.3-1 3.2-2.5 1.1-1.5 1.2-3.1 0.1-1.6 0.1-2.6v-69.7q0-1.1-0.1-2.6-0.1-1.6-1.2-3-0.9-1.6-3.2-2.7-2.3-1-6.5-1h-2.2v-1.7h41v1.7h-2.2q-4.2 0-6.6 1-2.2 1.1-3.2 2.7-1 1.4-1.1 3-0.1 1.5-0.1 2.6zm161.6 19.9h-32.5l-6.8 18.2q-0.6 1.3-1.1 2.5-0.4 1.2-0.4 2.5 0 1.6 0.9 2.7 0.9 1.1 2.2 1.9 1.4 0.6 3 1 1.7 0.3 3.3 0.3v1.7h-24.8v-1.7q4.6-0.7 7.2-4.1 2.8-3.4 4.8-8.4l30.7-78.7h3.8l32.4 78.7q1.3 3.3 2.5 5.5 1.3 2.3 2.6 3.7 1.4 1.3 3.4 2.1 2 0.8 5 1.2v1.7h-36.7v-1.7q3-0.5 4.9-1.2 1.8-0.7 2.7-1.3 1.1-0.7 1.3-1.4 0.3-1 0.3-1.9 0-1.2-0.3-2.5-0.2-1.4-0.6-2.5zm-2.1-4.8l-14.6-36.8-14 36.8z"/>
</g>
</svg>