<svg version="1.2" xmlns="http://www.w3.org/2000/svg" viewBox="0 0 1200 600" width="1200" height="600">
	<title>VseMirdogozhyn</title>
	<style>
		.s0 { fill: #df1717 } 
		.s1 { fill: #00a73d } 
		.s2 { fill: #ffffff } 
	</style>
	<path id="Layer" class="s0" d="m0 0h1200v600h-1200z"/>
	<path id="Слой" class="s1" d="m0 400h1200v200h-1200z"/>
	<g id="Text">
		<path id="Сло1" class="s2" d="m0 0h133.3v600h-133.3z"/>
		<path id="Советский Союз" fill-rule="evenodd" class="s2" d="m261.2 58.9l-9-26.9-8.5 26.9h-28.9l23.8 16-9.4 26.9 23-16 23.4 16-9.3-26.9 23.8-16zm-14 4.3l5.1-17.9 5.8 17.9h18.4l-15.2 10.9 6.2 16.8-15.2-10.9-14.4 10.9 5.8-16.8-15.2-10.9zm21.6 154.7l43.2 45.4q3.1 3.1 7.4 3.1 4.7 0 7.8-3.1 3.1-3.2 3.1-7.4 0-4.7-3.1-7.8l-44.8-42.6q1.5-1.2 2.7-2.3 3.1-3.1 6.2-5.8 3.5-2.8 6.6-5.9 3.2-2.7 8.6-7.8 5.5-5.5 8.2-8.2 3.1-3.9 5.5-6.6 2.7-3.1 5-6.2 2.4-3.2 4.7-6.3 2.7-3.5 5.9-7.8 7.8-9.7 11.7-14.8 3.9-5.5 5.8-8.2 1.6-2.7 3.9-6.6 2.4-4.3 2.4-5.1h-0.4l-5.1 3.1q-2.3 1.6-4.7 3.1-1.9 1.2-3.5 2-1.2 1.2-4.7 3.5-3.1 2.3-7 5.5-3.9 2.7-8.2 5.8-3.9 3.1-7 5.5-12.1 9.7-17.9 14.8-5.9 4.7-11 9.7-4.3 4.3-8.9 9.4-4.7 5.1-10.6 12.9l-2.6 2.6-29.3-28 24.5-24.6-34.7-4.2-39 37.8 19.5 20.3 18.7-18.4 28.3 29.8-2.1 2.2q-4.3 4.7-11 11.7l-14.4 14.4q-1.2 1.6-1.5 2.4v-0.4q-0.8 0-2-2-0.8-2.3-1.6-5-0.7-2.4-1.5-5.9-0.4-3.5-1.2-7.4 0-1.9-0.4-2.7 0-0.8-0.4-1.6-0.4-1.9-1.5-1.9-1.2 0-3.5 4.3-1.2 3.1-2.4 6.2-0.8 2.7-0.8 3.9 0 1.6 0 2.7 0.4 1.2 2.4 5.1 1.9 5.1 2.7 7 0.8 1.6 1.6 3.1 0.8 0.8 0.8 1.2 0 0.4 0.7 1.2h-0.7q-2.8 1.6-4.7 3.5-1.6 1.6-7.8 8.6-7.8 7.4-12.5 11.3-4.3 3.9-9 7.8-6.6 4.7-8.9 5.8h-2q-3.9 0-5.1 3.6-0.7 0.7-0.7 2.3 0 0.4 0 1.9 0.3 1.6 1.5 3.6 2 4.2 6.3 8.1 4.2 3.9 8.1 5.1 1.2 0.4 2.4 0.4 2.3 0 4.7-1.9 1.1-1.2 1.1-1.6 0.4-0.4 0.4-2 0-1.5 0.8-2.3 0.8-2 2.7-5.1 2.4-3.5 6.7-8.5l4.6-4.7q2.4-2.4 7.8-9 4.3-4.3 6.7-6.6 2.7-2.4 3.9-3.5 1.5-1.6 1.9-2.4 0.8-1.2 1.2-2.3 0.4-0.8 0.4-0.8 0.4-0.4 0.8-0.4h1.1q0.4 0 0.4 0.4 0.4 0 0.8 0.8 1.2 0.8 3.5 1.5 2.4 0.8 6.6 3.5 4.3 1.2 5.1 2 1.2 0.4 2.4 0.4 1.9 0 7-2.4 7.4-3.5 7.4-5v-0.4q0-1.2-5.9-2.4-7.4 0-12.8-2.3-0.8-0.8-2.4-0.8-1.1-0.4-2.3-1.1-1.2-0.4-2.7-0.8 0-0.8 0-1.2 0.3-0.4 2.3-2.3 1.6-0.8 4.3-3.9 3.1-3.2 7-6.3 6.4-6.3 16.5-15.7z"/>
		<path id="В С Ё   Б У Д Е Т" fill-rule="evenodd" class="s2" d="m340.5 422h33.7q6.6 0 10.6 1.6 4.1 1.5 6.4 3.8 2.2 2.2 2.9 4.8 0.8 2.4 0.8 4.4 0 4.8-3 8.4-3.1 3.5-8.3 4.4v0.4q2 0.3 4.3 1.2 2.2 0.8 4.1 2.4 1.8 1.6 3 4 1.2 2.4 1.2 5.6 0 3.6-1.2 6-1.2 2.5-3.2 4.2-2 1.7-4.5 2.6-2.5 1-5.1 1.5-2.6 0.5-5 0.6-2.4 0.1-4.1 0.1h-32.6zm20.3 11.4v10.8h5.1q2.8 0 4.4-0.7 1.6-0.6 2.4-1.4 0.8-0.9 1-1.9 0.3-0.9 0.3-1.5 0-0.9-0.4-1.8-0.4-1-1.2-1.7-0.9-0.8-2.4-1.3-1.4-0.5-3.6-0.5zm0 21.8v11.4h5.4q2.6 0 4.2-0.5 1.6-0.7 2.4-1.5 0.8-1 1.1-2 0.3-1 0.3-1.7 0-2.2-1.1-3.3-1.1-1.1-2.5-1.7-1.4-0.5-2.8-0.6-1.4-0.1-2.1-0.1zm107.6 6.6v14.9q-4.9 1.4-8.8 1.9-3.8 0.4-6.9 0.4-8.1 0-14.4-2.2-6.2-2.2-10.4-6-4.3-3.8-6.4-9.1-2.2-5.4-2.2-11.7 0-5.4 1.8-10.6 1.8-5.2 5.8-9.3 4.1-4.1 10.6-6.6 6.4-2.5 15.8-2.5 4.8 0 8.2 0.6 3.6 0.6 5.5 1l1.3 0.2v14.8q-2.4-0.9-5.2-1.5-2.8-0.7-6.1-0.7-3.5 0-6.3 1.2-2.7 1-4.7 2.9-2 1.9-3.1 4.4-1 2.6-1 5.6 0 1.9 0.4 4.5 0.6 2.5 2.3 4.7 1.7 2.3 4.7 3.8 3 1.5 8.1 1.5 1.6 0 4.1-0.4 2.6-0.4 6.9-1.8zm34-50.8q0-2.5 1.8-4.3 1.8-1.8 4.4-1.8 2.5 0 4.3 1.8 1.8 1.8 1.8 4.3 0 2.6-1.8 4.4-1.8 1.8-4.3 1.8-2.6 0-4.4-1.8-1.8-1.8-1.8-4.4zm19.1 0q0-2.5 1.7-4.3 1.9-1.8 4.4-1.8 2.6 0 4.3 1.8 1.9 1.8 1.9 4.3 0 2.6-1.9 4.4-1.7 1.8-4.3 1.8-2.5 0-4.4-1.8-1.7-1.8-1.7-4.4zm-28.8 11h48.8v13.2h-27.4v8.1h26.2v12.8h-26.2v8.7h28v13.2h-49.4zm111.9 0h49.8v14h-28.4v7.8h13.1q5.8 0 9.8 1.5 4.1 1.4 6.6 3.9 2.5 2.4 3.6 5.5 1.2 3.1 1.2 6.2 0 2.9-1 5.9-1 3-3.6 5.5-2.6 2.5-7 4.1-4.5 1.6-11.6 1.6h-32.5zm20.9 32.8v11.8h6.2q3 0 4.8-1.6 1.8-1.8 1.8-4.3 0-2.1-1.7-4-1.7-1.9-5.3-1.9zm57.1-32.8h24.4l7.9 24.2h0.3l7.7-24.2h21.1l-21.6 56h-20.5l5.2-11.7zm91.2 41.1l13.3-41.1h28.8l13.3 41.1h8.8v27.3h-21.5v-12.4h-30.1v12.4h-21.4v-27.3zm27.8-27.8h-0.3l-6.7 27.8h13.8zm60.5-13.3h48.9v13.2h-27.4v8.1h26.2v12.8h-26.2v8.7h28v13.2h-49.5zm71.5 0h59.2v16.5h-18.9v39.5h-21.5v-39.5h-18.8z"/>
		<path id=" М И Р Д О Г О Ж И Н !" fill-rule="evenodd" class="s2" d="m225.8 519v44h-18.4v-56h31.9l6.9 32.2h0.5l7-32.2h31.9v56h-18.4v-44h-0.8l-10.5 44h-18.9l-10.4-44zm87.2-12h21.5v32h0.3l14.2-32h25v56h-21.4v-31.4h-0.4l-14.1 31.4h-25.1zm87.6 0h32.8q6.4 0 10.9 1.7 4.7 1.7 7.6 4.5 3 2.8 4.3 6.4 1.5 3.6 1.5 7.5 0 3.3-1.3 6.9-1.3 3.5-4.2 6.4-2.8 2.8-7.3 4.6-4.5 1.8-11.1 1.8h-11.7v16.2h-21.5zm20.9 13v13.9h4.7q1 0 2.6-0.1 1.7-0.2 3.3-0.8 1.7-0.7 2.8-2.1 1.2-1.4 1.2-4 0-1.2-0.4-2.4-0.4-1.3-1.5-2.2-1.1-1.1-3.1-1.7-1.9-0.6-4.9-0.6zm67.5 28l13.3-41h28.8l13.2 41h8.8v27.4h-21.4v-12.4h-30.1v12.4h-21.4v-27.4zm27.8-27.7h-0.3l-6.7 27.7h13.7zm89.4-14.2q7.4 0 13.2 2 5.8 2 9.8 5.8 4 3.7 6.1 9.1 2.1 5.3 2.1 12.1 0 6.7-2.1 12-2.1 5.4-6.1 9.2-4 3.7-9.8 5.7-5.8 2-13.2 2-7.4 0-13.3-2-5.7-2-9.7-5.7-4-3.8-6.1-9.2-2.1-5.3-2.1-12 0-6.8 2.1-12.1 2.1-5.4 6.1-9.1 4-3.8 9.7-5.8 5.9-2 13.3-2zm0 13.4q-3 0-4.8 1.6-1.7 1.6-2.6 4-0.8 2.4-1.1 5.1-0.1 2.7-0.1 4.9 0 2.1 0.1 4.8 0.3 2.8 1.1 5.2 0.9 2.3 2.6 3.9 1.8 1.6 4.8 1.6 3 0 4.7-1.6 1.8-1.6 2.7-3.9 0.8-2.4 1-5.2 0.2-2.7 0.2-4.8 0-2.2-0.2-4.9-0.2-2.7-1-5.1-0.9-2.4-2.7-4-1.7-1.6-4.7-1.6zm55.4-12.4h45.9v16h-24.4v40h-21.5zm98.1-1q7.5 0 13.2 2 5.9 2 9.9 5.8 4 3.7 6 9.1 2.1 5.3 2.1 12.1 0 6.7-2.1 12-2 5.4-6 9.2-4 3.7-9.9 5.7-5.7 2-13.2 2-7.4 0-13.3-2-5.7-2-9.7-5.7-4-3.8-6.1-9.2-2.1-5.3-2.1-12 0-6.8 2.1-12.1 2.1-5.4 6.1-9.1 4-3.8 9.7-5.8 5.9-2 13.3-2zm0 13.4q-3 0-4.8 1.6-1.7 1.6-2.5 4-0.9 2.4-1.2 5.1-0.1 2.7-0.1 4.9 0 2.1 0.1 4.8 0.3 2.8 1.2 5.2 0.8 2.3 2.5 3.9 1.8 1.6 4.8 1.6 3.1 0 4.7-1.6 1.8-1.6 2.7-3.9 0.9-2.4 1-5.2 0.3-2.7 0.3-4.8 0-2.2-0.3-4.9-0.1-2.7-1-5.1-0.9-2.4-2.7-4-1.6-1.6-4.7-1.6zm111.1 43.6h-20.6v-25.4h-0.5l-12.5 25.4h-25.6l20-29.8-17.6-26.2h23.2l12.5 23.6h0.5v-23.6h20.6v23.6h0.5l12.6-23.6h23.2l-17.6 26.2 20 29.8h-25.6l-12.6-25.4h-0.5zm61.7-56h21.5v32h0.3l14.1-32h25.1v56h-21.5v-31.4h-0.3l-14.1 31.4h-25.1zm123.4 19.4v-19.4h21.4v56h-21.4v-20.6h-14.3v20.6h-21.5v-56h21.5v19.4zm50.4-19.4h21.4l-3.1 35.3h-15.2zm2 48.5q0-1.6 0.6-2.9 0.7-1.4 1.9-2.3 1.2-1.1 2.8-1.6 1.6-0.7 3.4-0.7 1.8 0 3.4 0.7 1.6 0.5 2.8 1.6 1.2 0.9 1.8 2.3 0.7 1.3 0.7 2.9 0 1.5-0.7 2.9-0.6 1.4-1.8 2.4-1.2 1-2.8 1.6-1.6 0.6-3.4 0.6-1.8 0-3.4-0.6-1.6-0.6-2.8-1.6-1.2-1-1.9-2.4-0.6-1.4-0.6-2.9z"/>
	</g>
	<g id="a">
		<path id="Layer" fill-rule="evenodd" class="s0" d="m23.2 0h17.4v9.8h5.8v9.9h5.8v9.8h5.8v9.8h5.8v9.9h-5.8v9.8h-5.8v9.9h-5.8v9.8h-5.8v9.8h-5.8v9.9h-5.8v-9.9h-5.8v-9.8h-5.8v-9.8h-5.8v-9.9h-5.8v-9.8h-5.8v-9.9h5.8v-9.8h5.8v-9.8h5.8v-9.9h5.8zm5.8 29.5h-5.8v9.9h-5.8v9.8h5.8v9.8h5.8v9.9h5.8v-9.9h5.8v-9.8h5.8v-9.8h-5.8v-9.9h-5.8v-9.8h-5.8zm0 9.8h5.8v9.9h-5.8zm-29-29.5h5.8v9.8h-5.8zm0 59h5.8v9.8h-5.8zm63.8-68.8h5.8v19.7h-5.8zm0 68.8h5.8v19.7h-5.8zm-52.2 19.6h5.8v9.9h5.8v9.8h5.8v9.9h-5.8v9.8h-5.8v9.8h-5.8v-9.8h-5.8v-9.8h-5.8v-9.9h5.8v-9.8h5.8zm0 29.5h5.8v-9.8h-5.8zm34.8-29.6h5.8v9.9h5.8v9.8h5.8v9.9h-5.8v9.8h-5.8v9.8h-5.8v-9.8h-5.8v-9.8h-5.8v-9.9h5.8v-9.8h5.8zm0 29.5h5.8v-9.8h-5.8zm-46.4 59h5.8v-9.9h5.8v-9.8h5.8v-9.8h5.8v-9.9h5.8v-9.8h5.8v9.8h5.8v9.9h5.8v9.8h5.8v9.8h5.8v9.9h5.8v9.8h5.8v39.4h-5.8v9.8h-5.8v9.8h-5.8v9.9h-5.8v9.8h-5.8v9.8h-5.8v29.6h-11.6v-9.9h-5.8v-9.8h-5.8v-9.9h-5.8v-9.8h-5.8v-29.5h5.8v9.8h5.8v9.9h5.8v9.8h5.8v-9.8h5.8v-9.9h5.8v-9.8h5.8v-9.8h5.8v-9.9h5.8v-9.8h-5.8v-9.9h-5.8v-9.8h-17.4v9.8h11.6v9.9h-5.8v9.8h-5.8v9.9h-5.8v-9.9h-5.8v-9.8h-5.8v-9.9h-5.8zm63.8-39.3h5.8v19.7h-5.8zm-63.8 9.8h5.8v9.8h-5.8zm0 68.9h5.8v9.8h-5.8zm63.8 29.5h5.8v9.9h-5.8zm-11.6 19.6h5.8v9.9h5.8v9.8h5.8v19.7h-5.8v-9.9h-5.8v-9.8h-5.8zm-11.6 29.5h5.8v9.9h-5.8z"/>
		<path id="Layer" fill-rule="evenodd" class="s0" d="m110.2 9.8h5.7v9.9h5.8v9.8h5.8v9.8h5.8v9.9h-5.8v9.8h-5.8v9.9h-5.8v9.8h-5.7v9.8h-5.8v9.9h-5.8v-9.9h-5.8v-9.8h-5.8v-9.8h-5.8v-9.9h-5.8v-9.8h-5.8v-9.9h5.8v-9.8h5.8v-9.8h5.8v-9.9h5.8v-9.8h17.3zm-5.8 9.8h-5.8v9.9h-5.8v9.8h-5.7v9.8h5.7v9.9h5.8v9.8h5.8v-9.8h5.8v-9.9h5.8v-9.8h-5.8v-9.8h-5.8zm-5.8 19.6h5.8v9.9h-5.8zm29-29.5h5.8v9.8h-5.8zm0 59h5.8v9.8h-5.8zm-63.7-68.8h5.8v19.7h-5.8zm0 68.8h5.8v19.7h-5.8zm57.9 29.5h5.8v9.8h5.8v9.9h-5.8v9.8h-5.8v9.8h-5.8v-9.8h-5.8v-9.8h-5.7v-9.9h5.7v-9.8h5.8v-9.9h5.8zm-5.8 19.7h5.8v-9.8h-5.8zm-28.9-19.7h5.8v9.8h5.8v9.9h-5.8v9.8h-5.8v9.9h-5.8v-9.9h-5.8v-9.8h-5.8v-9.9h5.8v-9.8h5.8v-9.8h5.8zm-5.8 19.6h5.8v-9.8h-5.8zm52.1 78.7h-5.8v9.8h-5.8v9.9h-5.8v9.8h-5.8v-9.8h-5.8v-9.9h-5.8v-9.8h11.6v-9.8h-17.4v9.8h-5.7v9.8h-5.8v9.9h5.8v9.8h5.7v9.8h5.8v9.9h5.8v9.8h5.8v9.9h5.8v-9.9h5.8v-9.8h5.8v-9.9h5.8v29.6h-5.8v9.8h-5.8v9.8h-5.8v9.9h-5.8v9.8h-11.6v-29.5h-5.8v-9.8h-5.7v-9.9h-5.8v-9.8h-5.8v-9.9h-5.8v-9.8h-5.8v-39.3h5.8v-9.9h5.8v-9.8h5.8v-9.8h5.8v-9.9h5.7v-9.8h5.8v-9.9h5.8v9.9h5.8v9.8h5.8v9.9h5.8v9.8h5.8v9.8h5.8zm-63.7-39.3h-5.8v-19.7h5.8zm57.9-9.8h5.8v9.8h-5.8zm0 68.9h5.8v9.8h-5.8zm-57.9 39.3h-5.8v-9.8h5.8zm11.6 29.5h-5.8v9.8h-5.8v9.9h-5.8v-19.7h5.8v-9.8h5.8v-9.9h5.8zm5.8 9.9h5.8v9.9h-5.8z"/>
		<path id="Layer" fill-rule="evenodd" class="s0" d="m23.2 590.2h-5.8v-9.9h-5.8v-9.8h-5.8v-9.8h-5.8v-9.9h5.8v-9.8h5.8v-9.9h5.8v-9.8h5.8v-9.8h5.8v-9.9h5.8v9.9h5.8v9.8h5.8v9.8h5.8v9.9h5.8v9.8h5.8v9.9h-5.8v9.8h-5.8v9.8h-5.8v9.9h-5.8v9.8h-17.4zm5.8-9.8h5.8v-9.9h5.8v-9.8h5.8v-9.8h-5.8v-9.9h-5.8v-9.8h-5.8v9.8h-5.8v9.9h-5.8v9.8h5.8v9.8h5.8zm0-29.5h5.8v9.9h-5.8zm-29 29.5h5.8v9.8h-5.8zm0-59h5.8v9.8h-5.8zm63.8 59.1h5.8v19.6h-5.8zm0-68.8h5.8v19.6h-5.8zm-52.2-9.8h-5.8v-9.8h-5.8v-9.9h5.8v-9.8h5.8v-9.8h5.8v9.8h5.8v9.8h5.8v9.9h-5.8v9.8h-5.8v9.8h-5.8zm0-9.8h5.8v-9.8h-5.8zm34.8 9.8h-5.8v-9.8h-5.8v-9.9h5.8v-9.8h5.8v-9.8h5.8v9.8h5.8v9.8h5.8v9.9h-5.8v9.8h-5.8v9.8h-5.8zm0-9.8h5.8v-9.8h-5.8zm-46.4-88.6h5.8v-9.8h5.8v-9.8h5.8v-9.9h5.8v9.9h5.8v9.8h5.8v9.8h-11.6v9.9h17.4v-9.9h5.8v-9.8h5.8v-9.8h-5.8v-9.9h-5.8v-9.8h-5.8v-9.8h-5.8v-9.9h-5.8v-9.8h-5.8v9.8h-5.8v9.9h-5.8v9.8h-5.8v-29.5h5.8v-9.9h5.8v-9.8h5.8v-9.8h5.8v-9.9h11.6v29.5h5.8v9.9h5.8v9.8h5.8v9.9h5.8v9.8h5.8v9.8h5.8v39.4h-5.8v9.8h-5.8v9.8h-5.8v9.9h-5.8v9.8h-5.8v9.9h-5.8v9.8h-5.8v-9.8h-5.8v-9.9h-5.8v-9.8h-5.8v-9.9h-5.8v-9.8h-5.8zm63.8 39.4h5.8v19.6h-5.8zm-63.8 0h5.8v9.9h-5.8zm0-68.9h5.8v9.8h-5.8zm63.8-29.5h5.8v9.9h-5.8zm-11.6-29.5h5.8v-9.9h5.8v-9.9h5.8v19.8h-5.8v9.8h-5.8v9.8h-5.8zm-11.6-19.7h5.8v9.9h-5.8z"/>
		<path id="Layer" fill-rule="evenodd" class="s0" d="m110.1 600h-17.3v-9.8h-5.8v-9.9h-5.8v-9.8h-5.8v-9.8h-5.8v-9.9h5.8v-9.8h5.8v-9.9h5.8v-9.8h5.8v-9.8h5.8v-9.9h5.8v9.9h5.8v9.8h5.7v9.8h5.8v9.9h5.8v9.8h5.8v9.9h-5.8v9.8h-5.8v9.8h-5.8v9.9h-5.7zm-5.8-29.5h5.8v-9.9h5.7v-9.8h-5.7v-9.8h-5.8v-9.9h-5.8v9.9h-5.8v9.8h-5.8v9.8h5.8v9.9h5.8v9.8h5.8zm-5.8-19.7h5.8v9.9h-5.8zm28.9 29.5h5.8v9.8h-5.8zm0-59h5.8v9.8h-5.8zm-63.7 59.1h5.8v19.6h-5.8zm0-68.8h5.8v19.6h-5.8zm58 0h-5.8v-9.8h-5.8v-9.8h-5.8v-9.9h5.8v-9.8h5.8v-9.8h5.8v9.8h5.8v9.8h5.7v9.9h-5.7v9.8h-5.8zm-5.8-19.7h5.8v-9.8h-5.8zm-29 19.7h-5.8v-9.9h-5.8v-9.8h-5.8v-9.8h5.8v-9.9h5.8v-9.8h5.8v9.8h5.8v9.9h5.8v9.8h-5.8v9.8h-5.8zm-5.8-19.6h5.8v-9.9h-5.8zm52.1-68.8h-5.8v9.8h-5.8v9.8h-5.8v9.9h-5.7v9.8h-5.8v9.8h-5.8v-9.8h-5.8v-9.8h-5.8v-9.9h-5.8v-9.8h-5.8v-9.8h-5.8v-9.9h-5.8v-39.3h5.8v-9.9h5.8v-9.8h5.8v-9.8h5.8v-9.9h5.8v-9.8h5.8v-29.5h11.6v9.8h5.7v9.9h5.8v9.8h5.8v9.8h5.8v29.5h-5.8v-9.8h-5.8v-9.8h-5.8v-9.9h-5.7v9.9h-5.8v9.8h-5.8v9.8h-5.8v9.9h-5.8v9.8h-5.8v9.9h5.8v9.8h5.8v9.8h17.3v-9.8h-11.5v-9.8h5.7v-9.9h5.8v-9.8h5.8v9.8h5.8v9.9h5.8v9.8h5.8zm-63.7 39.3h-5.8v-19.6h5.8zm57.9-19.7h5.8v9.8h-5.8zm0-68.8h5.8v9.8h-5.8zm-57.9-19.7h-5.8v-9.8h5.8zm11.6-19.7h-5.8v-9.8h-5.8v-9.8h-5.8v-19.8h5.8v9.9h5.8v9.9h5.8zm5.8-39.4h5.8v9.9h-5.8z"/>
	</g>
</svg>