<?xml version="1.0" encoding="UTF-8" standalone="no"?>
<!-- Generator: Adobe Illustrator 10.0, SVG Export Plug-In . SVG Version: 3.0.0 Build 76)  -->

<svg
   i:viewOrigin="9.1001 566.7998"
   i:rulerOrigin="342.5 251.5"
   i:pageBounds="-342.5 1044.5 953.5 -251.5"
   width="900"
   height="600"
   viewBox="0 0 900.00004 600.00002"
   overflow="visible"
   enable-background="new 0 0 564.6 355.8"
   xml:space="preserve"
   version="1.1"
   id="svg19"
   sodipodi:docname="OUN-M-03.svg"
   inkscape:version="1.3 (0e150ed6c4, 2023-07-21)"
   xmlns:inkscape="http://www.inkscape.org/namespaces/inkscape"
   xmlns:sodipodi="http://sodipodi.sourceforge.net/DTD/sodipodi-0.dtd"
   xmlns="http://www.w3.org/2000/svg"
   xmlns:svg="http://www.w3.org/2000/svg"
   xmlns:i="&amp;#38;ns_ai;"
   xmlns:ns0="http://ns.adobe.com/Variables/1.0/"
   xmlns:ns1="&amp;#38;ns_sfw;"><title>УГОРЬЯ ПРЕСТУПНИК САТАНИСТ РЕСТУПЛИК</title><defs
   id="defs19" /><sodipodi:namedview
   id="namedview19"
   pagecolor="#ffffff"
   bordercolor="#000000"
   borderopacity="0.25"
   inkscape:showpageshadow="2"
   inkscape:pageopacity="0.0"
   inkscape:pagecheckerboard="0"
   inkscape:deskcolor="#d1d1d1"
   inkscape:zoom="0.74477509"
   inkscape:cx="447.78619"
   inkscape:cy="262.49535"
   inkscape:window-width="1920"
   inkscape:window-height="1009"
   inkscape:window-x="-8"
   inkscape:window-y="-8"
   inkscape:window-maximized="1"
   inkscape:current-layer="svg19" />&#10;	<metadata
   id="metadata1">&#10;		<ns0:variableSets>&#10;			<ns0:variableSet
   varSetName="binding1"
   locked="none">&#10;				<ns0:variables />&#10;				<ns0:sampleDataSets>&#10;					</ns0:sampleDataSets>&#10;			</ns0:variableSet>&#10;		</ns0:variableSets>&#10;		<ns1:sfw>&#10;			<ns1:slices />&#10;			<ns1:sliceSourceBounds
   y="211"
   x="9.1"
   width="564.6"
   height="355.8"
   bottomLeftOrigin="true" />&#10;		</ns1:sfw>&#10;	</metadata>&#10;	<g
   id="g20"><rect
     style="fill:#db0000;stroke-width:15;fill-opacity:1"
     id="rect19"
     width="900"
     height="600"
     x="0"
     y="0" /><rect
     style="fill:#000000;fill-opacity:1;stroke-width:15"
     id="rect20"
     width="900"
     height="300"
     x="0"
     y="300" /></g><g
   id="g16"
   transform="matrix(1.5940489,0,0,1.5940489,-3.4737905,29.649307)"
   style="fill:#ffffff;fill-opacity:1">&#10;							<path
   i:knockout="Off"
   fill="#fdcc00"
   d="m 235.1,112.8 c -12.1,-2.5 -21,-7.7 -26.8,-15.3 -2.4,30.6 -2,62.1 1,94.399 2.2,23.301 1.4,45.7 -2.2,67.2 10.2,-2.2 21.6,-3.6 34.2,-4.1 5,-0.101 10.3,-0.101 15.6,0 3.9,5.3 8.8,7.7 14.7,7.3 -2.4,-3.5 -2.5,-6.5 -0.4,-9.2 -2.3,-1.8 -3.9,-3.5 -4.8,-5.3 -2.3,-4.3 -1,-8.4 3.8,-12.5 -1.4,-3.3 -5.6,-5.3 -12.3,-6.2 -0.5,-0.1 -0.9,-0.1 -1.3,-0.1 -6,-1 -10.2,-2.4 -12.6,-4.4 -2.5,-2.2 -3.8,-5.1 -3.8,-8.5 0,-3.6 1.4,-6.6 4.4,-9.1 v -10.4 c -8.5,-2.3 -14,2.9 -16.6,15.5 v 10.5 c 2.7,7.101 5.8,11.3 9.3,12.9 3.5,1.6 9,3.3 16.7,5.1 -6.1,-0.2 -10.8,-0.2 -14,-0.1 -3.2,0.1 -7.2,0.8 -12,2 v -19.9 -10.5 c 4,-31.7 3.7,-60.9 -0.8,-87.4 10.6,4.6 16.9,10.8 18.7,18.7 1.9,7.8 1.1,15.7 -2.4,23.8 -3.4,8.1 -3.1,17.9 1.1,29.4 V 207 c 3,-2.5 6.7,-3.8 10.9,-3.8 3.6,0 6.6,0.899 9.3,2.699 -5,-8.6 -5.7,-21.399 -2.1,-38.5 3.5,-17.2 2.8,-29.9 -2.1,-38.2 -5,-8.299 -13.5,-13.799 -25.5,-16.399"
   id="path2"
   style="fill:#ffffff;fill-opacity:1" />&#10;							<path
   i:knockout="Off"
   fill="#fdcc00"
   d="m 253.4,207.7 c -0.9,1 -1.4,2.3 -1.4,3.8 0,0.1 0,0.3 0.1,0.5 -0.1,0 -0.1,0 0,0 -0.1,0 -0.1,0 -0.2,0 -0.7,-0.5 -1.4,-0.7 -2.3,-0.601 -1.3,-0.1 -2.4,0.4 -3.4,1.4 -0.8,1 -1.3,2.2 -1.3,3.7 0,0.1 0,0.3 0,0.3 v 0.2 c 0,1.3 0.5,2.5 1.3,3.5 1,1 2.1,1.5 3.4,1.5 0.9,0 1.6,-0.2 2.3,-0.601 0.1,-0.1 0.1,-0.1 0.2,-0.199 -0.1,0.1 -0.1,0.1 0,0.199 C 252,221.6 252,221.7 252,222 c 0,1.3 0.5,2.6 1.4,3.6 0.9,0.9 2.1,1.4 3.5,1.4 0.2,0 0.4,0 0.6,0 1.1,-0.2 2,-0.7 2.9,-1.4 0.9,-1 1.4,-2.3 1.4,-3.6 0,-0.8 -0.1,-1.5 -0.4,-2 h 3.5 c 0.6,1.399 1.6,2.5 3,3.3 h 4.8 c 0.1,-0.1 0.2,-0.1 0.4,-0.1 h 22.8 c 0.1,0 0.3,0 0.3,0.1 h 4.8 c 1.5,-0.8 2.4,-1.9 3,-3.3 h 3.4 c -0.2,0.5 -0.3,1.2 -0.3,2 0,1.3 0.5,2.6 1.5,3.6 0.8,0.7 1.7,1.2 2.8,1.4 0.2,0 0.3,0 0.6,0 1.4,0 2.5,-0.5 3.5,-1.4 0.9,-1 1.301,-2.3 1.4,-3.6 -0.1,-0.3 -0.1,-0.4 -0.1,-0.601 0,-0.1 0,-0.1 0,-0.199 0.1,0.1 0.199,0.1 0.3,0.199 0.7,0.4 1.399,0.601 2.2,0.601 1.3,0 2.399,-0.5 3.3,-1.5 0.899,-1 1.3,-2.2 1.399,-3.5 v -0.2 c -0.1,0 -0.1,-0.2 0,-0.3 -0.1,-1.5 -0.5,-2.7 -1.399,-3.7 -0.9,-1 -2,-1.5 -3.3,-1.4 -0.801,-0.1 -1.5,0.101 -2.2,0.601 -0.101,0 -0.2,0 -0.3,0 0,-0.2 0,-0.4 0.1,-0.5 -0.1,-1.5 -0.5,-2.8 -1.4,-3.8 -1,-1 -2.1,-1.4 -3.5,-1.301 -1.399,-0.1 -2.6,0.301 -3.399,1.301 -1,1 -1.5,2.3 -1.5,3.8 0,0.6 0.1,1.3 0.3,1.8 H 304 c -0.399,-1.3 -1,-2.6 -2.1,-3.5 h -0.2 c -0.399,0 -0.8,0 -1.2,0 -1.699,0 -3.399,0 -5,0.2 h -21.4 c -1.9,-0.2 -3.8,-0.2 -5.7,-0.2 -0.2,0 -0.5,0 -0.7,0 h -0.6 c -1.2,0.9 -1.9,2 -2.2,3.5 h -3.5 c 0.3,-0.5 0.4,-1.2 0.4,-1.8 0,-1.5 -0.5,-2.8 -1.4,-3.8 -1,-1 -2.1,-1.4 -3.5,-1.301 -1.4,-0.1 -2.6,0.3 -3.5,1.3"
   id="path3"
   style="fill:#ffffff;fill-opacity:1" />&#10;							<path
   i:knockout="Off"
   fill="#fdcc00"
   d="m 360.7,97.5 c -5.8,7.6 -14.7,12.8 -26.8,15.3 -12.1,2.6 -20.6,8.1 -25.5,16.4 -5.1,8.3 -5.8,21 -2.1,38.2 3.6,17.1 2.8,29.9 -2.301,38.5 2.7,-1.8 5.801,-2.699 9.4,-2.699 4.3,0 7.9,1.3 10.9,3.8 v -10.4 c 4.199,-11.5 4.6,-21.3 1.1,-29.4 -3.5,-8.1 -4.3,-16 -2.5,-23.8 1.9,-7.9 8.1,-14.1 18.8,-18.7 -4.6,26.5 -5,55.3 -1.399,86.3 L 341,222.6 v 19.9 c -4.899,-1.2 -8.899,-1.9 -12,-2 -3.199,-0.101 -7.899,-0.101 -14.1,0.1 7.6,-1.8 13.2,-3.5 16.7,-5.1 3.399,-1.601 6.5,-5.8 9.399,-12.9 L 340.3,211 c -2.7,-11.7 -8,-16.5 -16,-14.4 V 207 c 3,2.5 4.5,5.5 4.5,9.1 0,3.4 -1.301,6.3 -3.9,8.5 -2.4,2 -6.6,3.4 -12.6,4.4 -0.4,0 -0.9,0 -1.301,0.1 -6.699,0.9 -10.8,2.9 -12.3,6.2 4.9,4.1 6.2,8.2 3.9,12.5 -1,1.8 -2.601,3.5 -4.8,5.3 2,2.7 1.8,5.7 -0.5,9.2 5.9,0.4 10.7,-2 14.7,-7.3 5.301,-0.101 10.5,-0.101 15.601,0 12.5,0.5 24,1.899 34.3,4.1 -3.7,-21.5 -4.5,-43.899 -2.2,-67.2 3,-32.3 3.3,-63.8 1,-94.4"
   id="path4"
   style="fill:#ffffff;fill-opacity:1" />&#10;							<path
   i:knockout="Off"
   fill="#fdcc00"
   d="m 284.4,50.2 -0.1,0.2 -9.4,11.1 c -5.7,5.9 -8.1,14.6 -7.3,26.3 0.8,12.1 2.4,33.8 5,65.6 2.3,29.7 1.1,47.9 -3.6,54.9 1.7,0 3.4,0 5.1,0.1 h 4.7 c 2.1,-2.8 3.6,-7.899 4.6,-15.199 v -76 c 0,-0.3 0,-0.5 0.3,-0.6 0,-0.1 0.1,-0.2 0.3,-0.3 v 0.2 c 0.1,-0.2 0.2,-0.3 0.4,-0.3 0.3,0 0.4,0.1 0.6,0.3 v -0.2 c 0.1,0.1 0.2,0.2 0.3,0.3 0.1,0.1 0.2,0.3 0.2,0.6 v 76 c 0.9,7.3 2.5,12.399 4.6,15.199 h 5.3 c 1.5,-0.1 3,-0.1 4.5,-0.1 -4.7,-7 -6,-25.2 -3.6,-54.9 2.6,-31.8 4.2,-53.5 5,-65.6 0.8,-11.7 -1.601,-20.4 -7.101,-26.2 l -0.1,-0.1 -9.699,-11.3"
   id="path5"
   style="fill:#ffffff;fill-opacity:1" />&#10;							<path
   i:knockout="Off"
   fill="#fdcc00"
   d="m 296.8,227.899 c -0.1,-0.199 -0.2,-0.3 -0.4,-0.399 h -23.8 c -0.3,0.1 -0.4,0.2 -0.5,0.399 -0.5,0.601 -0.8,1.101 -0.7,2 -0.1,0.801 0.2,1.601 0.7,2.101 0.4,0.399 0.8,0.6 1.2,0.7 0.1,0 0.3,0 0.3,0 h 22.3 c 0.3,-0.2 0.7,-0.4 0.9,-0.7 0.5,-0.5 0.8,-1.3 0.8,-2.101 0,-0.899 -0.3,-1.399 -0.8,-2"
   id="path6"
   style="fill:#ffffff;fill-opacity:1" />&#10;							<path
   i:knockout="Off"
   fill="#fdcc00"
   d="m 273.1,224.7 0.1,1.3 h 22.5 l 0.1,-1.3 h -22.7"
   id="path7"
   style="fill:#ffffff;fill-opacity:1" />&#10;							<path
   i:knockout="Off"
   fill="#fdcc00"
   d="m 295.2,235.5 v -1.3 h -21.5 l 0.1,1.3 h 21.4"
   id="path8"
   style="fill:#ffffff;fill-opacity:1" />&#10;							<path
   i:knockout="Off"
   fill="#fdcc00"
   d="m 294.6,244.8 0.1,-1.2 h -20.4 v 1.2 h 20.3"
   id="path9"
   style="fill:#ffffff;fill-opacity:1" />&#10;							<path
   i:knockout="Off"
   fill="#fdcc00"
   d="m 294.8,242.1 c 0.1,0 0.2,0 0.3,0 0.4,-0.1 0.8,-0.3 1.1,-0.6 0.6,-0.601 0.8,-1.3 0.8,-2.101 0,-0.8 -0.2,-1.5 -0.8,-2 0,-0.1 -0.2,-0.3 -0.3,-0.3 h -22.1 c -0.2,0 -0.4,-0.1 -0.5,-0.2 -0.2,0.101 -0.4,0.2 -0.7,0.5 -0.5,0.5 -0.7,1.2 -0.7,2 0,0.801 0.2,1.5 0.7,2.101 0.4,0.3 0.8,0.6 1.3,0.6 0,0 0.2,0 0.3,0 h 20.6"
   id="path10"
   style="fill:#ffffff;fill-opacity:1" />&#10;							<path
   i:knockout="Off"
   fill="#fdcc00"
   d="m 294.7,251.6 c 0.4,-0.1 0.7,-0.3 0.9,-0.7 0.6,-0.5 0.8,-1.1 0.8,-2 0,-0.399 -0.1,-0.8 -0.2,-1.1 -0.1,-0.4 -0.3,-0.7 -0.6,-0.9 -0.1,-0.3 -0.3,-0.399 -0.5,-0.6 h -20.8 c 0,0 -0.2,0 -0.3,-0.1 -0.3,0.199 -0.5,0.399 -0.7,0.699 -0.3,0.2 -0.5,0.5 -0.6,0.9 -0.1,0.3 -0.2,0.7 -0.2,1.1 0,0.9 0.2,1.5 0.8,2 0.3,0.4 0.6,0.7 1.2,0.801 0.1,-0.101 0.2,-0.101 0.3,-0.101 h 19.9"
   id="path11"
   style="fill:#ffffff;fill-opacity:1" />&#10;							<path
   i:knockout="Off"
   fill="#fdcc00"
   d="m 274.8,253.2 0.1,1.399 h 19.2 l 0.1,-1.399 h -19.4"
   id="path12"
   style="fill:#ffffff;fill-opacity:1" />&#10;							<path
   i:knockout="Off"
   fill="#fdcc00"
   d="m 274,260.5 c 0.3,0.3 0.7,0.6 1.1,0.7 0.1,-0.101 0.2,-0.101 0.2,-0.101 H 294 c 0.3,-0.1 0.6,-0.399 0.9,-0.6 0.5,-0.5 0.7,-1.2 0.7,-2.101 0,-0.8 -0.2,-1.5 -0.7,-2.1 0,0 -0.1,-0.1 -0.2,-0.2 h -19.8 c -0.2,0 -0.3,-0.1 -0.4,-0.1 -0.2,0 -0.3,0.2 -0.5,0.3 -0.5,0.6 -0.7,1.3 -0.7,2.1 0,0.902 0.2,1.602 0.7,2.102"
   id="path13"
   style="fill:#ffffff;fill-opacity:1" />&#10;							<path
   i:knockout="Off"
   fill="#fdcc00"
   d="m 275.3,262.7 0.1,1.399 h 18.1 l 0.1,-1.399 h -18.3"
   id="path14"
   style="fill:#ffffff;fill-opacity:1" />&#10;							<path
   i:knockout="Off"
   fill="#fdcc00"
   d="m 299,265.6 h -29.1 c 0.8,5.8 3,10 6.6,12.3 0.9,0.7 1.9,1.301 3.1,1.7 0.2,0 0.4,0.101 0.7,0.2 0,0 0.1,0 0.3,0.1 2.5,0.601 5,0.601 7.4,0.101 0.2,-0.101 0.4,-0.101 0.7,-0.2 0.1,-0.1 0.3,-0.2 0.5,-0.2 l 0.8,-0.3 c 0.1,0 0.1,0 0.2,-0.1 0.8,-0.4 1.6,-0.801 2.3,-1.301 3.5,-2.3 5.7,-6.501 6.5,-12.3"
   id="path15"
   style="fill:#ffffff;fill-opacity:1" />&#10;							<path
   i:knockout="Off"
   fill="#fdcc00"
   d="m 289.8,281 c -0.3,0.1 -0.4,0.2 -0.7,0.3 -3,0.8 -6.1,0.8 -9.3,0 -0.1,-0.1 -0.1,-0.1 -0.1,-0.1 -0.3,-0.101 -0.4,-0.2 -0.5,-0.2 h -0.1 c -1,0.8 -1.9,1.5 -2.6,2.3 -1.4,1.6 -2.4,3.5 -2.9,5.7 h 21.7 c -0.5,-2.2 -1.5,-4.101 -2.8,-5.7 -0.8,-0.8 -1.7,-1.5 -2.7,-2.3"
   id="path16"
   style="fill:#ffffff;fill-opacity:1" />&#10;						</g>&#10;	&#10;<path
   style="font-size:80px;font-family:'Gotham Text Semi Cond';-inkscape-font-specification:'Gotham Text Semi Cond';font-feature-settings:tnum;text-align:center;letter-spacing:10px;word-spacing:20px;text-anchor:middle;fill:#ffffff;stroke-width:15"
   d="m 49.160036,93.350342 h -11.2 l 6.8,-18.08 -14.72,-37.92 h 11.44 l 8.96,24.64 8.32,-24.64 h 11.2 z m 35.43993,0 v -56 h 27.519994 v 10 H 95.319966 v 46 z m 74.479974,-6.56 q -5.6,7.44 -14.8,7.44 -9.2,0 -14.8,-7.44 -5.52,-7.44 -5.52,-20.48 v -1.84 q 0,-13.04 5.6,-20.48 5.6,-7.52 14.8,-7.52 9.2,0 14.72,7.44 5.6,7.44 5.6,20.48 v 1.84 q 0,13.04 -5.6,20.56 z m -21.6,-7.12 q 2.64,4.72 6.88,4.72 4.24,0 6.8,-4.64 2.56,-4.64 2.56,-13.84 v -1.04 q 0,-9.04 -2.64,-13.76 -2.56,-4.8 -6.8,-4.8 -4.24,0 -6.8,4.72 -2.56,4.72 -2.56,13.76 v 1.04 q 0,9.12 2.56,13.84 z m 44.32004,13.68 v -56 h 13.92 q 8.96,0 14.16,4.96 5.2,4.96 5.2,14.08 v 0.16 q 0,9.28 -5.28,14.24 -5.2,4.96 -13.76,5.28 h -3.52 v 17.28 z m 10.72,-27.04 h 2.8 q 4.4,0 6.64,-2.56 2.32,-2.56 2.32,-6.96 v -0.08 q 0,-4.64 -2.24,-7.12 -2.16,-2.48 -6.64,-2.4 h -2.88 z m 38.47998,27.04 v -56 h 10.72 v 18.08 h 3.04 q 9.04,0 14.24,4.8 5.28,4.72 5.28,13.84 v 0.16 q 0,9.12 -5.36,14.16 -5.36,4.96 -14.96,4.96 z m 10.72,-9.84 h 3.12 q 4.16,0 6.4,-2.48 2.24,-2.48 2.24,-6.64 v -0.08 q 0,-4.24 -2.16,-6.64 -2.08,-2.48 -6.32,-2.48 h -3.28 z m 70.96,-46.16 v 56 h -10.64 v -18.96 h -4.24 l -9.12,18.96 h -12 l 10.48,-21.04 q -4.24,-2 -6.64,-6 -2.32,-4.08 -2.32,-9.76 v -0.4 q 0,-8.8 5.28,-13.76 5.28,-5.04 14.96,-5.04 z m -10.64,9.84 h -3.92 q -9.12,0 -9.12,8.96 v 0.08 q 0,8.64 8.96,8.64 h 4.08 z m 74.48002,46.16 v -56 h 34.96 v 56 h -10.64 v -46 h -13.6 v 46 z m 53.6,0 v -56 h 13.92 q 8.96,0 14.16,4.96 5.2,4.96 5.2,14.08 v 0.16 q 0,9.28 -5.28,14.24 -5.2,4.96 -13.76,5.28 h -3.52 v 17.28 z m 10.72,-27.04 h 2.8 q 4.4,0 6.64,-2.56 2.32,-2.56 2.32,-6.96 v -0.08 q 0,-4.64 -2.24,-7.12 -2.16,-2.48 -6.64,-2.4 h -2.88 z m 38.47998,27.04 v -56 h 29.12 v 9.92 h -18.48 v 12.96 h 16.32 v 9.92 h -16.32 v 13.28 h 18.8 v 9.92 z m 64.87991,0.64 q -9.52,0 -14.96,-7.28 -5.44,-7.28 -5.44,-20.72 v -1.28 q 0,-13.28 5.84,-20.64 5.84,-7.36 15.2,-7.36 7.68,0 13.36,5.44 l -6.08,8.56 q -3.76,-3.76 -7.36,-3.76 -4.32,0 -7.2,4.8 -2.8,4.8 -2.8,13.36 v 0.4 q 0,9.04 2.8,13.68 2.88,4.56 7.04,4.56 3.84,0 8,-4.16 l 5.68,8.32 q -6.16,6.08 -14.08,6.08 z m 38.00002,-0.64 v -45.92 h -10.64 v -10.08 h 32 v 10.08 h -10.64 v 45.92 z m 52.48004,0 h -11.2 l 6.8,-18.08 -14.72,-37.92 h 11.44 l 8.96,24.64 8.32,-24.64 h 11.2 z m 35.4399,0 v -56 h 34.96 v 56 h -10.64 v -46 h -13.6 v 46 z m 53.60004,0 v -56 h 10.72 v 22.8 h 13.68 v -22.8 h 10.72 v 56 h -10.72 v -23.12 h -13.68 v 23.12 z m 90.08001,0 h -10.48 v -34.08 l -16,34.08 h -9.84 v -56 h 10.48 v 32.8 l 15.44,-32.8 h 10.4 z m 18.64008,0 v -56 h 10.72 l -0.08,23.04 h 2.72 l 11.44,-23.04 h 12 l -14.56,27.28 15.28,28.72 h -12 l -12.32,-23.36 h -2.56 l 0.08,23.36 z"
   id="text20"
   aria-label="УГОРЬЯ ПРЕСТУПНИК" /><path
   style="font-size:80px;font-family:'Gotham Text Semi Cond';-inkscape-font-specification:'Gotham Text Semi Cond';font-feature-settings:tnum;text-align:center;letter-spacing:10px;word-spacing:0px;text-anchor:middle;fill:#ffffff;stroke-width:15"
   d="m 39.919979,567.20921 q -9.52,0 -14.96,-7.28 -5.44,-7.28 -5.44,-20.72 v -1.28 q 0,-13.28 5.84,-20.64 5.84,-7.36 15.2,-7.36 7.68,0 13.36,5.44 l -6.08,8.56 q -3.76,-3.76 -7.36,-3.76 -4.32,0 -7.2,4.8 -2.8,4.8 -2.8,13.36 v 0.4 q 0,9.04 2.8,13.68 2.88,4.56 7.04,4.56 3.84,0 8,-4.16 l 5.68,8.32 q -6.16,6.08 -14.08,6.08 z m 26.400049,-0.64 15.52,-56.24 h 10.8 l 15.600002,56.24 h -10.96 l -3.040002,-11.68 h -14.4 l -2.96,11.68 z m 16.08,-21.2 h 9.28 l -4.56,-18.4 z m 44.799942,21.2 v -45.92 h -10.64 v -10.08 h 32 v 10.08 h -10.64 v 45.92 z m 29.76001,0 15.52,-56.24 h 10.8 l 15.6,56.24 h -10.96 l -3.04,-11.68 h -14.4 l -2.96,11.68 z m 16.08,-21.2 h 9.28 l -4.56,-18.4 z m 40.87994,21.2 v -56 h 10.72 v 22.8 h 13.68 v -22.8 h 10.72 v 56 h -10.72 v -23.12 h -13.68 v 23.12 z m 90.08007,0 h -10.48 v -34.08 l -16,34.08 h -9.84 v -56 h 10.48 v 32.8 l 15.44,-32.8 h 10.4 z m 37.52003,0.64 q -9.52,0 -14.96,-7.28 -5.44,-7.28 -5.44,-20.72 v -1.28 q 0,-13.28 5.84,-20.64 5.84,-7.36 15.2,-7.36 7.68,0 13.36,5.44 l -6.08,8.56 q -3.76,-3.76 -7.36,-3.76 -4.32,0 -7.2,4.8 -2.8,4.8 -2.8,13.36 v 0.4 q 0,9.04 2.8,13.68 2.88,4.56 7.04,4.56 3.84,0 8,-4.16 l 5.68,8.32 q -6.16,6.08 -14.08,6.08 z m 38.00004,-0.64 v -45.92 h -10.64 v -10.08 h 32 v 10.08 h -10.64 v 45.92 z m 62.64007,0 v -56 h 13.92 q 8.96,0 14.16,4.96 5.2,4.96 5.2,14.08 v 0.16 q 0,9.28 -5.28,14.24 -5.2,4.96 -13.76,5.28 h -3.52 v 17.28 z m 10.72,-27.04 h 2.8 q 4.4,0 6.64,-2.56 2.32,-2.56 2.32,-6.96 v -0.08 q 0,-4.64 -2.24,-7.12 -2.16,-2.48 -6.64,-2.4 h -2.88 z m 38.47998,27.04 v -56 h 29.12 v 9.92 h -18.48 v 12.96 h 16.32 v 9.92 h -16.32 v 13.28 h 18.8 v 9.92 z m 64.87994,0.64 q -9.52,0 -14.96,-7.28 -5.44,-7.28 -5.44,-20.72 v -1.28 q 0,-13.28 5.84,-20.64 5.84,-7.36 15.2,-7.36 7.68,0 13.36,5.44 l -6.08,8.56 q -3.76,-3.76 -7.36,-3.76 -4.32,0 -7.2,4.8 -2.8,4.8 -2.8,13.36 v 0.4 q 0,9.04 2.8,13.68 2.88,4.56 7.04,4.56 3.84,0 8,-4.16 l 5.68,8.32 q -6.16,6.08 -14.08,6.08 z m 38.00005,-0.64 v -45.92 h -10.64 v -10.08 h 32 v 10.08 h -10.64 v 45.92 z m 52.47991,0 h -11.2 l 6.8,-18.08 -14.72,-37.92 h 11.44 l 8.96,24.64 8.32,-24.64 h 11.2 z m 35.43996,0 v -56 h 34.96 v 56 h -10.64 v -46 h -13.6 v 46 z m 75.59998,-56.24 15.12,56.24 h -11.28 l -9.2,-37.12 -9.2,37.12 h -10.96 l 15.12,-56.24 z m 66.55999,56.24 h -10.48 v -34.08 l -16,34.08 h -9.84 v -56 h 10.48 v 32.8 l 15.44,-32.8 h 10.4 z m 18.64008,0 v -56 h 10.72 l -0.08,23.04 h 2.72 l 11.44,-23.04 h 12 l -14.56,27.28 15.28,28.72 h -12 l -12.32,-23.36 h -2.56 l 0.08,23.36 z"
   id="text21"
   aria-label="САТАНИСТ РЕСТУПЛИК" /></svg>
