<!-- painting by www.photopea.com 26/01/2023 -->
<svg xmlns="http://www.w3.org/2000/svg" width="1200" height="600">
	<title>Flag Republik Moreshchina</title>
  <rect width="1200" height="600" style="fill:rgb(22,162,222)"/>
  <rect width="1200" height="160" y="440" style="fill:rgb(0,0,160)"/>
	<path id="Sovet" style="fill:rgb(255,255,255)" d="m140.4 52.8h30.6l-24.8 18.4 9.7 28.8-25.2-18.4-24.1 18.4 8.6-28.8-24.1-18.4h31l8.6-28.8zm-15.5 4.7h-19.1l15.2 11.5-5.8 18.4 15.5-11.6 16.5 11.6-5.7-18.4 15.1-11.5h-19.1l-6.8-19.1zm47.5 134.6l-14.1 14.7 53.3 50.1q3.6 3.6 3.6 8.3 0 4.3-3.6 7.9-2.8 2.9-7.9 2.9-4.7 0-8.6-2.9l-50.2-52.3-5.6 5.9 0.7 0.7q1.1 1.5 1.1 2.5 0 1.8-0.7 2.6l-2.2 2.1q-0.7 0.7-1.8 1.5-0.7 0.7-1.1 1l-1.1 1.1 0.4 0.4q0.7 0.7 0.7 1.8-0.7 5-1.8 7.2-0.7 1.1-2.1 1.8-1.1 0.7-4 2.5-1.1 0.7-2.5 1.4-1.1 0.4-1.8 1.1-1.1 0.7-2.9 2.5-1.4 1.5-4.7 5.1-3.2 3.2-9 9.3-5.4 5.8-14 15.5-7.6 8.7-14.8 16.2-7.2 7.2-11.9 11.5-2.1 1.8-3.9 3.6-1.8 1.5-2.5 2.2-5.1 4-9.8 4-5.4 0-9.7-6.2-2.1-3.2-2.1-6.4 0-2.9 1.8-5.8 1.4-2.5 3.9-5.4 2.5-2.9 10.8-11.2 7.2-7.5 15.1-15.1 8-7.9 19.8-19.4 8.7-8.3 11.2-10.8l4.3-4.3q4-5.4 5.4-8.3 1.8-3.3 3.3-4 2.5-1.4 5.4-1.4h1.8l2.8-2.9q1.5-1.1 2.6-2.2l1-1q0.4-0.8 1.5-0.8 1.4 0 3.6 1.1l1.4 0.4 5.6-5.8-35.5-37.1-19 19.5-21.3-21.3 42.5-41.4 36.4 5.1-27 26.6 37.1 35 15.4-15.9c-0.2-0.7-0.8-2.5-1.1-3.2q0-1.1 0-1.8 0-1.1 0.4-2.2 0.7-2.2 1.4-4 1.1-2.1 4.4-7.5 3.2-5.8 6.1-11.9 7.2-13 13.3-23.8 6.1-11.1 10.4-18.7 3.3-5.4 4.7-7.5 1.5-2.6 1.5-4.4v-1.4q0-0.7-0.4-1.1-2.2-2.1-5-6.1-1.8-2.5-4.4-5-2.1-2.9-3.2-4.4-0.7-0.7-1.4-1.4-0.4-0.7-1.1-1.4-0.4-0.4-0.4-0.8 0-0.3-0.3-0.7 0-0.3 0.3-0.7 0.4-0.4 0.7-0.4 0.8 0 1.8 0.4l1.1 0.4 7.9 7.9q3.6 3.2 6.2 6.1 2.5 2.5 2.8 3.2 2.2 2.9 2.2 5.8 0 2.2-0.7 3.6l-2.2 4.3q-1.1 2.2-3.6 6.5-2.5 4-7.2 11.5-2.1 3.6-5.4 9.4-3.2 5.7-6.8 11.9-3.3 5.7-6.1 10.8-2.6 4.6-3.6 6.4-3.3 5.4-4.4 7.6-0.7 2.2-1.4 4.7l-0.4 1.4 17.7-18q7.5-7.9 16.2-16.5l13.3-13.4q4.3-4.3 6.1-6.4 2.2-2.6 2.5-3.3 0.4-0.7 0.8-1.8 0.3-1.1 0.3-1.8 0-0.7-0.3-1.4-0.4-1.1-4.7-6.9-2.2-2.8-4-5-1.4-2.5-1.4-3.2v-0.8q0-1.4 1.8-1.8 1.1-0.3 1.4-0.3 0.7 0 0.7 0.3 0.4 0.4 2.9 3.3 4 4.7 6.5 8.3 2.9 3.2 3.6 4.6 1.1 1.8 1.1 4 0 1.4-0.7 3.2-0.4 1.1-0.8 2.2-0.3 0.7-3.2 3.6-2.5 2.9-8.6 9.4-5.8 6.1-17.3 18-5.8 6.1-11.2 11.5-5 5.4-9 9.7-3.9 4-6.5 6.5-2.1 2.5-2.5 2.9l-1.1 1 1.1 0.8q1.1 0.7 2.9 0.7 4.7 0 12.6-5.4 0.7-0.4 2.2-1.5 1.4-1.4 3.2-2.8 25.9-20.6 36.7-28.5 10.8-8.3 11.2-8.6 1.8-0.7 1.8-2.5 0-0.8-0.4-1.5l-1.4-2.9q-1.1-2.1-2.9-5l-4-6.5 0.4-0.7q1.1-1.1 2.5-1.1 0.7 0.4 1.8 2.2 1.5 1.4 5.1 6.5 3.6 5 3.9 6.1 0.7 1.1 0.7 1.8 0 2.1-1.4 4.7-0.7 1-1.8 2.1-0.7 0.7-4 3.6-3.2 2.5-9.7 7.6-6.1 5-17.3 13.7-11.5 8.6-17.6 13.3-5.8 4.7-8.6 6.8-2.9 2.2-4 2.5-0.7 0.4-1.8 1.1-4 1.8-7.6 1.8-2.5 0-4.6-0.7-2.2-0.7-3.3-1.8z"/>
	<path id="Textt" style="fill:rgb(255,255,255)" d="m89.3 488v35.9q0 4-1.2 6.9-1.1 2.7-3.2 4.5-2.1 1.7-4.8 2.5-2.6 0.8-5.7 0.8h-9.8v30.4h-10.6v-95.8h20.4q4 0 6.8 1.3 2.9 1.1 4.7 3.1 1.8 2 2.6 4.7 0.8 2.7 0.8 5.7zm-10.7 35.9v-35.9q0-1.7-1-2.9-0.8-1.2-3.2-1.2h-9.8v44.1h9.8q1.8 0 2.9-0.8 1.3-1 1.3-3.3zm28.3-50.7h31.8v10.7h-21.2v19.7h15.9v10.8h-15.9v44h21.2v10.6h-31.8zm86.3-0.8v10.6h-22.7q-2.2 0-3.2 1.2-1 1.3-1 2.9v67.9q0 1.7 1 2.9 1 1.3 3.2 1.3h22.7v10.6h-22.7q-4 0-6.9-1.1-2.8-1.2-4.6-3.2-1.6-2-2.5-4.7-0.8-2.7-0.8-5.8v-67.9q0-3 0.8-5.6 0.9-2.8 2.5-4.7 1.8-2.1 4.6-3.2 2.9-1.2 6.9-1.2zm18.2 0.8h36.4v95.8h-10.6v-85.2h-15.2v85.2h-10.6zm102.7 0l-17.4 95.7h-10.8l5.7-30.5h-9.6l-14.9-65.2h10.9l11.6 54.6h3.8l9.9-54.6zm25.3 30.3h10.2q4 0 6.7 1.3 2.9 1.1 4.6 3.1 1.8 2 2.6 4.7 0.8 2.7 0.8 5.7v35.9q0 4-1.2 6.9-1.1 2.7-3.2 4.5-1.9 1.7-4.7 2.5-2.6 0.8-5.6 0.8h-20.9v-95.7h32.9v10.6h-22.2zm14.3 50.6v-35.8q0-1.7-1-2.9-0.8-1.3-3.1-1.3h-10.2v44.2h10.2q1.8 0 2.9-0.8 1.2-1 1.2-3.4zm61.8 14.8l-9.8-85.1h-3.6l-9.8 85.1h-10.6l10.9-95.8h22.7l11 95.8zm63.9 0h-10.6v-60.8l-15.8 15.8v45h-10.6v-95.8h10.6v38l15.8-16.4v-21.6h10.6zm19.3 0v-95.7h10.6v31.3h9.1l10.5-31.3h11.3l-12 35.8 12.9 59.9h-10.9l-11.9-55.4h-9v55.4zm91 0l-2.1-18.3h-18.9l-2.2 18.3h-10.6l10.9-95.7h22.6l11 95.7zm-19.8-28h16.7l-6.7-57.1h-3.5zm113.8-67.8h21.7v95.8h-10.7v-86.2h-2.4l-10.4 63h-17.7l-10.3-63h-2.5v86.2h-10.6v-95.8h21.7l9.6 63.2h1.9zm55.8-0.8h15q4 0 6.8 1.3 2.9 1.1 4.6 3.1 1.7 2 2.6 4.7 0.8 2.6 0.8 5.7v67.9q0 3-0.8 5.8-0.9 2.6-2.6 4.7-1.7 1.9-4.6 3.1-2.8 1.1-6.8 1.1h-15q-4 0-6.9-1.1-2.8-1.2-4.6-3.1-1.6-2.1-2.4-4.7-0.9-2.8-0.9-5.8v-67.9q0-3.1 0.9-5.7 0.8-2.7 2.4-4.7 1.8-2 4.6-3.1 2.9-1.3 6.9-1.3zm0 86.8h15q2.2 0 3.2-1.2 1-1.3 1-2.9v-67.9q0-1.7-1-2.9-1-1.3-3.2-1.3h-15q-2.4 0-3.3 1.3-0.8 1.2-0.8 2.9v67.9q0 1.6 0.8 2.9 0.9 1.2 3.3 1.2zm82.7-71.2v35.9q0 4-1.3 6.9-1.1 2.7-3.2 4.5-2 1.7-4.8 2.5-2.6 0.9-5.6 0.9h-9.8v30.3h-10.7v-95.8h20.5q4 0 6.7 1.3 2.9 1.1 4.7 3.2 1.8 1.9 2.6 4.6 0.9 2.7 0.9 5.7zm-10.8 35.9v-35.9q0-1.7-1-2.9-0.8-1.2-3.1-1.2h-9.8v44.1h9.8q1.7 0 2.9-0.8 1.2-1 1.2-3.3zm28.3-50.7h31.9v10.7h-21.3v19.7h15.9v10.8h-15.9v44h21.3v10.6h-31.9zm110 85.2h8.8v23.3h-7.2l-2-12.7h-60.8v-95.8h10.7v85.2h14.6v-85.2h10.6v85.2h14.6v-85.2h10.7zm59.3 10.6h-10.6v-60.8l-15.7 15.8v45h-10.7v-95.7h10.7v37.9l15.7-16.4v-21.5h10.6zm46.4-65.3v-30.5h10.6v95.8h-10.6v-54.7h-16.4v54.7h-10.7v-95.8h10.7v30.5zm63.7 65.3l-2.1-18.4h-18.9l-2.2 18.4h-10.6l10.9-95.8h22.6l11.1 95.8zm-19.9-28.1h16.7l-6.6-57.1h-3.6z"/>
</svg>