<svg version="1.2" xmlns="http://www.w3.org/2000/svg" viewBox="0 0 1200 600" width="1200" height="600">
	<title>Moskovia1</title>
	<style>
		.s0 { fill: #d61616 } 
		.s1 { fill: #ffffff } 
	</style>
	<path id="Layer" class="s0" d="m0 0h1200v600h-1200z"/>
	<g id="Layer">
		<path id="Sovet" fill-rule="evenodd" class="s1" d="m141.2 32l7.7 24.1h25.8l-20.6 15.5 7.7 24-20.6-15.4-20.7 15.4 7.8-24-20.7-15.5h25.8zm0 12l-5.1 15.5h-17.2l13.7 10.3-5.1 15.5 13.7-9.5 13.8 9.5-5.2-15.5 13.8-10.3h-17.2zm-4.3 146.6l75.6 71.1 0.1-0.1q10.7-12.1 15.4-28.8 3.5-11.2 3.5-22.8 0-5.6-0.9-10.8-1.3-10.3-5.1-20.6-4.8-11.2-12.1-21.5-7.3-10.3-17.2-18.9-10.3-9.5-24.9-14.7-7.8-4.3-21.5-6.8-13.8-3.5-30.1-3.5h-8.2q-11.6 0-24.1 0.9-16.3 1.3-28.3 3.4 42.1-13.3 73.5-13.3h7.7q26.3 0 46.5 7.3 22.3 8.2 36.9 22.4 15.1 14.6 23.3 30.9 8.1 16.4 11.1 31.8 3.1 11.7 3.1 19.8 0 7.8-0.5 10.3-3 18.5-8.6 30.1-6.4 17.5-16.1 27l30.3 28.5q-2.6 9.5-9.9 16.4-7.7 7.7-14.6 9.4l-29.9-31.3q-10.3 8.9-29.4 15-15.9 4.3-33.1 4.3h-3.1q-15.4 0-34.4-6-15.9-6.9-31.3-17.2-5.2 7.7-11.2 15.4-6.5 7.3-9.5 10.4-4.3 3.4-9.4 3.4-6.1 0-10.8-3.9-4.7-4.3-4.7-10.7 0-6 3.4-10.3 2.6-3.5 8.6-9.5 6.9-6.9 14.6-12.9-0.8-1.7-2.5-3.4-2.2-2.6-3.5-4.3l16.4-15.5q3.4 4.3 7.7 8.6 3.4-1.7 4.3-2.6l11.2 11.2q0 1.7-0.9 2.6 0 0.8-0.8 1.7 20.6 13.7 43.4 13.7h3q29.7 0 48.6-13.7l0.4-0.3-70.1-73.3-22.8 22.4-29.2-29.2 23.2-23.3-5.1-5.1 17.2-17.2 5.1 5.1 13.3-12.9 39.6 2.6 7.7 7.8z"/>
	</g>
	<path id="Р Е С П У Б Л И К А" fill-rule="evenodd" class="s1" d="m156.9 417.6h-24.7v16.4h-13.3v-55.5h37.8q10.5 0 15 4.5 4.5 4.4 4.5 14.9 0 10.6-4.5 15.1-4.5 4.6-14.8 4.6zm-2.6-28.1h-22.1v17.1h22.1q4.8 0 6.7-2 2-2 2-6.7 0-4.5-2-6.4-1.9-2-6.7-2zm113.9 34v10.5h-56.7v-55.5h56.7v10.5h-43.4v12.1h42.1v9.7h-42.1v12.7zm87.9-8.7h13.4q0 6-0.9 9.4-0.9 3.5-3.1 5.7-2.2 2.3-5.9 3.2-3.8 0.9-10.2 0.9h-24.7q-11.5 0-15.9-4.2-4.4-4.3-4.4-15.4v-15.8q0-12 4.6-16.4 4.6-4.4 17-4.4h22q10.8 0 16 4.2 5.4 4.2 5.4 15.2h-13.3q0-4.4-2.5-6.3-2.4-2-8.1-2h-17.1q-6.7 0-8.7 1.9-2 1.8-2 8.3v13.8q0 6.1 2.3 8.1 2.4 2 8.4 2h17.1q6.1 0 8.4-1.7 2.2-1.7 2.2-6.5zm62.3 19.2h-13.2v-55.5h60.8v55.5h-13.2v-44.5h-34.4zm95.8-55.5l18.6 31.3 17.5-31.3h15.7l-34.4 55.5h-14.8l8.4-13.8-26.7-41.7zm124.6 55.5h-37.9v-55.5h52.1v10.5h-38.8v10.2h24.3q10.4 0 15.2 3.7 4.8 3.7 4.8 13.8 0 10-4.6 13.7-4.6 3.6-15.1 3.6zm-1.1-23.7h-23.5v12.7h23q5.1 0 6.5-1.3 1.6-1.4 1.6-5.2 0-3.7-1.6-5-1.4-1.2-6-1.2zm93.6-21.4h-0.7l-23.5 45.1h-15.5l29.4-55.5h19.7l29.2 55.5h-15.6zm71.3 45.1v-55.5h13.3v44.5h1.8l33.8-44.5h22.4v55.5h-13.3v-44.4h-1.9l-33.3 44.4zm108.9 0v-55.5h13.3v20.7h7.9l24.2-20.7h19.9l-32.7 26 34 29.5h-19.5l-25.7-23.7h-8.1v23.7zm158.8 0l-7.1-14h-32.9l-7.2 14h-15.5l29.4-55.5h19.7l29.2 55.5zm-12.5-24.4l-10.5-20.7h-0.7l-10.9 20.7z"/>
	<path id="М О С К О В И Я" fill-rule="evenodd" class="s1" d="m119.4 537h-16.6v-69.4h30.9l23 55.6h1l23-55.6h30.9v69.4h-16.6v-55.6h-2.2l-23.8 55.6h-23.6l-23.8-55.6h-2.2zm219.4-45.5v21.8q0 13.2-5.4 18.5-5.4 5.2-19.7 5.2h-30.5q-13.9 0-19.8-5.5-5.8-5.5-5.8-18.2v-21.8q0-14.1 5.6-19.4 5.7-5.3 20-5.3h30.5q13.4 0 19.2 5.3 5.9 5.3 5.9 19.4zm-64.6 1.6v18.5q0 6.8 2.7 9.2 2.7 2.4 10.3 2.4h22q7.9 0 10.4-2.3 2.6-2.3 2.6-9.4v-18.5q0-7.4-2.9-9.9-2.8-2.5-10.4-2.5h-21.4q-7.8 0-10.6 2.6-2.7 2.5-2.7 9.9zm173.6 19.9h16.7q0 7.5-1.1 11.8-1.1 4.3-3.9 7.1-2.7 2.8-7.4 4-4.7 1.1-12.7 1.1h-30.9q-14.4 0-19.9-5.3-5.4-5.3-5.4-19.2v-19.7q0-15.1 5.7-20.5 5.8-5.5 21.2-5.5h27.6q13.4 0 20 5.2 6.7 5.2 6.7 19h-16.6q0-5.5-3.1-7.9-3.1-2.5-10.2-2.5h-21.3q-8.4 0-10.9 2.4-2.5 2.3-2.5 10.4v17.2q0 7.6 2.9 10.1 3 2.5 10.5 2.5h21.3q7.7 0 10.5-2.1 2.8-2.1 2.8-8.1zm62.2 24v-69.4h16.6v25.9h9.8l30.3-25.9h24.9l-40.9 32.5 42.5 36.9h-24.4l-32.1-29.7h-10.1v29.7zm206.1-45.5v21.8q0 13.2-5.4 18.5-5.4 5.2-19.7 5.2h-30.5q-13.9 0-19.8-5.5-5.8-5.5-5.8-18.2v-21.8q0-14.1 5.6-19.4 5.7-5.3 20-5.3h30.5q13.4 0 19.2 5.3 5.9 5.3 5.9 19.4zm-64.6 1.6v18.5q0 6.8 2.7 9.2 2.7 2.4 10.3 2.4h22q7.9 0 10.4-2.3 2.6-2.3 2.6-9.4v-18.5q0-7.4-2.9-9.9-2.8-2.5-10.4-2.5h-21.4q-7.8 0-10.6 2.6-2.7 2.5-2.7 9.9zm163.6 43.9h-53.4v-69.4h50q12.2 0 18 4.1 5.9 4.1 5.9 13.3 0 7.8-2 10.9-1.9 3-6.6 4.5 5.8 1.9 8.5 5.3 2.8 3.3 2.8 10.9 0 10.9-5.6 15.7-5.5 4.7-17.6 4.7zm-3-56.3h-33.8v15h33.9q3.2 0 5-2.2 1.8-2.2 1.8-5.9 0-3.2-1.8-5-1.7-1.9-5.1-1.9zm0.1 27.3h-33.9v15.9h33.3q6.4 0 8.2-1.6 1.9-1.7 1.9-6.5 0-4.6-1.9-6.2-1.8-1.6-7.6-1.6zm73.2 29v-69.4h16.6v55.6h2.3l42.3-55.6h27.9v69.4h-16.6v-55.6h-2.3l-41.7 55.6zm214.6-69.4v69.4h-16.6v-22h-27.6l-16.6 22h-21.6l20.3-24.2q-6.2-1.4-10.8-7.2-4.5-5.9-4.5-13.6 0-13.8 6.3-19.1 6.4-5.3 18.4-5.3zm-50.8 34.3h34.2v-21.2h-34.7q-5.3 0-7.4 2.4-2.1 2.4-2.1 8.2 0 5.6 2.4 8.1 2.4 2.5 7.6 2.5z"/>
</svg>
