<svg version="1.2" xmlns="http://www.w3.org/2000/svg" viewBox="0 0 1200 600" width="1200" height="600">
	<title>Poznyakitaj</title>
	<style>
		.s0 { fill: #d50505 } 
		.s1 { fill: #ffffff } 
	</style>
	<path id="Layer" class="s0" d="m0 0h1200v600h-1200z"/>
	<g id="Layer">
		<path id="СОВЕ1" fill-rule="evenodd" class="s1" d="m169.2 45.3l-25 19.1 8.9 29.7-25-18.7-25.9 18.7 9.8-29.7-25.9-19.1h32.2l9.8-30.1 8.9 30.1zm-68.3 4.7l16.1 12.3-5.9 19 17-12.3 16.1 12.3-6-19 16.2-12.3h-20.4l-5.9-20-6.8 20zm9.3 111.5l100.9 95.4q3.4 3.4 3.4 8.5 0 5-3.4 8.4-3.4 3.9-8.9 3.9-5.1 0-8.9-3.9l-96.2-100.4-20 20.3-22-22 44.1-43.3 39 5.1z"/>
		<path id="СОВЕ2" class="s1" d="m45.9 292.9l15.1 15.1 148.6-148.8-2-2c0 0 17.3-4.6 27.8-21 4.8-7.6 6.7-15.5 12.6-30.2-14.7 5.7-22.7 7.6-30.3 12.4-16.5 10.3-21.2 27.6-21.2 27.6l-2-2z"/>
	</g>
	<path id="R Ž E Ć P O S P O L I T A" fill-rule="evenodd" class="s1" d="m67.6 409h-13.6v-61.6h28.2q11.7 0 18 6.2 5.2 5.3 5.2 14.1v0.2q0 14.2-13.2 19.1l15.1 22h-15.9l-13.2-19.7h-10.6zm0-49.4v17.7h13.7q4.9 0 7.7-2.3 2.7-2.4 2.7-6.4v-0.2q0-4.3-2.8-6.5-2.7-2.3-7.8-2.3zm125.9 49.4h-51.3v-10.3l33.9-39.4h-32.9v-11.9h50.3v10.3l-33.9 39.4h33.9zm-18.1-79.4h10.5l-11.2 13h-12.7l-11.3-13h10.8l6.9 5zm104.3 79.3h-46.9v-61.6h46.4v12.1h-33v12.5h29.1v12h-29.1v13h33.5zm67.3 1q-13.5 0-22.6-9.1-9-9.2-9-22.5v-0.2q0-13.4 9.1-22.6 9-9.3 23-9.3 14.8 0 24.3 9.5l-8.6 10q-7.8-7-15.8-7-7.6 0-12.7 5.7-5.1 5.5-5.1 13.5v0.2q0 8.1 5 13.7 5.1 5.6 12.8 5.6 5 0 8.6-1.7 3.7-1.8 7.6-5.5l8.7 8.7q-5.1 5.6-11 8.3-5.8 2.7-14.3 2.7zm4.1-68.3h-10.2l10.7-13.9 11.5 5.1zm71.9 67.3h-13.5v-61.6h25.1q10.9 0 17.3 5.9 6.3 5.8 6.3 15.4v0.2q0 10.3-7 16-7.1 5.6-17.9 5.6h-10.3zm0-49.4v18.9h10.7q5 0 7.9-2.7 2.9-2.6 2.9-6.7v-0.1q0-4.5-2.9-6.9-2.9-2.5-8.1-2.5zm124.9 41.2q-9.3 9.3-23.4 9.3-14.1 0-23.4-9.2-9.2-9.2-9.2-22.5v-0.2q0-13.3 9.3-22.5 9.4-9.4 23.5-9.4 14.1 0 23.3 9.3 9.4 9.1 9.4 22.4v0.2q0 13.3-9.5 22.6zm-36.6-8.9q5.3 5.7 13.4 5.7 8.1 0 13.3-5.6 5.2-5.5 5.2-13.6v-0.2q0-8.1-5.3-13.7-5.3-5.7-13.4-5.7-8.1 0-13.3 5.6-5.2 5.5-5.2 13.6v0.2q0 8.1 5.3 13.7zm106.4 18q-15.2 0-26.1-9.9l8-9.6q9.2 7.5 18.4 7.5 4.2 0 6.5-1.5 2.4-1.6 2.4-4.3v-0.2q0-2.6-2.5-4.3-2.5-1.7-9.9-3.5-5.2-1.3-8.6-2.6-3.3-1.3-6.2-3.4-2.9-2.1-4.3-5.3-1.4-3.1-1.4-7.5v-0.2q0-8.4 6-13.5 6-5.1 15.6-5.1 13 0 22.9 7.9l-7.1 10.2q-8.8-6.1-16-6.1-3.8 0-5.9 1.5-2 1.5-2 3.9v0.1q0 3 2.5 4.5 2.5 1.4 10.8 3.6 10 2.8 14.8 6.8 4.7 4.1 4.7 11.7v0.2q0 9-6.2 14.1-6.2 5-16.4 5zm74.4-0.9h-13.6v-61.6h25.2q10.9 0 17.2 5.9 6.4 5.8 6.4 15.4v0.2q0 10.4-7.1 16-7 5.6-17.8 5.6h-10.3zm0-49.3v18.8h10.7q4.9 0 7.8-2.7 3-2.6 3-6.6v-0.2q0-4.5-3-6.9-2.9-2.4-8-2.4zm124.9 41.1q-9.3 9.3-23.4 9.3-14.1 0-23.4-9.2-9.2-9.2-9.2-22.5v-0.2q0-13.3 9.3-22.5 9.4-9.3 23.5-9.3 14.1 0 23.3 9.2 9.3 9.2 9.3 22.4v0.2q0 13.3-9.4 22.6zm-36.6-8.9q5.3 5.7 13.4 5.7 8.1 0 13.3-5.6 5.2-5.5 5.2-13.6v-0.2q0-8.1-5.3-13.7-5.3-5.6-13.4-5.6-8.1 0-13.3 5.5-5.2 5.5-5.2 13.6v0.2q0 8.1 5.3 13.7zm128.7 17.1h-44.2v-61.6h13.5v49.3h30.7zm50.8 0h-13.5v-61.6h13.5zm69.7 0h-13.5v-49.1h-18.8v-12.5h51.1v12.5h-18.8zm64.1 0h-13.8l26.4-62h12.5l26.4 62h-14.2l-5.6-13.8h-26.1zm18.7-45.8l-8.2 20h16.4z"/>
	<path id="P O Z N Â K I T A J" fill-rule="evenodd" class="s1" d="m90.5 530h-17.2v-78.4h32q13.9 0 21.9 7.5 8.1 7.4 8.1 19.6v0.2q0 13.2-8.9 20.4-9 7.2-22.8 7.2h-13.1zm0-62.9v24h13.7q6.2 0 9.9-3.3 3.7-3.4 3.7-8.6v-0.2q0-5.7-3.7-8.7-3.7-3.2-10.3-3.2zm159.1 52.5q-11.9 11.7-29.8 11.7-17.9 0-29.8-11.6-11.8-11.8-11.8-28.7v-0.2q0-16.9 11.9-28.7 12-11.9 29.9-11.9 17.9 0 29.7 11.8 11.9 11.6 11.9 28.6v0.2q0 16.9-12 28.8zm-46.6-11.3q6.7 7.1 17 7.1 10.3 0 16.9-7 6.6-7.1 6.6-17.4v-0.2q0-10.3-6.7-17.5-6.7-7.2-17-7.2-10.3 0-16.9 7.1-6.6 7.1-6.6 17.4v0.2q0 10.3 6.7 17.5zm170.5 21.7h-65.3v-13.1l43.1-50.2h-41.8v-15.1h64v13.1l-43.2 50.2h43.2zm66.9 0h-17v-78.4h15.9l36.7 48.2v-48.2h17.1v78.4h-14.7l-38-49.9zm115.9 0h-17.5l33.6-78.9h15.9l33.6 78.9h-18.1l-7.1-17.6h-33.2zm23.8-58.2l-10.5 25.4h20.9zm-8.8-26.9h-13.4l14.3-16.4h16.2l14.3 16.4h-13.7l-8.8-6.2zm113.4 85.1h-17.2v-78.4h17.2v34.3l31.6-34.3h21.2l-32 33.3 33.3 45.1h-20.7l-24.3-33.4-9.1 9.4zm116.2 0h-17.3v-78.4h17.3zm88.7 0h-17.3v-62.5h-23.8v-15.9h64.9v15.9h-23.8zm81.5 0h-17.6l33.6-78.9h15.9l33.6 78.9h-18l-7.2-17.6h-33.1zm23.7-58.2l-10.4 25.4h20.9zm105.2 59.4q-15.8 0-25.6-11.8l10.9-12.1q7.1 7.9 14.3 7.9 10.5 0 10.5-13v-50.5h17.7v51.3q0 13.5-7.4 20.9-7.3 7.3-20.4 7.3z"/>
</svg>