<?xml version="1.0" encoding="UTF-8" standalone="no"?>
<svg
   width="1200"
   height="600"
   version="1.1"
   id="svg3"
   sodipodi:docname="VseUSSR2.svg"
   inkscape:version="1.3 (0e150ed6c4, 2023-07-21)"
   xmlns:inkscape="http://www.inkscape.org/namespaces/inkscape"
   xmlns:sodipodi="http://sodipodi.sourceforge.net/DTD/sodipodi-0.dtd"
   xmlns="http://www.w3.org/2000/svg"
   xmlns:svg="http://www.w3.org/2000/svg"
   xmlns:rdf="http://www.w3.org/1999/02/22-rdf-syntax-ns#"
   xmlns:cc="http://creativecommons.org/ns#"
   xmlns:dc="http://purl.org/dc/elements/1.1/">
  <title
     id="title6">VseUSSR2</title>
  <defs
     id="defs3" />
  <sodipodi:namedview
     id="namedview3"
     pagecolor="#ffffff"
     bordercolor="#000000"
     borderopacity="0.25"
     inkscape:showpageshadow="2"
     inkscape:pageopacity="0.0"
     inkscape:pagecheckerboard="0"
     inkscape:deskcolor="#d1d1d1"
     inkscape:zoom="0.59220193"
     inkscape:cx="553.02083"
     inkscape:cy="402.73425"
     inkscape:window-width="1920"
     inkscape:window-height="1009"
     inkscape:window-x="-8"
     inkscape:window-y="-8"
     inkscape:window-maximized="1"
     inkscape:current-layer="svg3" />
  <rect
     width="1200"
     height="600"
     fill="#bc0000"
     id="rect1"
     x="0"
     y="0"
     style="stroke-width:2;fill-rule:nonzero;fill:#d20000;fill-opacity:1" />
  <g
     id="g4"
     inkscape:label="Совет">
    <path
       d="m 121.39714,48.244543 h 27.69801 l 8.55592,-26.347072 8.55594,26.347072 h 27.69798 l -22.40492,16.28108 8.55592,26.347072 -22.40492,-16.28108 -22.40492,16.28108 8.55591,-26.347072 z"
       fill="#fcd116"
       id="path1"
       style="stroke-width:2;fill:#f4a01c;fill-opacity:1" />
    <path
       d="m 134.68987,52.562443 h 17.54201 l 5.41874,-16.686516 5.41879,16.686516 h 17.54202 l -14.18978,10.311374 5.41874,16.686494 -14.18977,-10.311374 -14.18974,10.311374 5.41872,-16.686494 z"
       fill="#bc0000"
       id="path2"
       style="stroke-width:2;fill:#d20000;fill-opacity:1" />
    <path
       d="m 150.27149,103.40508 c -21.34077,0.3834 -46.05132,4.58629 -74.557565,13.84311 32.510295,-6.37264 91.297045,-5.98113 110.630115,5.74404 37.80013,14.27574 55.31496,49.3244 59.22095,74.50012 3.57041,23.01295 -4.2872,44.99815 -18.55321,62.20787 l -74.09804,-70.24953 30.55827,-30.55826 -7.86936,-7.86931 -39.3466,-2.18272 -12.75176,12.75173 -5.3994,-5.11219 -16.71513,16.71514 c 1.62477,1.67893 3.48815,3.59829 5.16962,5.34196 l -23.033567,23.03356 28.662737,28.6053 22.34427,-22.34431 c 22.02953,23.11726 45.84636,48.24423 68.81351,72.43225 -27.7047,17.30031 -63.97061,21.12394 -93.85748,0.34467 0.82898,-1.48434 1.5089,-2.7585 1.89553,-3.6762 L 100.24094,265.7889 c -1.04336,0.453 -2.70134,1.44823 -4.652667,2.81457 -2.635778,-2.78528 -5.179623,-5.79348 -7.63957,-9.07558 l -15.279114,15.56637 c 1.836385,2.51263 3.723162,4.92811 5.686575,7.23745 -10.119369,8.65051 -20.296531,18.17911 -23.033567,22.11452 -11.675552,14.44924 10.319518,33.04564 21.195495,21.19548 4.270533,-3.35027 12.861384,-14.63577 20.506198,-25.67582 39.08507,29.63526 91.44229,29.91806 129.29822,4.36547 10.40182,10.90385 20.38041,21.40258 29.35196,30.67312 9.80808,-2.2296 21.62104,-13.33807 24.75681,-24.69935 l -30.04126,-28.43298 c 12.6094,-16.09717 21.37329,-36.76409 24.06749,-61.74832 3.47053,-32.19081 -21.36245,-118.56605 -124.18602,-116.71875 z"
       fill="#fcd116"
       id="path3"
       style="stroke-width:2.7666;fill:#f4a01c;fill-opacity:1" />
  </g>
  <g
     id="g3"
     inkscape:label="Text"
     transform="translate(7.3242188e-7,4.5732775)">
    <path
       d="m 189.53601,423.37939 v -67.2 h 34.464 q 12.192,0 18.336,5.952 4.32,4.512 4.32,10.944 v 0.192 q 0,10.56 -10.368,14.976 6.528,2.112 9.888,6.048 3.456,3.84 3.456,10.368 v 0.192 q 0,8.736 -6.72,13.632 -6.624,4.896 -18.72,4.896 z m 38.784,-46.272 v -0.192 q 0,-5.76 -8.448,-5.76 h -12.192 v 11.808 h 11.712 q 8.928,0 8.928,-5.856 z m 2.688,25.152 v -0.192 q 0,-6.048 -9.12,-6.048 h -14.208 v 12.384 h 14.4 q 8.928,0 8.928,-6.144 z m 89.61602,22.464 q -14.496,0 -24.576,-9.888 -10.08,-9.984 -10.08,-24.864 v -0.192 q 0,-14.784 10.08,-24.864 10.08,-10.08 25.248,-10.08 18.528,0 28.512,13.92 l -14.016,10.848 q -6.432,-7.872 -14.688,-7.872 -6.912,0 -11.52,5.184 -4.512,5.184 -4.512,12.672 v 0.192 q 0,7.68 4.512,12.864 4.512,5.088 11.52,5.088 4.896,0 8.256,-2.016 3.456,-2.016 6.912,-6.144 l 14.016,9.984 q -5.376,7.296 -12.384,11.232 -6.912,3.936 -17.28,3.936 z m 97.58409,-73.152 v -13.248 h 15.84 v 13.248 z m -21.216,0 v -13.248 h 15.84 v 13.248 z m -8.64,71.808 v -67.2 h 54.048 v 15.744 h -35.616 v 10.272 h 32.256 v 14.688 h -32.256 v 10.656 h 36.096 v 15.84 z m 172.92785,0 v -67.2 h 53.088 v 15.552 h -34.944 v 9.888 h 15.36 q 12.192,0 18.624,5.184 6.432,5.184 6.432,14.784 v 0.192 q 0,10.08 -6.72,15.84 -6.624,5.76 -19.584,5.76 z m 18.144,-14.88 h 13.248 q 4.128,0 6.336,-1.632 2.304,-1.728 2.304,-4.704 v -0.192 q 0,-6.048 -8.832,-6.048 h -13.056 z m 105.84003,14.88 h -20.832 l 12.864,-22.656 -25.92,-44.544 h 21.216 l 14.976,27.072 14.016,-27.072 h 20.832 z m 56.88,-16.512 h 8.256 l 21.984,-51.168 h 20.448 l 21.888,51.168 h 8.352 v 31.008 h -17.28 v -14.496 h -46.464 v 14.496 h -17.184 z m 40.224,-32.16 -12.96,32.832 h 25.92 z m 78.76805,48.672 v -67.2 h 54.048 v 15.744 h -35.616 v 10.272 h 32.256 v 14.688 h -32.256 v 10.656 h 36.096 v 15.84 z m 110.54393,0 v -50.88 h -20.064 v -16.32 h 58.84802 v 16.32 h -20.16002 v 50.88 z"
       id="text3"
       style="font-size:96px;font-family:Gotham;-inkscape-font-specification:Gotham;text-align:center;letter-spacing:30px;word-spacing:20px;text-anchor:middle;fill:#f4a01c;stroke-width:10"
       inkscape:label="text1"
       aria-label="ВСЁ БУДЕТ" />
    <path
       d="m 408.76613,552.54119 q -22.14672,0 -37.54675,-15.1067 -15.40004,-15.25337 -15.40004,-37.98675 v -0.29334 q 0,-22.58672 15.40004,-37.98675 15.40003,-15.40004 38.57342,-15.40004 28.30673,0 43.5601,21.26672 l -21.41338,16.57337 q -9.82669,-12.0267 -22.44006,-12.0267 -10.56002,0 -17.60004,7.92002 -6.89335,7.92002 -6.89335,19.36005 v 0.29333 q 0,11.73336 6.89335,19.65338 6.89335,7.77335 17.60004,7.77335 7.48002,0 12.61337,-3.08001 5.28001,-3.08 10.56002,-9.38668 l 21.41339,15.25336 q -8.21336,11.1467 -18.92005,17.16004 -10.56002,6.01335 -26.40006,6.01335 z m 114.2803,0 q -22.14671,0 -37.54675,-15.1067 -15.40004,-15.25337 -15.40004,-37.98675 v -0.29334 q 0,-22.58672 15.40004,-37.98675 15.40004,-15.40004 38.57342,-15.40004 28.30674,0 43.5601,21.26672 l -21.41338,16.57337 q -9.82669,-12.0267 -22.44005,-12.0267 -10.56003,0 -17.60004,7.92002 -6.89335,7.92002 -6.89335,19.36005 v 0.29333 q 0,11.73336 6.89335,19.65338 6.89335,7.77335 17.60004,7.77335 7.48002,0 12.61336,-3.08001 5.28001,-3.08 10.56003,-9.38668 l 21.41338,15.25336 q -8.21335,11.1467 -18.92004,17.16004 -10.56003,6.01335 -26.40007,6.01335 z m 114.28031,0 q -22.14672,0 -37.54676,-15.1067 -15.40003,-15.25337 -15.40003,-37.98675 v -0.29334 q 0,-22.58672 15.40003,-37.98675 15.40004,-15.40004 38.57343,-15.40004 28.30673,0 43.5601,21.26672 l -21.41338,16.57337 q -9.82669,-12.0267 -22.44006,-12.0267 -10.56002,0 -17.60004,7.92002 -6.89335,7.92002 -6.89335,19.36005 v 0.29333 q 0,11.73336 6.89335,19.65338 6.89335,7.77335 17.60004,7.77335 7.48002,0 12.61337,-3.08001 5.28001,-3.08 10.56002,-9.38668 l 21.41338,15.25336 q -8.21335,11.1467 -18.92004,17.16004 -10.56003,6.01335 -26.40006,6.01335 z m 67.64026,-2.05334 v -102.6669 h 44.14677 q 19.50672,0 30.94674,9.53335 11.5867,9.53336 11.5867,26.40007 v 0.29333 q 0,17.74671 -12.17337,27.42673 -12.17336,9.68002 -31.82674,9.68002 h -14.2267 v 29.3334 z m 28.4534,-51.62678 h 13.64004 q 7.48001,0 11.88002,-3.66668 4.40001,-3.66667 4.40001,-9.82669 v -0.29333 q 0,-6.45335 -4.40001,-9.82669 -4.25334,-3.52001 -12.02669,-3.52001 H 733.4204 Z m 87.73356,18.18671 -8.65335,-56.76014 v -12.46669 h 31.68007 v 12.46669 l -8.50669,56.76014 z m -7.18668,33.44007 v -24.93339 h 28.8934 v 24.93339 z"
       id="text6"
       style="font-size:146.667px;font-family:Gotham;-inkscape-font-specification:Gotham;text-align:center;letter-spacing:10px;word-spacing:0px;text-anchor:middle;fill:#f4a01c;stroke-width:10"
       inkscape:label="text3"
       aria-label="СССР!" />
  </g>
  <metadata
     id="metadata6">
    <rdf:RDF>
      <cc:Work
         rdf:about="">
        <dc:title>VseUSSR2</dc:title>
      </cc:Work>
    </rdf:RDF>
  </metadata>
</svg>
