<!-- Designed by Inkscape -->
<svg width="1200" height="600" xmlns="http://www.w3.org/2000/svg">
  <title>Vse Atomic Heart</title>
  <rect style="fill:rgb(210,0,0)" width="1200" height="600"/>
  <g id="Совет">
    <path
       d="m 121.39714,48.244543 h 27.69801 l 8.55592,-26.347072 8.55594,26.347072 h 27.69798 l -22.40492,16.28108 8.55592,26.347072 -22.40492,-16.28108 -22.40492,16.28108 8.55591,-26.347072 z"
       fill="#fcd116"
       id="path1"
       style="stroke-width:2;fill:rgb(255,255,255);fill-opacity:1"  />
    <path
       d="m 134.68987,52.562443 h 17.54201 l 5.41874,-16.686516 5.41879,16.686516 h 17.54202 l -14.18978,10.311374 5.41874,16.686494 -14.18977,-10.311374 -14.18974,10.311374 5.41872,-16.686494 z"
       fill="#bc0000"
       id="path2"
       style="stroke-width:2;fill:rgb(210,0,0);fill-opacity:1" />
    <path
       d="m 150.27149,103.40508 c -21.34077,0.3834 -46.05132,4.58629 -74.557565,13.84311 32.510295,-6.37264 91.297045,-5.98113 110.630115,5.74404 37.80013,14.27574 55.31496,49.3244 59.22095,74.50012 3.57041,23.01295 -4.2872,44.99815 -18.55321,62.20787 l -74.09804,-70.24953 30.55827,-30.55826 -7.86936,-7.86931 -39.3466,-2.18272 -12.75176,12.75173 -5.3994,-5.11219 -16.71513,16.71514 c 1.62477,1.67893 3.48815,3.59829 5.16962,5.34196 l -23.033567,23.03356 28.662737,28.6053 22.34427,-22.34431 c 22.02953,23.11726 45.84636,48.24423 68.81351,72.43225 -27.7047,17.30031 -63.97061,21.12394 -93.85748,0.34467 0.82898,-1.48434 1.5089,-2.7585 1.89553,-3.6762 L 100.24094,265.7889 c -1.04336,0.453 -2.70134,1.44823 -4.652667,2.81457 -2.635778,-2.78528 -5.179623,-5.79348 -7.63957,-9.07558 l -15.279114,15.56637 c 1.836385,2.51263 3.723162,4.92811 5.686575,7.23745 -10.119369,8.65051 -20.296531,18.17911 -23.033567,22.11452 -11.675552,14.44924 10.319518,33.04564 21.195495,21.19548 4.270533,-3.35027 12.861384,-14.63577 20.506198,-25.67582 39.08507,29.63526 91.44229,29.91806 129.29822,4.36547 10.40182,10.90385 20.38041,21.40258 29.35196,30.67312 9.80808,-2.2296 21.62104,-13.33807 24.75681,-24.69935 l -30.04126,-28.43298 c 12.6094,-16.09717 21.37329,-36.76409 24.06749,-61.74832 3.47053,-32.19081 -21.36245,-118.56605 -124.18602,-116.71875 z"
       fill="#fcd116"
       id="path3"
       style="stroke-width:2.7666;fill:rgb(255,255,255);fill-opacity:1" />
  </g>
  <g id="Текст" >
    <path
       d="m 189.536,423.37939 v -67.2 H 224 q 12.192,0 18.336,5.952 4.32,4.512 4.32,10.944 v 0.192 q 0,10.56 -10.368,14.976 6.528,2.112 9.888,6.048 3.456,3.84 3.456,10.368 v 0.192 q 0,8.736 -6.72,13.632 -6.624,4.896 -18.72,4.896 z m 38.784,-46.272 v -0.192 q 0,-5.76 -8.448,-5.76 H 207.68 v 11.808 h 11.712 q 8.928,0 8.928,-5.856 z m 2.688,25.152 v -0.192 q 0,-6.048 -9.12,-6.048 H 207.68 v 12.384 h 14.4 q 8.928,0 8.928,-6.144 z m 89.61602,22.464 q -14.496,0 -24.576,-9.888 -10.08,-9.984 -10.08,-24.864 v -0.192 q 0,-14.784 10.08,-24.864 10.08,-10.08 25.248,-10.08 18.528,0 28.512,13.92 l -14.016,10.848 q -6.432,-7.872 -14.688,-7.872 -6.912,0 -11.52,5.184 -4.512,5.184 -4.512,12.672 v 0.192 q 0,7.68 4.512,12.864 4.512,5.088 11.52,5.088 4.896,0 8.256,-2.016 3.456,-2.016 6.912,-6.144 l 14.016,9.984 q -5.376,7.296 -12.384,11.232 -6.912,3.936 -17.28,3.936 z m 97.58409,-73.152 v -13.248 h 15.84 v 13.248 z m -21.216,0 v -13.248 h 15.84 v 13.248 z m -8.64,71.808 v -67.2 h 54.048 v 15.744 h -35.616 v 10.272 h 32.256 v 14.688 h -32.256 v 10.656 h 36.096 v 15.84 z m 172.92785,0 v -67.2 h 53.088 v 15.552 h -34.944 v 9.888 h 15.36 q 12.192,0 18.624,5.184 6.432,5.184 6.432,14.784 v 0.192 q 0,10.08 -6.72,15.84 -6.624,5.76 -19.584,5.76 z m 18.144,-14.88 h 13.248 q 4.128,0 6.336,-1.632 2.304,-1.728 2.304,-4.704 v -0.192 q 0,-6.048 -8.832,-6.048 h -13.056 z m 105.84003,14.88 h -20.832 l 12.864,-22.656 -25.92,-44.544 h 21.216 l 14.976,27.072 14.016,-27.072 h 20.832 z m 56.88,-16.512 h 8.256 l 21.984,-51.168 h 20.448 l 21.888,51.168 h 8.352 v 31.008 h -17.28 v -14.496 h -46.464 v 14.496 h -17.184 z m 40.224,-32.16 -12.96,32.832 h 25.92 z m 78.76805,48.672 v -67.2 h 54.048 v 15.744 h -35.616 v 10.272 h 32.256 v 14.688 h -32.256 v 10.656 h 36.096 v 15.84 z m 110.54393,0 v -50.88 h -20.064 v -16.32 h 58.84803 v 16.32 h -20.16003 v 50.88 z"
       id="ВСЁ БУДЕТ"
       style="fill:rgb(255,255,255)" transform="translate(0,-6)"/>
    <path
       d="m 44.52018,531.44759 35.64,-84.6 h 22.44 l 35.76,84.6 h -24.96 l -6,-15.12 h -32.52 l -6,15.12 z m 37.2,-33.24 h 18.84 l -9.36,-23.76 z m 84.51999,33.24 v -63.6 h -25.08 v -20.4 h 73.56 v 20.4 h -25.2 v 63.6 z m 139.7199,-11.04 q -12.96,12.72 -32.28,12.72 -19.32,0 -32.28,-12.6 -12.84,-12.72 -12.84,-30.84 v -0.24 q 0,-18.24 12.96,-30.96 13.08,-12.72 32.4,-12.72 19.32,0 32.16,12.72 12.96,12.6 12.96,30.72 v 0.24 q 0,18.24 -13.08,30.96 z m -47.52,-15 q 6.12,6.72 15.48,6.72 9.36,0 15.24,-6.48 6,-6.6 6,-15.96 v -0.24 q 0,-9.36 -6.12,-15.96 -6,-6.72 -15.36,-6.72 -9.36,0 -15.36,6.6 -6,6.48 -6,15.84 v 0.24 q 0,9.24 6.12,15.96 z m 82.59991,26.04 v -84 h 24.6 l 20.04,32.52 20.04,-32.52 h 24.6 v 84 h -23.16 v -48.24 l -21.48,32.88 h -0.48 l -21.36,-32.76 v 48.12 z m 114.76003,0 v -84 h 23.28 v 84 z m 89.19993,1.68 q -18.12,0 -30.72,-12.36 -12.6,-12.48 -12.6,-31.08 v -0.24 q 0,-18.48 12.6,-31.08 12.6,-12.6 31.56,-12.6 23.16,0 35.64,17.4 l -17.52,13.56 q -8.04,-9.84 -18.36,-9.84 -8.64,0 -14.4,6.48 -5.64,6.48 -5.64,15.84 v 0.24 q 0,9.6 5.64,16.08 5.64,6.36 14.4,6.36 6.12,0 10.32,-2.52 4.32,-2.52 8.64,-7.68 l 17.52,12.48 q -6.72,9.12 -15.48,14.04 -8.64,4.92 -21.6,4.92 z m 103.16004,-1.68 v -84 h 23.28 v 31.44 h 29.88 v -31.44 h 23.28 v 84 h -23.28 v -31.92 h -29.88 v 31.92 z m 101.31994,0 v -84 h 67.56 v 19.68 h -44.52 v 12.84 h 40.32 v 18.36 h -40.32 v 13.32 h 45.12 v 19.8 z m 83.55991,0 35.64,-84.6 h 22.44 l 35.76,84.6 h -24.96 l -6,-15.12 h -32.52 l -6,15.12 z m 37.2,-33.24 h 18.84 l -9.36,-23.76 z m 74.80003,33.24 v -84 h 39.72 q 18.35994,0 27.35994,9 7.44,7.44 7.44,19.56 v 0.24 q 0,18.6 -17.28,25.92 l 20.04,29.28 h -26.75994 l -16.92,-25.44 h -10.32 v 25.44 z m 23.28,-43.68 h 15.48 q 5.88,0 9.12,-2.64 3.36,-2.76 3.36,-7.32 v -0.24 q 0,-4.92 -3.36,-7.44 -3.36,-2.64 -9.24,-2.64 h -15.36 z m 93.51994,43.68 v -63.6 h -25.08 v -20.4 h 73.56 v 20.4 h -25.2 v 63.6 z m 74.8,-27.36 -7.08,-46.44 v -10.2 h 25.92 v 10.2 l -6.96,46.44 z m -5.88,27.36 v -20.4 h 23.64 v 20.4 z"
       id="ATOMIC HEART"
       style="fill:rgb(255,255,255)" transform="translate(0, -3)" />
  </g>
</svg>
