<!-- painting by inkscape & www.photopea.com 26/01/2023 -->
<svg width="900" height="600" xmlns="http://www.w3.org/2000/svg">
  <title>GormeniaReich</title>
  <rect width="900" height="600" style="fill:rgb(222,22,22)"/>
  <rect width="900" height="400" style="fill:rgb(0,0,162)"/>
  <rect width="900" height="200" style="fill:rgb(0,0,0)"/>
  <path id="Svastika" d="M 625,299.99999 520.00001,195.00002 450,264.99998 415,229.99997 485.00001,160.00001 450,125 345,229.99997 415,299.99999 380,335 310,264.99998 275,299.99999 380,404.99997 450,335 485.00001,370.00001 415,439.99999 450.00001,475 555,370.00001 l -69.99999,-70.00002 35,-35.00001 L 590,335 Z" style="fill:rgb(255,255,255);fill-opacity:1;stroke-width:4.94975" />
  <g id="g1" transform="translate(22.41727,118.44597)" style="fill:rgb(216,216,216)">
    <path id="q1" d="m 266.58273,167.55401 -7,7.00003 98,98 70,-70.00002 49.00001,49.00002 -77,76.99996 6.99999,7.00003 84,-83.99999 -63,-63.00004 -70,70.00003 z" style="fill-opacity:1;stroke-width:4.94975" />
    <path id="q2" d="m 441.58273,20.554023 -6.99999,-7 -98.00001,97.999977 70,70.00002 -49,48.99998 -77,-76.99996 -7,6.99998 84,83.99999 63,-62.99999 -69.99999,-70.00002 z" style="fill-opacity:1;stroke-width:4.94975" />
    <path id="q3" d="m 595.58273,188.554 -97.99999,-97.999997 -70.00001,70.000017 -49,-49.00002 77,-76.999957 -6.99999,-7.00002 -84,83.999977 62.99999,63.00004 70.00001,-70.00002 91,91.00002 z" style="fill-opacity:1;stroke-width:4.94975" />
    <path id="q4" d="m 420.58273,349.55404 -6.99999,-7.00003 90.99999,-90.99997 -69.99999,-70.00002 63,-62.99999 83.99999,83.99999 -6.99999,6.99998 -77,-76.99995 -49,48.99997 69.99999,70.00002 z" style="fill-opacity:1;stroke-width:4.94975" />
  </g>
</svg>
