<?xml version="1.0" encoding="UTF-8" standalone="no"?>
<svg
   version="3.10"
   width="900"
   height="600"
   id="svg4"
   sodipodi:docname="Mezdymorze4.svg"
   inkscape:version="1.3 (0e150ed6c4, 2023-07-21)"
   xmlns:inkscape="http://www.inkscape.org/namespaces/inkscape"
   xmlns:sodipodi="http://sodipodi.sourceforge.net/DTD/sodipodi-0.dtd"
   xmlns="http://www.w3.org/2000/svg"
   xmlns:svg="http://www.w3.org/2000/svg">
  <defs
     id="defs4" />
  <sodipodi:namedview
     id="namedview4"
     pagecolor="#ffffff"
     bordercolor="#000000"
     borderopacity="0.25"
     inkscape:showpageshadow="2"
     inkscape:pageopacity="0.0"
     inkscape:pagecheckerboard="0"
     inkscape:deskcolor="#d1d1d1"
     inkscape:zoom="0.53425846"
     inkscape:cx="355.63311"
     inkscape:cy="175.00893"
     inkscape:window-width="1920"
     inkscape:window-height="1009"
     inkscape:window-x="-8"
     inkscape:window-y="-8"
     inkscape:window-maximized="1"
     inkscape:current-layer="svg4" />
  <title
     id="title1">MEŽDYMORŽË 4</title>
  <style
     id="style1">&#10;		.s0 { fill: #de1616 } &#10;		.s1 { fill: #0000a2 } &#10;		.s2 { fill: #ffffff } &#10;		.s3 { fill: #de1616;stroke: #ffffff;stroke-miterlimit:100;stroke-width: 10 } &#10;		.s4 { fill: #0000a2;stroke: #ffffff;stroke-miterlimit:100;stroke-width: 10 } &#10;	</style>
  <path
     id="Layer"
     class="s0"
     d="m0 0h900v600h-900z" />
  <path
     id="path1"
     class="s1"
     d="m0 0h900v400h-900z" />
  <path
     id="path2"
     class="s2"
     d="m0 0h900v200h-900z"
     style="fill:#00abff;fill-opacity:1" />
  <g
     id="Icon">
    <path
       id="path3"
       class="s3"
       d="m290 300c0-88.5 71.5-160 160-160 88.5 0 160 71.5 160 160" />
    <path
       id="path4"
       class="s4"
       d="m610 300c0 88.5-71.5 160-160 160-88.5 0-160-71.5-160-160" />
    <path
       id="Rodovik"
       class="s2"
       d="m449.8 177l-13.6 13.6 27.3 27.3-13.7 13.7-27.3-27.3-40.9 40.9 54.6 54.6-41 41-13.6-13.7 27.3-27.3-41-40.9-40.9 40.9 13.6 13.7 27.3-27.3 13.7 13.6-27.3 27.3 40.9 41 54.6-54.6 41 40.9-13.7 13.7-27.3-27.3-40.9 40.9 40.9 41 13.7-13.7-27.3-27.3 13.6-13.6 27.3 27.3 41-41-54.6-54.6 40.9-40.9 13.7 13.6-27.3 27.3 40.9 41 41-41-13.7-13.6-27.3 27.3-13.6-13.7 27.3-27.3-41-40.9-54.6 54.6-40.9-41 13.6-13.6 27.3 27.3 41-41z" />
  </g>
  <g
     id="Folder3"
     inkscape:label="text"
     style="fill:#ffffff;fill-opacity:1">
    <path
       style="font-size:80px;font-family:'Slavic New Style';-inkscape-font-specification:'Slavic New Style';font-feature-settings:tnum;text-align:center;letter-spacing:0px;word-spacing:0px;text-anchor:middle;fill:#ffffff;stroke-width:0.5;fill-opacity:1"
       d="m 42.160142,98.51175 h 6.64 v -29.28 q 0,-2.48 0,-5.2 0.08,-2.72 0.24,-6.96 1.04,-2.64 2.88,-4.88 1.92,-2.24 4.4,-3.92 2.48,-1.68 5.52,-2.56 3.04,-0.96 6.48,-0.96 4.48,0 8.16,1.12 3.76,1.12 6.4,3.2 2.72,2.08 4.16,5.04 1.52,2.96 1.52,6.64 0,2.96 -0.88,5.76 -0.88,2.8 -2.64,4.96 -1.76,2.16 -4.32,3.52 -2.48,1.28 -5.68,1.28 -1.36,0 -2.4,-0.16 -0.96,-0.24 -1.84,-0.64 -0.88,-0.4 -1.84,-0.96 -0.96,-0.56 -2.24,-1.2 l -5.52,7.2 v 18 h 6.64 v 3.36 h -25.68 z m 24.16,-29.28 q 0.64,0.48 1.52,0.96 0.88,0.4 1.44,0.4 0.72,0 1.6,-0.4 0.96,-0.4 1.76,-1.44 0.8,-1.12 1.28,-3.04 0.56,-2 0.56,-5.12 0,-2.16 -0.24,-4.32 -0.16,-2.24 -0.88,-4 -0.72,-1.84 -2.08,-2.96 -1.28,-1.2 -3.52,-1.2 -2.32,0 -3.68,1.28 -1.28,1.2 -1.92,3.44 -0.64,2.16 -0.8,5.28 -0.16,3.12 -0.16,6.8 v 10.8 z m 32.319967,-21.6 v -0.08 q 0,0 0,0 0,0 0,0 v -0.08 q 0,0 0,0 0,0 0,0 0,0 0,0 v -0.08 q -0.24,-0.4 -0.4,-1.2 3.200001,-1.44 6.960001,-1.44 2.24,0 4,0.8 1.76,0.72 3.28,2.16 1.52,1.44 2.8,3.44 1.36,2 2.64,4.48 1.12,2.08 2.24,4.56 1.12,2.4 2.32,4.72 l 2.64,5.28 h 0.56 v -20.96 h -4.4 v -3.36 h 21.2 v 3.36 h -4.4 v 20.96 h 0.56 l 2.64,-5.28 q 1.2,-2.32 2.32,-4.72 1.12,-2.48 2.24,-4.56 1.28,-2.48 2.56,-4.48 1.36,-2 2.88,-3.44 1.52,-1.44 3.28,-2.16 1.76,-0.8 4,-0.8 3.68,0 6.96,1.44 -0.16,0.8 -0.32,1.2 l -0.08,0.08 q 0,0 0,0 v 0.16 q 0,0 0,0 0,0 0,0 h -0.08 v 0.16 q 0,0 0,0 0,0 0,0 0,0 0,0 0,0 0,0 0,0 -0.08,0 0,0 0,0 0,0 0,0 v 0.16 q 0,0 0,0 0,0 0,0 h -0.08 v 0.08 q 0,0 0,0 0,0 0,0 0,0 0,0 0,0 0,0 0,0 0,0 0,0 0,0.08 0,0 0,0 0,0 0,0 0,0 0,0 0,0 0,0 0,0 0,0 0,0 0,0 0,0 -0.08,0 0,0 0,0 v 0.16 q -0.24,0.48 -0.48,1.04 -0.24,0.56 -0.48,1.6 -0.24,1.12 -0.32,2.4 -0.08,1.2 -0.24,3.84 h -1.6 q -1.2,-0.48 -2,-0.8 -0.8,-0.4 -1.52,-0.64 -0.72,-0.24 -1.52,-0.4 -0.72,-0.16 -1.76,-0.16 -1.36,0 -2.64,0.64 -1.28,0.56 -2.8,2.32 -1.52,1.76 -3.36,4.96 -1.84,3.2 -4.24,8.4 2.24,0.32 4.8,1.04 2.56,0.72 5.04,2.08 2.56,1.28 4.88,3.28 2.4,2 4.16,4.88 1.76,2.88 2.8,6.8 1.12,3.84 1.12,8.96 h 4.88 v 3.36 h -22.72 v -3.36 h 3.76 v -1.04 q 0,-5.44 -0.72,-9.28 -0.72,-3.84 -1.92,-6.48 -1.12,-2.64 -2.56,-4.24 -1.44,-1.6 -2.8,-2.4 -1.36,-0.88 -2.56,-1.12 -1.2,-0.32 -1.92,-0.4 v 24.96 h 4.08 v 3.36 h -20.56 v -3.36 h 4.08 v -24.96 q -0.72,0.08 -1.92,0.4 -1.2,0.24 -2.56,1.12 -1.36,0.8 -2.8,2.4 -1.44,1.6 -2.64,4.24 -1.12,2.64 -1.84,6.48 -0.72,3.84 -0.72,9.28 v 1.04 h 3.76 v 3.36 H 94.240109 v -3.36 h 4.88 q 0,-5.12 1.040001,-8.96 1.12,-3.92 2.88,-6.8 1.76,-2.88 4.08,-4.88 2.4,-2 4.88,-3.28 2.56,-1.36 5.12,-2.08 2.56,-0.72 4.8,-1.04 -2.4,-5.2 -4.24,-8.4 -1.84,-3.2 -3.36,-4.96 -1.52,-1.76 -2.8,-2.32 -1.28,-0.64 -2.64,-0.64 -1.04,0 -1.84,0.16 -0.72,0.16 -1.44,0.4 -0.72,0.24 -1.52,0.64 -0.8,0.32 -2,0.8 h -1.6 q -0.16,-2.64 -0.24,-3.84 -0.08,-1.28 -0.320001,-2.4 -0.24,-1.04 -0.48,-1.6 -0.24,-0.56 -0.4,-1.04 h -0.08 q 0,0 0,0 0,0 0,0 0,0 0,0 0,0 0,0 v -0.08 l -0.08,-0.08 v -0.08 l -0.08,-0.08 q 0,0 0,0 0,0 0,0 0,0 0,0 v -0.08 q 0,0 0,0 0,0 0,0 l -0.08,-0.08 v -0.08 q 0,0 0,0 0,-0.08 0,-0.08 0,0 0,0 0,0 0,0 0,0 0,0 0,0 0,0 z m 0,0 q 0,0 0,0 z m 0.08,0.08 q 0,0 0,0 z m 0,0.08 z m 0.16,0.24 q 0,0 0,0 z m 0,0.08 q 0,0 0,0 z m 0.08,0.08 q 0,0 0,0 z m 73.840071,12.48 v -3.36 h 3.84 q 1.44,-3.76 4,-6.16 2.64,-2.48 5.68,-3.84 3.12,-1.44 6.32,-2 3.28,-0.56 6.16,-0.56 2.88,0 6.08,0.48 3.2,0.4 6.32,1.6 3.12,1.2 5.92,3.28 2.8,2 4.88,5.28 2.16,3.28 3.44,7.84 1.28,4.56 1.28,10.72 0,6.64 -1.28,11.52 -1.28,4.8 -3.36,8.24 -2.08,3.36 -4.8,5.44 -2.72,2.08 -5.6,3.2 -2.88,1.2 -5.76,1.6 -2.8,0.4 -5.12,0.4 -0.88,0 -1.76,-0.16 -0.88,-0.16 -1.76,-0.32 -3.36,-0.8 -5.68,-1.84 -2.32,-1.04 -3.76,-1.04 -1.04,0 -1.68,0.48 -0.64,0.48 -0.96,1.2 -0.32,0.72 -0.4,1.6 -0.08,0.88 -0.08,1.68 0,1.84 0.24,2.8 0.08,0.32 0.08,0.48 0,0.24 -0.16,0.48 -0.16,0.24 -0.48,0.24 -0.96,0 -2,-0.24 -0.96,-0.16 -3.04,-0.16 -1.52,0 -2.16,0.56 -0.64,0.56 -1.28,0.56 -0.88,0 -1.68,-1.44 -0.72,-1.36 -0.72,-4.08 0,-2.48 0.8,-4.32 0.8,-1.92 2,-3.2 1.2,-1.28 2.64,-1.84 1.52,-0.64 2.88,-0.64 1.84,0 3.68,0.96 1.92,0.88 4.96,2.08 1.52,0.64 3.12,1.12 1.6,0.48 2.96,0.48 2.8,0 5.68,-1.04 2.88,-1.12 5.2,-3.6 2.32,-2.48 3.76,-6.48 1.52,-4 1.52,-9.84 v -0.16 q 0,0 0,0 0,0 0,0 v -0.4 q 0,-0.32 -0.08,-1.28 -2.64,1.84 -4.56,2.48 -1.84,0.64 -4.32,0.64 -0.48,0 -1.44,-0.08 -0.88,-0.16 -1.36,-0.32 -1.6,-0.4 -2.8,-0.88 -1.12,-0.56 -2.24,-0.96 -1.04,-0.48 -2.24,-0.8 -1.2,-0.32 -2.8,-0.32 -2.08,0 -4.4,0.96 -2.32,0.96 -3.92,1.92 l -1.84,-2.4 q 1.52,-2.08 2.88,-3.68 1.44,-1.68 2.96,-2.8 1.52,-1.2 3.28,-1.84 1.84,-0.64 4.08,-0.64 2.72,0 4.48,0.56 1.76,0.56 3.84,1.76 2.08,1.2 4.32,2.24 2.32,0.96 4.16,0.96 0.56,0 0.96,-0.32 0.48,-0.32 0.96,-0.8 0,-0.72 0,-1.36 0.08,-0.72 0.08,-1.36 0,-6.56 -1.2,-10.8 -1.12,-4.24 -3.04,-6.64 -1.84,-2.48 -4.16,-3.44 -2.32,-0.96 -4.72,-0.96 -2.72,0 -4.48,1.04 -1.76,1.04 -2.8,2.48 -1.04,1.44 -1.52,3.04 -0.48,1.6 -0.64,2.64 h 2.48 v 3.36 z m 91.59996,37.84 h 5.52 v -21.36 q -3.12,0 -6.24,-0.16 -3.04,-0.24 -6,-0.72 -2.88,-0.48 -5.52,-1.28 -2.64,-0.88 -4.8,-2.32 -2.64,-1.68 -4.4,-4.08 -1.68,-2.4 -2.8,-5.36 -1.04,-3.04 -1.6,-6.56 -0.48,-3.52 -0.56,-7.44 h -4.8 v -3.36 h 24 v 3.36 h -5.36 q 0,6.24 0.56,10.88 0.64,4.56 2.48,7.68 1.92,3.04 5.44,4.56 3.6,1.44 9.6,1.44 v -24.56 h -4.96 v -3.36 h 24 v 3.36 h -6.64 v 49.28 h 6.64 v 3.36 h -24.56 z m 30.79997,0 h 6.64 v -49.28 h -6.64 v -3.36 h 25.68 v 3.36 h -6.64 v 19.76 q 1.52,1.36 3.52,2.48 2.08,1.12 4.4,2 2.32,0.88 4.72,1.36 2.48,0.48 4.8,0.48 0.88,0 1.6,-0.08 0.8,-0.08 1.68,-0.08 h 1.04 q 0.72,0 1.44,0.16 0.72,0.08 1.2,0.64 0.56,0.48 0.88,1.52 0.32,1.04 0.32,2.88 v 15.92 q 0,1.92 -0.32,3.04 -0.32,1.12 -0.96,1.68 -0.64,0.56 -1.52,0.72 -0.88,0.16 -2,0.16 h -39.84 z m 26.24,0 q 1.04,0 2.08,-0.08 1.04,-0.08 1.92,-0.48 0.88,-0.48 1.44,-1.36 0.56,-0.96 0.56,-2.56 v -9.52 q 0,-1.76 -0.16,-2.8 -0.08,-1.12 -0.56,-1.68 -0.4,-0.64 -1.28,-0.96 -0.8,-0.4 -2.24,-0.88 -3.6,-1.12 -5.92,-2.64 -2.24,-1.52 -3.04,-2.16 v 25.12 z m 26.31997,0 h 6.64 v -49.28 h -6.64 v -3.36 h 55.76 v 3.36 h -6.64 v 49.28 h 6.64 v 3.36 h -24.56 v -3.36 h 5.52 v -49.28 h -17.68 v 49.28 h 5.52 v 3.36 h -24.56 z m 84.47997,5.52 q -0.4,0 -0.88,-0.24 -0.48,-0.16 -1.28,-0.72 -0.72,-0.48 -1.92,-1.36 -1.12,-0.96 -2.8,-2.4 -3.52,-3.04 -6.4,-5.68 -2.88,-2.64 -4.88,-5.36 -2,-2.8 -3.12,-6 -1.04,-3.28 -1.04,-7.52 0,-4.64 1.52,-8.56 1.52,-4 3.84,-7.28 2.32,-3.28 5.04,-5.84 2.8,-2.64 5.28,-4.56 2.4,-1.84 3.84,-3.28 1.44,-1.52 3.2,-1.52 1.12,0 2.24,1.44 1.12,1.36 2.96,3.12 2.32,2.32 5.12,4.64 2.88,2.32 5.36,5.2 2.56,2.88 4.24,6.64 1.76,3.68 1.76,8.72 0,4 -1.04,7.12 -1.04,3.12 -3.04,6 -1.92,2.88 -4.8,5.84 -2.88,2.88 -6.56,6.48 -1.52,1.44 -2.56,2.48 -0.96,0.96 -1.76,1.52 -0.72,0.64 -1.28,0.88 -0.48,0.24 -1.04,0.24 z m 4,-10.32 q 2,-0.8 3.84,-2.08 1.84,-1.36 3.2,-2.96 1.44,-1.68 2.24,-3.52 0.88,-1.92 0.88,-3.84 0,-1.92 -0.88,-3.76 -0.8,-1.92 -2.32,-3.84 -1.44,-2 -3.44,-4.16 -1.92,-2.16 -4.16,-4.64 -2.32,-2.48 -3.76,-4.08 -1.36,-1.6 -2.32,-2.72 -0.88,-1.12 -1.36,-1.92 -0.48,-0.88 -0.8,-1.92 -2.4,0.32 -4.24,1.6 -1.84,1.28 -3.04,3.04 -1.2,1.68 -1.84,3.6 -0.56,1.92 -0.56,3.52 0,3.6 2.24,7.12 2.32,3.52 5.68,7.12 2.88,3.12 4.8,4.96 1.92,1.84 3.12,3.2 1.28,1.28 1.92,2.48 0.64,1.12 0.8,2.8 z m 53.59993,-13.76 v -3.36 h 20.96 v 3.36 h -3.28 q -0.24,5.76 -3.12,10.16 -2.8,4.4 -6.88,7.44 -4.08,2.96 -8.72,4.48 -4.56,1.6 -8.4,1.6 -2.32,0 -3.52,-0.24 -1.2,-0.24 -2.32,-0.72 v -2.24 q 0,-2.24 -0.8,-4.24 -0.72,-2 -1.92,-3.84 -1.12,-1.84 -2.48,-3.44 -1.28,-1.68 -2.48,-3.28 -2.08,-2.8 -3.28,-5.12 -1.2,-2.32 -1.84,-4.24 -0.56,-2 -0.72,-3.6 -0.08,-1.68 -0.08,-3.12 0,-5.28 1.76,-9.84 1.76,-4.56 4.96,-7.84 3.28,-3.36 7.76,-5.2 4.56,-1.92 10,-1.92 6.08,0 10.08,1.84 4.08,1.76 6.56,4.4 2.56,2.64 3.76,5.76 1.28,3.04 1.68,5.6 h 3.28 v 3.36 h -20.96 v -3.36 h 3.44 q 0,-4.72 -0.88,-7.52 -0.8,-2.8 -2.08,-4.32 -1.28,-1.52 -2.8,-1.92 -1.52,-0.48 -2.88,-0.48 -1.84,0 -3.6,0.88 -1.76,0.88 -3.12,2.88 -1.28,2 -2.08,5.28 -0.8,3.28 -0.8,8.16 0,5.36 0.8,10.08 0.88,4.64 2.08,9.6 0.96,4 1.36,6.72 0.4,2.64 0.4,4.88 0,1.12 -0.32,2.16 -0.24,1.04 -0.64,2.32 0.56,0.48 1.92,0.48 1.84,0 4.08,-1.52 2.24,-1.52 4.16,-4.08 1.92,-2.64 3.2,-6.16 1.28,-3.6 1.28,-7.68 v -0.24 q 0,0 0,0 v -0.16 q 0,0 0,0 0,0 0,0 v -0.72 q 0,-0.48 -0.08,-1.04 z m 3.52,1.6 q 0,0 0,0 z m 0,0.08 q 0,0 0,0 z m 0,0.16 q 0,0 0,0 z m 0,0.08 q 0,0 0,0 z m 0,0.08 q 0,0 0,0 z m 22.80006,16.56 h 6.64 v -49.28 h -6.64 v -3.36 h 55.76 v 3.36 h -6.64 v 49.28 h 6.64 v 3.36 h -24.56 v -3.36 h 5.52 v -49.28 h -17.68 v 49.28 h 5.52 v 3.36 h -24.56 z m 84.48,5.52 q -0.4,0 -0.88,-0.24 -0.48,-0.16 -1.28,-0.72 -0.72,-0.48 -1.92,-1.36 -1.12,-0.96 -2.8,-2.4 -3.52,-3.04 -6.4,-5.68 -2.88,-2.64 -4.88,-5.36 -2,-2.8 -3.12,-6 -1.04,-3.28 -1.04,-7.52 0,-4.64 1.52,-8.56 1.52,-4 3.84,-7.28 2.32,-3.28 5.04,-5.84 2.8,-2.64 5.28,-4.56 2.4,-1.84 3.84,-3.28 1.44,-1.52 3.2,-1.52 1.12,0 2.24,1.44 1.12,1.36 2.96,3.12 2.32,2.32 5.12,4.64 2.88,2.32 5.36,5.2 2.56,2.88 4.24,6.64 1.76,3.68 1.76,8.72 0,4 -1.04,7.12 -1.04,3.12 -3.04,6 -1.92,2.88 -4.8,5.84 -2.88,2.88 -6.56,6.48 -1.52,1.44 -2.56,2.48 -0.96,0.96 -1.76,1.52 -0.72,0.64 -1.28,0.88 -0.48,0.24 -1.04,0.24 z m 4,-10.32 q 2,-0.8 3.84,-2.08 1.84,-1.36 3.2,-2.96 1.44,-1.68 2.24,-3.52 0.88,-1.92 0.88,-3.84 0,-1.92 -0.88,-3.76 -0.8,-1.92 -2.32,-3.84 -1.44,-2 -3.44,-4.16 -1.92,-2.16 -4.16,-4.64 -2.32,-2.48 -3.76,-4.08 -1.36,-1.6 -2.32,-2.72 -0.88,-1.12 -1.36,-1.92 -0.48,-0.88 -0.8,-1.92 -2.4,0.32 -4.24,1.6 -1.84,1.28 -3.04,3.04 -1.2,1.68 -1.84,3.6 -0.56,1.92 -0.56,3.52 0,3.6 2.24,7.12 2.32,3.52 5.68,7.12 2.88,3.12 4.8,4.96 1.92,1.84 3.12,3.2 1.28,1.28 1.92,2.48 0.64,1.12 0.8,2.8 z m 49.8399,4.8 h 5.2 l -9.52,-40.56 q -1.92,2.32 -3.84,5.68 -1.92,3.28 -3.44,6.96 -1.52,3.68 -2.48,7.36 -0.96,3.6 -0.96,6.48 0,1.52 0.32,3.52 0.32,1.92 0.56,2.88 0.24,0.88 1.36,1.92 1.12,0.96 2,3.04 0.16,0.32 0.16,2.48 v 2.64 q 0,0.96 -0.88,1.36 -0.88,0.48 -2,0.48 -0.64,0 -1.36,-0.08 -0.72,-0.08 -1.36,-0.24 -0.56,-0.08 -1.12,-0.16 -0.48,0 -1.04,0 -0.64,0 -1.28,0 -0.64,0.08 -1.28,0.16 -0.4,0.08 -0.72,0.08 h -0.72 q -1.84,0 -2.48,-1.04 -0.56,-1.12 -0.56,-3.2 0,-2.72 0.4,-5.2 0.4,-2.48 1.44,-5.52 1.12,-3.12 2.96,-7.12 1.92,-4.08 4.88,-9.84 0.96,-1.92 2.48,-4.56 1.52,-2.72 2.96,-5.44 1.44,-2.8 2.4,-5.28 1.04,-2.48 1.04,-4.08 0,-1.52 -0.96,-1.76 -0.88,-0.24 -1.76,-0.24 h -5.52 v -3.36 h 26.4 v 3.36 h -4.88 l 11.6,49.28 h 5.52 v 3.36 h -23.52 z m 27.75993,0 h 6.64 v -49.28 h -6.64 v -3.36 h 24.56 v 3.36 h -5.52 v 30.16 l 17.68,-21.68 v -8.48 h -5.52 v -3.36 h 24.56 v 3.36 h -6.64 v 49.28 h 6.64 v 3.36 h -24.56 v -3.36 h 5.52 v -35.44 l -17.68,21.6 v 13.84 h 5.52 v 3.36 h -24.56 z m 77.04,0 h 6.64 v -49.28 h -3.44 q -2.08,0 -3.52,0.24 -1.44,0.16 -2.56,1.04 -1.04,0.8 -1.92,2.48 -0.8,1.6 -1.6,4.4 -0.56,1.76 -0.88,3.2 -0.24,1.36 -0.56,2.32 -0.32,0.96 -0.8,1.52 -0.48,0.48 -1.36,0.48 -1.44,0 -2,-1.36 -0.4,-0.96 -0.4,-2.56 0,-1.6 -0.4,-3.44 -0.32,-1.52 -0.88,-2.96 -0.56,-1.52 -1.12,-2.72 -0.56,-1.28 -0.96,-2.32 -0.4,-1.04 -0.4,-1.76 0,-1.84 0.96,-2.4 0.96,-0.56 2.08,-0.56 0.8,0 1.52,0.16 0.8,0.08 1.2,0.24 1.04,0.24 2,0.4 0.96,0.08 2.16,0.16 1.2,0.08 2.96,0.08 h 0.48 q 0,0 0,0 0,0 0,0 0,0 0,0 0,0 0,0 0,0 0.08,0 0,0 0,0 0,0 0,0 0,0 0,0 0,0 0,0 h 0.4 q 0,0 0,0 0,0 0,0 0,0 0,0 0,0 0,0 0,0 0.08,0 0,0 0,0 h 0.4 q 0,0 0,0 0,0 0,0 0,0 0,0 0,0 0,0 0,0 0.08,0 0,0 0,0 0,0 0,0 0,0 0,0 h 0.24 q 0,0 0,0 0,0 0,0 0,0 0,0 0,0 0,0 0,0 0.08,0 0,0 0,0 h 1.68 q 0,0 0,0 0,0 0,0 0,0 0,0 0,0 0,0 0,0 0.08,0 0,0 0,0 0,0 0,0 0,0 0,0 0,0 0,0 h 24.88 q 0,0 0,0 0,0 0,0 0,0 0,0 0,0 0,0 0,0 0.08,0 0,0 0,0 h 0.16 q 0,0 0,0 0,0 0,0 0,0 0,0 0,0 0,0 0,0 0.08,0 0,0 0,0 0,0 0,0 0,0 0,0 0,0 0,0 h 0.08 q 0,0 0,0 0,0 0,0 0.08,0 0.08,0 0,0 0,0 0,0 0,0 0,0 0,0 h 0.4 q 0,0 0,0 0,0 0,0 0,0 0,0 0,0 0,0 0,0 0.08,0 0,0 0,0 0,0 0,0 0,0 0,0 0,0 0,0 0,0 0,0 0,0 0.08,0 0,0 0,0 h 0.48 q 0,0 0,0 0,0 0,0 0.08,0 0.08,0 0,0 0,0 0,0 0,0 0,0 0,0 h 0.16 q 0,0 0,0 0,0 0,0 0,0 0,0 0,0 0,0 0,0 0.08,0 0,0 0,0 0,0 0,0 0,0 0,0 0,0 0,0 h 1.6 q 0,0 0,0 0,0 0,0 0,0 0,0 0,0 0,0 0,0 0.08,0 0,0 0,0 h 0.4 q 1.76,0 2.96,-0.08 1.28,-0.08 2.16,-0.16 0.96,-0.16 1.84,-0.4 0.4,-0.16 1.12,-0.24 0.8,-0.16 1.6,-0.16 1.12,0 2.08,0.56 0.96,0.56 0.96,2.4 0,0.8 -0.32,1.44 -0.24,0.56 -0.72,1.52 -0.48,0.96 -1.12,2.56 -0.56,1.52 -1.2,4.24 -0.4,1.84 -0.48,2.8 -0.08,0.88 -0.08,2 0,1.12 -0.56,1.84 -0.56,0.72 -1.68,0.72 -0.8,0 -1.28,-0.4 -0.4,-0.4 -0.72,-1.28 -0.32,-0.88 -0.72,-2.32 -0.32,-1.44 -0.88,-3.52 -0.72,-2.64 -1.52,-4.24 -0.8,-1.6 -1.92,-2.48 -1.04,-0.88 -2.56,-1.12 -1.44,-0.32 -3.6,-0.32 h -3.44 v 49.28 h 6.64 v 3.36 h -25.68 z m 74.56,0 h 6.08 l -4.24,-14.72 q -0.24,0.24 -0.48,0.4 -1.36,1.2 -2.4,1.76 -1.04,0.56 -1.76,0.72 -0.72,0.16 -1.2,0.16 -1.2,0 -2,-0.32 -0.8,-0.4 -1.76,-1.04 -2.08,-1.36 -3.28,-1.92 -1.12,-0.56 -2.64,-0.56 -1.68,0 -3.04,0.72 -0.32,0.16 -0.56,0.32 v 0.4 q 0,1.52 0.32,3.52 0.32,1.92 0.56,2.88 0.24,0.88 1.36,1.92 1.12,0.96 2,3.04 0.16,0.32 0.16,2.48 v 2.64 q 0,0.96 -0.88,1.36 -0.88,0.48 -2,0.48 -0.64,0 -1.36,-0.08 -0.72,-0.08 -1.36,-0.24 -0.56,-0.08 -1.12,-0.16 -0.48,0 -1.04,0 -0.64,0 -1.28,0 -0.64,0.08 -1.28,0.16 -0.4,0.08 -0.72,0.08 h -0.72 q -1.84,0 -2.48,-1.04 -0.56,-1.12 -0.56,-3.2 0,-2.72 0.4,-5.2 0.4,-2.48 1.44,-5.52 1.12,-3.12 2.56,-6.32 1.52,-3.28 4.48,-9.04 l 1.92,-3.76 q 0.96,-1.84 1.6,-3.2 0.72,-1.44 1.84,-3.36 1.76,-2.96 2.4,-4 0.72,-1.12 1.6,-3.28 0.96,-2.16 0.96,-3.36 0,-1.52 -0.96,-1.76 -0.88,-0.24 -1.76,-0.24 h -3.6 v -3.36 h 24.88 v 3.36 h -6.32 l 14.72,49.28 h 5.52 v 3.36 h -24 z m -7.92,-38.24 q -1.68,2.24 -4.56,8.16 -2.88,5.84 -3.84,9.44 -0.32,1.28 -0.56,2.4 0.16,-0.08 0.24,-0.16 l 0.48,-0.32 q 0.72,-0.48 2.24,-1.12 1.52,-0.72 2.96,-1.12 1.44,-0.48 2.48,-0.48 1.52,0 2.88,0.48 1.6,0.56 3.04,1.6 1.44,0.96 2.48,0.96 0.32,0 0.8,-0.08 l -6.56,-22.56 z"
       id="text1"
       aria-label="РЖЭЧЬПОСПОЛИТА" />
    <path
       d="m 93.479983,548.35307 h 4.16 l -7.92,-42.24 h -0.8 q -4.08,7.84 -6.64,14 -2.48,6.08 -2.48,13.2 0,3.36 0.4,6.48 0.48,3.04 0.72,6.8 0.08,0.56 0.08,1.12 0,0 0,0 0,0 0,0 0,0 0,0 0,0 0,0 0,0 0,0 0,0 0,0.08 0,0 0,0 0,0 0,0 0,0 0,0 0,0 0,0 0,0 0,0 0,0 0,0 0,0 0,0.08 0,0 0,0 0,0 0,0 0,0 0,0 v 0.08 q 0,0 0,0 0,0 0,0 0,0 0,0 0,0 0,0 0,0 0,0 0,0 0,0.08 0,0 0,0 0,0 0,0 0,0 0,0 0,0 0,0 0,0 0,0 0,0 0,0 0,0 0,0.08 0,0 0,0 0,0 0,0 0,0 0,0 0,0 0,0 0,0 0,0 0,0 0,0 0,0 0,0.08 0,0 0,0 v 0.72 q 0,1.76 -0.24,2.4 -0.16,0.56 -0.96,0.96 -0.72,0.32 -1.76,0.32 -0.72,0 -1.44,-0.08 -0.72,-0.08 -1.44,-0.24 -0.56,-0.08 -1.04,-0.16 -0.48,0 -1.04,0 -0.64,0 -1.28,0 -0.64,0.08 -1.28,0.16 -0.4,0.08 -0.88,0.08 -0.48,0.08 -0.88,0.08 -0.64,0 -1.12,-0.24 -0.48,-0.16 -0.88,-0.72 -0.32,-0.64 -0.56,-1.76 -0.16,-1.2 -0.16,-3.04 0,-3.68 0.64,-6.72 0.64,-3.12 1.76,-5.92 1.12,-2.8 2.64,-5.44 1.6,-2.64 3.52,-5.28 2.16,-3.04 4.32,-5.84 2.24,-2.88 4,-5.6 1.84,-2.8 2.96,-5.44 1.12,-2.72 1.12,-5.44 0,-0.48 -0.08,-0.96 0,-0.48 -0.08,-0.96 h -5.92 v -3.36 h 22.879997 v 3.36 h -4.479997 l 10.159997,46.96 8.88,-46.96 h -3.52 v -3.36 h 21.52 v 3.36 h -5.2 l 10.72,49.28 h 5.52 v 3.36 h -21.44 v -3.36 h 3.52 l -8.24,-42.24 h -0.8 l -7.84,42.24 h 4.24 v 3.36 H 93.479983 Z m 87.920037,0 h 5.36 q 4.24,0 7.2,-1.12 2.96,-1.2 4.96,-3.12 2.08,-1.92 3.44,-4.4 1.44,-2.56 2.64,-5.2 0.32,-0.64 0.72,-1.12 0.4,-0.56 1.36,-0.56 0.72,0 1.28,0.48 0.56,0.4 0.72,1.28 0,3.2 -0.72,6.96 -0.72,3.68 -0.72,8.16 0,1.92 -0.88,2.48 -0.88,0.56 -1.84,0.56 -0.72,0 -1.52,-0.16 -0.8,-0.16 -2,-0.32 -1.2,-0.16 -2.56,-0.32 -1.36,-0.08 -2.88,-0.16 -1.44,-0.08 -2.72,-0.08 h -30.88 v -3.36 h 6.64 v -49.28 h -6.64 v -3.36 h 30.88 q 1.28,0 2.72,-0.08 1.52,-0.08 2.88,-0.16 1.36,-0.16 2.56,-0.32 1.2,-0.16 2,-0.32 0.8,-0.16 1.52,-0.16 0.96,0 1.84,0.56 0.88,0.56 0.88,2.48 0,0.88 -0.48,1.84 -0.48,0.96 -1.12,2.72 -0.64,1.76 -0.88,2.88 -0.16,1.04 -0.4,2.64 l -0.48,3.44 q -0.16,0.88 -0.72,1.36 -0.56,0.4 -1.28,0.4 -1.04,0 -1.44,-0.48 -0.4,-0.56 -0.64,-1.2 -0.8,-2.4 -1.44,-4.56 -0.56,-2.24 -1.84,-3.92 -1.28,-1.68 -3.6,-2.72 -2.32,-1.04 -6.56,-1.04 h -5.36 v 20.4 q 1.28,-0.64 2.32,-1.12 1.12,-0.48 2.16,-0.8 1.12,-0.4 2.24,-0.56 1.2,-0.16 2.8,-0.16 3.84,0 6.64,2.64 2.88,2.64 4,6.64 h 3.04 v 3.36 h -18.8 v -3.36 h 2.96 q -0.16,-2.56 -1.2,-3.68 -1.04,-1.12 -2,-1.12 -0.56,0 -1.68,0.16 -1.04,0.16 -2.48,0.72 z m 47.75999,-50.88 v -0.08 q 0,0 0,0 0,0 0,0 v -0.08 q 0,0 0,0 0,0 0,0 0,0 0,0 v -0.08 q -0.24,-0.4 -0.4,-1.2 3.2,-1.44 6.96,-1.44 2.24,0 4,0.8 1.76,0.72 3.28,2.16 1.52,1.44 2.8,3.44 1.36,2 2.64,4.48 1.12,2.08 2.24,4.56 1.12,2.4 2.32,4.72 l 2.64,5.28 h 0.56 v -20.96 h -4.4 v -3.36 h 21.2 v 3.36 h -4.4 v 20.96 h 0.56 l 2.64,-5.28 q 1.2,-2.32 2.32,-4.72 1.12,-2.48 2.24,-4.56 1.28,-2.48 2.56,-4.48 1.36,-2 2.88,-3.44 1.52,-1.44 3.28,-2.16 1.76,-0.8 4,-0.8 3.68,0 6.96,1.44 -0.16,0.8 -0.32,1.2 l -0.08,0.08 q 0,0 0,0 v 0.16 q 0,0 0,0 0,0 0,0 h -0.08 v 0.16 q 0,0 0,0 0,0 0,0 0,0 0,0 0,0 0,0 0,0 -0.08,0 0,0 0,0 0,0 0,0 v 0.16 q 0,0 0,0 0,0 0,0 h -0.08 v 0.08 q 0,0 0,0 0,0 0,0 0,0 0,0 0,0 0,0 0,0 0,0 0,0 0,0.08 0,0 0,0 0,0 0,0 0,0 0,0 0,0 0,0 0,0 0,0 0,0 0,0 0,0 -0.08,0 0,0 0,0 v 0.16 q -0.24,0.48 -0.48,1.04 -0.24,0.56 -0.48,1.6 -0.24,1.12 -0.32,2.4 -0.08,1.2 -0.24,3.84 h -1.6 q -1.2,-0.48 -2,-0.8 -0.8,-0.4 -1.52,-0.64 -0.72,-0.24 -1.52,-0.4 -0.72,-0.16 -1.76,-0.16 -1.36,0 -2.64,0.64 -1.28,0.56 -2.8,2.32 -1.52,1.76 -3.36,4.96 -1.84,3.2 -4.24,8.4 2.24,0.32 4.8,1.04 2.56,0.72 5.04,2.08 2.56,1.28 4.88,3.28 2.4,2 4.16,4.88 1.76,2.88 2.8,6.8 1.12,3.84 1.12,8.96 h 4.88 v 3.36 h -22.72 v -3.36 h 3.76 v -1.04 q 0,-5.44 -0.72,-9.28 -0.72,-3.84 -1.92,-6.48 -1.12,-2.64 -2.56,-4.24 -1.44,-1.6 -2.8,-2.4 -1.36,-0.88 -2.56,-1.12 -1.2,-0.32 -1.92,-0.4 v 24.96 h 4.08 v 3.36 h -20.56 v -3.36 h 4.08 v -24.96 q -0.72,0.08 -1.92,0.4 -1.2,0.24 -2.56,1.12 -1.36,0.8 -2.8,2.4 -1.44,1.6 -2.64,4.24 -1.12,2.64 -1.84,6.48 -0.72,3.84 -0.72,9.28 v 1.04 h 3.76 v 3.36 h -22.72 v -3.36 h 4.88 q 0,-5.12 1.04,-8.96 1.12,-3.92 2.88,-6.8 1.76,-2.88 4.08,-4.88 2.4,-2 4.88,-3.28 2.56,-1.36 5.12,-2.08 2.56,-0.72 4.8,-1.04 -2.4,-5.2 -4.24,-8.4 -1.84,-3.2 -3.36,-4.96 -1.52,-1.76 -2.8,-2.32 -1.28,-0.64 -2.64,-0.64 -1.04,0 -1.84,0.16 -0.72,0.16 -1.44,0.4 -0.72,0.24 -1.52,0.64 -0.8,0.32 -2,0.8 h -1.6 q -0.16,-2.64 -0.24,-3.84 -0.08,-1.28 -0.32,-2.4 -0.24,-1.04 -0.48,-1.6 -0.24,-0.56 -0.4,-1.04 h -0.08 q 0,0 0,0 0,0 0,0 0,0 0,0 0,0 0,0 v -0.08 l -0.08,-0.08 v -0.08 l -0.08,-0.08 q 0,0 0,0 0,0 0,0 0,0 0,0 v -0.08 q 0,0 0,0 0,0 0,0 l -0.08,-0.08 v -0.08 q 0,0 0,0 0,-0.08 0,-0.08 0,0 0,0 0,0 0,0 0,0 0,0 0,0 0,0 z m 0,0 q 0,0 0,0 z m 0.08,0.08 q 0,0 0,0 z m 0,0.08 z m 0.16,0.24 q 0,0 0,0 z m 0,0.08 q 0,0 0,0 z m 0.08,0.08 q 0,0 0,0 z m 99.20006,1.04 v -3.36 h 26.4 v 3.36 h -4.48 q 0.32,3.36 1.04,8.32 0.72,4.96 1.68,10.48 1.04,5.44 2.16,10.88 1.2,5.44 2.32,9.76 1.2,4.32 2.24,7.04 1.12,2.72 2,2.72 0.8,0 1.76,-0.48 0.96,-0.48 1.92,-0.48 0.88,0 1.6,0.72 0.72,0.72 0.72,2 0,0.64 -0.32,1.36 -0.24,0.72 -0.64,1.76 -0.4,1.04 -0.88,2.48 -0.48,1.52 -0.88,3.68 -0.16,0.96 -0.32,2.08 -0.16,1.12 -0.48,2.16 -0.24,1.04 -0.8,1.68 -0.48,0.72 -1.44,0.72 -1.44,0 -1.92,-1.12 -0.4,-1.12 -0.56,-2.4 -0.56,-3.84 -1.92,-6 -1.36,-2.16 -3.2,-3.2 -1.84,-1.04 -4.08,-1.28 -2.16,-0.24 -4.4,-0.24 h -8.16 q -2.96,0 -5.36,0.16 -2.32,0.16 -4.16,0.8 -1.76,0.64 -3.04,1.92 -1.28,1.36 -2.08,3.68 -0.4,1.12 -0.72,2.48 -0.32,1.36 -0.72,2.48 -0.4,1.2 -0.96,1.92 -0.56,0.8 -1.52,0.8 -0.72,0 -1.2,-0.4 -0.4,-0.4 -0.64,-0.96 -0.24,-0.56 -0.32,-1.28 -0.08,-0.64 -0.16,-1.12 -0.48,-3.44 -1.04,-5.44 -0.56,-1.92 -1.04,-3.12 -0.48,-1.12 -0.8,-1.92 -0.32,-0.88 -0.32,-2.08 0,-0.8 0.32,-1.2 0.4,-0.48 0.88,-0.72 0.56,-0.24 1.04,-0.32 0.56,-0.08 0.88,-0.08 1.12,0 1.6,0.16 0.48,0.16 1.28,0.16 1.44,0 1.92,-1.04 0.48,-1.12 0.64,-2 0.24,-1.28 0.48,-3.44 0.32,-2.16 1.04,-5.28 0.8,-3.2 2.24,-7.36 1.52,-4.16 4.32,-9.44 1.36,-2.56 2.64,-4.72 1.28,-2.16 2.24,-4.08 1.04,-1.92 1.6,-3.76 0.64,-1.92 0.64,-3.84 0,-0.48 -0.16,-1.12 -0.16,-0.64 -0.64,-1.2 -0.48,-0.56 -1.44,-0.88 -0.96,-0.4 -2.48,-0.4 z m 19.36,49.28 q -1.68,-6.16 -2.72,-10.16 -1.04,-4 -1.68,-6.72 -0.64,-2.72 -1.04,-4.72 0,0 0,0 0,0 0,0 0,0 0,0 l -0.08,-0.32 q 0,0 0,0 0,0 0,0 v -0.08 l -0.08,-0.32 v -0.08 l -0.08,-0.32 q 0,0 0,0 0,0 0,0 0,0 0,0 v -0.08 l -0.08,-0.24 q 0,0 0,0 0,0 0,0 0,0 0,0 0,0 0,0 0,0 0,-0.08 0,0 0,0 l -0.16,-0.72 q 0,0 0,0 0,0 0,0 0,0 0,0 v -0.08 q 0,0 0,0 0,0 0,0 0,0 0,0 v -0.08 l -0.08,-0.24 v -0.08 l -0.08,-0.32 v -0.08 q 0,0 0,0 0,0 0,0 l -0.08,-0.32 q 0,0 0,0 v -0.08 q 0,0 0,0 0,0 0,0 l -0.08,-0.32 v -0.08 q -0.4,-1.92 -0.88,-4.32 -0.4,-2.48 -1.12,-6.32 -2.56,3.28 -4.88,7.6 -2.24,4.24 -3.92,8.56 -1.68,4.32 -2.64,8.24 -0.96,3.92 -0.96,6.56 0,1.76 0.4,2.8 0.4,1.04 1.2,1.6 0.88,0.48 2.16,0.64 1.28,0.16 2.96,0.16 z m -6.24,-25.52 z m 0,0.08 q 0,0 0,0 z m 0.16,0.8 q 0,0 0,0 0,0 0,0 z m 0.08,0.32 q 0,0 0,0 z m 0,0.08 q 0,0 0,0 z m 0.24,1.12 q 0,0 0,0 z m 0,0.08 q 0,0 0,0 z m 0.16,0.72 q 0,0 0,0 z m 40.47995,22.32 h 6.64 v -49.28 h -6.64 v -3.36 h 25.68 v 3.36 h -6.64 v 19.76 q 1.52,1.36 3.52,2.48 2.08,1.12 4.4,2 2.32,0.88 4.72,1.36 2.48,0.48 4.8,0.48 0.88,0 1.6,-0.08 0.8,-0.08 1.68,-0.08 h 1.04 q 0.72,0 1.44,0.16 0.72,0.08 1.2,0.64 0.56,0.48 0.88,1.52 0.32,1.04 0.32,2.88 v 15.92 q 0,1.92 -0.32,3.04 -0.32,1.12 -0.96,1.68 -0.64,0.56 -1.52,0.72 -0.88,0.16 -2,0.16 h -39.84 z m 26.24,0 q 1.04,0 2.08,-0.08 1.04,-0.08 1.92,-0.48 0.88,-0.48 1.44,-1.36 0.56,-0.96 0.56,-2.56 v -9.52 q 0,-1.76 -0.16,-2.8 -0.08,-1.12 -0.56,-1.68 -0.4,-0.64 -1.28,-0.96 -0.8,-0.4 -2.24,-0.88 -3.6,-1.12 -5.92,-2.64 -2.24,-1.52 -3.04,-2.16 v 25.12 z m 21.52,0 h 6.64 v -49.28 h -6.64 v -3.36 h 25.68 v 3.36 h -6.64 v 49.28 h 6.64 v 3.36 h -25.68 z m 69.36002,0 h 4.16 l -7.92,-42.24 h -0.8 q -4.08,7.84 -6.64,14 -2.48,6.08 -2.48,13.2 0,3.36 0.4,6.48 0.48,3.04 0.72,6.8 0.08,0.56 0.08,1.12 0,0 0,0 0,0 0,0 0,0 0,0 0,0 0,0 0,0 0,0 0,0 0,0.08 0,0 0,0 0,0 0,0 0,0 0,0 0,0 0,0 0,0 0,0 0,0 0,0 0,0 0,0.08 0,0 0,0 0,0 0,0 0,0 0,0 v 0.08 q 0,0 0,0 0,0 0,0 0,0 0,0 0,0 0,0 0,0 0,0 0,0 0,0.08 0,0 0,0 0,0 0,0 0,0 0,0 0,0 0,0 0,0 0,0 0,0 0,0 0,0 0,0.08 0,0 0,0 0,0 0,0 0,0 0,0 0,0 0,0 0,0 0,0 0,0 0,0 0,0 0,0.08 0,0 0,0 v 0.72 q 0,1.76 -0.24,2.4 -0.16,0.56 -0.96,0.96 -0.72,0.32 -1.76,0.32 -0.72,0 -1.44,-0.08 -0.72,-0.08 -1.44,-0.24 -0.56,-0.08 -1.04,-0.16 -0.48,0 -1.04,0 -0.64,0 -1.28,0 -0.64,0.08 -1.28,0.16 -0.4,0.08 -0.88,0.08 -0.48,0.08 -0.88,0.08 -0.64,0 -1.12,-0.24 -0.48,-0.16 -0.88,-0.72 -0.32,-0.64 -0.56,-1.76 -0.16,-1.2 -0.16,-3.04 0,-3.68 0.64,-6.72 0.64,-3.12 1.76,-5.92 1.12,-2.8 2.64,-5.44 1.6,-2.64 3.52,-5.28 2.16,-3.04 4.32,-5.84 2.24,-2.88 4,-5.6 1.84,-2.8 2.96,-5.44 1.12,-2.72 1.12,-5.44 0,-0.48 -0.08,-0.96 0,-0.48 -0.08,-0.96 h -5.92 v -3.36 h 22.88 v 3.36 h -4.48 l 10.16,46.96 8.88,-46.96 h -3.52 v -3.36 h 21.52 v 3.36 h -5.2 l 10.72,49.28 h 5.52 v 3.36 h -21.44 v -3.36 h 3.52 l -8.24,-42.24 h -0.8 l -7.84,42.24 h 4.24 v 3.36 h -23.36 z m 91.36004,5.52 q -0.4,0 -0.88,-0.24 -0.48,-0.16 -1.28,-0.72 -0.72,-0.48 -1.92,-1.36 -1.12,-0.96 -2.8,-2.4 -3.52,-3.04 -6.4,-5.68 -2.88,-2.64 -4.88,-5.36 -2,-2.8 -3.12,-6 -1.04,-3.28 -1.04,-7.52 0,-4.64 1.52,-8.56 1.52,-4 3.84,-7.28 2.32,-3.28 5.04,-5.84 2.8,-2.64 5.28,-4.56 2.4,-1.84 3.84,-3.28 1.44,-1.52 3.2,-1.52 1.12,0 2.24,1.44 1.12,1.36 2.96,3.12 2.32,2.32 5.12,4.64 2.88,2.32 5.36,5.2 2.56,2.88 4.24,6.64 1.76,3.68 1.76,8.72 0,4 -1.04,7.12 -1.04,3.12 -3.04,6 -1.92,2.88 -4.8,5.84 -2.88,2.88 -6.56,6.48 -1.52,1.44 -2.56,2.48 -0.96,0.96 -1.76,1.52 -0.72,0.64 -1.28,0.88 -0.48,0.24 -1.04,0.24 z m 4,-10.32 q 2,-0.8 3.84,-2.08 1.84,-1.36 3.2,-2.96 1.44,-1.68 2.24,-3.52 0.88,-1.92 0.88,-3.84 0,-1.92 -0.88,-3.76 -0.8,-1.92 -2.32,-3.84 -1.44,-2 -3.44,-4.16 -1.92,-2.16 -4.16,-4.64 -2.32,-2.48 -3.76,-4.08 -1.36,-1.6 -2.32,-2.72 -0.88,-1.12 -1.36,-1.92 -0.48,-0.88 -0.8,-1.92 -2.4,0.32 -4.24,1.6 -1.84,1.28 -3.04,3.04 -1.2,1.68 -1.84,3.6 -0.56,1.92 -0.56,3.52 0,3.6 2.24,7.12 2.32,3.52 5.68,7.12 2.88,3.12 4.8,4.96 1.92,1.84 3.12,3.2 1.28,1.28 1.92,2.48 0.64,1.12 0.8,2.8 z m 33.99993,4.8 h 6.64 v -29.28 q 0,-2.48 0,-5.2 0.08,-2.72 0.24,-6.96 1.04,-2.64 2.88,-4.88 1.92,-2.24 4.4,-3.92 2.48,-1.68 5.52,-2.56 3.04,-0.96 6.48,-0.96 4.48,0 8.16,1.12 3.76,1.12 6.4,3.2 2.72,2.08 4.16,5.04 1.52,2.96 1.52,6.64 0,2.96 -0.88,5.76 -0.88,2.8 -2.64,4.96 -1.76,2.16 -4.32,3.52 -2.48,1.28 -5.68,1.28 -1.36,0 -2.4,-0.16 -0.96,-0.24 -1.84,-0.64 -0.88,-0.4 -1.84,-0.96 -0.96,-0.56 -2.24,-1.2 l -5.52,7.2 v 18 h 6.64 v 3.36 h -25.68 z m 24.16,-29.28 q 0.64,0.48 1.52,0.96 0.88,0.4 1.44,0.4 0.72,0 1.6,-0.4 0.96,-0.4 1.76,-1.44 0.8,-1.12 1.28,-3.04 0.56,-2 0.56,-5.12 0,-2.16 -0.24,-4.32 -0.16,-2.24 -0.88,-4 -0.72,-1.84 -2.08,-2.96 -1.28,-1.2 -3.52,-1.2 -2.32,0 -3.68,1.28 -1.28,1.2 -1.92,3.44 -0.64,2.16 -0.8,5.28 -0.16,3.12 -0.16,6.8 v 10.8 z m 42.32,-21.6 v -0.08 q 0,0 0,0 0,0 0,0 v -0.08 q 0,0 0,0 0,0 0,0 0,0 0,0 v -0.08 q -0.24,-0.4 -0.4,-1.2 3.2,-1.44 6.96,-1.44 2.24,0 4,0.8 1.76,0.72 3.28,2.16 1.52,1.44 2.8,3.44 1.36,2 2.64,4.48 1.12,2.08 2.24,4.56 1.12,2.4 2.32,4.72 l 2.64,5.28 h 0.56 v -20.96 h -4.4 v -3.36 h 21.2 v 3.36 h -4.4 v 20.96 h 0.56 l 2.64,-5.28 q 1.2,-2.32 2.32,-4.72 1.12,-2.48 2.24,-4.56 1.28,-2.48 2.56,-4.48 1.36,-2 2.88,-3.44 1.52,-1.44 3.28,-2.16 1.76,-0.8 4,-0.8 3.68,0 6.96,1.44 -0.16,0.8 -0.32,1.2 l -0.08,0.08 q 0,0 0,0 v 0.16 q 0,0 0,0 0,0 0,0 h -0.08 v 0.16 q 0,0 0,0 0,0 0,0 0,0 0,0 0,0 0,0 0,0 -0.08,0 0,0 0,0 0,0 0,0 v 0.16 q 0,0 0,0 0,0 0,0 h -0.08 v 0.08 q 0,0 0,0 0,0 0,0 0,0 0,0 0,0 0,0 0,0 0,0 0,0 0,0.08 0,0 0,0 0,0 0,0 0,0 0,0 0,0 0,0 0,0 0,0 0,0 0,0 0,0 -0.08,0 0,0 0,0 v 0.16 q -0.24,0.48 -0.48,1.04 -0.24,0.56 -0.48,1.6 -0.24,1.12 -0.32,2.4 -0.08,1.2 -0.24,3.84 h -1.6 q -1.2,-0.48 -2,-0.8 -0.8,-0.4 -1.52,-0.64 -0.72,-0.24 -1.52,-0.4 -0.72,-0.16 -1.76,-0.16 -1.36,0 -2.64,0.64 -1.28,0.56 -2.8,2.32 -1.52,1.76 -3.36,4.96 -1.84,3.2 -4.24,8.4 2.24,0.32 4.8,1.04 2.56,0.72 5.04,2.08 2.56,1.28 4.88,3.28 2.4,2 4.16,4.88 1.76,2.88 2.8,6.8 1.12,3.84 1.12,8.96 h 4.88 v 3.36 h -22.72 v -3.36 h 3.76 v -1.04 q 0,-5.44 -0.72,-9.28 -0.72,-3.84 -1.92,-6.48 -1.12,-2.64 -2.56,-4.24 -1.44,-1.6 -2.8,-2.4 -1.36,-0.88 -2.56,-1.12 -1.2,-0.32 -1.92,-0.4 v 24.96 h 4.08 v 3.36 h -20.56 v -3.36 h 4.08 v -24.96 q -0.72,0.08 -1.92,0.4 -1.2,0.24 -2.56,1.12 -1.36,0.8 -2.8,2.4 -1.44,1.6 -2.64,4.24 -1.12,2.64 -1.84,6.48 -0.72,3.84 -0.72,9.28 v 1.04 h 3.76 v 3.36 h -22.72 v -3.36 h 4.88 q 0,-5.12 1.04,-8.96 1.12,-3.92 2.88,-6.8 1.76,-2.88 4.08,-4.88 2.4,-2 4.88,-3.28 2.56,-1.36 5.12,-2.08 2.56,-0.72 4.8,-1.04 -2.4,-5.2 -4.24,-8.4 -1.84,-3.2 -3.36,-4.96 -1.52,-1.76 -2.8,-2.32 -1.28,-0.64 -2.64,-0.64 -1.04,0 -1.84,0.16 -0.72,0.16 -1.44,0.4 -0.72,0.24 -1.52,0.64 -0.8,0.32 -2,0.8 h -1.6 q -0.16,-2.64 -0.24,-3.84 -0.08,-1.28 -0.32,-2.4 -0.24,-1.04 -0.48,-1.6 -0.24,-0.56 -0.4,-1.04 h -0.08 q 0,0 0,0 0,0 0,0 0,0 0,0 0,0 0,0 v -0.08 l -0.08,-0.08 v -0.08 l -0.08,-0.08 q 0,0 0,0 0,0 0,0 0,0 0,0 v -0.08 q 0,0 0,0 0,0 0,0 l -0.08,-0.08 v -0.08 q 0,0 0,0 0,-0.08 0,-0.08 0,0 0,0 0,0 0,0 0,0 0,0 0,0 0,0 z m 0,0 q 0,0 0,0 z m 0.08,0.08 q 0,0 0,0 z m 0,0.08 z m 0.16,0.24 q 0,0 0,0 z m 0,0.08 q 0,0 0,0 z m 0.08,0.08 q 0,0 0,0 z m 83.84003,12.48 v -3.36 h 3.84 q 1.44,-3.76 4,-6.16 2.64,-2.48 5.68,-3.84 3.12,-1.44 6.32,-2 3.28,-0.56 6.16,-0.56 2.88,0 6.08,0.48 3.2,0.4 6.32,1.6 3.12,1.2 5.92,3.28 2.8,2 4.88,5.28 2.16,3.28 3.44,7.84 1.28,4.56 1.28,10.72 0,6.64 -1.28,11.52 -1.28,4.8 -3.36,8.24 -2.08,3.36 -4.8,5.44 -2.72,2.08 -5.6,3.2 -2.88,1.2 -5.76,1.6 -2.8,0.4 -5.12,0.4 -0.88,0 -1.76,-0.16 -0.88,-0.16 -1.76,-0.32 -3.36,-0.8 -5.68,-1.84 -2.32,-1.04 -3.76,-1.04 -1.04,0 -1.68,0.48 -0.64,0.48 -0.96,1.2 -0.32,0.72 -0.4,1.6 -0.08,0.88 -0.08,1.68 0,1.84 0.24,2.8 0.08,0.32 0.08,0.48 0,0.24 -0.16,0.48 -0.16,0.24 -0.48,0.24 -0.96,0 -2,-0.24 -0.96,-0.16 -3.04,-0.16 -1.52,0 -2.16,0.56 -0.64,0.56 -1.28,0.56 -0.88,0 -1.68,-1.44 -0.72,-1.36 -0.72,-4.08 0,-2.48 0.8,-4.32 0.8,-1.92 2,-3.2 1.2,-1.28 2.64,-1.84 1.52,-0.64 2.88,-0.64 1.84,0 3.68,0.96 1.92,0.88 4.96,2.08 1.52,0.64 3.12,1.12 1.6,0.48 2.96,0.48 2.8,0 5.68,-1.04 2.88,-1.12 5.2,-3.6 2.32,-2.48 3.76,-6.48 1.52,-4 1.52,-9.84 v -0.16 q 0,0 0,0 0,0 0,0 v -0.4 q 0,-0.32 -0.08,-1.28 -2.64,1.84 -4.56,2.48 -1.84,0.64 -4.32,0.64 -0.48,0 -1.44,-0.08 -0.88,-0.16 -1.36,-0.32 -1.6,-0.4 -2.8,-0.88 -1.12,-0.56 -2.24,-0.96 -1.04,-0.48 -2.24,-0.8 -1.2,-0.32 -2.8,-0.32 -2.08,0 -4.4,0.96 -2.32,0.96 -3.92,1.92 l -1.84,-2.4 q 1.52,-2.08 2.88,-3.68 1.44,-1.68 2.96,-2.8 1.52,-1.2 3.28,-1.84 1.84,-0.64 4.08,-0.64 2.72,0 4.48,0.56 1.76,0.56 3.84,1.76 2.08,1.2 4.32,2.24 2.32,0.96 4.16,0.96 0.56,0 0.96,-0.32 0.48,-0.32 0.96,-0.8 0,-0.72 0,-1.36 0.08,-0.72 0.08,-1.36 0,-6.56 -1.2,-10.8 -1.12,-4.24 -3.04,-6.64 -1.84,-2.48 -4.16,-3.44 -2.32,-0.96 -4.72,-0.96 -2.72,0 -4.48,1.04 -1.76,1.04 -2.8,2.48 -1.04,1.44 -1.52,3.04 -0.48,1.6 -0.64,2.64 h 2.48 v 3.36 z"
       id="text2"
       style="font-size:80px;font-family:'Slavic New Style';-inkscape-font-specification:'Slavic New Style';font-feature-settings:tnum;text-align:center;letter-spacing:10px;word-spacing:0px;text-anchor:middle;fill:#ffffff;stroke-width:0.5;fill-opacity:1"
       aria-label="МЕЖДЫМОРЖЭ" />
  </g>
</svg>
