<!-- painting by inkscape & www.photopea.com 26/01/2023 -->
<svg width="900" height="600" xmlns="http://www.w3.org/2000/svg">
  <title>Mezdymorze</title>
  <rect width="900" height="600" style="fill:rgb(222,22,22)"/>
  <rect width="900" height="400" style="fill:rgb(0,0,162)"/>
  <rect width="900" height="200" style="fill:#ffffff"/>
  <circle style="fill:#0000a2;fill-opacity:1;stroke-width:0.695652" id="path1" cx="450" cy="300" r="200.01021" />
  <path id="Rodovik" d="m 450,139.33228 -17.85197,17.85197 35.70394,35.70393 L 450,210.74015 414.29607,175.03621 360.74016,228.59213 432.14802,300 378.59212,353.55591 360.74016,335.70394 396.44409,300 342.88819,246.44409 289.33228,300 307.18425,317.85197 342.88818,282.14803 360.74015,300 325.03621,335.70393 378.59213,389.25984 450,317.85198 503.55591,371.40788 485.70394,389.25984 450,353.55591 396.44409,407.11181 450,460.66772 467.85197,442.81575 432.14803,407.11182 450,389.25985 485.70393,424.96379 539.25984,371.40787 467.85198,300 521.40788,246.44409 539.25984,264.29606 503.55591,300 557.11181,353.55591 610.66772,300 592.81575,282.14803 557.11182,317.85197 539.25985,300 574.96379,264.29607 521.40787,210.74016 450,282.14802 396.44409,228.59212 414.29606,210.74016 450,246.44409 l 53.55591,-53.5559 z" style="fill:#ffffff"/>
</svg>