<svg version="3.10" xmlns="http://www.w3.org/2000/svg" width="900" height="600">
	<title>MEŽDYMORŽË 3</title>
	<style>
		.s0 { fill: #de1616 } 
		.s1 { fill: #0000a2 } 
		.s2 { fill: #ffffff } 
		.s3 { fill: #de1616;stroke: #ffffff;stroke-miterlimit:100;stroke-width: 10 } 
		.s4 { fill: #0000a2;stroke: #ffffff;stroke-miterlimit:100;stroke-width: 10 } 
	</style>
	<path id="Layer" class="s0" d="m0 0h900v600h-900z"/>
	<path id="Layer" class="s1" d="m0 0h900v400h-900z"/>
	<path id="Layer" class="s2" d="m0 0h900v200h-900z"/>
	<g id="Icon">
		<path id="path1" class="s3" d="m290 300c0-88.5 71.5-160 160-160 88.5 0 160 71.5 160 160"/>
		<path id="path2" class="s4" d="m610 300c0 88.5-71.5 160-160 160-88.5 0-160-71.5-160-160"/>
		<path id="Rodovik" class="s2" d="m449.8 177l-13.6 13.6 27.3 27.3-13.7 13.7-27.3-27.3-40.9 40.9 54.6 54.6-41 41-13.6-13.7 27.3-27.3-41-40.9-40.9 40.9 13.6 13.7 27.3-27.3 13.7 13.6-27.3 27.3 40.9 41 54.6-54.6 41 40.9-13.7 13.7-27.3-27.3-40.9 40.9 40.9 41 13.7-13.7-27.3-27.3 13.6-13.6 27.3 27.3 41-41-54.6-54.6 40.9-40.9 13.7 13.6-27.3 27.3 40.9 41 41-41-13.7-13.6-27.3 27.3-13.6-13.7 27.3-27.3-41-40.9-54.6 54.6-40.9-41 13.6-13.6 27.3 27.3 41-41z"/>
	</g>
	<g id="Folder3">
		<path id="R E S T U P L I K" fill-rule="evenodd" class="s0" d="m96.2 113h-17.9v-64.4h30.5q14 0 20.9 6.9 5.8 5.7 5.8 15v0.2q0 14.2-13.3 19.9l15.4 22.4h-20.5l-13-19.5h-7.9zm0-49v15.5h11.8q4.5 0 7-2 2.6-2.1 2.6-5.6v-0.2q0-3.8-2.6-5.7-2.5-2-7.1-2zm128.2 49h-52.3v-64.4h51.8v15.1h-34.1v9.8h30.9v14.1h-30.9v10.2h34.6zm62.1 1.1q-17.9 0-30.2-10.7l10-11.8q9.8 7.7 20.8 7.7 7.5 0 7.5-4.4v-0.2q0-2.1-2.2-3.3-2.2-1.3-8.8-2.9-5.8-1.4-9.6-2.7-3.8-1.3-7.5-3.5-3.6-2.3-5.4-5.7-1.7-3.5-1.7-8.3v-0.2q0-9.2 6.7-14.9 6.8-5.7 18.2-5.7 15.8 0 26.5 8.6l-8.9 12.6q-8.7-6.4-18.1-6.4-6.4 0-6.4 4.2v0.1q0 2.3 2.3 3.6 2.3 1.3 8.9 2.7 12.1 2.7 18 7.2 5.9 4.4 5.9 12.9v0.1q0 9.8-7 15.4-7.1 5.6-19 5.6zm95.9-1.1h-17.9v-48.7h-19.2v-15.7h56.4v15.7h-19.3zm83.7 1.2q-14.1 0-21.9-7.3-7.8-7.4-7.8-22.2v-36.1h18v35.7q0 6.9 3.1 10.3 3.2 3.5 8.8 3.5 5.7 0 8.8-3.4 3.1-3.3 3.1-9.9v-36.2h18.1v35.7q0 15-8 22.5-8 7.4-22.2 7.4zm86.2-1.2h-17.9v-64.4h27.7q12.3 0 19.4 5.9 7.3 6 7.3 16.6v0.2q0 11.1-7.6 17.2-7.7 6.1-20 6.1h-8.9zm0-49.4v17h8.5q4.7 0 7.5-2.3 2.8-2.3 2.8-6.2v-0.2q0-4-2.8-6.1-2.7-2.2-7.5-2.2zm120.7 49.4h-49.1v-64.4h17.9v48.7h31.2zm53.6 0h-17.9v-64.4h17.9zm57.2 0h-17.8v-64.4h17.8v26.1l22.2-26.1h21.1l-24.3 27.6 25.2 36.8h-21.4l-16.3-23.9-6.5 7.2z"/>
		<path id="M E Ž D Y M O R Ž Ë" fill-rule="evenodd" class="s2" d="m56 559h-15.4v-56.7h16.6l13.6 22 13.5-22h16.6v56.7h-15.6v-32.6l-14.5 22.2h-0.4l-14.4-22.1zm125.3 0h-46.1v-56.7h45.6v13.3h-30v8.7h27.2v12.4h-27.2v9h30.5zm62.7-72.7h10.4l-10 12.1h-13.7l-9.9-12.1h10.4l6.4 4.3zm18 72.6h-50v-11.4l28.4-32h-27.5v-13.3h49.1v11.4l-28.4 32.1h28.4zm54.1 0h-21.6v-56.7h21.9q14.9 0 23.5 7.7 8.5 7.7 8.5 20.3v0.2q0 12.6-8.7 20.5-8.7 8-23.6 8zm0.5-42.9h-6.4v28.9h6.4q7.2 0 11.4-3.7 4.3-3.8 4.3-10.6v-0.2q0-6.8-4.3-10.6-4.2-3.8-11.4-3.8zm96.4 42.9h-15.7v-21.3l-21.6-35.4h17.9l11.6 20.6 11.8-20.6h17.5l-21.5 35.2zm66.1 0h-15.4v-56.7h16.6l13.5 21.9 13.6-21.9h16.6v56.7h-15.7v-32.6l-14.5 22.2h-0.3l-14.4-22.1zm129.6-7.4q-8.8 8.6-21.8 8.6-13 0-21.8-8.6-8.7-8.5-8.7-20.8v-0.1q0-12.3 8.8-20.9 8.8-8.6 21.9-8.6 13 0 21.7 8.6 8.7 8.5 8.7 20.7v0.2q0 12.3-8.8 20.9zm-32.1-10.2q4.1 4.6 10.5 4.6 6.3 0 10.3-4.4 4-4.5 4-10.8v-0.1q0-6.4-4.1-10.8-4.1-4.5-10.4-4.5-6.3 0-10.4 4.4-4 4.4-4 10.7v0.2q0 6.2 4.1 10.7zm89 17.6h-15.7v-56.7h26.8q12.4 0 18.5 6.1 5 5 5 13.2v0.2q0 12.5-11.6 17.5l13.5 19.7h-18.1l-11.4-17.2h-7zm0-43.1v13.7h10.5q4 0 6.1-1.8 2.3-1.9 2.3-5v-0.1q0-3.3-2.3-5-2.2-1.8-6.2-1.8zm97.2-29.5h10.4l-10 12.1h-13.7l-9.9-12.1h10.4l6.4 4.3zm18 72.6h-50.1v-11.4l28.5-32.1h-27.5v-13.2h49.1v11.4l-28.4 32.1h28.4zm71-60.6h-13.3v-11.2h13.3zm-17.9 0h-13.3v-11.2h13.3zm25.4 60.6h-46v-56.7h45.6v13.3h-30.1v8.6h27.2v12.4h-27.2v9h30.5z"/>
	</g>
</svg>