<svg version="3.10" xmlns="http://www.w3.org/2000/svg" width="900" height="600">
	<title>MEŽDYMORŽË 2</title>
	<style>
		.s0 { fill: #de1616 } 
		.s1 { fill: #0000a2 } 
		.s2 { fill: #ffffff } 
		.s3 { fill: #de1616;stroke: #ffffff;stroke-miterlimit:100;stroke-width: 10 } 
		.s4 { fill: #0000a2;stroke: #ffffff;stroke-miterlimit:100;stroke-width: 10 } 
	</style>
	<path id="Layer" class="s0" d="m0 0h900v600h-900z"/>
	<path id="Layer" class="s1" d="m0 0h900v400h-900z"/>
	<path id="Layer" class="s2" d="m0 0h900v200h-900z"/>
	<g id="Icon">
		<path id="path1" class="s3" d="m290 300c0-88.5 71.5-160 160-160 88.5 0 160 71.5 160 160"/>
		<path id="path2" class="s4" d="m610 300c0 88.5-71.5 160-160 160-88.5 0-160-71.5-160-160"/>
		<path id="Rodovik" class="s2" d="m449.8 177l-13.6 13.6 27.3 27.3-13.7 13.7-27.3-27.3-40.9 40.9 54.6 54.6-41 41-13.6-13.7 27.3-27.3-41-40.9-40.9 40.9 13.6 13.7 27.3-27.3 13.7 13.6-27.3 27.3 40.9 41 54.6-54.6 41 40.9-13.7 13.7-27.3-27.3-40.9 40.9 40.9 41 13.7-13.7-27.3-27.3 13.6-13.6 27.3 27.3 41-41-54.6-54.6 40.9-40.9 13.7 13.6-27.3 27.3 40.9 41 41-41-13.7-13.6-27.3 27.3-13.6-13.7 27.3-27.3-41-40.9-54.6 54.6-40.9-41 13.6-13.6 27.3 27.3 41-41z"/>
	</g>
	<g id="Folder 2">
		<path id="R E S T U P L I K" fill-rule="evenodd" class="s0" d="m90.7 113v-3.9h7.6v-29.1q0-6.8 0.8-12.7 0.9-6 3.4-10.4 2.6-4.4 7.5-7 4.9-2.6 13-2.6 5 0 8.6 1.4 3.7 1.4 6 3.5 2.4 2.1 3.5 4.8 1.1 2.6 1.1 5.1 0 2.2-0.8 4.5-0.7 2.3-2.3 4.3-1.7 1.9-4.5 3.1-2.7 1.2-6.8 1.2-2.1 0-4.2-0.7-2.1-0.9-4.1-2.3l-4.1 5.1q3.1 0.5 6.5 1.3 3.4 0.7 6.8 2.1 3.3 1.4 6.2 3.6 3 2.2 5.3 5.6 2.3 3.3 3.7 8.1 1.4 4.7 1.5 11.1h5.5v3.9h-25v-3.9h3.6q0.1-1 0.1-1.9v-1.7q0-6.9-1.3-11.5-1.3-4.7-3.6-7.7-2.3-2.9-5.4-4.3-3.2-1.4-6.7-1.8v28.9h5.7v3.9zm21.9-37.2l5.3-7.2q1.9 1.1 2.8 1.3 1.1 0.2 1.4 0.2 0.9 0 1.8-0.3 1-0.5 1.9-1.6 0.9-1.1 1.5-2.9 0.6-1.9 0.6-4.6 0-2.9-0.7-4.7-0.7-1.9-1.8-2.9-1-1.1-2.3-1.5-1.3-0.4-2.4-0.4-2.7 0-4.3 1.4-1.5 1.4-2.5 4.5-0.8 3-1.1 7.7-0.2 4.6-0.2 11zm87.5 3.3v30h6.2q4.9 0 8.3-1.3 3.4-1.3 5.7-3.5 2.4-2.2 3.9-5.1 1.7-2.9 3.1-6 0.3-0.7 0.8-1.3 0.5-0.6 1.6-0.6 0.8 0 1.4 0.5 0.7 0.5 0.9 1.5 0 3.7-0.9 8-0.8 4.2-0.8 9.4 0 2.2-1 2.9-1 0.6-2.1 0.6-0.8 0-1.8-0.2-0.9-0.2-2.3-0.4-1.3-0.1-2.9-0.2-1.6-0.2-3.3-0.3-1.7-0.1-3.1-0.1h-35.6v-3.9h7.7v-56.6h-7.7v-3.9h35.6q1.4 0 3.1-0.1 1.7-0.1 3.3-0.2 1.6-0.2 2.9-0.3 1.4-0.2 2.3-0.4 1-0.2 1.8-0.2 1.1 0 2.1 0.6 1 0.7 1 2.9 0 1-0.5 2.1-0.6 1.1-1.3 3.1-0.8 2.1-1 3.4-0.2 1.2-0.5 3l-0.5 3.9q-0.2 1.1-0.9 1.6-0.6 0.5-1.4 0.5-1.2 0-1.7-0.6-0.5-0.6-0.7-1.4-1-2.7-1.7-5.2-0.6-2.6-2.1-4.5-1.5-1.9-4.2-3.1-2.6-1.2-7.5-1.2h-6.2v23.4q1.5-0.7 2.7-1.3 1.3-0.5 2.5-0.9 1.3-0.4 2.6-0.6 1.3-0.2 3.2-0.2 4.4 0 7.6 3 3.3 3.1 4.6 7.7h3.5v3.8h-21.6v-3.8h3.4q-0.2-3-1.4-4.3-1.2-1.3-2.3-1.3-0.6 0-1.9 0.2-1.2 0.2-2.9 0.9zm109.5-12l-12.4-0.1q-0.9 0-1.1-0.6-0.1-0.6-0.1-1.2 0-4.2-0.6-6.9-0.6-2.8-1.6-4.5-1-1.6-2.4-2.3-1.4-0.7-2.9-0.7-2.8 0-4.5 1.5-1.5 1.5-2.3 3.9-0.8 2.4-1.1 5.6-0.1 3.2-0.1 6.6 0 4.1 1 6.5 1.1 2.3 2.8 3.6 1.9 1.3 4.3 1.8 2.3 0.5 5.1 0.9 5.5 0.8 9 2.6 3.6 1.8 5.6 4.1 2.1 2.3 3 4.9 0.8 2.4 0.8 4.7 0 2.7-0.6 5.9-0.7 3.2-2.5 5.9-1.9 2.8-5.2 4.7-3.3 1.9-8.6 1.9-3.3 0-5.7-0.5-2.3-0.5-5.4-1.5-3.3-1.2-5.2-1.8-1.8-0.7-3.5-0.7-1.8 0-2.9 1.4-1.2 1.4-1.2 5 0 0.4 0 0.8 0.1 0.4 0.2 0.8 0.1 0.5 0.1 1v0.8q0 0.5-1.1 0.5-0.6 0-1.6-0.1-1 0-2 0-2.8 0-4.2 0.8-1.4 0.8-2.2 0.8-0.7 0-1.4-1.5-0.6-1.5-0.6-4.2 0-5.4 3.1-8.5 3.1-3.2 8.2-3.2 2.5 0 5.8 0.9 3.3 0.8 8.3 2.5 1.2 0.5 2.4 0.9 1.1 0.3 2.4 0.3 2.4 0 3.8-1.4 1.5-1.4 2.2-3.5 0.8-2.3 0.9-4.8 0.3-2.6 0.3-5 0-3.8-1.2-6.1-1.1-2.3-2.8-3.6-1.8-1.3-4-1.9-2.1-0.5-4.1-0.7-2.9-0.3-6.3-0.9-3.4-0.5-6.3-2.1-3-1.5-5-4.6-1.9-3.1-1.9-8.4 0-5.1 1.9-8.9 2-3.7 5.3-6.2 3.3-2.5 7.6-3.7 4.3-1.3 8.9-1.3 6.1 0 10.4 1.9 4.3 2 7.1 4.7 2.7 2.8 4 5.9 1.3 3.1 1.3 5.4 0 0.6-0.2 1.2-0.1 0.7-1 0.7zm48.7 45.9v-3.9h7.6v-56.6h-3.9q-2.4 0-4.1 0.2-1.6 0.2-2.9 1.2-1.2 1-2.2 2.9-1 1.8-1.9 5-0.6 2.1-1 3.7-0.3 1.6-0.6 2.7-0.4 1.1-0.9 1.7-0.6 0.6-1.6 0.6-1.7 0-2.3-1.6-0.5-1.1-0.5-2.9 0-1.9-0.4-4-0.4-1.7-1-3.4-0.7-1.7-1.3-3.1-0.7-1.5-1.1-2.7-0.5-1.2-0.5-2 0-2.1 1.1-2.8 1.1-0.6 2.4-0.6 0.9 0 1.7 0.2 1 0.1 1.4 0.3 1.2 0.2 2.3 0.4 1.1 0.1 2.5 0.2 1.4 0.1 3.4 0.1c0 0 0.6 0 0.7 0 0 0 0.5 0 0.5 0 0 0 0.5 0 0.6 0 0 0 0.3 0 0.3 0 0 0 2 0 2.1 0 0 0 28.6 0 28.7 0 0 0 0.2 0 0.2 0 0.1 0 0.2 0 0.2 0 0 0 0.5 0 0.6 0q0 0 0.1 0c0 0 0.6 0 0.6 0 0 0 0.2 0 0.3 0 0 0 1.9 0 1.9 0h0.5q2 0 3.4-0.1 1.5-0.1 2.5-0.2 1.1-0.2 2.1-0.4 0.4-0.2 1.3-0.3 0.9-0.2 1.8-0.2 1.3 0 2.4 0.6 1.1 0.7 1.1 2.8 0 0.9-0.4 1.7-0.2 0.6-0.8 1.7-0.5 1.1-1.3 3-0.6 1.7-1.4 4.8-0.4 2.1-0.5 3.3-0.1 1-0.1 2.3 0 1.2-0.6 2.1-0.7 0.8-2 0.8-0.9 0-1.5-0.5-0.4-0.4-0.8-1.4-0.3-1-0.8-2.7-0.4-1.7-1-4.1-0.8-3-1.8-4.8-0.9-1.9-2.2-2.9-1.2-1-2.9-1.3-1.7-0.3-4.2-0.3h-3.9v56.6h7.6v3.9zm133.6-60.5v42.7q0 4.5-2.4 8.7-2.4 4.1-6.4 6.3-4.1 2.2-7.9 3.3-3.8 1-8.9 1-5 0-8.9-1-3.8-1.1-7.8-3.3-4.1-2.2-6.5-6.3-2.3-4.2-2.3-8.7v-42.7h-7.3v-3.9h27.9v3.9h-6.4v40.8q0 4.5 0.7 7.6 0.8 3 2.3 4.8 1.7 1.8 3.1 2.6 1.5 0.7 5.2 0.7 3.8 0 5.2-0.7 1.5-0.8 3-2.6 1.7-1.8 2.4-4.8 0.7-3.1 0.7-7.6v-40.8h-7.2v-3.9h27.9v3.9zm34.4 60.5v-3.9h7.6c0-1.9 0-37.5 0-39.6q0.1-3.1 0.3-8 1.2-3.1 3.3-5.6 2.2-2.6 5-4.5 2.9-2 6.4-3 3.5-1.1 7.4-1.1 5.2 0 9.4 1.3 4.4 1.3 7.4 3.7 3.1 2.4 4.8 5.8 1.7 3.4 1.7 7.6 0 3.4-1 6.6-1 3.3-3 5.7-2.1 2.5-5 4.1-2.8 1.5-6.5 1.5-1.6 0-2.8-0.2-1.1-0.3-2.1-0.8-1-0.4-2.1-1.1-1.1-0.6-2.6-1.3l-6.3 8.2v20.7h7.6v3.9zm21.9-30.1l5.9-7.4q0.7 0.5 1.7 1.1 1 0.4 1.7 0.4 0.8 0 1.8-0.4 1.1-0.5 2-1.7 1-1.3 1.5-3.5 0.7-2.3 0.7-5.9 0-2.5-0.3-4.9-0.2-2.6-1-4.6-0.9-2.2-2.4-3.4-1.5-1.4-4.1-1.4-2.6 0-4.2 1.4-1.5 1.4-2.2 4-0.7 2.5-0.9 6.1-0.2 3.6-0.2 7.8zm60.2 30.1v-3.9h7.6v-56.7h-7.6v-3.8h30.4v3.8h-8.5v56.7h5.2q4.9 0 8.3-1.3 3.4-1.4 5.7-3.6 2.4-2.2 3.9-5 1.7-3 3.1-6 0.3-0.7 0.8-1.3 0.5-0.6 1.6-0.6 0.8 0 1.4 0.5 0.7 0.5 0.9 1.5 0 3.7-0.9 8-0.8 4.2-0.8 9.4 0 2.2-1 2.8-1 0.7-2.1 0.7-0.8 0-1.8-0.2-0.9-0.2-2.3-0.4-1.3-0.2-2.9-0.3-1.6-0.1-3.3-0.2-1.7-0.1-3.2-0.1zm80.6 0v-3.9h7.7v-56.7h-7.7v-3.8h29.6v3.8h-7.7v56.7h7.7v3.9zm58.9 0v-3.9h7.6v-56.7h-7.6v-3.8h28.2v3.8h-6.4v24.6h3.5l1.2-2.6q0.9-1.6 1.9-4.2 1.1-2.7 2.5-5.7 1.3-3 3.1-6.1 1.7-3 3.9-5.5 2.1-2.5 4.6-4 2.6-1.6 5.8-1.6 2.3 0 4.4 0.5 2.1 0.4 3.6 1.1-0.7 2.1-1.2 3.5-0.6 1.3-0.9 2.7-0.2 1.3-0.3 2.5-0.1 1.2-0.1 2.3v1.7h-1.9q-1.3-0.5-2.3-0.9-0.9-0.4-1.7-0.7-0.8-0.4-1.8-0.6-0.9-0.1-2.1-0.1-2.2 0-3.9 1.1-1.7 1.2-3.4 3.6-1.7 2.4-3.5 5.9-1.9 3.5-4.2 8.1 0.5 0.1 0.8 0.2 0.3 0.1 0.8 0.2 1.7 0.4 4.1 1.2 2.5 0.6 5.1 1.9 2.7 1.3 5.2 3.4 2.7 2.1 4.8 5.4 2.1 3.4 3.4 8 1.4 4.6 1.5 10.8h5.5v3.9h-25v-3.9h3.6q0.2-2.4 0.2-4.5 0-5.8-1.4-10.6-1.3-4.8-3.9-8-2.6-3.2-5.8-4.4-3.2-1.3-6.1-1.4v28.9h5.8v3.9z"/>
		<path id="M E Ž D Y M O R Ž Ë" fill-rule="evenodd" class="s2" d="m85.1 559v-3.4h4.2l-8.1-42.8h-0.8q-4.1 8-6.7 14.2-2.5 6.2-2.5 13.4 0 3.4 0.4 6.5 0.5 3.1 0.7 6.9 0.1 0.6 0.1 1.2 0 0 0 0 0 0 0 0.1c0 0 0 0.1 0 0.2q0 0 0 0.1 0 0 0 0v0.8q0 1.7-0.2 2.4-0.2 0.6-1 1-0.7 0.3-1.8 0.3-0.7 0-1.4-0.1-0.8-0.1-1.5-0.2-0.6-0.1-1-0.1-0.5-0.1-1.1-0.1-0.6 0-1.3 0.1-0.6 0-1.3 0.1-0.4 0-0.9 0.1-0.5 0-0.9 0-0.6 0-1.1-0.1-0.5-0.3-0.9-0.8-0.3-0.7-0.6-1.8-0.1-1.2-0.1-3.1 0-3.7 0.6-6.8 0.7-3.2 1.8-6 1.1-2.8 2.7-5.5 1.6-2.7 3.5-5.4 2.2-3 4.4-5.9 2.3-2.9 4.1-5.6 1.8-2.9 3-5.5 1.1-2.8 1.1-5.6 0-0.4-0.1-0.9 0-0.5-0.1-1h-6v-3.4h23.2v3.4h-4.5l10.3 47.5 8.9-47.5h-3.5v-3.4h21.8v3.4h-5.3l10.9 49.9h5.5v3.4h-21.7v-3.4h3.6l-8.3-42.8h-0.8l-8 42.8h4.3v3.4zm97.8-29.9v26.5h5.4q4.3 0 7.3-1.1 3-1.3 5-3.2 2.1-1.9 3.5-4.4 1.5-2.6 2.7-5.3 0.3-0.7 0.7-1.1 0.4-0.6 1.4-0.6 0.7 0 1.3 0.5 0.5 0.4 0.7 1.3 0 3.2-0.7 7-0.8 3.7-0.8 8.3 0 1.9-0.8 2.5-0.9 0.6-1.9 0.6-0.7 0-1.6-0.2-0.8-0.2-2-0.3-1.2-0.2-2.6-0.3-1.3-0.1-2.9-0.2-1.4-0.1-2.7-0.1h-31.3v-3.4h6.7v-49.9h-6.7v-3.4h31.3q1.3 0 2.7-0.1 1.6-0.1 2.9-0.1 1.4-0.2 2.6-0.4 1.2-0.1 2-0.3 0.9-0.2 1.6-0.2 1 0 1.9 0.6 0.8 0.6 0.8 2.5 0 0.9-0.4 1.9-0.5 1-1.2 2.7-0.6 1.8-0.9 3-0.1 1-0.4 2.6l-0.5 3.5q-0.1 0.9-0.7 1.4-0.6 0.4-1.3 0.4-1 0-1.4-0.5-0.4-0.6-0.7-1.2-0.8-2.4-1.4-4.6-0.6-2.3-1.9-4-1.3-1.7-3.7-2.7-2.3-1.1-6.6-1.1h-5.4v20.7q1.3-0.7 2.3-1.2 1.2-0.5 2.2-0.8 1.1-0.4 2.3-0.6 1.2-0.1 2.8-0.1 3.9 0 6.7 2.7 3 2.6 4.1 6.7h3.1v3.4h-19.1v-3.4h3q-0.1-2.6-1.2-3.7-1-1.2-2-1.2-0.6 0-1.7 0.2-1.1 0.1-2.5 0.7zm53.1-22.6q-0.4-0.8-0.4-2.4 0-2.3 3.2-2.3 1.3 0 2.1 0.1 0.9 0.1 1.5 0.2 0.7 0 1.3 0.1 0.6 0.1 1.3 0.1h34l-0.1 2.3-30.2 51h3.2q4.7 0 7.9 0.1 3.3 0.1 5.4 0.2 2.1 0.1 3.2 0.3 1.2 0 1.9 0.1 3.2 0.5 5.5 1.7 2.2 1.2 3.6 2.8 1.4 1.5 2 3.4 0.6 1.8 0.6 3.7 0 2.3-1 4.5-0.8 2.1-2.7 3.7-1.9 1.6-4.7 2.7-2.8 0.9-6.6 0.9-3.3 0-6.3-0.7l0.8-2.1h1.6q1.3 0 2.4-0.6 1.1-0.7 1.9-1.7 0.7-1.1 1.1-2.5 0.4-1.4 0.4-2.7 0-3.8-1.5-5.9-1.6-2.2-4.4-3.1-2.8-1-6.6-1.2-3.8-0.2-8.2-0.2h-12.3v-2.8l29.1-50.5q-2.7 0-5.2 0.1-2.5 0-4.7 0.2-2.1 0.2-3.8 0.6-1.6 0.3-2.7 1-1.1 0.8-1.8 2.1-0.7 1.2-1.2 2.6-0.4 1.5-0.8 3-0.4 1.5-0.8 2.7-0.4 1.2-1 2-0.6 0.8-1.6 0.8-0.7 0-1.2-0.4-0.4-0.4-0.6-0.9-0.3-0.6-0.4-1.2 0-0.5 0-0.9-0.4-3.8-1.1-5.8-0.6-2-1.1-3.1-0.1-0.1-0.1-0.3l-0.2-0.1q0-0.1 0-0.2v-0.1q0-0.1-0.1-0.2 0 0-0.1-0.1v-0.1q0 0-0.1-0.1l-0.1-0.2q0-0.2-0.1-0.3h-0.1v-0.2zm22.2-9.4h-4.5l-9-11.1 2.8-0.7 8.6 6.5 9.6-6 3.3 1.2zm46.5 61.9v-3.4h6.7v-49.9h-6.7v-3.4h19.6q8.1 0 14.6 2.5 6.6 2.5 11.2 6.8 4.6 4.2 7 9.9 2.6 5.6 2.6 11.9 0 2.6-0.5 5.5-0.4 3-1.6 5.8-1.1 2.8-3.1 5.4-2.1 2.6-5.4 4.6-3.2 1.9-7.8 3.1-4.7 1.2-11 1.2zm42.1-22.2q0-6.8-2-12.5-2-5.8-5.2-9.9-3.3-4.1-7.4-6.4-4.1-2.3-8.2-2.3v49.9q5.8 0 10.1-0.9 4.3-0.8 7.2-3 2.8-2.1 4.2-5.8 1.3-3.6 1.3-9.1zm59.1 22.2v-3.4h4.5v-26q-9.7-2.3-15-8.2-5.3-5.9-6.4-15.7h-4.8v-3.4h23v3.4h-3.8v1.3q0 5.2 1.1 9 1.2 3.8 3.2 6.3 2 2.3 4.4 3.4 2.5 0.9 4.6 0.9 2.5 0 4.9-1.2 2.4-1.2 4.3-3.5 1.9-2.4 3.1-5.7 1.2-3.4 1.2-7.8 0-0.8-0.1-1.5 0-0.8-0.1-1.2h-3.7v-3.4h23v3.4h-4.9q-0.7 5.5-2.6 9.7-1.9 4.1-4.8 6.9-2.8 2.9-6.5 4.7-3.5 1.7-7.5 2.6v26h4.4v3.4zm95.5 0v-3.4h4.2l-8-42.8h-0.9q-4.1 7.9-6.7 14.2-2.5 6.1-2.5 13.3 0 3.4 0.4 6.6 0.5 3.1 0.7 6.9 0.1 0.5 0.1 1.1 0 0 0 0.1 0 0 0 0.1c0 0 0 0.1 0 0.1q0 0 0 0.1 0 0 0 0.1v0.7q0 1.8-0.2 2.5-0.2 0.5-1 0.9-0.7 0.3-1.8 0.3-0.7 0-1.4 0-0.8-0.1-1.5-0.3-0.6-0.1-1-0.1-0.5 0-1.1 0-0.6 0-1.3 0-0.6 0-1.3 0.1-0.4 0.1-0.9 0.2-0.5 0-0.9 0-0.6 0-1.1-0.2-0.5-0.2-0.9-0.8-0.3-0.6-0.6-1.8-0.1-1.2-0.1-3 0-3.8 0.6-6.9 0.7-3.1 1.8-5.9 1.1-2.9 2.7-5.6 1.6-2.6 3.5-5.3 2.2-3.1 4.4-5.9 2.3-2.9 4.1-5.7 1.8-2.8 3-5.5 1.1-2.7 1.1-5.5 0-0.5-0.1-1 0-0.5-0.1-0.9h-6v-3.4h23.2v3.4h-4.5l10.3 47.5 9-47.5h-3.6v-3.4h21.8v3.4h-5.3l10.9 49.9h5.6v3.4h-21.8v-3.4h3.6l-8.3-42.8h-0.8l-8 42.8h4.3v3.4zm101.3 2.1q-0.4 0-0.9-0.1-0.5-0.3-1.3-0.7-0.8-0.6-2-1.5-1.1-1-2.8-2.4-3.6-3.1-6.5-5.8-2.9-2.7-4.9-5.4-2-2.8-3.2-6.1-1-3.3-1-7.6 0-4.7 1.5-8.7 1.5-4 3.9-7.3 2.3-3.4 5.1-6 2.8-2.6 5.3-4.6 2.5-1.8 3.9-3.3 1.5-1.5 3.3-1.5 1.1 0 2.2 1.4 1.2 1.4 3 3.2 2.4 2.3 5.2 4.7 2.9 2.3 5.4 5.2 2.6 3 4.3 6.8 1.8 3.7 1.8 8.8 0 4.1-1 7.2-1.1 3.2-3.1 6.1-2 2.9-4.9 5.9-2.9 2.9-6.6 6.6-1.6 1.4-2.6 2.5-1 0.9-1.8 1.6-0.7 0.6-1.3 0.8-0.5 0.2-1 0.2zm4-10.4q2-0.8 3.9-2.1 1.9-1.4 3.2-3 1.5-1.7 2.3-3.6 0.9-1.9 0.9-3.9 0-1.9-0.9-3.8-0.8-1.9-2.3-3.9-1.5-2-3.5-4.2-2-2.2-4.2-4.7-2.4-2.5-3.8-4.1-1.4-1.6-2.4-2.8-0.9-1.1-1.4-1.9-0.5-0.9-0.8-1.9-2.4 0.3-4.3 1.6-1.8 1.3-3 3.1-1.3 1.7-1.9 3.6-0.6 1.9-0.6 3.6 0 3.6 2.3 7.2 2.3 3.5 5.7 7.2 3 3.1 4.9 5 1.9 1.9 3.2 3.2 1.3 1.3 1.9 2.6 0.7 1.1 0.8 2.8zm43.2 8.3v-3.4h6.7v-25.7q0-6 0.7-11.2 0.8-5.3 3-9.2 2.3-3.8 6.6-6.1 4.3-2.3 11.5-2.3 4.4 0 7.5 1.2 3.3 1.3 5.3 3.1 2.1 1.9 3.1 4.2 0.9 2.4 0.9 4.6 0 1.9-0.6 3.9-0.6 2.1-2.1 3.8-1.5 1.7-3.9 2.7-2.4 1.1-6 1.1-1.9 0-3.7-0.7-1.9-0.7-3.7-1.9l-3.5 4.4q2.7 0.4 5.7 1.2 3 0.6 5.9 1.8 3 1.2 5.5 3.2 2.7 1.9 4.7 4.9 2.1 2.9 3.3 7.2 1.2 4.1 1.3 9.8h4.8v3.4h-22v-3.4h3.2q0-0.9 0-1.7v-1.6q0-6.1-1.1-10.1-1.1-4.1-3.1-6.7-2.1-2.6-4.8-3.8-2.8-1.3-5.9-1.6v25.5h5v3.4zm19.3-32.8l4.7-6.4q1.7 1 2.5 1.2 0.9 0.2 1.2 0.2 0.7 0 1.5-0.3 0.9-0.4 1.7-1.4 0.8-1 1.3-2.6 0.6-1.6 0.6-4 0-2.5-0.7-4.2-0.5-1.6-1.5-2.5-0.9-0.9-2-1.3-1.2-0.4-2.2-0.4-2.4 0-3.7 1.3-1.4 1.2-2.2 3.9-0.7 2.7-1 6.8-0.2 4.1-0.2 9.7zm57.3-19.7q-0.4-0.8-0.4-2.5 0-2.2 3.2-2.2 1.3 0 2.1 0.1 0.9 0 1.5 0.1 0.7 0.1 1.3 0.2 0.6 0.1 1.3 0.1h34l-0.1 2.2-30.2 51.1h3.2q4.7 0 7.9 0 3.3 0.1 5.4 0.3 2.1 0.1 3.2 0.2 1.2 0.1 1.9 0.2 3.2 0.5 5.5 1.7 2.3 1.1 3.6 2.7 1.4 1.6 2 3.4 0.6 1.8 0.6 3.8 0 2.2-1 4.4-0.8 2.1-2.7 3.7-1.9 1.7-4.7 2.7-2.8 1-6.6 1-3.3 0-6.3-0.7l0.8-2.1h1.6q1.3 0 2.4-0.7 1.1-0.6 1.9-1.7 0.7-1 1.1-2.4 0.4-1.4 0.4-2.8 0-3.8-1.5-5.9-1.6-2.1-4.4-3.1-2.8-0.9-6.6-1.1-3.8-0.2-8.2-0.2h-12.3v-2.8l29.1-50.5q-2.7 0-5.2 0-2.5 0-4.7 0.3-2.1 0.1-3.8 0.5-1.6 0.4-2.7 1.1-1.1 0.7-1.8 2-0.7 1.2-1.1 2.7-0.5 1.5-0.9 3-0.4 1.5-0.8 2.7-0.4 1.2-1 2-0.6 0.7-1.6 0.7-0.7 0-1.2-0.3-0.4-0.4-0.6-1-0.3-0.5-0.3-1.1-0.1-0.6-0.1-1-0.4-3.8-1.1-5.7-0.5-2.1-1.1-3.2-0.1-0.1-0.1-0.2l-0.2-0.2q0-0.1 0-0.2 0-0.1-0.1-0.2 0-0.1-0.1-0.2 0 0-0.1-0.1l-0.1-0.3q0-0.1-0.1-0.2l-0.1-0.1v-0.2zm22.2-9.3h-4.5l-9-11.1 2.8-0.8 8.6 6.6 9.6-6 3.3 1.1zm65.7 32v26.5h5.5q4.3 0 7.2-1.1 3-1.2 5.1-3.2 2.1-1.9 3.5-4.4 1.4-2.6 2.6-5.3 0.4-0.7 0.8-1.1 0.4-0.6 1.3-0.6 0.8 0 1.3 0.5 0.6 0.4 0.8 1.3 0 3.2-0.8 7-0.7 3.8-0.7 8.3 0 1.9-0.9 2.5-0.9 0.6-1.9 0.6-0.7 0-1.5-0.2-0.8-0.2-2-0.3-1.2-0.2-2.6-0.3-1.4-0.1-2.9-0.2-1.5-0.1-2.8-0.1h-31.2v-3.4h6.7v-49.9h-6.7v-3.4h31.2q1.3 0 2.8-0.1 1.5-0.1 2.9-0.1 1.4-0.2 2.6-0.4 1.2-0.1 2-0.3 0.8-0.1 1.5-0.1 1 0 1.9 0.5 0.9 0.6 0.9 2.5 0 0.9-0.5 1.9-0.5 1-1.1 2.8-0.7 1.7-0.9 2.9-0.2 1-0.4 2.6l-0.5 3.5q-0.2 0.9-0.7 1.4-0.6 0.4-1.3 0.4-1.1 0-1.5-0.5-0.4-0.5-0.6-1.2-0.8-2.4-1.5-4.6-0.6-2.3-1.9-4-1.2-1.7-3.6-2.7-2.3-1.1-6.6-1.1h-5.5v20.7q1.3-0.7 2.4-1.2 1.1-0.5 2.2-0.8 1.1-0.4 2.2-0.5 1.3-0.2 2.9-0.2 3.9 0 6.7 2.7 2.9 2.6 4 6.7h3.1v3.4h-19v-3.4h3q-0.2-2.6-1.2-3.7-1.1-1.2-2.1-1.2-0.5 0-1.7 0.2-1 0.2-2.5 0.7zm-8.1-37.6q0-2.1 1.5-3.5 1.4-1.5 3.6-1.5 2 0 3.4 1.5 1.5 1.4 1.5 3.5 0 2.1-1.5 3.5-1.4 1.5-3.4 1.5-2.2 0-3.6-1.5-1.5-1.4-1.5-3.5zm19.7 0q0-2.1 1.5-3.5 1.4-1.5 3.5-1.5 2.1 0 3.5 1.5 1.5 1.4 1.5 3.5 0 2.1-1.5 3.5-1.4 1.5-3.5 1.5-2.1 0-3.5-1.5-1.5-1.4-1.5-3.5zm-589.9 15zm0.1 0.2zm0 0.1zm0.3 0.5zm490-0.8zm0 0.2zm0 0.1zm0.4 0.5z"/>
	</g>
</svg>