<svg version="1.2" xmlns="http://www.w3.org/2000/svg" viewBox="0 0 900 600" width="900" height="600">
	<title>MezhymorzeDNR</title>
	<style>
		.s0 { fill: #de1616 } 
		.s1 { fill: #0000a2 } 
		.s2 { fill: #000000 } 
		.s3 { fill: #ffffff } 
		.s4 { fill: #d8d8d8 } 
	</style>
	<path id="Layer" class="s0" d="m0 0h900v600h-900z"/>
	<path id="Layer" class="s1" d="m0 0h900v400h-900z"/>
	<path id="Layer" class="s2" d="m0 0h900v200h-900z"/>
	<path id="Svastika" class="s3" d="m625 300l-105-105-70 70-35-35 70-70-35-35-105 105 70 70-35 35-70-70-35 35 105 105 70-70 35 35-70 70 35 35 105-105-70-70 35-35 70 70z"/>
	<g id="g1">
		<path id="q1" class="s4" d="m289 286l-7 7 98 98 70-70 49 49-77 77 7 7 84-84-63-63-70 70z"/>
		<path id="q2" class="s4" d="m464 139l-7-7-98 98 70 70-49 49-77-77-7 7 84 84 63-63-70-70z"/>
		<path id="q3" class="s4" d="m618 307l-98-98-70 70-49-49 77-77-7-7-84 84 63 63 70-70 91 91z"/>
		<path id="q4" class="s4" d="m443 468l-7-7 91-91-70-70 63-63 84 84-7 7-77-77-49 49 70 70z"/>
	</g>
	<g id="Text">
		<path id="Р Е С П У Б Л И К А" fill-rule="evenodd" class="s3" d="m108.4 49.8c16 0 23 9.3 23 19.1 0 8.5-6.1 18.7-22.6 18.7h-11.2v15.4h-20.4v-53.2zm-11.3 25.5h4.5c2.4 0 9.3-0.1 9.3-6.6 0-3.1-1.6-6.6-9.4-6.6h-4.4zm104.5-25.5v12.5h-26.1v7.7h25v12.2h-25v8.2h26.6v12.6h-46.9v-53.2zm68.8 52c-6.1 1.6-11 2.1-14.9 2.1-20.6 0-31.7-11.5-31.7-27.5 0-13.7 8.5-27.5 32.3-27.5 6 0 10.5 1 12.9 1.4l1.3 0.2v14.1c-3-1.1-6.6-2.1-10.8-2.1-8.6 0-14.3 5.7-14.3 13.4 0 5 2 13.8 14.7 13.8 2 0 5-0.3 10.5-2.1zm77.1-52v53.2h-20.4v-38.7h-13.3v38.7h-20.4v-53.2zm43.7 0l7.4 23.1h0.3l7.3-23.1h20.1l-17 40.2c-2.4 5.7-6.6 14-19.7 14-3.6 0-9.2-0.7-13.7-1.9v-13.4c3.3 1 5.3 1.2 6.8 1.2 1.3 0 3.7-0.2 3.7-2 0-0.4 0-1.4-1.2-3.7l-17.2-34.4zm102.9 0v13.3h-27v7.4h12.4c14.7 0 20.1 8.3 20.1 16.3 0 7.3-4.1 16.2-21.9 16.2h-31v-53.2zm-27.5 42.4h6c3.8 0 6.3-2.5 6.3-5.6 0-2.7-2.2-5.6-6.7-5.6h-5.6zm93.1-28h-9.8v9.2c0 17.1-0.4 30.5-18.7 30.5-3.3 0-7.1-0.5-10.3-1.3v-13.7c1.1 0.3 3.2 0.6 4.5 0.6 7.7 0 6.6-12.8 6.6-22.8v-16.9h48.1v53.2h-20.4zm66.1-14.4v30.4h0.3l13.4-30.4h23.8v53.2h-20.3v-29.8h-0.4l-13.4 29.8h-23.8v-53.2zm83.2 20.9h0.3l12.6-20.9h23.2l-18 24.9 19.6 28.3h-24.3l-13.1-22.6h-0.3v22.6h-20.3v-53.2h20.3zm100-20.9l18.9 53.2h-21.4l-3.7-11.5h-15.9l-3.6 11.5h-20.4l18.6-53.2zm-14.3 12.6l-5.4 16.6h11.3l-5.6-16.6z"/>
		<path id="М Е Ж Д Ы М О Р Ж Э" fill-rule="evenodd" class="s3" d="m37.6 500.3h28.2l6.4 27.2h0.4l6.2-27.2h28.1v49.7h-17v-39.1h-0.5l-9.8 39.1h-15.8l-9.5-39.1h-0.5v39.1h-16.2zm136.3 0v11.7h-24.3v7.2h23.3v11.3h-23.3v7.8h24.8v11.7h-43.9v-49.7zm54 49.7v-22.5h-0.4l-11.2 22.5h-22.7l17.8-26.4-15.7-23.3h20.6l11.2 20.9h0.4v-20.9h18.3v20.9h0.4l11.2-20.9h20.6l-15.6 23.3 17.7 26.4h-22.7l-11.2-22.5h-0.4v22.5zm125.8-49.7v36.4h5.3v24.3h-19v-11h-22.1v11h-19.1v-24.3h3.9c6.7-6.7 6.8-14.4 6.8-20.5v-15.9zm-27.5 12.8v6c0 6.6-0.8 12.2-4.9 17.6h13.4v-23.6zm54.2-12.8h19v14.3h10.5c14 0 20.1 8.3 20.1 17.7 0 9.5-6.1 17.7-20.1 17.7h-29.5zm22.4 38.2c1.9 0 8.1-0.2 8.1-6.2 0-3-1.7-6.2-8.1-6.2h-3.9v12.4zm50.2-38.2v49.7h-19v-49.7zm23.7 0h28.1l6.5 27.2h0.4l6.1-27.2h28.1v49.7h-17v-39.1h-0.4l-9.8 39.1h-15.8l-9.6-39.1h-0.5v39.1h-16.1zm146.1 24.8c0 15.9-10.1 25.8-27.6 25.8-17.6 0-27.7-9.9-27.7-25.8 0-15.8 10.1-25.7 27.7-25.7 17.5 0 27.6 9.9 27.6 25.7zm-35.3 0c0 5.2 0.5 13.8 7.7 13.8 7.1 0 7.6-8.6 7.6-13.8 0-5.1-0.5-13.7-7.6-13.7-7.2 0-7.7 8.6-7.7 13.7zm86-24.8c14.9 0 21.5 8.7 21.5 17.8 0 8-5.7 17.6-21.2 17.6h-10.4v14.3h-19v-49.7zm-10.6 23.9h4.2c2.2 0 8.7-0.2 8.7-6.2 0-2.9-1.6-6.2-8.8-6.2h-4.1zm85.3 25.8v-22.5h-0.4l-11.2 22.5h-22.7l17.8-26.4-15.6-23.3h20.5l11.2 21h0.4v-21h18.3v21h0.5l11.1-21h20.6l-15.6 23.3 17.7 26.4h-22.7l-11.1-22.5h-0.5v22.5zm96.5-30.2c-0.8-2.6-3.4-7.9-13-7.9-1.7 0-6.4 0.3-11.1 2.3v-13.1l1-0.3c5.9-1.2 9.9-1.3 12.8-1.3 25.2 0 30.1 16 30.1 25.7 0 12.4-8.3 25.7-29.6 25.7-5.3 0-10.4-1-14.3-2v-13.2c5.9 2.3 10.7 2.3 11.6 2.3 10.1 0 12.2-6.8 12.5-8h-17.2v-10.2z"/>
	</g>
</svg>