<svg version="1.2" xmlns="http://www.w3.org/2000/svg" viewBox="0 0 900 600" width="900" height="600">
	<title>MezhymorzeDNR2</title>
	<style>
		.s0 { fill: #de1616 } 
		.s1 { fill: #0000a2 } 
		.s2 { fill: #000000 } 
		.s3 { fill: #ffffff } 
		.s4 { fill: #d8d8d8 } 
	</style>
	<path id="Layer" class="s0" d="m0 0h900v600h-900z"/>
	<path id="Layer" class="s1" d="m0 0h900v400h-900z"/>
	<path id="Layer" class="s2" d="m0 0h900v200h-900z"/>
	<path id="Svastika" class="s3" d="m625 300l-105-105-70 70-35-35 70-70-35-35-105 105 70 70-35 35-70-70-35 35 105 105 70-70 35 35-70 70 35 35 105-105-70-70 35-35 70 70z"/>
	<g id="g1">
		<path id="q1" class="s4" d="m289 286l-7 7 98 98 70-70 49 49-77 77 7 7 84-84-63-63-70 70z"/>
		<path id="q2" class="s4" d="m464 139l-7-7-98 98 70 70-49 49-77-77-7 7 84 84 63-63-70-70z"/>
		<path id="q3" class="s4" d="m618 307l-98-98-70 70-49-49 77-77-7-7-84 84 63 63 70-70 91 91z"/>
		<path id="q4" class="s4" d="m443 468l-7-7 91-91-70-70 63-63 84 84-7 7-77-77-49 49 70 70z"/>
	</g>
	<g id="Text">
		<path id="R Ž E Ć P O S P O L I T A" fill-rule="evenodd" class="s3" d="m44.7 95h-2.9v-4.3q4.3 0 5.6-0.9 1.4-1 1.4-4.1v-35.5q0-3.1-1.4-4-1.3-1-5.6-1v-4.2h2.9q2.3 0 3.9 0.1 1.6 0.1 2.7 0.4 1.1 0.3 1.8 0.9 0.8 0.6 1.5 1.5 1.3-1.6 4.6-2.6 3.4-0.9 7.6-0.9 7.8 0 12.1 3.5 4.3 3.5 4.3 10 0 4.5-2.1 7.4-2.1 2.8-6.4 4.1 4.6 0.9 6.8 2.8 2.1 1.9 2.1 5.1v11.7q0 3.4 1.1 4.6 1 1.1 4.1 1.1h0.4v4.3h-2.2q-4 0-5.8-0.6-1.9-0.7-2.9-2.4-2.3 2.8-6.2 3v-19.7q0-1.9-0.2-3.1-0.2-1.2-0.8-1.9-0.7-0.7-2.2-0.9-1.3-0.3-3.8-0.3h-4.6v16.6q0 3.1 1.3 4.1 1.3 0.9 5.7 0.9v4.3h-2.9q-2.4 0-4-0.1-1.6-0.1-2.8-0.4-1-0.4-1.8-1-0.7-0.6-1.4-1.5-0.7 0.9-1.5 1.5-0.7 0.6-1.8 1-1.1 0.3-2.7 0.4-1.6 0.1-3.9 0.1zm15.8-44.4v13h3.4q4.5 0 6.3-1.6 1.7-1.7 1.7-5.7v-4.4q0-3.5-1.4-5.1-1.5-1.6-4.8-1.6-3.1 0-4.1 1.2-1.1 1.2-1.1 4.2zm75.2 38.9q-2-1.9-2.8-3.7-0.7-1.7-0.7-3.2 0-2.2 1.9-4.2 1.8-2 4.6-2 3.3 0 5 1.9 1.8 1.8 1.8 4.3 0 1.2-0.7 3.1-0.8 1.9-0.8 2.8 0 2.9 3.1 5.4l-2.8 1.6q-1.3-0.7-2.3-1.3-0.9-0.6-1.9-1.4-4.7 2.8-9.5 2.8-1.1 0-3.1-0.2-2-0.3-4.2-0.6-2.2-0.4-4.3-0.6-2-0.3-3.2-0.3-1.6 0-3.5 0.3-1.7 0.3-3.7 0.8l24.7-48.8q-2.7-1-5.2-1-4.1 0-6.1 2.5 1.3 1.5 1.7 2.8 0.6 1.3 0.6 2.5 0 2.6-1.9 4.2-1.9 1.7-4.5 1.7-2.7 0-4.6-1.6-1.9-1.7-1.9-4.5 0-1.3 0.5-2.8 0.5-1.5 0.5-2.6 0-2.9-2.9-5.4l2.8-1.6q1.6 0.9 2.8 1.9 1.3 0.9 2.6 1.7 4.1-3.6 10.5-3.6 1.3 0 3.7 0.3 2.4 0.2 4.8 0.6 2.5 0.3 4.6 0.6 2 0.2 2.6 0.2 0.9 0 1.9-0.1 1-0.3 2.2-0.6l-25.1 48.4q0.2 0 1.1 0.2 0.8 0.1 1.9 0.3 1 0.1 2.2 0.3 1.1 0.1 2 0.1 1.5 0 2.9-0.3 1.4-0.4 2.7-0.9zm-4.2-52.6h-6.3l-8.2-9.1h4.5l6.8 6.6 6.9-6.6h4.5zm58.4 32.2h-2.2v15.5q0 3.4 2.8 4.8 2.9 1.4 5.6 1.4 1.7 0 3.3-0.8 1.7-0.7 3.3-2.2-2.5-2.7-2.5-4.9 0-2.6 1.9-4.6 2-2 4.6-2 2.8 0 5 1.5 2.3 1.4 2.3 5.1 0 1.3-0.7 2.8-0.7 1.5-0.7 2.9 0 2.9 2.9 5.3l-2.7 1.7q-1.5-0.9-2.9-1.8-1.3-0.9-2.6-1.9-3.3 2.2-5.8 2.9-2.4 0.8-5.8 0.8-7 0-13.9-3.6-0.7 0.9-1.4 1.5-0.7 0.6-1.9 1-1 0.3-2.6 0.5-1.6 0.1-4 0.1h-2.9v-4.3q4.4 0 5.7-1 1.3-1 1.3-4v-35.6q0-3-1.3-3.9-1.3-1-5.7-1v-4.3h2.9q2.4 0 4 0.2 1.6 0 2.6 0.4 1.2 0.3 1.9 0.9 0.7 0.6 1.4 1.5 6.4-3.6 14.4-3.6 6.8 0 11.9 3.1 1.1-0.7 2.2-1.4 1.2-0.9 2.5-1.7l2.7 1.7q-2.9 2.6-2.9 5.4 0 1.6 0.4 2.6 0.6 1 0.6 2.8 0 3.2-2.1 4.6-2 1.5-4.8 1.5-2.6 0-4.5-1.9-1.8-1.9-1.8-4.1 0-2.5 3.2-5.8-3.1-1.9-6.1-1.9-3.3 0-6.6 1.2-3.2 1.1-3.2 4v13.2h2.2q3 0 3.9-2.5 1-2.5 1.1-4.5h4.2v19.4h-4.3q0-1.9-1-4.5-0.9-2.5-3.9-2.5zm87.6 25l-2.9 1.6q-1.4-0.9-2.7-1.8-1.3-0.9-2.4-1.6-3.8 3.4-8.7 3.4-5.1 0-8.9-2.1-3.7-2.2-6.2-5.9-2.4-3.7-3.6-8.8-1.2-5-1.2-10.8 0-5.9 1.2-10.9 1.2-5 3.6-8.7 2.5-3.8 6.3-6 3.7-2.1 8.8-2.1 5 0 8.7 3.5 1.1-0.8 2.4-1.6 1.3-0.9 2.7-1.9l2.9 1.7q-1.5 1.3-2.1 2.6-0.6 1.3-0.6 2.8 0 2.1 0.4 3.3 0.4 1.2 0.4 2.2 0 2.7-1.7 4.6-1.7 1.8-4.9 1.8-3.3 0-5-2.1-1.6-2.1-1.6-4.3 0-2.3 2.5-5.1-1.7-2.6-4.9-2.6-3 0-4.6 1.9-1.5 1.8-1.5 5.2v31.3q0 3.5 1.5 5.4 1.6 1.8 4.6 1.8 3.2 0 4.9-2.6-2.5-2.9-2.5-5.2 0-2.1 1.8-4 1.8-1.9 4.4-1.9 3.6 0 5.2 1.7 1.8 1.6 1.8 4.4 0 0.9-0.4 2.1-0.4 1.1-0.4 3.3 0 1.4 0.6 2.8 0.6 1.3 2.1 2.6zm-15.3-66.2h9.4l-10.8 9h-3.8zm45.8 57.9v-35.5q0-3.1-1.4-4-1.3-1-5.6-1v-4.2h2.9q2.3 0 3.9 0.1 1.6 0.1 2.7 0.4 1.1 0.3 1.8 0.9 0.8 0.6 1.5 1.5 3.8-3.5 12.1-3.5 4.4 0 7.9 1.1 3.5 1.1 5.7 3.3 4.1 3.8 4.1 11.1 0 7.4-5.3 11.4-5.1 3.6-12.1 3.6-2.3 0-6.5-0.4v15.2q0 3.1 1.4 4.1 1.4 0.9 5.6 0.9v4.3h-2.8q-2.5 0-4.1-0.1-1.6-0.1-2.8-0.4-1-0.4-1.8-1-0.7-0.6-1.4-1.5-0.7 0.9-1.5 1.5-0.7 0.6-1.8 1-1.1 0.3-2.7 0.4-1.6 0.1-3.9 0.1h-2.9v-4.3q4.3 0 5.6-0.9 1.4-1 1.4-4.1zm11.7-35.7v14.5q1 0.2 1.8 0.3 0.9 0 1.7 0 4.4 0 6.3-1.6 1.9-1.6 1.9-5.4v-5.4q0-3.4-1.7-5.3-1.7-1.9-4.8-1.9-5.2 0-5.2 4.8zm47.9 18q0-6 1.2-11.2 1.3-5.1 3.7-8.9 2.5-3.8 6.8-5.9 4.4-2.2 9.2-2.2 4.8 0 9.1 2.2 4.4 2.1 6.8 5.9 2.5 3.8 3.7 8.9 1.2 5.2 1.2 11.2 0 6-1.2 11.2-1.2 5.2-3.7 9-2.4 3.7-6.8 5.8-4.3 2.1-9.1 2.1-4.8 0-9.2-2.1-4.3-2.1-6.8-5.8-2.4-3.8-3.7-9-1.2-5.2-1.2-11.2zm13-13.8v27.5q0 5.2 2.2 7.1 2.2 1.9 5.7 1.9 3.4 0 5.6-1.9 2.2-1.9 2.2-7.1v-27.5q0-5.1-2.2-7-2.2-2-5.6-2-3.5 0-5.7 2-2.2 1.9-2.2 7zm56.1 41.3l-2.8-1.6q3.1-2.7 3.1-5.4 0-0.3-0.3-1.1-0.2-0.8-0.5-1.7-0.2-0.9-0.4-1.7-0.3-0.9-0.3-1.2 0-3.1 2.2-4.9 2.1-1.9 5.2-1.9 2.9 0 4.6 2.1 1.8 2 1.8 4.7 0 2.4-2.1 4.4 3.7 3.5 7.5 3.5 3.4 0 5.7-1.9 2.3-2 2.3-5.2 0-2.4-1.9-4.6-1.8-2.2-6.3-5.1l-11.4-7.4q-3.2-2.2-4.8-5.2-1.6-3.1-1.6-6.7 0-3.1 1.3-5.7 1.3-2.7 3.7-4.7 2.3-2 5.5-3.2 3.3-1.2 7.2-1.2 6.4 0 11.8 4.1 1.4-1.2 2.5-1.9 1.1-0.8 2.7-1.6l2.9 1.6q-3 2.4-3 5.4 0 0.8 0.6 2.6 0.5 1.8 0.5 2.8 0 3.1-2.2 4.7-2.1 1.4-4.8 1.4-2.6 0-4.4-1.8-1.8-1.8-1.8-4.1 0-1.2 0.6-2.6 0.7-1.4 2.1-3-3-2.2-6-2.2-4 0-5.7 1.8-1.7 1.6-1.7 4.9 0 1.1 0.3 2.1 0.3 1 1.2 2.2 0.8 1 2.4 2.3 1.6 1.2 4.1 2.8l5.9 3.8q3.7 2.2 5.8 4 2.1 1.7 3.3 3.5 1.1 1.7 1.4 3.5 0.3 1.8 0.3 4.3 0 6.9-4.8 11.3-4.7 4.4-13 4.4-3.7 0-6.6-0.9-2.8-1-6.3-3.6-1.1 0.8-2.6 1.8-1.4 1-3.2 2.1zm67.2-9.8v-35.5q0-3.1-1.3-4-1.3-1-5.7-1v-4.2h2.9q2.4 0 4 0.1 1.6 0.1 2.6 0.4 1.2 0.3 1.9 0.9 0.7 0.6 1.4 1.5 3.9-3.5 12.2-3.5 4.4 0 7.9 1.1 3.5 1.1 5.7 3.3 4.1 3.8 4.1 11.1 0 7.4-5.4 11.4-5.1 3.6-12.1 3.6-2.3 0-6.5-0.4v15.2q0 3.1 1.4 4.1 1.4 0.9 5.6 0.9v4.3h-2.8q-2.4 0-4.1-0.1-1.6-0.1-2.7-0.4-1.1-0.4-1.9-1-0.7-0.6-1.4-1.5-0.7 0.9-1.4 1.5-0.7 0.6-1.9 1-1 0.3-2.6 0.4-1.6 0.1-4 0.1h-2.9v-4.3q4.3 0 5.7-0.9 1.3-1 1.3-4.1zm11.7-35.7v14.5q1 0.2 1.9 0.3 0.9 0 1.6 0 4.4 0 6.3-1.6 1.9-1.6 1.9-5.4v-5.4q0-3.4-1.7-5.3-1.7-1.9-4.8-1.9-5.2 0-5.2 4.8zm47.9 18q0-6 1.2-11.2 1.3-5.1 3.7-8.9 2.5-3.8 6.8-5.9 4.4-2.2 9.2-2.2 4.8 0 9.1 2.2 4.4 2.1 6.9 5.9 2.4 3.8 3.6 8.9 1.2 5.2 1.2 11.2 0 6-1.2 11.2-1.2 5.2-3.6 9-2.5 3.7-6.9 5.8-4.3 2.1-9.1 2.1-4.8 0-9.2-2.1-4.3-2.1-6.8-5.8-2.4-3.8-3.7-9-1.2-5.2-1.2-11.2zm13-13.8v27.5q0 5.2 2.2 7.1 2.2 1.9 5.7 1.9 3.4 0 5.6-1.9 2.2-1.9 2.2-7.1v-27.5q0-5.1-2.2-7-2.2-2-5.6-2-3.5 0-5.7 2-2.2 1.9-2.2 7zm84 33.6q-2.9-2.8-2.9-5.3 0-3.2 1.7-4.9 1.9-1.8 5.1-1.8 3.2 0 5.1 1.9 1.9 2 1.9 4.7 0 1.8-0.6 3.3-0.4 1.5-0.4 2.6 0 3.1 2.9 5.6l-2.7 1.6q-1.5-0.9-2.9-1.8-1.4-1-2.6-1.9-3.3 2.1-5.8 3-2.5 0.7-5.8 0.7-7.3 0-10.1-3.5-0.7 0.9-1.5 1.5-0.6 0.6-1.8 1-1 0.3-2.6 0.4-1.6 0.1-4 0.1h-2.9v-4.3q4.3 0 5.6-0.9 1.4-1 1.4-4.1v-35.5q0-3.1-1.4-4-1.3-1-5.6-1v-4.2h2.9q2.4 0 4 0.1 1.6 0.1 2.6 0.4 1.2 0.3 1.8 0.9 0.8 0.6 1.5 1.5 0.7-0.9 1.4-1.5 0.8-0.6 1.9-0.9 1.1-0.3 2.7-0.4 1.7-0.1 4.1-0.1h2.8v4.2q-4.4 0-5.7 1-1.3 0.9-1.3 4v34.3q0 1.8 0.2 2.9 0.2 1.1 0.5 1.6 1.2 1.7 3.9 1.7 1.7 0 3.3-0.7 1.7-0.8 3.3-2.2zm36.2 7.2h-2.9v-4.3q4.4 0 5.7-0.9 1.3-1 1.3-4.1v-35.5q0-3.1-1.3-4-1.3-1-5.7-1v-4.2h2.9q2.4 0 4 0.1 1.6 0.1 2.6 0.4 1.2 0.3 1.9 0.9 0.7 0.6 1.4 1.5 0.7-0.9 1.5-1.5 0.7-0.6 1.8-0.9 1.1-0.3 2.7-0.4 1.7-0.1 4.1-0.1h2.8v4.2q-4.4 0-5.7 1-1.3 0.9-1.3 4v35.5q0 3.1 1.3 4.1 1.3 0.9 5.7 0.9v4.3h-2.8q-2.4 0-4.1-0.1-1.6-0.1-2.7-0.4-1.1-0.4-1.8-1-0.8-0.6-1.5-1.5-0.7 0.9-1.4 1.5-0.7 0.6-1.9 1-1 0.3-2.6 0.4-1.6 0.1-4 0.1zm55.2-48q3.2 3.3 3.2 6 0 2.6-1.8 4.3-1.8 1.6-4.4 1.6-2.8 0-4.9-1.7-2-1.6-2-4.4 0-0.3 0.1-1 0.2-0.7 0.4-1.6 0.2-0.8 0.4-1.6 0.1-0.8 0.1-1.2 0-2.7-3-5.4l2.9-1.6q1.2 0.7 2.2 1.5 1.1 0.7 2.1 1.4 4.8-2.9 9.7-2.9 4.6 0 9.2 2.9 4.6-2.9 9.2-2.9 4.8 0 9.7 2.9 1-0.7 2.1-1.5 1.1-0.8 2.4-1.4l2.7 1.6q-3 2.7-3 5.4 0 1.1 0.5 2.9 0.5 1.8 0.5 2.5 0 2.8-2.1 4.4-2.1 1.7-4.9 1.7-2.6 0-4.4-1.6-1.7-1.7-1.7-4.3 0-1.4 0.7-2.8 0.9-1.6 2.6-3.2-1.9-1.9-4.3-1.9-2.8 0-3.5 1.8-0.7 1.7-0.7 4.4v34.4q0 3.1 1.4 4.1 1.3 0.9 5.6 0.9v4.3h-2.9q-2.4 0-3.9-0.1-1.6-0.1-2.8-0.4-1-0.4-1.8-1-0.7-0.6-1.4-1.5-1.3 1.9-3.3 2.5-2 0.5-6.7 0.5h-3v-4.3q4.4 0 5.7-0.9 1.5-1 1.5-4.1v-34.4q0-3.1-0.8-4.6-0.7-1.6-3.4-1.6-2.5 0-4.2 1.9zm73.1-1.8h-1v-4.2h3.7q8.1 0 10.5 2.9 1.2-1.6 3.6-2.3 2.5-0.6 6.5-0.6h2.6v4.2h-0.5q-2.3 0-3.6 0.4-1.3 0.3-1.3 1.7 0 0.6 0.1 1.6 0.2 1 0.4 1.6l9 36.7q0.5 1.9 1.6 2.7 1.1 0.8 3.6 0.8h0.7v4.3h-1.4q-5.1 0-7.2-0.7-2.1-0.7-3.3-2.3-1.1 1.6-3.2 2.3-2.2 0.7-5.7 0.7h-2.5v-4.3q2.9 0 4.1-0.5 1.3-0.5 1.3-2 0-0.7-0.2-1.6-0.1-0.8-0.4-2.2l-1.4-6.7h-12.7l-1.8 7.3q-0.5 1.9-0.5 3 0 1.5 1.2 2.1 1.2 0.6 3.5 0.6v4.3h-2.7q-3 0-4.5-0.7-1.4-0.7-2.4-2.3-1.2 1.6-2.6 2.3-1.5 0.7-5.3 0.7h-3.1v-4.3q3.9 0 5.7-1.2 1.7-1.3 2.8-4.8l9.7-34.2q0.5-1.7 0.6-2.3 0.2-0.7 0.2-1.2 0-1.8-4.1-1.8zm10.3 7l-5.3 20.1h9.7z"/>
		<path id="M E Ž D Y M O R Ž Ë" fill-rule="evenodd" class="s3" d="m101.2 545v-44.8h-1l-17.9 55.8q-1.2 0-2.6-1.2-1.3-1.1-2-2.6-0.7 1.6-2.1 2.7-1.4 1.1-3 1.1l-15.7-55.8h-1.1v44.8q0 3.9 1.9 5 2 1 6.7 1v5h-1.5q-5.6 0-7.5-0.6-1.8-0.8-3.2-3-1.6 2.2-3.4 3-1.8 0.6-7.4 0.6h-1.4v-5q2.7 0 5.6-1.2 3-1.2 3-4.8v-42.1q0-3.6-3-4.7-2.9-1.1-5.6-1.1v-5.1h1.4q5.6 0 7.9 0.6 2.4 0.7 4 2.9 1.4-2.2 2.4-2.9 1.1-0.6 6.7-0.6h6l13.4 45 13.8-45h1.4q5.7 0 7.8 0.6 2.2 0.7 3.8 2.9 1.6-2.2 3.9-2.9 2.3-0.6 7.9-0.6h3.4v5.1q-5.2 0-6.8 1.1-1.6 1.1-1.6 4.7v42.1q0 3.6 1.7 4.8 1.8 1.2 6.7 1.2v5h-3.4q-5.6 0-7.9-0.6-2.3-0.8-3.9-3-1.6 2.2-4.2 3-2.6 0.6-8.3 0.6h-3.3v-5q5 0 6.7-1.2 1.7-1.2 1.7-4.8zm77.1-19.7h-2.5v18.3q0 4 3.3 5.7 3.3 1.7 6.6 1.7 2 0 3.9-0.9 2-0.9 3.9-2.6-3-3.3-3-5.9 0-3.1 2.3-5.4 2.3-2.4 5.5-2.4 3.3 0 5.9 1.8 2.7 1.7 2.7 6 0 1.5-0.9 3.3-0.8 1.7-0.8 3.5 0 3.4 3.5 6.2l-3.2 2q-1.8-1.1-3.5-2.1-1.5-1.1-3-2.3-4 2.6-6.9 3.5-2.9 0.9-6.9 0.9-8.3 0-16.5-4.2-0.8 1.1-1.7 1.8-0.8 0.7-2.1 1.2-1.3 0.3-3.2 0.5-1.9 0.1-4.7 0.1h-3.4v-5q5.2 0 6.7-1.2 1.6-1.2 1.6-4.8v-42.1q0-3.6-1.5-4.7-1.6-1.1-6.8-1.1v-5.1h3.4q2.8 0 4.7 0.2 1.9 0.1 3.2 0.4 1.3 0.4 2.1 1.1 0.9 0.7 1.7 1.8 7.6-4.2 17.1-4.2 8.1 0 14.1 3.7 1.2-0.8 2.6-1.7 1.4-1 3-2l3.2 2q-3.5 3.1-3.5 6.4 0 1.9 0.5 3.1 0.7 1.2 0.7 3.3 0 3.7-2.5 5.4-2.3 1.7-5.6 1.7-3.1 0-5.3-2.2-2.2-2.3-2.2-4.8 0-2.9 3.8-6.9-3.7-2.2-7.2-2.2-4 0-7.9 1.4-3.7 1.3-3.7 4.8v15.5h2.5q3.6 0 4.7-2.9 1.1-3 1.2-5.3h5.1l-0.1 23h-5.1q0-2.4-1.1-5.3-1.1-3-4.7-3zm87.3 24.1q-2.4-2.2-3.3-4.3-0.9-2.1-0.9-3.8 0-2.6 2.2-4.9 2.2-2.4 5.5-2.4 3.9 0 5.9 2.2 2.2 2.2 2.2 5.1 0 1.5-0.9 3.7-0.9 2.2-0.9 3.4 0 3.4 3.7 6.2l-3.4 2q-1.5-0.8-2.6-1.5-1.1-0.8-2.3-1.7-5.6 3.3-11.2 3.3-1.4 0-3.8-0.2-2.4-0.4-5-0.8-2.6-0.4-5-0.7-2.4-0.4-3.8-0.4-2 0-4.1 0.4-2.1 0.4-4.4 1l29.2-57.8q-3.1-1.1-6.2-1.1-4.8 0-7.2 2.8 1.5 1.8 2.1 3.5 0.6 1.5 0.6 2.8 0 3.1-2.3 5.1-2.1 1.9-5.3 1.9-3.1 0-5.4-1.8-2.2-2-2.2-5.3 0-1.6 0.5-3.4 0.7-1.8 0.7-3 0-3.6-3.5-6.4l3.4-2q1.8 1.2 3.3 2.2 1.5 1.1 3.1 2.1 4.7-4.3 12.4-4.3 1.5 0 4.3 0.3 2.9 0.3 5.8 0.8 2.9 0.3 5.4 0.7 2.4 0.3 3 0.3 1.1 0 2.3-0.2 1.1-0.3 2.6-0.6l-29.7 57.2q0.2 0.1 1.2 0.3 1 0.1 2.3 0.3 1.2 0.2 2.6 0.4 1.3 0.2 2.4 0.2 1.7 0 3.4-0.5 1.8-0.4 3.3-1.1zm-5.1-62.3h-7.4l-9.7-10.7h5.3l8.1 7.9 8.2-7.9h5.3zm47.8 68.9h-3.4v-5q4.7 0 6.5-1.2 1.8-1.2 1.8-4.8v-42.1q0-3.6-1.6-4.7-1.6-1.2-6.7-1.2v-5h3.4q2.8 0 4.7 0.2 1.9 0.1 3.2 0.4 1.3 0.4 2.1 1.1 0.9 0.7 1.7 1.8 3.4-4.2 12.3-4.2 6.8 0 11.4 2.2 4.7 2.2 7.5 6.4 2.9 4.2 4 10.1 1.2 5.9 1.2 13.4 0 8.6-1.3 14.9-1.1 6.2-4 10.3-2.8 4.1-7.6 6-4.7 2-11.8 2-8.5 0-11.7-4.2-0.8 1.1-1.7 1.8-0.8 0.7-2.1 1.2-1.3 0.3-3.2 0.5-1.9 0.1-4.7 0.1zm18.8-53.1v42.2q0 2.9 1 4.4 1.1 1.5 4.6 1.5 8.4 0 8.4-12.6v-29.4q0-12-8.2-12-3.5 0-4.7 1.5-1.1 1.3-1.1 4.4zm69.6 53.1h-3.4v-5q5 0 6.7-1.2 1.7-1.2 1.7-4.8v-21.4l-8.8-17.1q-1.8-3.3-3-5.1-1.2-1.9-2.4-2.8-1-1-2.3-1.3-1.3-0.3-3-0.3v-5h2.1q4.9 0 7.5 0.9 2.6 0.8 4.2 2.6 1.4-1.8 3.5-2.6 2.1-0.9 5.5-0.9h4.3v5h-1.1q-4.8 0-4.8 1.7 0 0.7 0.7 2.3l6.7 13.2 7.2-13.2q0.8-1.5 0.8-2.3 0-1.7-3.3-1.7h-1.2v-5h2.5q3.6 0 5.6 0.6 2 0.6 2.8 2.4 1.6-1.7 3.3-2.4 1.8-0.6 5-0.6h1.3v5q-3.1 0-5 1.2-1.8 1.1-3.3 3.8l-11.1 19.7v23.3q0 3.6 1.7 4.8 1.7 1.2 6.7 1.2v5h-3.4q-2.8 0-4.8-0.1-1.9-0.2-3.2-0.5-1.3-0.5-2.2-1.2-0.9-0.7-1.7-1.8-1.6 2.2-3.9 3-2.3 0.6-7.9 0.6zm126.2-11v-44.8h-1.1l-17.9 55.8q-1.2 0-2.5-1.2-1.4-1.2-2.1-2.6-0.6 1.5-2 2.7-1.4 1.1-3 1.1l-15.8-55.8h-1v44.8q0 3.9 1.8 5 2 1 6.8 1v5h-1.5q-5.6 0-7.5-0.6-1.8-0.8-3.2-3-1.7 2.2-3.5 3-1.8 0.6-7.3 0.6h-1.5v-5q2.8 0 5.7-1.2 3-1.2 3-4.8v-42.1q0-3.6-3-4.7-2.9-1.2-5.7-1.2v-5h1.5q5.5 0 7.9 0.6 2.3 0.7 3.9 2.9 1.5-2.2 2.5-2.9 1-0.6 6.6-0.6h6.1l13.4 45 13.7-45h1.5q5.6 0 7.8 0.6 2.2 0.7 3.8 2.9 1.5-2.2 3.9-2.9 2.3-0.6 7.9-0.6h3.4v5q-5.2 0-6.8 1.2-1.7 1.1-1.7 4.7v42.1q0 3.6 1.7 4.8 1.8 1.2 6.8 1.2v5h-3.4q-5.6 0-7.9-0.6-2.4-0.8-3.9-3-1.6 2.2-4.2 3-2.7 0.6-8.3 0.6h-3.4v-5q5.1 0 6.8-1.2 1.7-1.2 1.7-4.8zm54.6-21q0-7.1 1.5-13.2 1.5-6.1 4.4-10.6 2.9-4.5 8-7 5.2-2.6 10.9-2.6 5.7 0 10.8 2.6 5.2 2.5 8.1 7 2.9 4.5 4.3 10.6 1.4 6.1 1.4 13.2 0 7.1-1.4 13.3-1.4 6.1-4.3 10.6-2.9 4.4-8.1 6.9-5.1 2.5-10.8 2.5-5.7 0-10.9-2.5-5.1-2.5-8-6.9-2.9-4.5-4.4-10.6-1.5-6.2-1.5-13.3zm15.4-16.3v32.5q0 6.2 2.6 8.5 2.6 2.3 6.8 2.3 4 0 6.6-2.3 2.7-2.3 2.7-8.5v-32.5q0-6.1-2.7-8.3-2.6-2.4-6.6-2.4-4.2 0-6.8 2.4-2.6 2.2-2.6 8.3zm67.5 48.3h-3.4v-5q5.1 0 6.7-1.2 1.6-1.2 1.6-4.8v-42.1q0-3.6-1.6-4.7-1.6-1.2-6.7-1.2v-5h3.4q2.8 0 4.7 0.2 1.9 0.1 3.2 0.4 1.3 0.4 2.1 1.1 0.9 0.7 1.7 1.8 1.6-2 5.5-3.1 4-1.1 9-1.1 9.3 0 14.3 4.2 5.2 4.2 5.2 11.8 0 5.4-2.6 8.7-2.5 3.4-7.5 5 5.5 1 8 3.3 2.5 2.3 2.5 5.9v14q0 4 1.3 5.4 1.2 1.4 4.8 1.4h0.5v5h-2.5q-4.8 0-7-0.7-2.1-0.8-3.4-2.9-2.7 3.3-7.3 3.6v-23.3q0-2.3-0.3-3.7-0.1-1.5-0.9-2.3-0.9-0.8-2.6-1-1.6-0.4-4.6-0.4h-5.4v19.7q0 3.6 1.6 4.8 1.5 1.2 6.7 1.2v5h-3.4q-2.9 0-4.8-0.1-1.9-0.2-3.2-0.5-1.3-0.5-2.2-1.2-0.9-0.7-1.7-1.8-0.8 1.1-1.7 1.8-0.8 0.7-2.1 1.2-1.3 0.3-3.2 0.5-1.9 0.1-4.7 0.1zm18.7-52.6v15.4h4.1q5.3 0 7.4-1.9 2-1.9 2-6.7v-5.2q0-4.2-1.7-6.1-1.7-1.9-5.5-1.9-3.7 0-5 1.5-1.3 1.3-1.3 4.9zm89.1 46q-2.4-2.2-3.3-4.3-0.8-2.1-0.8-3.8 0-2.6 2.2-4.9 2.1-2.5 5.5-2.5 3.8 0 5.9 2.3 2.2 2.2 2.2 5.1 0 1.5-0.9 3.7-0.9 2.2-0.9 3.3 0 3.5 3.6 6.3l-3.4 2q-1.4-0.8-2.6-1.5-1.1-0.8-2.2-1.7-5.6 3.3-11.3 3.3-1.3 0-3.8-0.3-2.3-0.3-4.9-0.7-2.6-0.4-5.1-0.7-2.4-0.4-3.7-0.4-2 0-4.2 0.4-2 0.4-4.4 1l29.3-57.8q-3.2-1.2-6.2-1.2-4.8 0-7.2 2.9 1.5 1.8 2 3.4 0.7 1.6 0.7 2.9 0 3.1-2.3 5.1-2.2 1.9-5.3 1.9-3.2 0-5.4-1.8-2.3-2-2.3-5.4 0-1.5 0.6-3.3 0.6-1.8 0.6-3 0-3.6-3.4-6.4l3.3-2q1.8 1.2 3.4 2.2 1.5 1.1 3 2.1 4.8-4.3 12.4-4.3 1.6 0 4.4 0.3 2.8 0.3 5.7 0.8 3 0.3 5.4 0.7 2.4 0.3 3.1 0.3 1.1 0 2.2-0.2 1.2-0.3 2.6-0.7l-29.7 57.3q0.3 0.1 1.3 0.2 1 0.2 2.2 0.4 1.3 0.2 2.7 0.4 1.3 0.2 2.4 0.2 1.7 0 3.4-0.5 1.7-0.5 3.2-1.1zm-5-62.3h-7.5l-9.7-10.7h5.3l8.1 7.9 8.2-7.9h5.3zm69.1 38.2h-2.5v18.3q0 4 3.4 5.7 3.3 1.6 6.5 1.6 2.1 0 4-0.9 2-0.9 3.9-2.6-3-3.2-3-5.8 0-3.1 2.2-5.4 2.4-2.4 5.5-2.4 3.4 0 6 1.8 2.7 1.7 2.7 6 0 1.5-0.9 3.3-0.8 1.7-0.8 3.4 0 3.5 3.5 6.3l-3.3 2q-1.8-1.1-3.4-2.1-1.5-1.1-3.1-2.3-3.9 2.6-6.9 3.5-2.9 0.9-6.8 0.9-8.3 0-16.5-4.2-0.8 1.1-1.7 1.8-0.8 0.7-2.2 1.2-1.2 0.3-3.1 0.5-1.9 0.1-4.7 0.1h-3.4v-5.1q5.1 0 6.6-1.1 1.7-1.2 1.7-4.8v-42.1q0-3.6-1.6-4.7-1.5-1.2-6.7-1.2v-5h3.4q2.8 0 4.7 0.2 1.9 0.1 3.1 0.4 1.4 0.4 2.2 1.1 0.9 0.7 1.7 1.8 7.6-4.2 17.1-4.2 8 0 14 3.7 1.3-0.8 2.7-1.7 1.4-1 2.9-2l3.3 2q-3.5 3.1-3.5 6.3 0 1.9 0.5 3.2 0.6 1.2 0.6 3.2 0 3.8-2.4 5.5-2.3 1.7-5.7 1.7-3 0-5.3-2.2-2.1-2.3-2.1-4.8 0-3 3.7-6.9-3.6-2.3-7.2-2.3-3.9 0-7.8 1.5-3.8 1.3-3.8 4.7v15.6h2.5q3.6 0 4.7-3 1.2-2.9 1.3-5.3h5l-0.1 23.1h-5q0-2.4-1.2-5.3-1.1-3-4.7-3zm-7-43.5q0-2.1 1.6-3.7 1.5-1.5 3.7-1.5 2.2 0 3.7 1.5 1.6 1.6 1.6 3.7 0 2.3-1.6 3.8-1.5 1.5-3.7 1.5-2.2 0-3.7-1.5-1.6-1.5-1.6-3.8zm15.3 0q0-2.1 1.6-3.7 1.5-1.5 3.7-1.5 2.2 0 3.7 1.5 1.6 1.6 1.6 3.7 0 2.3-1.6 3.8-1.5 1.5-3.7 1.5-2.2 0-3.7-1.5-1.6-1.5-1.6-3.8z"/>
	</g>
</svg>