<svg version="1.2" xmlns="http://www.w3.org/2000/svg" viewBox="0 0 900 600" width="900" height="600">
	<title>NazistGermany</title>
	<style>
		.s0 { fill: #de1616 } 
		.s1 { fill: #0000a2 } 
		.s2 { fill: #ffffff } 
		.s3 { fill: #ff7200 } 
		.s4 { fill: #ffa900 } 
		.s5 { fill: #ffa900;stroke: #ff7200;stroke-miterlimit:100 } 
	</style>
	<path id="Layer" class="s0" d="m0 0h900v600h-900z"/>
	<path id="Layer" class="s1" d="m0 0h900v400h-900z"/>
	<path id="Layer" class="s2" d="m0 0h900v200h-900z"/>
	<path id="Svastika" class="s3" d="m625 300l-105-105-70 70-35-35 70-70-35-35-105 105 70 70-35 35-70-70-35 35 105 105 70-70 35 35-70 70 35 35 105-105-70-70 35-35 70 70z"/>
	<g id="g1">
		<path id="q1" class="s4" d="m289 286l-7 7 98 98 70-70 49 49-77 77 7 7 84-84-63-63-70 70z"/>
		<path id="q2" class="s4" d="m464 139l-7-7-98 98 70 70-49 49-77-77-7 7 84 84 63-63-70-70z"/>
		<path id="q3" class="s4" d="m618 307l-98-98-70 70-49-49 77-77-7-7-84 84 63 63 70-70 91 91z"/>
		<path id="q4" class="s4" d="m443 468l-7-7 91-91-70-70 63-63 84 84-7 7-77-77-49 49 70 70z"/>
	</g>
	<g id="Text">
		<path id="Text1" fill-rule="evenodd" class="s5" d="m88.4 92v-3.2h6.4v-47.5h-6.4v-3.2h23.6v3.2h-5.3v19.5h17.1v-19.5h-5.4v-3.2h23.7v3.2h-6.4v47.5h6.4v3.2h-23.7v-3.2h5.4v-24.7h-17.1v24.7h5.3v3.2zm104.2 0v-3.2h5.9l-4.1-14.2q-0.2 0.2-0.5 0.4-1.3 1.1-2.3 1.7-1 0.5-1.7 0.7-0.7 0.1-1.1 0.1-1.2 0-1.9-0.3-0.8-0.4-1.7-1-2-1.3-3.2-1.8-1.1-0.6-2.5-0.6-1.7 0-3 0.7-0.3 0.2-0.5 0.3v0.4q0 1.5 0.3 3.4 0.3 1.9 0.5 2.8 0.3 0.8 1.4 1.8 1 0.9 1.9 2.9 0.1 0.4 0.1 2.4v2.6q0 0.9-0.8 1.4-0.9 0.3-1.9 0.3-0.7 0-1.4 0-0.6-0.1-1.3-0.3-0.5 0-1 0-0.5-0.1-1-0.1-0.7 0-1.3 0.1-0.6 0-1.2 0-0.4 0.1-0.7 0.1h-0.7q-1.8 0-2.4-1-0.5-1.1-0.5-3.1 0-2.6 0.4-5 0.4-2.4 1.4-5.3 1-3 2.4-6.1 1.5-3.1 4.3-8.7l1.9-3.6q0.9-1.8 1.5-3.1 0.7-1.4 1.8-3.2 1.7-2.8 2.3-3.9 0.7-1 1.5-3.1 1-2.1 1-3.2 0-1.5-1-1.7-0.8-0.3-1.7-0.3h-3.4v-3.2h23.9v3.2h-6.1l14.2 47.5h5.3v3.2zm-5.6-42.7l-2 2.7q-1.6 2.1-4.4 7.8-2.8 5.6-3.7 9.1-0.3 1.2-0.5 2.3 0.1-0.1 0.2-0.1l0.5-0.4q0.7-0.4 2.1-1 1.5-0.7 2.9-1.1 1.4-0.5 2.4-0.5 1.4 0 2.7 0.5 1.6 0.5 3 1.5 1.4 1 2.4 1 0.3 0 0.7-0.1zm50.2 42.7v-3.2h6.4v-47.5h-6.4v-3.2h23.7v3.2h-5.3v47.5h16.7v-47.5h-5.4v-3.2h23.7v3.2h-6.4v47.5h2.6q3.2 0 4.6-0.3 1.5-0.4 2.8-0.4 0.5 0 1 0.2 0.6 0.2 1.2 0.6 0.6 0.5 1 1.3 0.3 0.8 0.3 2 0 1.1-0.3 2.1-0.2 0.9-0.6 2.2-0.4 1.1-1 2.8-0.5 1.6-1.1 4-0.3 1.3-0.4 2.5-0.2 1.2-0.4 2.3-0.2 1-0.8 1.6-0.4 0.6-1.4 0.6-0.9 0-1.3-0.4-0.4-0.6-0.8-1.5-0.3-1-0.6-2.4-0.3-1.5-0.9-3.4-0.7-3-1.5-5-0.8-2-1.9-3.2-1.1-1.3-2.8-1.8-1.7-0.6-4.4-0.6zm82.3 0v-3.2h6.4v-47.5h-6.4v-3.2h23.6v3.2h-5.3v29.1l17.1-20.9v-8.2h-5.4v-3.2h23.7v3.2h-6.4v47.5h6.4v3.2h-23.7v-3.2h5.4v-34.1l-17.1 20.8v13.3h5.3v3.2zm109-21.1h-3.3v-3.2h20.2v3.2h-3.2q-0.2 5.6-3 9.8-2.7 4.2-6.6 7.2-3.9 2.8-8.4 4.3-4.4 1.5-8.1 1.5-2.2 0-3.4-0.2-1.1-0.3-2.2-0.7v-2.2q0-2.1-0.8-4.1-0.7-1.9-1.8-3.6-1.1-1.8-2.4-3.4-1.3-1.6-2.4-3.1-2-2.7-3.2-4.9-1.1-2.3-1.7-4.1-0.6-2-0.7-3.5-0.1-1.6-0.1-3 0-5.1 1.7-9.5 1.7-4.4 4.8-7.5 3.1-3.2 7.4-5 4.4-1.9 9.7-1.9 5.8 0 9.7 1.8 3.9 1.7 6.3 4.2 2.4 2.6 3.6 5.6 1.2 2.9 1.6 5.4h3.2v3.2h-20.2v-3.2h3.3q0-4.6-0.8-7.3-0.8-2.7-2-4.1-1.3-1.5-2.7-1.9-1.5-0.4-2.8-0.4-1.8 0-3.5 0.8-1.7 0.9-3 2.8-1.2 1.9-2 5.1-0.8 3.1-0.8 7.8 0 5.2 0.8 9.7 0.9 4.5 2 9.3 0.9 3.8 1.3 6.4 0.4 2.6 0.4 4.7 0 1.1-0.3 2.1-0.2 1-0.6 2.2 0.5 0.5 1.8 0.5 1.8 0 4-1.5 2.1-1.4 4-3.9 1.8-2.5 3-5.9 1.3-3.5 1.3-7.4v-1.1q0-0.4-0.1-1zm54.4 21.1v-3.2h6.4v-47.5h-3.3q-2 0-3.4 0.3-1.4 0.1-2.4 1-1 0.7-1.9 2.4-0.7 1.5-1.5 4.2-0.6 1.7-0.9 3.1-0.2 1.3-0.5 2.2-0.3 0.9-0.8 1.5-0.4 0.4-1.3 0.4-1.4 0-1.9-1.3-0.4-0.9-0.4-2.4 0-1.6-0.4-3.3-0.3-1.5-0.8-2.9-0.6-1.5-1.1-2.6-0.5-1.2-0.9-2.2-0.4-1-0.4-1.7 0-1.8 0.9-2.3 0.9-0.6 2-0.6 0.8 0 1.5 0.2 0.7 0 1.1 0.2 1 0.2 2 0.4 0.9 0.1 2 0.1 1.2 0.1 2.9 0.1c0 0 0.5 0 0.5 0 0 0 0.4 0 0.5 0 0 0 0.4 0 0.4 0 0 0 0.3 0 0.4 0 0 0 1.6 0 1.7 0 0 0 23.9 0 24 0 0 0 0.2 0 0.2 0 0.1 0 0.2 0 0.2 0 0 0 0.4 0 0.4 0q0 0 0.1 0c0 0 0.5 0 0.5 0 0 0 0.2 0 0.3 0 0 0 1.5 0 1.6 0h0.4q1.7 0 2.8-0.1 1.3 0 2.1-0.1 0.9-0.2 1.8-0.4 0.4-0.2 1-0.2 0.8-0.2 1.6-0.2 1.1 0 2 0.6 0.9 0.5 0.9 2.3 0 0.7-0.3 1.3-0.2 0.6-0.7 1.5-0.4 0.9-1.1 2.5-0.5 1.4-1.1 4.1-0.4 1.7-0.5 2.7-0.1 0.8-0.1 1.9 0 1.1-0.5 1.7-0.5 0.7-1.6 0.7-0.8 0-1.2-0.3-0.4-0.4-0.7-1.3-0.3-0.8-0.7-2.2-0.3-1.4-0.9-3.4-0.7-2.5-1.4-4.1-0.8-1.5-1.9-2.4-1-0.8-2.5-1-1.3-0.4-3.4-0.4h-3.3v47.5h6.4v3.2zm94.4-21.1h-3.3v-3.2h20.2v3.2h-3.2q-0.2 5.6-3 9.8-2.7 4.2-6.6 7.2-3.9 2.8-8.4 4.3-4.4 1.5-8.1 1.5-2.2 0-3.3-0.2-1.2-0.3-2.3-0.7v-2.2q0-2.1-0.8-4.1-0.6-1.9-1.8-3.6-1.1-1.8-2.4-3.4-1.2-1.6-2.4-3.1-2-2.7-3.1-4.9-1.2-2.3-1.8-4.1-0.5-2-0.7-3.5-0.1-1.6-0.1-3 0-5.1 1.7-9.5 1.7-4.4 4.8-7.5 3.2-3.2 7.5-5 4.4-1.9 9.6-1.9 5.8 0 9.7 1.8 3.9 1.7 6.3 4.2 2.5 2.6 3.6 5.6 1.3 2.9 1.6 5.4h3.2v3.2h-20.2v-3.2h3.3q0-4.6-0.8-7.3-0.8-2.7-2-4.1-1.2-1.5-2.7-1.9-1.5-0.4-2.8-0.4-1.7 0-3.4 0.8-1.7 0.9-3 2.8-1.3 1.9-2 5.1-0.8 3.1-0.8 7.8 0 5.2 0.8 9.7 0.8 4.5 2 9.3 0.9 3.8 1.3 6.4 0.3 2.6 0.3 4.7 0 1.1-0.3 2.1-0.2 1-0.6 2.2 0.6 0.5 1.9 0.5 1.7 0 3.9-1.5 2.2-1.4 4-3.9 1.9-2.5 3.1-5.9 1.2-3.5 1.2-7.4v-1.1q0-0.4-0.1-1zm40 21.1v-3.2h6.4v-47.5h-6.4v-3.2h23.6v3.2h-5.3v20.6h2.9l1.1-2.1q0.6-1.4 1.5-3.6 0.9-2.2 2.1-4.8 1.1-2.5 2.6-5 1.5-2.6 3.2-4.7 1.8-2 4-3.4 2.1-1.3 4.7-1.3 2 0 3.7 0.4 1.8 0.4 3.1 1-0.6 1.7-1.1 2.9-0.4 1.1-0.7 2.3-0.2 1.1-0.3 2.1-0.1 1-0.1 1.9v1.4h-1.5q-1.1-0.4-1.9-0.7-0.8-0.4-1.5-0.6-0.7-0.3-1.4-0.5-0.8-0.2-1.8-0.2-1.9 0-3.3 1-1.4 1-2.9 3-1.4 2.1-2.9 5-1.5 2.9-3.5 6.8 0.4 0 0.6 0.1 0.4 0.1 0.7 0.2 1.5 0.3 3.5 1 2.1 0.5 4.2 1.6 2.3 1.1 4.4 2.8 2.3 1.8 4 4.6 1.8 2.7 2.9 6.6 1.1 3.8 1.2 9.1h4.6v3.2h-20.9v-3.2h3q0.1-2 0.1-3.8 0-4.8-1.1-8.8-1.1-4.1-3.2-6.7-2.2-2.7-4.9-3.7-2.7-1.1-5.1-1.2v24.2h4.8v3.2zm99.9 0v-3.2h5.8l-4.1-14.2q-0.2 0.2-0.4 0.4-1.3 1.2-2.3 1.7-1 0.5-1.7 0.7-0.7 0.1-1.2 0.1-1.1 0-1.9-0.3-0.8-0.4-1.7-1-2-1.3-3.2-1.8-1-0.6-2.5-0.6-1.6 0-2.9 0.7-0.3 0.2-0.6 0.3v0.4q0 1.5 0.3 3.4 0.4 1.9 0.6 2.8 0.2 0.8 1.3 1.8 1.1 1 1.9 3 0.2 0.3 0.2 2.3v2.6q0 0.9-0.9 1.4-0.8 0.4-1.9 0.4-0.6 0-1.3-0.1-0.7-0.1-1.3-0.2-0.6-0.1-1.1-0.1-0.5-0.1-1-0.1-0.6 0-1.2 0.1-0.6 0-1.3 0.1-0.3 0-0.7 0h-0.6q-1.8 0-2.4-1-0.6-1-0.6-3.1 0-2.6 0.4-5 0.4-2.3 1.4-5.3 1.1-3 2.5-6.1 1.4-3.1 4.3-8.7l1.8-3.6q0.9-1.7 1.6-3.1 0.7-1.3 1.7-3.2 1.7-2.8 2.3-3.8 0.7-1.1 1.6-3.2 0.9-2.1 0.9-3.2 0-1.5-0.9-1.7-0.9-0.3-1.7-0.3h-3.5v-3.2h24v3.2h-6.1l14.2 47.5h5.3v3.2zm-5.7-42.7l-2 2.7q-1.6 2.1-4.3 7.8-2.8 5.6-3.7 9.1-0.3 1.2-0.6 2.3 0.2-0.1 0.3-0.1l0.4-0.3q0.7-0.5 2.2-1.1 1.4-0.7 2.8-1.1 1.4-0.5 2.4-0.5 1.5 0 2.8 0.5 1.5 0.5 2.9 1.5 1.4 1 2.4 1 0.3 0 0.8-0.1zm48.9 42.7v-3.2h3.5q0.2-6.1 2.2-10.6 2-4.5 5.2-7.5 3.3-3 7.5-4.5 4.4-1.7 9.1-1.9v-1.1q-6-0.8-10.3-2.6-4.3-1.8-7.2-4.1-2.7-2.5-4.1-5.4-1.3-3-1.3-6 0-2.5 0.7-3.9 0.8-1.4 2.3-2.1 1.5-0.7 3.7-0.8 2.2-0.2 5.1-0.2h34.7v3.3h-6.4v47.4h6.4v3.2h-22.1v-3.2h3.8v-23.6q-2.3 0-5.2 0.9-2.8 0.8-5.2 3.2-2.3 2.3-4 6.6-1.6 4.3-1.6 11.2v1.7h3v3.2zm32.8-32.5v-18.1h-8.8q-0.7 0-1.7 0.1-1 0.1-1.9 0.6-1 0.5-1.6 1.4-0.6 0.9-0.6 2.6 0 2 0.9 4.4 0.9 2.3 2.8 4.3 1.8 2 4.5 3.3 2.8 1.4 6.4 1.4zm-364.7 13zm0 0zm0 0.2zm0 0.1zm0 0.1zm148.9-0.4zm0 0zm0 0.2zm0 0.1zm0 0.1z"/>
		<path id="Text2" fill-rule="evenodd" class="s5" d="m72.5 560v-4.2h8.3v-61.6h-8.3v-4.2h37.6q1.6 0 3.4-0.1 1.9-0.1 3.6-0.2 1.7-0.2 3.2-0.4 1.5-0.2 2.5-0.4 1-0.2 1.9-0.2 1.2 0 2.3 0.7 1.1 0.7 1.1 3.1 0 1.1-0.6 2.3-0.6 1.2-1.4 3.4-0.8 2.2-1.1 3.6-0.2 1.3-0.5 3.3l-0.6 4.3q-0.2 1.1-0.9 1.7-0.7 0.5-1.6 0.5-1.3 0-1.8-0.6-0.5-0.7-0.8-1.5-1-3-1.8-5.7-0.7-2.8-2.3-4.9-1.6-2.1-4.5-3.4-2.9-1.3-8.2-1.3h-5.7v61.6h8.3v4.2zm109.9-36.9v32.7h6.7q5.3 0 9-1.4 3.7-1.5 6.2-3.9 2.6-2.4 4.3-5.5 1.8-3.2 3.3-6.5 0.4-0.8 0.9-1.4 0.5-0.7 1.7-0.7 0.9 0 1.6 0.6 0.7 0.5 0.9 1.6 0 4-0.9 8.7-0.9 4.6-0.9 10.2 0 2.4-1.1 3.1-1.1 0.7-2.3 0.7-0.9 0-1.9-0.2-1-0.2-2.5-0.4-1.5-0.2-3.2-0.3-1.7-0.2-3.6-0.3-1.8-0.1-3.4-0.1h-38.6v-4.2h8.3v-61.6h-8.3v-4.2h38.6q1.6 0 3.4-0.1 1.9-0.1 3.6-0.2 1.7-0.2 3.2-0.4 1.5-0.2 2.5-0.4 1-0.2 1.9-0.2 1.2 0 2.3 0.7 1.1 0.7 1.1 3.1 0 1.1-0.6 2.3-0.6 1.2-1.4 3.4-0.8 2.2-1.1 3.6-0.2 1.3-0.5 3.3l-0.6 4.3q-0.2 1.1-0.9 1.7-0.7 0.5-1.6 0.5-1.3 0-1.8-0.6-0.5-0.7-0.8-1.5-1-3-1.8-5.7-0.7-2.8-2.3-4.9-1.6-2.1-4.5-3.4-2.9-1.3-8.2-1.3h-6.7v25.5q1.6-0.8 2.9-1.4 1.4-0.6 2.7-1 1.4-0.5 2.8-0.7 1.5-0.2 3.5-0.2 4.8 0 8.3 3.3 3.6 3.3 5 8.3h3.8v4.2h-23.5v-4.2h3.7q-0.2-3.2-1.5-4.6-1.3-1.4-2.5-1.4-0.7 0-2.1 0.2-1.3 0.2-3.1 0.9zm65.6 36.9v-4.2h8.3c0-2.1 0-40.8 0-43.1q0.1-3.4 0.3-8.7 1.3-3.3 3.6-6.1 2.4-2.8 5.5-4.9 3.1-2.1 6.9-3.2 3.8-1.2 8.1-1.2 5.6 0 10.2 1.4 4.7 1.4 8 4 3.4 2.6 5.2 6.3 1.9 3.7 1.9 8.3 0 3.7-1.1 7.2-1.1 3.5-3.3 6.2-2.2 2.7-5.4 4.4-3.1 1.6-7.1 1.6-1.7 0-3-0.2-1.2-0.3-2.3-0.8-1.1-0.5-2.3-1.2-1.2-0.7-2.8-1.5l-6.9 9v22.5h8.3v4.2zm23.8-32.7l6.4-8.1q0.8 0.6 1.9 1.2 1.1 0.5 1.8 0.5 0.9 0 2-0.5 1.2-0.5 2.2-1.8 1-1.4 1.6-3.8 0.7-2.5 0.7-6.4 0-2.7-0.3-5.4-0.2-2.8-1.1-5-0.9-2.3-2.6-3.7-1.6-1.5-4.4-1.5-2.9 0-4.6 1.6-1.6 1.5-2.4 4.3-0.8 2.7-1 6.6-0.2 3.9-0.2 8.5zm100.1 32.7v-4.2h5.2l-9.9-52.8h-1q-5.1 9.8-8.3 17.5-3.1 7.6-3.1 16.5 0 4.2 0.5 8.1 0.6 3.8 0.9 8.5 0.1 0.7 0.1 1.4 0 0 0 0.1 0 0 0 0.1c0 0 0 0.1 0 0.2q0 0 0 0.1 0 0 0 0.1v0.9q0 2.2-0.3 3-0.2 0.7-1.2 1.2-0.9 0.4-2.2 0.4-0.9 0-1.8-0.1-0.9-0.1-1.8-0.3-0.7-0.1-1.3-0.1-0.6-0.1-1.3-0.1-0.8 0-1.6 0.1-0.8 0-1.6 0.1-0.5 0.1-1.1 0.2-0.6 0-1.1 0-0.8 0-1.4-0.2-0.6-0.3-1.1-1-0.4-0.8-0.7-2.2-0.2-1.5-0.2-3.8 0-4.6 0.8-8.4 0.8-3.9 2.2-7.4 1.4-3.5 3.3-6.8 2-3.3 4.4-6.6 2.7-3.8 5.4-7.3 2.8-3.6 5-7 2.3-3.5 3.7-6.8 1.4-3.4 1.4-6.8 0-0.6-0.1-1.2 0-0.6-0.1-1.2h-7.4v-4.2h28.6v4.2h-5.6l12.7 58.7 11.1-58.7h-4.4v-4.2h26.9v4.2h-6.5l13.4 61.6h6.9v4.2h-26.8v-4.2h4.4l-10.3-52.8h-1l-9.8 52.8h5.3v4.2zm131.4 0v-4.2h7.6l-5.3-18.4q-0.3 0.3-0.6 0.5-1.7 1.5-3 2.2-1.3 0.7-2.2 0.9-0.9 0.2-1.5 0.2-1.5 0-2.5-0.4-1-0.5-2.2-1.3-2.6-1.7-4.1-2.4-1.4-0.7-3.3-0.7-2.1 0-3.8 0.9-0.4 0.2-0.7 0.4v0.5q0 1.9 0.4 4.4 0.4 2.4 0.7 3.6 0.3 1.1 1.7 2.4 1.4 1.2 2.5 3.8 0.2 0.4 0.2 3.1v3.3q0 1.2-1.1 1.8-1.1 0.5-2.5 0.5-0.8 0-1.7-0.1-0.9-0.1-1.7-0.3-0.7-0.1-1.4-0.1-0.6-0.1-1.3-0.1-0.8 0-1.6 0.1-0.8 0-1.6 0.1-0.5 0.1-0.9 0.1h-0.9q-2.3 0-3.1-1.3-0.7-1.4-0.7-4 0-3.4 0.5-6.5 0.5-3.1 1.8-6.9 1.4-3.9 3.2-7.9 1.9-4.1 5.6-11.3l2.4-4.7q1.2-2.3 2-4 0.9-1.8 2.3-4.2 2.2-3.7 3-5 0.9-1.4 2-4.1 1.2-2.7 1.2-4.2 0-1.9-1.2-2.2-1.1-0.3-2.2-0.3h-4.5v-4.2h31.1v4.2h-7.9l18.4 61.6h6.9v4.2zm-7.3-55.5l-2.6 3.5q-2.1 2.8-5.7 10.2-3.6 7.3-4.8 11.8-0.4 1.6-0.7 3 0.2-0.1 0.3-0.2l0.6-0.4q0.9-0.6 2.8-1.4 1.9-0.9 3.7-1.4 1.8-0.6 3.1-0.6 1.9 0 3.6 0.6 2 0.7 3.8 2 1.8 1.2 3.1 1.2 0.4 0 1-0.1zm65.2 55.5v-4.2h8.3v-61.6h-8.3v-4.2h30.7v4.2h-6.9v25.3h22.1v-25.3h-6.9v-4.2h30.7v4.2h-8.3v61.6h8.3v4.2h-30.7v-4.2h6.9v-32h-22.1v32h6.9v4.2zm100.8 0v-4.2h8.3v-61.6h-8.3v-4.2h30.7v4.2h-6.9v37.7l22.1-27.1v-10.6h-6.9v-4.2h30.7v4.2h-8.3v61.6h8.3v4.2h-30.7v-4.2h6.9v-44.3l-22.1 27v17.3h6.9v4.2zm99.1 0v-4.2h4.6q0.3-7.9 2.8-13.7 2.6-5.9 6.8-9.8 4.3-3.9 9.8-5.9 5.6-2.1 11.8-2.4v-1.5q-7.8-1-13.4-3.3-5.6-2.3-9.3-5.4-3.6-3.2-5.4-7-1.7-3.8-1.7-7.8 0-3.2 1-5 1-1.8 2.9-2.7 2-0.9 4.8-1.1 2.9-0.2 6.7-0.2h45v4.2h-8.3v61.6h8.3v4.2h-28.7v-4.2h4.9v-30.6q-3 0-6.7 1.1-3.6 1.1-6.7 4.2-3.1 3-5.2 8.6-2.1 5.5-2.1 14.5v2.2h3.9v4.2zm42.6-42.2v-23.6h-11.4q-1 0-2.3 0.2-1.3 0.1-2.5 0.8-1.2 0.6-2 1.8-0.8 1.2-0.8 3.3 0 2.7 1.2 5.8 1.2 3 3.6 5.6 2.4 2.6 5.9 4.3 3.6 1.7 8.3 1.8z"/>
	</g>
</svg>