<svg version="1.2" xmlns="http://www.w3.org/2000/svg" viewBox="0 0 900 600" width="900" height="600">
	<title>NeonazistGermany</title>
	<style>
		.s0 { fill: #de1616 } 
		.s1 { fill: #0000a2 } 
		.s2 { fill: #ffffff } 
		.s3 { fill: #ff7200 } 
		.s4 { fill: #ffa900 } 
		.s5 { fill: #ffa900;stroke: #ff7200;stroke-miterlimit:100 } 
	</style>
	<path id="Layer" class="s0" d="m0 0h900v600h-900z"/>
	<path id="Layer" class="s1" d="m0 0h900v400h-900z"/>
	<path id="Layer" class="s2" d="m0 0h900v200h-900z"/>
	<path id="Svastika" class="s3" d="m625 300l-105-105-70 70-35-35 70-70-35-35-105 105 70 70-35 35-70-70-35 35 105 105 70-70 35 35-70 70 35 35 105-105-70-70 35-35 70 70z"/>
	<g id="g1">
		<path id="q1" class="s4" d="m289 286l-7 7 98 98 70-70 49 49-77 77 7 7 84-84-63-63-70 70z"/>
		<path id="q2" class="s4" d="m464 139l-7-7-98 98 70 70-49 49-77-77-7 7 84 84 63-63-70-70z"/>
		<path id="q3" class="s4" d="m618 307l-98-98-70 70-49-49 77-77-7-7-84 84 63 63 70-70 91 91z"/>
		<path id="q4" class="s4" d="m443 468l-7-7 91-91-70-70 63-63 84 84-7 7-77-77-49 49 70 70z"/>
	</g>
	<g id="Text">
		<path id="Text2" fill-rule="evenodd" class="s5" d="m72.5 560v-4.2h8.3v-61.6h-8.3v-4.2h37.6q1.6 0 3.4-0.1 1.9-0.1 3.6-0.2 1.7-0.2 3.2-0.4 1.5-0.2 2.5-0.4 1-0.2 1.9-0.2 1.2 0 2.3 0.7 1.1 0.7 1.1 3.1 0 1.1-0.6 2.3-0.6 1.2-1.4 3.4-0.8 2.2-1.1 3.6-0.2 1.3-0.5 3.3l-0.6 4.3q-0.2 1.1-0.9 1.7-0.7 0.5-1.6 0.5-1.3 0-1.8-0.6-0.5-0.7-0.8-1.5-1-3-1.8-5.7-0.7-2.8-2.3-4.9-1.6-2.1-4.5-3.4-2.9-1.3-8.2-1.3h-5.7v61.6h8.3v4.2zm109.9-36.9v32.7h6.7q5.3 0 9-1.4 3.7-1.5 6.2-3.9 2.6-2.4 4.3-5.5 1.8-3.2 3.3-6.5 0.4-0.8 0.9-1.4 0.5-0.7 1.7-0.7 0.9 0 1.6 0.6 0.7 0.5 0.9 1.6 0 4-0.9 8.7-0.9 4.6-0.9 10.2 0 2.4-1.1 3.1-1.1 0.7-2.3 0.7-0.9 0-1.9-0.2-1-0.2-2.5-0.4-1.5-0.2-3.2-0.3-1.7-0.2-3.6-0.3-1.8-0.1-3.4-0.1h-38.6v-4.2h8.3v-61.6h-8.3v-4.2h38.6q1.6 0 3.4-0.1 1.9-0.1 3.6-0.2 1.7-0.2 3.2-0.4 1.5-0.2 2.5-0.4 1-0.2 1.9-0.2 1.2 0 2.3 0.7 1.1 0.7 1.1 3.1 0 1.1-0.6 2.3-0.6 1.2-1.4 3.4-0.8 2.2-1.1 3.6-0.2 1.3-0.5 3.3l-0.6 4.3q-0.2 1.1-0.9 1.7-0.7 0.5-1.6 0.5-1.3 0-1.8-0.6-0.5-0.7-0.8-1.5-1-3-1.8-5.7-0.7-2.8-2.3-4.9-1.6-2.1-4.5-3.4-2.9-1.3-8.2-1.3h-6.7v25.5q1.6-0.8 2.9-1.4 1.4-0.6 2.7-1 1.4-0.5 2.8-0.7 1.5-0.2 3.5-0.2 4.8 0 8.3 3.3 3.6 3.3 5 8.3h3.8v4.2h-23.5v-4.2h3.7q-0.2-3.2-1.5-4.6-1.3-1.4-2.5-1.4-0.7 0-2.1 0.2-1.3 0.2-3.1 0.9zm65.6 36.9v-4.2h8.3c0-2.1 0-40.8 0-43.1q0.1-3.4 0.3-8.7 1.3-3.3 3.6-6.1 2.4-2.8 5.5-4.9 3.1-2.1 6.9-3.2 3.8-1.2 8.1-1.2 5.6 0 10.2 1.4 4.7 1.4 8 4 3.4 2.6 5.2 6.3 1.9 3.7 1.9 8.3 0 3.7-1.1 7.2-1.1 3.5-3.3 6.2-2.2 2.7-5.4 4.4-3.1 1.6-7.1 1.6-1.7 0-3-0.2-1.2-0.3-2.3-0.8-1.1-0.5-2.3-1.2-1.2-0.7-2.8-1.5l-6.9 9v22.5h8.3v4.2zm23.8-32.7l6.4-8.1q0.8 0.6 1.9 1.2 1.1 0.5 1.8 0.5 0.9 0 2-0.5 1.2-0.5 2.2-1.8 1-1.4 1.6-3.8 0.7-2.5 0.7-6.4 0-2.7-0.3-5.4-0.2-2.8-1.1-5-0.9-2.3-2.6-3.7-1.6-1.5-4.4-1.5-2.9 0-4.6 1.6-1.6 1.5-2.4 4.3-0.8 2.7-1 6.6-0.2 3.9-0.2 8.5zm100.1 32.7v-4.2h5.2l-9.9-52.8h-1q-5.1 9.8-8.3 17.5-3.1 7.6-3.1 16.5 0 4.2 0.5 8.1 0.6 3.8 0.9 8.5 0.1 0.7 0.1 1.4 0 0 0 0.1 0 0 0 0.1c0 0 0 0.1 0 0.2q0 0 0 0.1 0 0 0 0.1v0.9q0 2.2-0.3 3-0.2 0.7-1.2 1.2-0.9 0.4-2.2 0.4-0.9 0-1.8-0.1-0.9-0.1-1.8-0.3-0.7-0.1-1.3-0.1-0.6-0.1-1.3-0.1-0.8 0-1.6 0.1-0.8 0-1.6 0.1-0.5 0.1-1.1 0.2-0.6 0-1.1 0-0.8 0-1.4-0.2-0.6-0.3-1.1-1-0.4-0.8-0.7-2.2-0.2-1.5-0.2-3.8 0-4.6 0.8-8.4 0.8-3.9 2.2-7.4 1.4-3.5 3.3-6.8 2-3.3 4.4-6.6 2.7-3.8 5.4-7.3 2.8-3.6 5-7 2.3-3.5 3.7-6.8 1.4-3.4 1.4-6.8 0-0.6-0.1-1.2 0-0.6-0.1-1.2h-7.4v-4.2h28.6v4.2h-5.6l12.7 58.7 11.1-58.7h-4.4v-4.2h26.9v4.2h-6.5l13.4 61.6h6.9v4.2h-26.8v-4.2h4.4l-10.3-52.8h-1l-9.8 52.8h5.3v4.2zm131.4 0v-4.2h7.6l-5.3-18.4q-0.3 0.3-0.6 0.5-1.7 1.5-3 2.2-1.3 0.7-2.2 0.9-0.9 0.2-1.5 0.2-1.5 0-2.5-0.4-1-0.5-2.2-1.3-2.6-1.7-4.1-2.4-1.4-0.7-3.3-0.7-2.1 0-3.8 0.9-0.4 0.2-0.7 0.4v0.5q0 1.9 0.4 4.4 0.4 2.4 0.7 3.6 0.3 1.1 1.7 2.4 1.4 1.2 2.5 3.8 0.2 0.4 0.2 3.1v3.3q0 1.2-1.1 1.8-1.1 0.5-2.5 0.5-0.8 0-1.7-0.1-0.9-0.1-1.7-0.3-0.7-0.1-1.4-0.1-0.6-0.1-1.3-0.1-0.8 0-1.6 0.1-0.8 0-1.6 0.1-0.5 0.1-0.9 0.1h-0.9q-2.3 0-3.1-1.3-0.7-1.4-0.7-4 0-3.4 0.5-6.5 0.5-3.1 1.8-6.9 1.4-3.9 3.2-7.9 1.9-4.1 5.6-11.3l2.4-4.7q1.2-2.3 2-4 0.9-1.8 2.3-4.2 2.2-3.7 3-5 0.9-1.4 2-4.1 1.2-2.7 1.2-4.2 0-1.9-1.2-2.2-1.1-0.3-2.2-0.3h-4.5v-4.2h31.1v4.2h-7.9l18.4 61.6h6.9v4.2zm-7.3-55.5l-2.6 3.5q-2.1 2.8-5.7 10.2-3.6 7.3-4.8 11.8-0.4 1.6-0.7 3 0.2-0.1 0.3-0.2l0.6-0.4q0.9-0.6 2.8-1.4 1.9-0.9 3.7-1.4 1.8-0.6 3.1-0.6 1.9 0 3.6 0.6 2 0.7 3.8 2 1.8 1.2 3.1 1.2 0.4 0 1-0.1zm65.2 55.5v-4.2h8.3v-61.6h-8.3v-4.2h30.7v4.2h-6.9v25.3h22.1v-25.3h-6.9v-4.2h30.7v4.2h-8.3v61.6h8.3v4.2h-30.7v-4.2h6.9v-32h-22.1v32h6.9v4.2zm100.8 0v-4.2h8.3v-61.6h-8.3v-4.2h30.7v4.2h-6.9v37.7l22.1-27.1v-10.6h-6.9v-4.2h30.7v4.2h-8.3v61.6h8.3v4.2h-30.7v-4.2h6.9v-44.3l-22.1 27v17.3h6.9v4.2zm99.1 0v-4.2h4.6q0.3-7.9 2.8-13.7 2.6-5.9 6.8-9.8 4.3-3.9 9.8-5.9 5.6-2.1 11.8-2.4v-1.5q-7.8-1-13.4-3.3-5.6-2.3-9.3-5.4-3.6-3.2-5.4-7-1.7-3.8-1.7-7.8 0-3.2 1-5 1-1.8 2.9-2.7 2-0.9 4.8-1.1 2.9-0.2 6.7-0.2h45v4.2h-8.3v61.6h8.3v4.2h-28.7v-4.2h4.9v-30.6q-3 0-6.7 1.1-3.6 1.1-6.7 4.2-3.1 3-5.2 8.6-2.1 5.5-2.1 14.5v2.2h3.9v4.2zm42.6-42.2v-23.6h-11.4q-1 0-2.3 0.2-1.3 0.1-2.5 0.8-1.2 0.6-2 1.8-0.8 1.2-0.8 3.3 0 2.7 1.2 5.8 1.2 3 3.6 5.6 2.4 2.6 5.9 4.3 3.6 1.7 8.3 1.8z"/>
		<path id="Text1" fill-rule="evenodd" class="s5" d="m36.2 95v-2.9h5.7v-41.8h-5.7v-2.9h20.9v2.9h-4.7v17.2h15v-17.2h-4.7v-2.9h20.9v2.9h-5.6v41.8h5.6v2.9h-20.9v-2.9h4.7v-21.7h-15v21.7h4.7v2.9zm84.7-25.1v22.2h4.6q3.6 0 6.1-0.9 2.5-1 4.2-2.7 1.8-1.6 2.9-3.7 1.3-2.2 2.3-4.4 0.3-0.6 0.6-1 0.3-0.4 1.2-0.4 0.6 0 1 0.4 0.5 0.3 0.7 1 0 2.8-0.7 6-0.6 3.1-0.6 6.9 0 1.6-0.7 2.1-0.8 0.5-1.6 0.5-0.6 0-1.3-0.2-0.7-0.1-1.7-0.2-1-0.2-2.2-0.2-1.1-0.2-2.4-0.2-1.2-0.1-2.3-0.1h-26.3v-2.9h5.7v-41.8h-5.7v-2.9h26.3q1.1 0 2.3-0.1 1.3 0 2.4-0.1 1.2-0.1 2.2-0.3 1-0.1 1.7-0.2 0.7-0.2 1.3-0.2 0.8 0 1.6 0.5 0.7 0.5 0.7 2.1 0 0.7-0.4 1.6-0.4 0.8-0.9 2.3-0.6 1.5-0.8 2.4-0.1 0.9-0.3 2.3l-0.4 2.9q-0.2 0.7-0.6 1.1-0.5 0.4-1.1 0.4-0.9 0-1.3-0.4-0.3-0.5-0.5-1-0.7-2.1-1.2-3.9-0.5-1.9-1.6-3.3-1.1-1.5-3-2.4-2-0.8-5.6-0.8h-4.6v17.3q1.1-0.5 2-1 0.9-0.4 1.8-0.6 1-0.4 1.9-0.5 1.1-0.1 2.4-0.1 3.3 0 5.7 2.2 2.4 2.2 3.4 5.6h2.5v2.9h-15.9v-2.9h2.5q-0.2-2.1-1-3.1-0.9-0.9-1.7-0.9-0.5 0-1.5 0.1-0.9 0.1-2.1 0.6zm64.1 26.9q-0.3 0-0.7-0.1-0.4-0.2-1.1-0.6-0.6-0.5-1.6-1.2-1-0.9-2.4-2.1-3-2.6-5.4-4.8-2.5-2.2-4.2-4.6-1.7-2.3-2.6-5.1-0.9-2.7-0.9-6.4 0-3.9 1.3-7.2 1.3-3.4 3.2-6.2 2-2.8 4.3-5 2.4-2.2 4.5-3.9 2-1.5 3.3-2.7 1.2-1.3 2.7-1.3 0.9 0 1.9 1.2 0.9 1.1 2.5 2.6 2 2 4.4 4 2.4 2 4.5 4.4 2.2 2.5 3.6 5.6 1.5 3.2 1.5 7.5 0 3.4-0.9 6-0.9 2.7-2.6 5.1-1.6 2.5-4 5-2.5 2.4-5.6 5.5-1.3 1.2-2.2 2.1-0.8 0.8-1.5 1.4-0.6 0.4-1.1 0.6-0.4 0.2-0.9 0.2zm3.4-8.7q1.7-0.7 3.3-1.8 1.6-1.2 2.7-2.5 1.3-1.4 1.9-3 0.8-1.6 0.8-3.3 0-1.6-0.8-3.2-0.6-1.6-1.9-3.2-1.3-1.7-3-3.6-1.6-1.8-3.5-3.9-2-2.1-3.2-3.5-1.1-1.3-2-2.3-0.7-0.9-1.1-1.6-0.4-0.8-0.7-1.7-2 0.3-3.6 1.4-1.6 1.1-2.6 2.6-1 1.4-1.6 3-0.4 1.7-0.4 3 0 3.1 1.9 6.1 1.9 3 4.8 6 2.5 2.7 4.1 4.3 1.6 1.5 2.6 2.7 1.1 1.1 1.7 2.1 0.5 0.9 0.6 2.4zm36.7 6.9v-2.9h5.6v-41.8h-5.6v-2.9h20.9v2.9h-4.7v17.2h15v-17.2h-4.7v-2.9h20.9v2.9h-5.6v41.8h5.6v2.9h-20.9v-2.9h4.7v-21.7h-15v21.7h4.7v2.9zm92 0v-2.9h5.1l-3.6-12.5q-0.2 0.2-0.4 0.4-1.1 1-2 1.5-0.9 0.4-1.5 0.6-0.6 0.1-1 0.1-1 0-1.7-0.3-0.7-0.3-1.5-0.8-1.8-1.2-2.8-1.7-1-0.4-2.2-0.4-1.5 0-2.6 0.6-0.3 0.1-0.5 0.2v0.4q0 1.3 0.3 3 0.2 1.6 0.4 2.4 0.2 0.8 1.2 1.6 0.9 0.9 1.7 2.6 0.1 0.3 0.1 2.1v2.3q0 0.8-0.7 1.2-0.8 0.3-1.7 0.3-0.6 0-1.2 0-0.6-0.1-1.1-0.2-0.5-0.1-1-0.1-0.4-0.1-0.9-0.1-0.5 0-1.1 0.1-0.5 0-1 0.1-0.4 0-0.7 0h-0.6q-1.5 0-2.1-0.8-0.4-1-0.4-2.8 0-2.3 0.3-4.4 0.3-2.1 1.2-4.7 1-2.6 2.2-5.3 1.3-2.8 3.8-7.7l1.6-3.2q0.8-1.6 1.4-2.7 0.6-1.3 1.6-2.9 1.5-2.5 2-3.4 0.6-1 1.4-2.8 0.8-1.8 0.8-2.8 0-1.3-0.8-1.5-0.8-0.2-1.5-0.2h-3.1v-2.9h21.1v2.9h-5.3l12.5 41.8h4.7v2.9zm-5-37.7l-1.8 2.3q-1.4 1.9-3.8 7-2.5 4.9-3.3 8-0.3 1.1-0.5 2 0.2 0 0.2-0.1l0.4-0.3q0.7-0.4 1.9-0.9 1.3-0.6 2.6-1 1.2-0.4 2.1-0.4 1.3 0 2.4 0.4 1.4 0.5 2.6 1.4 1.2 0.8 2.1 0.8 0.3 0 0.7-0.1zm44.3 37.8v-2.9h5.7v-41.9h-5.7v-2.8h20.9v2.8h-4.7v41.9h14.8v-41.9h-4.7v-2.8h20.9v2.8h-5.7v41.9h2.3q2.8 0 4.1-0.3 1.3-0.3 2.4-0.3 0.5 0 0.9 0.2 0.6 0.1 1.1 0.6 0.5 0.4 0.8 1.1 0.4 0.7 0.4 1.8 0 0.9-0.3 1.8-0.2 0.8-0.5 1.9-0.4 1-0.9 2.5-0.5 1.4-1 3.5-0.2 1.2-0.4 2.2-0.1 1.1-0.3 2.1-0.2 0.9-0.7 1.4-0.4 0.6-1.3 0.6-0.7 0-1.2-0.4-0.3-0.5-0.6-1.3-0.3-0.9-0.6-2.2-0.2-1.3-0.7-3-0.7-2.6-1.4-4.4-0.7-1.7-1.7-2.8-0.9-1.2-2.4-1.6-1.5-0.5-3.9-0.5zm72.7 0v-2.9h5.6v-41.9h-5.6v-2.8h20.9v2.8h-4.7v25.7l15-18.5v-7.2h-4.7v-2.8h20.9v2.8h-5.7v41.9h5.7v2.9h-20.9v-2.9h4.7v-30.1l-15 18.4v11.7h4.7v2.9zm96.2-18.7h-2.9v-2.8h17.8v2.8h-2.8q-0.2 4.9-2.7 8.7-2.3 3.7-5.8 6.3-3.5 2.5-7.4 3.9-3.9 1.3-7.2 1.3-1.9 0-3-0.2-1-0.2-1.9-0.6v-1.9q0-2-0.7-3.7-0.6-1.7-1.6-3.2-1-1.6-2.2-2.9-1-1.5-2.1-2.8-1.7-2.4-2.7-4.4-1.1-2-1.6-3.6-0.5-1.7-0.6-3-0.1-1.5-0.1-2.7 0-4.5 1.5-8.4 1.5-3.8 4.2-6.6 2.8-2.9 6.6-4.4 3.9-1.7 8.5-1.7 5.2 0 8.6 1.6 3.5 1.5 5.6 3.7 2.1 2.3 3.2 4.9 1 2.6 1.4 4.8h2.8v2.8h-17.8v-2.8h2.9q0-4-0.8-6.4-0.6-2.4-1.7-3.7-1.1-1.3-2.4-1.6-1.3-0.4-2.5-0.4-1.5 0-3 0.7-1.5 0.8-2.7 2.5-1.1 1.7-1.7 4.5-0.7 2.8-0.7 6.9 0 4.6 0.7 8.6 0.7 3.9 1.7 8.1 0.8 3.4 1.2 5.7 0.3 2.3 0.3 4.2 0 0.9-0.3 1.8-0.2 0.9-0.5 2 0.5 0.4 1.6 0.4 1.6 0 3.5-1.3 1.9-1.3 3.5-3.5 1.7-2.2 2.8-5.2 1-3.1 1-6.5v-1q0-0.4 0-0.9zm48.1 18.7v-2.9h5.6v-41.9h-2.9q-1.8 0-3 0.2-1.2 0.2-2.2 0.9-0.9 0.7-1.6 2.1-0.7 1.4-1.4 3.8-0.5 1.5-0.7 2.7-0.2 1.1-0.5 2-0.3 0.8-0.7 1.3-0.4 0.4-1.1 0.4-1.3 0-1.7-1.2-0.4-0.8-0.4-2.2 0-1.3-0.3-2.9-0.3-1.3-0.8-2.5-0.4-1.3-0.9-2.3-0.5-1.1-0.8-2-0.4-0.9-0.4-1.5 0-1.6 0.8-2 0.9-0.5 1.8-0.5 0.7 0 1.3 0.1 0.7 0.1 1 0.2 0.9 0.2 1.7 0.4 0.8 0 1.9 0.1 1 0.1 2.5 0.1c0 0 0.4 0 0.4 0 0 0 0.4 0 0.5 0 0 0 0.3 0 0.4 0 0 0 0.2 0 0.2 0 0 0 1.5 0 1.5 0 0 0 21.2 0 21.2 0 0 0 0.2 0 0.2 0 0.1 0 0.2 0 0.2 0 0 0 0.3 0 0.4 0q0 0 0.1 0c0 0 0.4 0 0.4 0 0 0 0.2 0 0.2 0 0 0 1.4 0 1.5 0h0.3q1.5 0 2.5-0.1 1.1-0.1 1.9-0.1 0.8-0.2 1.5-0.4 0.4-0.1 1-0.2 0.7-0.1 1.3-0.1 1 0 1.8 0.5 0.8 0.4 0.8 2 0 0.7-0.3 1.2-0.2 0.5-0.6 1.3-0.4 0.8-0.9 2.2-0.5 1.3-1 3.6-0.4 1.6-0.4 2.4-0.1 0.7-0.1 1.7 0 0.9-0.5 1.5-0.5 0.7-1.4 0.7-0.7 0-1.1-0.4-0.3-0.3-0.6-1.1-0.3-0.7-0.6-1.9-0.3-1.3-0.8-3-0.6-2.3-1.3-3.6-0.6-1.4-1.6-2.1-0.9-0.8-2.2-1-1.2-0.3-3-0.3h-3v41.9h5.7v2.9zm83.4-18.7h-2.9v-2.8h17.8v2.8h-2.8q-0.2 4.9-2.6 8.7-2.4 3.7-5.9 6.3-3.4 2.5-7.4 3.9-3.9 1.3-7.1 1.3-2 0-3-0.2-1-0.2-2-0.6v-1.9q0-2-0.7-3.7-0.6-1.7-1.6-3.2-1-1.6-2.1-2.9-1.1-1.5-2.1-2.8-1.8-2.4-2.8-4.4-1-2-1.6-3.6-0.4-1.7-0.6-3-0.1-1.5-0.1-2.7 0-4.5 1.5-8.4 1.5-3.8 4.3-6.6 2.7-2.9 6.6-4.4 3.8-1.7 8.5-1.7 5.1 0 8.5 1.6 3.5 1.5 5.6 3.7 2.2 2.3 3.2 4.9 1.1 2.6 1.4 4.8h2.8v2.8h-17.8v-2.8h2.9q0-4-0.7-6.4-0.7-2.4-1.8-3.7-1.1-1.3-2.4-1.6-1.3-0.4-2.4-0.4-1.6 0-3.1 0.7-1.5 0.8-2.6 2.5-1.1 1.7-1.8 4.5-0.7 2.8-0.7 6.9 0 4.6 0.7 8.6 0.7 3.9 1.8 8.1 0.8 3.4 1.1 5.7 0.4 2.3 0.4 4.2 0 0.9-0.3 1.8-0.2 0.9-0.6 2 0.5 0.4 1.7 0.4 1.5 0 3.4-1.3 1.9-1.3 3.6-3.5 1.6-2.2 2.7-5.2 1.1-3.1 1.1-6.5v-1q0-0.4-0.1-0.9zm35.3 18.7v-2.9h5.7v-41.9h-5.7v-2.8h20.9v2.8h-4.7v18.2h2.5l1-1.9q0.6-1.2 1.3-3.1 0.8-2 1.9-4.3 1-2.2 2.3-4.4 1.3-2.3 2.8-4.1 1.6-1.9 3.5-3 1.9-1.2 4.2-1.2 1.8 0 3.3 0.4 1.5 0.3 2.7 0.8-0.5 1.5-1 2.6-0.4 1-0.6 2-0.2 1-0.2 1.8-0.1 0.9-0.1 1.7v1.3h-1.4q-0.9-0.4-1.7-0.6-0.6-0.4-1.3-0.6-0.6-0.3-1.3-0.4-0.6-0.1-1.5-0.1-1.6 0-2.9 0.8-1.3 0.9-2.6 2.7-1.2 1.8-2.5 4.4-1.4 2.5-3.1 5.9 0.3 0.1 0.5 0.2 0.3 0 0.7 0.1 1.2 0.3 3 0.9 1.9 0.5 3.8 1.4 1.9 1 3.8 2.5 2 1.6 3.6 4 1.5 2.5 2.5 5.9 1 3.4 1.1 8h4.1v2.9h-18.5v-2.9h2.6q0.1-1.7 0.1-3.3 0-4.3-1-7.8-0.9-3.6-2.8-5.9-1.9-2.4-4.3-3.3-2.4-1-4.5-1v21.3h4.2v2.9zm88.2 0v-2.9h5.2l-3.6-12.5q-0.2 0.2-0.4 0.3-1.2 1.1-2.1 1.5-0.9 0.5-1.5 0.7-0.6 0.1-1 0.1-1 0-1.7-0.3-0.7-0.3-1.5-0.9-1.8-1.1-2.8-1.6-0.9-0.5-2.2-0.5-1.4 0-2.6 0.6-0.3 0.2-0.5 0.3v0.4q0 1.2 0.3 2.9 0.3 1.7 0.5 2.5 0.2 0.7 1.1 1.6 1 0.8 1.7 2.6 0.2 0.3 0.2 2.1v2.3q0 0.8-0.8 1.2-0.7 0.3-1.7 0.3-0.5 0-1.1 0-0.7-0.1-1.2-0.2-0.5-0.1-1-0.1-0.4-0.1-0.8-0.1-0.6 0-1.1 0.1-0.6 0-1.1 0.1-0.4 0-0.6 0h-0.6q-1.6 0-2.1-0.9-0.5-0.9-0.5-2.7 0-2.3 0.3-4.4 0.4-2.1 1.2-4.7 1-2.6 2.2-5.4 1.3-2.8 3.8-7.7l1.7-3.1q0.8-1.6 1.3-2.8 0.6-1.2 1.6-2.8 1.5-2.5 2-3.4 0.6-1 1.4-2.8 0.8-1.8 0.8-2.9 0-1.3-0.8-1.5-0.8-0.2-1.5-0.2h-3.1v-2.8h21.2v2.8h-5.4l12.5 41.9h4.7v2.9zm-5-37.8l-1.7 2.4q-1.5 1.9-3.9 7-2.4 4.9-3.3 8-0.2 1.1-0.4 2 0.1-0.1 0.2-0.1l0.4-0.3q0.6-0.4 1.9-0.9 1.3-0.7 2.5-1 1.2-0.4 2.1-0.4 1.3 0 2.4 0.4 1.4 0.5 2.6 1.4 1.3 0.8 2.1 0.8 0.3 0 0.7-0.1zm43.2 37.8v-2.9h3.1q0.2-5.4 1.9-9.3 1.8-4 4.7-6.7 2.9-2.6 6.6-4 3.8-1.4 8-1.6v-1q-5.3-0.7-9.1-2.3-3.8-1.6-6.3-3.7-2.4-2.1-3.7-4.7-1.1-2.6-1.1-5.3 0-2.2 0.7-3.4 0.6-1.3 1.9-1.9 1.4-0.6 3.3-0.7 2-0.1 4.6-0.1h30.6v2.8h-5.7v41.9h5.7v2.9h-19.6v-2.9h3.4v-20.8q-2.1 0-4.6 0.7-2.4 0.8-4.5 2.9-2.2 2-3.6 5.8-1.4 3.8-1.4 9.9v1.5h2.6v2.9zm29-28.7v-16.1h-7.7q-0.7 0-1.6 0.1-0.9 0.1-1.7 0.6-0.8 0.4-1.4 1.2-0.5 0.8-0.5 2.3 0 1.8 0.8 3.9 0.8 2 2.5 3.8 1.6 1.8 4 2.9 2.4 1.2 5.6 1.3zm-322.1 11.4zm0 0zm0 0.2zm0 0.1zm0 0zm131.5-0.3zm0 0zm0 0.2zm0 0.1zm0 0z"/>
	</g>
</svg>