<svg version="1.2" xmlns="http://www.w3.org/2000/svg" viewBox="0 0 900 600" width="900" height="600">
	<title>VseDNR3</title>
	<style>
		.s0 { fill: #de1616 } 
		.s1 { fill: #0000a2 } 
		.s2 { fill: #000000 } 
		.s3 { fill: #ffffff } 
		.s4 { fill: #d8d8d8 } 
	</style>
	<path id="Layer" class="s0" d="m0 0h900v600h-900z"/>
	<path id="Layer" class="s1" d="m0 0h900v400h-900z"/>
	<path id="Layer" class="s2" d="m0 0h900v200h-900z"/>
	<path id="Svastika" class="s3" d="m625 300l-105-105-70 70-35-35 70-70-35-35-105 105 70 70-35 35-70-70-35 35 105 105 70-70 35 35-70 70 35 35 105-105-70-70 35-35 70 70z"/>
	<g id="g1">
		<path id="q1" class="s4" d="m289 286l-7 7 98 98 70-70 49 49-77 77 7 7 84-84-63-63-70 70z"/>
		<path id="q2" class="s4" d="m464 139l-7-7-98 98 70 70-49 49-77-77-7 7 84 84 63-63-70-70z"/>
		<path id="q3" class="s4" d="m618 307l-98-98-70 70-49-49 77-77-7-7-84 84 63 63 70-70 91 91z"/>
		<path id="q4" class="s4" d="m443 468l-7-7 91-91-70-70 63-63 84 84-7 7-77-77-49 49 70 70z"/>
	</g>
	<g id="Text">
		<path id="В С Ё   Б У Д Е Т" fill-rule="evenodd" class="s3" d="m161.6 40c17.6 0 20.8 9.4 20.8 14.6 0 6.4-4.4 11.6-11.4 12.8v0.4c5.6 0.8 12.6 4.4 12.6 13.2 0 14.2-16 15-23.1 15h-32.5v-56zm-13.4 22.2h5c7.4 0 8.1-3.9 8.1-5.5 0-2.3-1.7-5.3-7.6-5.3h-5.5zm0 22.4h5.4c6.9 0 8-3.7 8-5.7 0-5.7-6.6-5.7-8.4-5.7h-5zm107.6 10.1c-6.5 1.7-11.6 2.2-15.7 2.2-21.7 0-33.4-12.1-33.4-28.9 0-14.4 9-29 34-29 6.4 0 11.1 1 13.7 1.5l1.2 0.3v14.8c-3.1-1.2-6.9-2.2-11.2-2.2-9.2 0-15.2 6-15.2 14.1 0 5.2 2.1 14.5 15.6 14.5 2 0 5.2-0.4 11-2.2zm73.1-54.7v13.2h-27.4v8.1h26.2v12.8h-26.2v8.7h28v13.2h-49.5v-56zm-27.4-15.7v12.5h-14.4v-12.5zm21.1 0v12.5h-14.4v-12.5zm119.2 15.7v14h-28.4v7.7h13.1c15.5 0 21.2 8.8 21.2 17.2 0 7.6-4.4 17.1-23.2 17.1h-32.5v-56zm-29 44.6h6.3c4 0 6.6-2.6 6.6-5.9 0-2.9-2.2-5.9-7-5.9h-5.9zm79.6-44.7l7.9 24.3h0.3l7.7-24.3h21.1l-17.9 42.4c-2.5 6-6.9 14.6-20.7 14.6-3.8 0-9.7-0.7-14.5-1.9v-14.2c3.5 1.1 5.6 1.3 7.2 1.3 1.4 0 3.9-0.2 3.9-2.1 0-0.5 0-1.4-1.3-3.9l-18.1-36.2zm117.9 0v41.1h6v27.3h-21.5v-12.4h-24.9v12.4h-21.4v-27.3h4.3c7.6-7.6 7.7-16.3 7.7-23.1v-18zm-31 14.4v6.8c0 7.5-0.8 13.7-5.5 19.9h15.1v-26.7zm110-14.4v13.2h-27.5v8.1h26.3v12.8h-26.3v8.7h28v13.2h-49.4v-56zm81.7 0v16.6h-18.8v39.4h-21.5v-39.4h-18.9v-16.6z"/>
		<path id="Р У С С К И Й   М И Р!" fill-rule="evenodd" class="s3" d="m64.5 507.8c16 0 23 9.3 23 19.1 0 8.5-6 18.7-22.6 18.7h-11.2v15.4h-20.4v-53.2zm-11.3 25.5h4.5c2.4 0 9.4-0.1 9.4-6.6 0-3.1-1.7-6.6-9.5-6.6h-4.4zm76.4-25.5l7.4 23h0.4l7.2-23h20.1l-16.9 40.2c-2.5 5.7-6.6 13.9-19.7 13.9-3.7 0-9.3-0.7-13.8-1.8v-13.5c3.3 1 5.3 1.2 6.9 1.2 1.3 0 3.6-0.1 3.6-1.9 0-0.5 0-1.4-1.2-3.8l-17.2-34.3zm100 52c-6.2 1.6-11.1 2.1-14.9 2.1-20.6 0-31.8-11.5-31.8-27.5 0-13.7 8.6-27.5 32.3-27.5 6.1 0 10.6 1 13 1.4l1.2 0.2v14.1c-3-1.1-6.6-2.1-10.7-2.1-8.7 0-14.4 5.7-14.4 13.4 0 5 2 13.8 14.8 13.8 1.9 0 5-0.3 10.5-2.1zm67.4 0c-6.2 1.7-11 2.2-14.9 2.2-20.6 0-31.8-11.5-31.8-27.6 0-13.6 8.6-27.5 32.3-27.5 6.1 0 10.6 1 13 1.5l1.2 0.2v14.1c-2.9-1.2-6.6-2.1-10.7-2.1-8.7 0-14.4 5.7-14.4 13.4 0 4.9 2 13.7 14.8 13.7 2 0 5-0.3 10.5-2zm43.4-31.1h0.3l12.5-20.9h23.2l-17.9 24.9 19.6 28.3h-24.4l-13-22.6h-0.3v22.6h-20.4v-53.2h20.4zm79.2-20.9v30.4h0.3l13.4-30.4h23.8v53.2h-20.4v-29.8h-0.3l-13.4 29.8h-23.8v-53.2zm83.2 0v30.4h0.3l13.5-30.4h23.8v53.2h-20.4v-29.8h-0.3l-13.5 29.8h-23.8v-53.2zm26.1-15.2c-1.7 11.2-14.3 11.6-17.5 11.6-3.2 0-15.8-0.4-17.4-11.6l9.3-2c0.2 4.4 6.2 4.7 8.1 4.7 2 0 8-0.3 8.2-4.7zm72.2 15.2h30.1l7 29.1h0.3l6.6-29.1h30.1v53.2h-18.2v-41.8h-0.5l-10.4 41.8h-17l-10.2-41.8h-0.5v41.8h-17.3zm119.8 0v30.4h0.3l13.5-30.4h23.8v53.2h-20.4v-29.8h-0.3l-13.5 29.8h-23.8v-53.2zm94.1 0c16 0 23 9.4 23 19.1 0 8.5-6.1 18.8-22.7 18.8h-11.1v15.3h-20.4v-53.2zm-11.3 25.6h4.5c2.4 0 9.3-0.2 9.3-6.6 0-3.2-1.7-6.7-9.4-6.7h-4.4zm62.9-25.5l-3 33.5h-14.4l-3-33.5zm-1.9 39v14.2h-16.5v-14.2z"/>
	</g>
</svg>