<?xml version="1.0" encoding="UTF-8" standalone="no"?>
<svg
   version="1.2"
   viewBox="0 0 1200 600"
   width="1200"
   height="600"
   id="svg1"
   sodipodi:docname="Besermenia4.svg"
   inkscape:version="1.3 (0e150ed6c4, 2023-07-21)"
   xmlns:inkscape="http://www.inkscape.org/namespaces/inkscape"
   xmlns:sodipodi="http://sodipodi.sourceforge.net/DTD/sodipodi-0.dtd"
   xmlns="http://www.w3.org/2000/svg"
   xmlns:svg="http://www.w3.org/2000/svg"
   xmlns:rdf="http://www.w3.org/1999/02/22-rdf-syntax-ns#"
   xmlns:cc="http://creativecommons.org/ns#"
   xmlns:dc="http://purl.org/dc/elements/1.1/">
  <defs
     id="defs1" />
  <sodipodi:namedview
     id="namedview1"
     pagecolor="#ffffff"
     bordercolor="#000000"
     borderopacity="0.25"
     inkscape:showpageshadow="2"
     inkscape:pageopacity="0.0"
     inkscape:pagecheckerboard="0"
     inkscape:deskcolor="#d1d1d1"
     inkscape:zoom="0.59220193"
     inkscape:cx="657.71484"
     inkscape:cy="397.66841"
     inkscape:window-width="1920"
     inkscape:window-height="1009"
     inkscape:window-x="-8"
     inkscape:window-y="-8"
     inkscape:window-maximized="1"
     inkscape:current-layer="Icon" />
  <title
     id="title1">Besermenia4</title>
  <style
     id="style1">&#10;		.s0 { fill: #4f00b5 } &#10;		.s1 { fill: #ffffff } &#10;	</style>
  <path
     id="Layer"
     class="s0"
     d="m0 0h1200v600h-1200z" />
  <g
     id="Icon"
     inkscape:label="Text">
    <path
       style="font-size:96px;font-family:'Gotham Text';-inkscape-font-specification:'Gotham Text';text-align:center;letter-spacing:30px;word-spacing:20px;text-anchor:middle;display:inline;fill:#ffffff;stroke-width:10"
       d="m 189.536,414.42744 v -67.2 H 224 q 12.192,0 18.336,5.952 4.32,4.512 4.32,10.944 v 0.192 q 0,10.56 -10.368,14.976 6.528,2.112 9.888,6.048 3.456,3.84 3.456,10.368 v 0.192 q 0,8.736 -6.72,13.632 -6.624,4.896 -18.72,4.896 z m 38.784,-46.272 v -0.192 q 0,-5.76 -8.448,-5.76 H 207.68 v 11.808 h 11.712 q 8.928,0 8.928,-5.856 z m 2.688,25.152 v -0.192 q 0,-6.048 -9.12,-6.048 H 207.68 v 12.384 h 14.4 q 8.928,0 8.928,-6.144 z m 89.61602,22.464 q -14.496,0 -24.576,-9.888 -10.08,-9.984 -10.08,-24.864 v -0.192 q 0,-14.784 10.08,-24.864 10.08,-10.08 25.248,-10.08 18.528,0 28.512,13.92 l -14.016,10.848 q -6.432,-7.872 -14.688,-7.872 -6.912,0 -11.52,5.184 -4.512,5.184 -4.512,12.672 v 0.192 q 0,7.68 4.512,12.864 4.512,5.088 11.52,5.088 4.896,0 8.256,-2.016 3.456,-2.016 6.912,-6.144 l 14.016,9.984 q -5.376,7.296 -12.384,11.232 -6.912,3.936 -17.28,3.936 z m 97.58409,-73.152 v -13.248 h 15.84 v 13.248 z m -21.216,0 v -13.248 h 15.84 v 13.248 z m -8.64,71.808 v -67.2 h 54.048 v 15.744 h -35.616 v 10.272 h 32.256 v 14.688 h -32.256 v 10.656 h 36.096 v 15.84 z m 172.92785,0 v -67.2 h 53.088 v 15.552 h -34.944 v 9.888 h 15.36 q 12.192,0 18.624,5.184 6.432,5.184 6.432,14.784 v 0.192 q 0,10.08 -6.72,15.84 -6.624,5.76 -19.58399,5.76 z m 18.144,-14.88 h 13.248 q 4.12801,0 6.33601,-1.632 2.30399,-1.728 2.30399,-4.704 v -0.192 q 0,-6.048 -8.832,-6.048 h -13.056 z m 105.84003,14.88 h -20.832 l 12.864,-22.656 -25.92,-44.544 h 21.216 l 14.976,27.072 14.016,-27.072 h 20.832 z m 56.88,-16.512 h 8.256 l 21.984,-51.168 h 20.448 l 21.888,51.168 h 8.352 v 31.008 h -17.28 v -14.496 h -46.464 v 14.496 h -17.184 z m 40.224,-32.16 -12.96,32.832 h 25.92 z m 78.76805,48.672 v -67.2 h 54.048 v 15.744 h -35.616 v 10.272 h 32.256 v 14.688 h -32.256 v 10.656 h 36.096 v 15.84 z m 110.54394,0 v -50.88 h -20.064 v -16.32 h 58.84802 v 16.32 h -20.16002 v 50.88 z"
       id="text1"
       aria-label="ВСЁ БУДЕТ" />
    <path
       d="m 83.080014,529.32368 v -78.4 h 61.935996 v 18.144 h -40.768 v 11.536 h 17.92 q 14.224,0 21.728,6.048 7.504,6.048 7.504,17.248 v 0.224 q 0,11.76 -7.84,18.48 -7.728,6.72 -22.848,6.72 z m 21.167996,-17.36 h 15.456 q 4.816,0 7.392,-1.904 2.688,-2.016 2.688,-5.488 v -0.224 q 0,-7.056 -10.304,-7.056 h -15.232 z m 77.23209,17.36 v -78.4 h 63.056 v 18.368 h -41.552 v 11.984 h 37.632 v 17.136 h -37.632 v 12.432 h 42.112 v 18.48 z m 121.69601,16.912 0.672,-16.464 q -13.552,-3.248 -22.176,-13.888 -8.512,-10.752 -8.512,-25.536 v -0.224 q 0,-17.248 11.76,-29.008 11.76,-11.76 29.456,-11.76 21.616,0 33.264,16.24 l -16.352,12.656 q -7.504,-9.184 -17.136,-9.184 -8.064,0 -13.44,6.048 -5.264,6.048 -5.264,14.784 v 0.224 q 0,8.96 5.264,15.008 5.264,5.936 13.44,5.936 5.712,0 9.632,-2.352 4.032,-2.352 8.064,-7.168 l 16.352,11.648 q -10.192,14.112 -25.2,16.8 l 0.672,16.24 z m 74.4321,-16.912 v -78.4 h 63.056 v 18.368 h -41.552 v 11.984 h 37.632 v 17.136 h -37.632 v 12.432 h 42.112 v 18.48 z m 94.81592,0 v -78.4 h 33.712 q 14.896,0 23.632,7.28 8.848,7.28 8.848,20.16 v 0.224 q 0,13.552 -9.296,20.944 -9.296,7.392 -24.304,7.392 h -10.864 v 22.4 z m 21.728,-39.424 h 10.416 q 5.712,0 9.072,-2.8 3.36,-2.8 3.36,-7.504 v -0.224 q 0,-4.928 -3.36,-7.504 -3.248,-2.688 -9.184,-2.688 h -10.304 z m 73.64804,39.424 v -78.4 h 22.96 l 18.704,30.352 18.704,-30.352 h 22.96 v 78.4 h -21.616 v -45.024 l -20.048,30.688 h -0.448 l -19.936,-30.576 v 44.912 z m 117.216,0 v -78.4 h 63.056 v 18.368 h -41.552 v 11.984 h 37.632 v 17.136 h -37.632 v 12.432 h 42.112 v 18.48 z m 94.81592,0 v -78.4 h 21.728 v 29.344 h 27.888 v -29.344 h 21.728 v 78.4 h -21.728 v -29.792 h -27.888 v 29.792 z m 179.26393,0 h -21.728 v -44.688 l -33.376,44.688 h -18.928 v -78.4 h 21.728 v 43.008 l 32.256,-43.008 h 20.048 z m 100.64018,-78.4 v 78.4 h -21.728 v -23.744 h -9.408 l -15.904,23.744 h -25.20014 l 18.92814,-27.328 q -7.95214,-3.248 -12.09614,-9.296 -4.144,-6.16 -4.144,-14.224 v -0.112 q 0,-13.328 9.184,-20.384 9.18414,-7.056 24.97614,-7.056 z m -21.728,18.704 h -14.224 q -5.6,0 -8.736,2.464 -3.024,2.464 -3.024,7.056 v 0.112 q 0,4.48 3.024,6.944 3.136,2.352 8.624,2.352 h 14.336 z m 61.3278,34.16 -6.608,-43.344 v -9.52 h 24.192 v 9.52 l -6.496,43.344 z m -5.488,25.536 v -19.04 h 22.064 v 19.04 z"
       id="text2"
       style="font-size:112px;font-family:'Gotham Text';-inkscape-font-specification:'Gotham Text';text-align:center;letter-spacing:20px;word-spacing:30px;text-anchor:middle;fill:#ffffff;stroke-width:10"
       aria-label="БЕҪЕРМЕНИЯ!" />
  </g>
  <path
     id="Sovet"
     fill-rule="evenodd"
     class="s1"
     d="m138.2 26l-8.6 28.8h-31l24.1 18.4-8.6 28.8 24.1-18.4 25.2 18.4-9.7-28.8 24.8-18.4h-30.6zm0 14.4l6.8 19.1h19.1l-15.1 11.5 5.8 18.4-16.6-11.6-15.5 11.6 5.8-18.4-15.1-11.5h19zm42.4 154.1q1.1 1.1 3.3 1.8 2.1 0.7 4.7 0.7 3.6 0 7.5-1.8 1.1-0.7 1.8-1.1 1.1-0.3 4-2.5 2.9-2.1 8.6-6.8 6.1-4.7 17.7-13.3 11.1-8.7 17.2-13.7 6.5-5.1 9.8-7.6 3.2-2.9 3.9-3.6 1.1-1.1 1.8-2.1 1.5-2.6 1.5-4.7 0-0.7-0.8-1.8-0.3-1.1-3.9-6.1-3.6-5.1-5.1-6.5-1-1.8-1.8-2.2-1.4 0-2.5 1.1l-0.3 0.7 3.9 6.5q1.8 2.9 2.9 5l1.4 2.9q0.4 0.7 0.4 1.5 0 1.8-1.8 2.5-0.4 0.3-11.2 8.6-10.8 7.9-36.7 28.5-1.8 1.4-3.2 2.8-1.5 1.1-2.2 1.5-7.9 5.4-12.6 5.4-1.8 0-2.9-0.7l-1-0.8 1-1q0.4-0.4 2.6-2.9 2.5-2.5 6.4-6.5 4-4.3 9-9.7 5.4-5.4 11.2-11.5 11.5-11.9 17.3-18 6.1-6.5 8.6-9.4 2.9-2.9 3.3-3.6 0.3-1.1 0.7-2.2 0.7-1.8 0.7-3.2 0-2.2-1.1-4-0.7-1.4-3.6-4.6-2.5-3.6-6.5-8.3-2.5-2.9-2.8-3.3 0-0.3-0.8-0.3-0.3 0-1.4 0.3-1.8 0.4-1.8 1.8v0.8q0 0.7 1.4 3.2 1.8 2.2 4 5 4.3 5.8 4.7 6.9 0.3 0.7 0.3 1.4 0 0.7-0.3 1.8-0.4 1.1-0.7 1.8-0.4 0.7-2.6 3.3-1.8 2.1-6.1 6.4l-13.3 13.4q-8.6 8.6-16.2 16.5l-17.6 18 0.3-1.4q0.7-2.5 1.5-4.7 1-2.2 4.3-7.6 1.1-1.8 3.6-6.4 2.9-5.1 6.1-10.8 3.6-6.2 6.8-11.9 3.3-5.8 5.4-9.4 4.7-7.5 7.2-11.5 2.6-4.3 3.6-6.5l2.2-4.3q0.7-1.4 0.7-3.6 0-2.9-2.1-5.8-0.4-0.7-2.9-3.2-2.5-2.9-6.1-6.1l-8-7.9-1-0.4q-1.1-0.4-1.8-0.4-0.4 0-0.8 0.4-0.3 0.4-0.3 0.7 0.3 0.4 0.3 0.7 0 0.4 0.4 0.8 0.7 0.7 1.1 1.4 0.7 0.7 1.4 1.4 1.1 1.5 3.3 4.4 2.5 2.5 4.3 5 2.9 4 5 6.1 0.4 0.4 0.4 1.1v1.4q0 1.8-1.5 4.4-1.4 2.1-4.6 7.5-4.4 7.6-10.5 18.7-6.1 10.8-13.3 23.8-2.9 6.1-6.1 11.9-3.3 5.4-4.3 7.5-0.8 1.8-1.5 4-0.3 1.1-0.3 2.2 0 0.7 0 1.8c0.2 0.7 0.8 2.5 1 3.2l-15.3 15.9-37.2-35 27-26.6-36.4-5.1-42.5 41.4 21.3 21.3 19.1-19.5 35.5 37.1-5.7 5.8-1.4-0.4q-2.2-1.1-3.6-1.1-1.1 0-1.4 0.8l-1.1 1q-1.1 1.1-2.5 2.2l-2.9 2.9h-1.8q-2.9 0-5.4 1.4-1.5 0.7-3.3 4-1.4 2.9-5.4 8.3l-4.3 4.3q-2.5 2.5-11.1 10.8-11.9 11.5-19.8 19.4-8 7.6-15.2 15.1-8.2 8.3-10.8 11.2-2.5 2.9-3.9 5.4-1.8 2.9-1.8 5.8 0 3.2 2.1 6.4 4.4 6.2 9.8 6.2 4.6 0 9.7-4 0.7-0.7 2.5-2.2 1.8-1.8 4-3.6 4.6-4.3 11.8-11.5 7.2-7.5 14.8-16.2 8.6-9.7 14-15.5 5.8-6.1 9-9.3 3.3-3.6 4.7-5.1 1.8-1.8 2.9-2.5 0.7-0.7 1.8-1.1 1.4-0.7 2.5-1.4 2.9-1.8 4-2.5 1.4-0.7 2.1-1.8 1.1-2.2 1.8-7.2 0-1.1-0.7-1.8l-0.3-0.4 1-1.1q0.4-0.3 1.1-1 1.1-0.8 1.8-1.5l2.2-2.1q0.7-0.8 0.7-2.6 0-1-1.1-2.5l-0.7-0.7 5.6-5.9 50.2 52.3q4 2.9 8.6 2.9 5.1 0 8-2.9 3.6-3.6 3.6-7.9 0-4.7-3.6-8.3l-53.3-50.1 14-14.7z" />
  <metadata
     id="metadata2">
    <rdf:RDF>
      <cc:Work
         rdf:about="">
        <dc:title>Besermenia4</dc:title>
      </cc:Work>
    </rdf:RDF>
  </metadata>
</svg>
