<!-- painting by inkscape & www.photopea.com 26/01/2023 -->
<svg width="1200" height="600" xmlns="http://www.w3.org/2000/svg">
  <title>Besermenia Republik</title>
<rect width="1200" height="600" style="fill:rgb(79, 0, 181)"/>
  <g id="Icon" style="fill:rgb(255,255,255)">
    <path id="Sovet" d="m147.9 54.8h30.6l-24.8 18.4 9.7 28.8-25.2-18.4-24.1 18.4 8.6-28.8-24.1-18.4h31l8.6-28.8zm-15.5 4.7h-19l15.1 11.5-5.8 18.4 15.5-11.6 16.6 11.6-5.8-18.4 15.1-11.5h-19.1l-6.8-19.1zm47.5 134.6l-14 14.7 53.3 50.1q3.6 3.6 3.6 8.3 0 4.3-3.6 7.9-2.9 2.9-8 2.9-4.6 0-8.6-2.9l-50.2-52.3-5.6 5.9 0.7 0.7q1.1 1.5 1.1 2.5 0 1.8-0.7 2.6l-2.2 2.1q-0.7 0.7-1.8 1.5-0.7 0.7-1.1 1l-1 1.1 0.3 0.4q0.7 0.7 0.7 1.8-0.7 5-1.8 7.2-0.7 1.1-2.1 1.8-1.1 0.7-4 2.5-1.1 0.7-2.5 1.4-1.1 0.4-1.8 1.1-1.1 0.7-2.9 2.5-1.4 1.5-4.7 5.1-3.2 3.2-9 9.3-5.4 5.8-14 15.5-7.6 8.7-14.8 16.2-7.2 7.2-11.8 11.5-2.2 1.8-4 3.6-1.8 1.5-2.5 2.2-5.1 4-9.7 4-5.4 0-9.8-6.2-2.1-3.2-2.1-6.4 0-2.9 1.8-5.8 1.4-2.5 3.9-5.4 2.6-2.9 10.8-11.2 7.2-7.5 15.2-15.1 7.9-7.9 19.8-19.4 8.6-8.3 11.1-10.8l4.3-4.3q4-5.4 5.4-8.3 1.8-3.3 3.3-4 2.5-1.4 5.4-1.4h1.8l2.9-2.9q1.4-1.1 2.5-2.2l1.1-1q0.3-0.8 1.4-0.8 1.4 0 3.6 1.1l1.4 0.4 5.7-5.8-35.5-37.1-19.1 19.5-21.3-21.3 42.5-41.4 36.4 5.1-27 26.6 37.2 35 15.3-15.9c-0.2-0.7-0.8-2.5-1-3.2q0-1.1 0-1.8 0-1.1 0.3-2.2 0.7-2.2 1.5-4 1-2.1 4.3-7.5 3.2-5.8 6.1-11.9 7.2-13 13.3-23.8 6.1-11.1 10.5-18.7 3.2-5.4 4.6-7.5 1.5-2.6 1.5-4.4v-1.4q0-0.7-0.4-1.1-2.1-2.1-5-6.1-1.8-2.5-4.3-5-2.2-2.9-3.3-4.4-0.7-0.7-1.4-1.4-0.4-0.7-1.1-1.4-0.4-0.4-0.4-0.8 0-0.3-0.3-0.7 0-0.3 0.3-0.7 0.4-0.4 0.8-0.4 0.7 0 1.8 0.4l1 0.4 8 7.9q3.6 3.2 6.1 6.1 2.5 2.5 2.9 3.2 2.1 2.9 2.1 5.8 0 2.2-0.7 3.6l-2.2 4.3q-1 2.2-3.6 6.5-2.5 4-7.2 11.5-2.1 3.6-5.4 9.4-3.2 5.7-6.8 11.9-3.2 5.7-6.1 10.8-2.5 4.6-3.6 6.4-3.3 5.4-4.3 7.6-0.8 2.2-1.5 4.7l-0.3 1.4 17.6-18q7.6-7.9 16.2-16.5l13.3-13.4q4.3-4.3 6.1-6.4 2.2-2.6 2.6-3.3 0.3-0.7 0.7-1.8 0.3-1.1 0.3-1.8 0-0.7-0.3-1.4-0.4-1.1-4.7-6.9-2.2-2.8-4-5-1.4-2.5-1.4-3.2v-0.8q0-1.4 1.8-1.8 1.1-0.3 1.4-0.3 0.8 0 0.8 0.3 0.3 0.4 2.8 3.3 4 4.7 6.5 8.3 2.9 3.2 3.6 4.6 1.1 1.8 1.1 4 0 1.4-0.7 3.2-0.4 1.1-0.7 2.2-0.4 0.7-3.3 3.6-2.5 2.9-8.6 9.4-5.8 6.1-17.3 18-5.8 6.1-11.2 11.5-5 5.4-9 9.7-3.9 4-6.4 6.5-2.2 2.5-2.6 2.9l-1 1 1 0.8q1.1 0.7 2.9 0.7 4.7 0 12.6-5.4 0.7-0.4 2.2-1.5 1.4-1.4 3.2-2.8 25.9-20.6 36.7-28.5 10.8-8.3 11.2-8.6 1.8-0.7 1.8-2.5 0-0.8-0.4-1.5l-1.4-2.9q-1.1-2.1-2.9-5l-3.9-6.5 0.3-0.7q1.1-1.1 2.5-1.1 0.8 0.4 1.8 2.2 1.5 1.4 5.1 6.5 3.6 5 3.9 6.1 0.8 1.1 0.8 1.8 0 2.1-1.5 4.7-0.7 1-1.8 2.1-0.7 0.7-3.9 3.6-3.3 2.5-9.8 7.6-6.1 5-17.2 13.7-11.6 8.6-17.7 13.3-5.7 4.7-8.6 6.8-2.9 2.2-4 2.5-0.7 0.4-1.8 1.1-3.9 1.8-7.5 1.8-2.6 0-4.7-0.7-2.2-0.7-3.3-1.8z" />
    <path id="Text1" d="m 205.6,355.7 c 18.7,0 26.9,10.9 26.9,22.3 0,10 -7.1,22 -26.5,22 h -13.1 v 18 h -23.8 v -62.3 z m -13.3,29.9 h 5.3 c 2.8,0 10.9,-0.2 10.9,-7.7 0,-3.7 -1.9,-7.8 -11,-7.8 h -5.2 z m 122.4,-29.9 v 14.7 h -30.5 v 9 h 29.2 v 14.2 h -29.2 v 9.7 h 31.1 V 418 h -55 v -62.3 z m 80.6,60.9 c -7.2,1.9 -12.9,2.5 -17.4,2.5 -24.1,0 -37.2,-13.5 -37.2,-32.2 0,-16.1 10.1,-32.3 37.8,-32.3 7.1,0 12.4,1.2 15.2,1.7 l 1.5,0.3 v 16.5 c -3.5,-1.4 -7.8,-2.4 -12.6,-2.4 -10.1,0 -16.8,6.6 -16.8,15.6 0,5.8 2.3,16.1 17.3,16.1 2.3,0 5.8,-0.3 12.2,-2.4 z m 90.3,-60.8 v 62.3 h -23.9 v -45.4 h -15.5 v 45.4 h -23.9 v -62.3 z m 51.1,0 8.7,26.9 h 0.4 l 8.5,-26.9 h 23.5 l -19.8,47 c -2.9,6.7 -7.8,16.3 -23.1,16.3 -4.3,0 -10.8,-0.8 -16.1,-2.1 v -15.8 c 3.8,1.2 6.2,1.5 8,1.5 1.5,0 4.3,-0.2 4.3,-2.4 0,-0.5 0,-1.6 -1.4,-4.3 l -20.1,-40.2 z m 120.5,0 v 15.5 h -31.6 v 8.7 h 14.5 c 17.2,0 23.6,9.7 23.6,19 0,8.6 -4.8,19.1 -25.8,19.1 H 601.7 V 355.8 Z M 625,405.4 h 6.9 c 4.6,0 7.4,-2.9 7.4,-6.6 0,-3.2 -2.5,-6.6 -7.8,-6.6 H 625 Z m 115.3,-49.6 22.1,62.3 h -25.1 l -13.4,-47.5 h -0.3 l -13.4,47.5 h -23.9 l 21.8,-62.3 z m 69.9,0 v 35.6 h 0.4 l 15.8,-35.6 h 27.8 v 62.3 H 830.4 V 383.2 H 830 l -15.8,34.9 h -27.8 v -62.3 z m 97.4,24.5 h 0.4 l 14.7,-24.5 h 27.1 l -21,29.2 23,33.1 H 923.3 L 908,391.7 h -0.4 v 26.4 h -23.8 v -62.3 h 23.8 z m 117.1,-24.5 22.1,62.3 h -25.1 l -4.2,-13.4 h -18.7 l -4.2,13.4 h -23.9 l 21.9,-62.3 z m -16.8,14.8 -6.4,19.5 h 13.3 l -6.5,-19.5 z"/>
    <path id="Text2" d="m113 450.9v19.8h-40.1v10.9h18.4c21.9 0 29.9 12.4 29.9 24.2 0 10.9-6.1 24.2-32.6 24.2h-46v-79.1zm-40.9 63.1h8.8c5.7 0 9.4-3.8 9.4-8.4 0-4.1-3.2-8.4-10-8.4h-8.2zm154.2-63v18.6h-38.7v11.4h37v18.1h-37v12.3h39.5v18.7h-69.8v-79.1zm61.8 78.1c-18.9-5.6-28.8-20-28.8-38.6 0-20.3 12.7-40.9 48-40.9 9 0 15.7 1.5 19.3 2.2l1.8 0.3v20.9c-4.4-1.7-9.8-3-15.9-3-12.9 0-21.4 8.4-21.4 19.8 0 7.4 3 20.5 22 20.5 2.9 0 7.4-0.5 15.5-3v21c-3.7 1-7.2 1.7-10.2 2.1v17.2h-30.3zm143.8-78.1v18.7h-38.7v11.4h37v18h-37v12.4h39.5v18.6h-69.8v-79.1zm82.7 0c23.8 0 34.2 13.9 34.2 28.4 0 12.6-9 27.9-33.6 27.9h-16.6v22.8h-30.3v-79.1zm-16.9 38h6.7c3.6 0 13.9-0.2 13.9-9.9 0-4.6-2.5-9.8-14-9.8h-6.6zm86.4-38h44.8l10.3 43.3h0.6l9.8-43.3h44.8v79.1h-27.2v-62.1h-0.6l-15.6 62.1h-25.2l-15.2-62.1h-0.8v62.1h-25.7zm216.9 0v18.7h-38.7v11.4h37v18.1h-37v12.3h39.5v18.6h-69.8v-79.1zm86.9 0h30.3v79.1h-30.3v-29.1h-20.2v29.1h-30.3v-79.1h30.3v27.4h20.2zm98.2 0v45.2h0.4l20-45.2h35.4v79.1h-30.3v-44.3h-0.4l-20 44.3h-35.4v-79.1zm171.2 79.1h-30.3v-27.6h-6.8c-3.3 0-8.8 0.9-9.8 7.8l-2.9 19.8h-31.7l5.2-22.9c2.4-10.7 10.3-13.7 15.6-14.5v-0.2c-10.3-1.7-18.5-8.9-18.5-20.4 0-20 20.7-21.1 31.8-21.1h47.4zm-36.9-61.5c-3.3 0-11.8 0.2-11.8 8.3 0 8.8 9.6 8.7 12.3 8.7h7.5v-17z" />
  </g>
</svg>
