<svg version="1.2" xmlns="http://www.w3.org/2000/svg" viewBox="0 0 1200 600" width="1200" height="600">
	<title>Besermenia3</title>
	<style>
		.s0 { fill: #4f00b5 } 
		.s1 { fill: #ffffff } 
	</style>
	<path id="Layer" class="s0" d="m0 0h1200v600h-1200z"/>
	<g id="Icon">
		<path id="Sovet" fill-rule="evenodd" class="s1" d="m138.2 26l-8.6 28.8h-31l24.1 18.4-8.6 28.8 24.1-18.4 25.2 18.4-9.7-28.8 24.8-18.4h-30.6zm0 14.4l6.8 19.1h19.1l-15.1 11.5 5.8 18.4-16.6-11.6-15.5 11.6 5.8-18.4-15.1-11.5h19zm42.4 154.1q1.1 1.1 3.3 1.8 2.1 0.7 4.7 0.7 3.6 0 7.5-1.8 1.1-0.7 1.8-1.1 1.1-0.3 4-2.5 2.9-2.1 8.6-6.8 6.1-4.7 17.7-13.3 11.1-8.7 17.2-13.7 6.5-5.1 9.8-7.6 3.2-2.9 3.9-3.6 1.1-1.1 1.8-2.1 1.5-2.6 1.5-4.7 0-0.7-0.8-1.8-0.3-1.1-3.9-6.1-3.6-5.1-5.1-6.5-1-1.8-1.8-2.2-1.4 0-2.5 1.1l-0.3 0.7 3.9 6.5q1.8 2.9 2.9 5l1.4 2.9q0.4 0.7 0.4 1.5 0 1.8-1.8 2.5-0.4 0.3-11.2 8.6-10.8 7.9-36.7 28.5-1.8 1.4-3.2 2.8-1.5 1.1-2.2 1.5-7.9 5.4-12.6 5.4-1.8 0-2.9-0.7l-1-0.8 1-1q0.4-0.4 2.6-2.9 2.5-2.5 6.4-6.5 4-4.3 9-9.7 5.4-5.4 11.2-11.5 11.5-11.9 17.3-18 6.1-6.5 8.6-9.4 2.9-2.9 3.3-3.6 0.3-1.1 0.7-2.2 0.7-1.8 0.7-3.2 0-2.2-1.1-4-0.7-1.4-3.6-4.6-2.5-3.6-6.5-8.3-2.5-2.9-2.8-3.3 0-0.3-0.8-0.3-0.3 0-1.4 0.3-1.8 0.4-1.8 1.8v0.8q0 0.7 1.4 3.2 1.8 2.2 4 5 4.3 5.8 4.7 6.9 0.3 0.7 0.3 1.4 0 0.7-0.3 1.8-0.4 1.1-0.7 1.8-0.4 0.7-2.6 3.3-1.8 2.1-6.1 6.4l-13.3 13.4q-8.6 8.6-16.2 16.5l-17.6 18 0.3-1.4q0.7-2.5 1.5-4.7 1-2.2 4.3-7.6 1.1-1.8 3.6-6.4 2.9-5.1 6.1-10.8 3.6-6.2 6.8-11.9 3.3-5.8 5.4-9.4 4.7-7.5 7.2-11.5 2.6-4.3 3.6-6.5l2.2-4.3q0.7-1.4 0.7-3.6 0-2.9-2.1-5.8-0.4-0.7-2.9-3.2-2.5-2.9-6.1-6.1l-8-7.9-1-0.4q-1.1-0.4-1.8-0.4-0.4 0-0.8 0.4-0.3 0.4-0.3 0.7 0.3 0.4 0.3 0.7 0 0.4 0.4 0.8 0.7 0.7 1.1 1.4 0.7 0.7 1.4 1.4 1.1 1.5 3.3 4.4 2.5 2.5 4.3 5 2.9 4 5 6.1 0.4 0.4 0.4 1.1v1.4q0 1.8-1.5 4.4-1.4 2.1-4.6 7.5-4.4 7.6-10.5 18.7-6.1 10.8-13.3 23.8-2.9 6.1-6.1 11.9-3.3 5.4-4.3 7.5-0.8 1.8-1.5 4-0.3 1.1-0.3 2.2 0 0.7 0 1.8c0.2 0.7 0.8 2.5 1 3.2l-15.3 15.9-37.2-35 27-26.6-36.4-5.1-42.5 41.4 21.3 21.3 19.1-19.5 35.5 37.1-5.7 5.8-1.4-0.4q-2.2-1.1-3.6-1.1-1.1 0-1.4 0.8l-1.1 1q-1.1 1.1-2.5 2.2l-2.9 2.9h-1.8q-2.9 0-5.4 1.4-1.5 0.7-3.3 4-1.4 2.9-5.4 8.3l-4.3 4.3q-2.5 2.5-11.1 10.8-11.9 11.5-19.8 19.4-8 7.6-15.2 15.1-8.2 8.3-10.8 11.2-2.5 2.9-3.9 5.4-1.8 2.9-1.8 5.8 0 3.2 2.1 6.4 4.4 6.2 9.8 6.2 4.6 0 9.7-4 0.7-0.7 2.5-2.2 1.8-1.8 4-3.6 4.6-4.3 11.8-11.5 7.2-7.5 14.8-16.2 8.6-9.7 14-15.5 5.8-6.1 9-9.3 3.3-3.6 4.7-5.1 1.8-1.8 2.9-2.5 0.7-0.7 1.8-1.1 1.4-0.7 2.5-1.4 2.9-1.8 4-2.5 1.4-0.7 2.1-1.8 1.1-2.2 1.8-7.2 0-1.1-0.7-1.8l-0.3-0.4 1-1.1q0.4-0.3 1.1-1 1.1-0.8 1.8-1.5l2.2-2.1q0.7-0.8 0.7-2.6 0-1-1.1-2.5l-0.7-0.7 5.6-5.9 50.2 52.3q4 2.9 8.6 2.9 5.1 0 8-2.9 3.6-3.6 3.6-7.9 0-4.7-3.6-8.3l-53.3-50.1 14-14.7z"/>
		<path id="Р Е С П У Б Л И К А" fill-rule="evenodd" class="s1" d="m161.8 412h-21.5v-64.4h29q13.2 0 20.9 5.9 7.9 5.9 7.9 17v0.2q0 11.4-8.1 17.7-7.9 6.1-21.2 6.1h-7zm0-47.2v14.4h5.8q4.2 0 6.7-1.9 2.5-1.8 2.5-5.2v-0.2q0-7.1-9.1-7.1zm123.8 47.2h-55.4v-64.4h55v17.7h-33.8v6.5h31.5v15.6h-31.5v7h34.2zm65.3 1.3q-13.8 0-23.6-9.3-9.8-9.4-9.8-24.1v-0.1q0-14.4 9.9-24 9.9-9.6 24.4-9.6 19.9 0 29.1 16.7l-17.7 10.4q-4.2-7.8-11.7-7.8-5.3 0-8.7 4.1-3.4 4.1-3.4 10v0.2q0 6.2 3.4 10.3 3.4 3.9 8.7 3.9 4.3 0 7.1-2 2.8-2.1 5-6.1l17.8 10q-9.8 17.4-30.5 17.4zm83.8-1.3h-21.6v-64.4h62.4v64.4h-21.5v-45.7h-19.3zm144-64.4l-35.4 64.4h-24.2l12.2-21.3-25-43.1h24.6l12 22.5 11.6-22.5zm62.3 64.4h-32.4v-64.4h54.1v17.3h-33.1v6.5h13.2q12.2 0 18.5 5 6.3 5 6.3 14.2v0.2q0 9.8-6.6 15.5-6.6 5.7-20 5.7zm-11.4-25.5v9.5h9.4q7.2 0 7.2-4.8v-0.2q0-4.5-7.6-4.5zm92.4-39.3h20.2l26.9 64.8h-23.9l-13.3-35.3-13.3 35.3h-23.5zm141.8 0.5v64.4h-21.5v-31.4l-24.4 31.4h-18.5v-64.4h21.5v30l23.4-30zm56.5 64.4h-21.5v-64.4h21.5v25.2l18.4-25.2h25l-24.8 31.3 25.6 33.1h-26.1l-18.1-24.7zm91.5 0h-23l27.2-64.8h21.3l27.2 64.8h-23.4l-3.4-8.6h-22.6zm14.7-39.6l-5.9 15.7h11.8z"/>
		<path id="Б Е Ҫ Е Р М Е Н И Я" fill-rule="evenodd" class="s1" d="m88.7 528h-39.4v-78.4h65.9v21.1h-40.4v7.8h16q14.9 0 22.6 6.2 7.7 6 7.7 17.2v0.2q0 12-8.1 19-8 6.9-24.3 6.9zm-13.9-31v11.5h11.5q8.7 0 8.7-5.8v-0.2q0-5.5-9.2-5.5zm152.9 31h-67.4v-78.4h66.8v21.5h-41.1v8h38.3v18.9h-38.3v8.5h41.7zm91.6 17.9h-24.1l0.6-17.8q-12.8-3.5-21.1-14-8.1-10.6-8.1-25.1v-0.2q0-17.5 11.9-29.1 12.1-11.8 29.7-11.8 24.3 0 35.5 20.4l-21.6 12.7q-5-9.6-14.2-9.6-6.5 0-10.7 5.1-4 4.9-4 12.1v0.2q0 7.6 4 12.5 4.2 4.9 10.7 4.9 5.2 0 8.6-2.5 3.5-2.6 6.2-7.4l21.6 12.2q-9.3 16-25.7 19.9zm131.1-17.9h-67.5v-78.4h66.9v21.5h-41.1v8h38.3v18.9h-38.3v8.5h41.7zm66.8 0h-26.2v-78.4h35.3q16.1 0 25.5 7.2 9.6 7.2 9.6 20.7v0.2q0 13.9-9.8 21.5-9.6 7.5-25.9 7.5h-8.5zm0-57.4v17.5h7.1q5.1 0 8.2-2.3 3-2.2 3-6.4v-0.2q0-8.6-11.1-8.6zm109 57.4h-25.7v-78.4h27.4l16.8 27.6 16.8-27.6h27.3v78.4h-26.1v-38.8l-18 27.9h-0.5l-18-27.9zm172.6 0h-67.5v-78.4h66.9v21.5h-41.1v7.9h38.3v19h-38.3v8.5h41.7zm66.8 0h-26.2v-78.4h26.2v27.6h24v-27.6h26.2v78.4h-26.2v-28.1h-24zm171.2-78.4v78.4h-26.2v-38.2l-29.7 38.2h-22.5v-78.4h26.2v36.5l28.4-36.5zm75.7 0h38.2v78.4h-26.2v-22.4h-6.2l-14.4 22.4h-29.9l17.9-27q-7.8-3.6-11.4-9.8-3.5-6.2-3.5-13.6v-0.3q0-13 9.8-20.3 9.7-7.4 25.7-7.4zm12 37.3v-15.4h-11.4q-4.7 0-7.4 2-2.6 1.9-2.6 5.6v0.3q0 7.5 10.2 7.5z"/>
	</g>
</svg>