<svg version="3.10" xmlns="http://www.w3.org/2000/svg" width="1200" height="600">
	<title>Республика Бесермения</title>
	<style>
		.s0 { fill: #ffffff } 
	</style>
<rect width="1200" height="600" style="fill:rgb(79, 0, 181)"/>
	<g id="Icon">
	    <path id="Sovet" fill-rule="evenodd" class="s0" d="m147.9 54.8h30.6l-24.8 18.4 9.7 28.8-25.2-18.4-24.1 18.4 8.6-28.8-24.1-18.4h31l8.6-28.8zm-15.5 4.7h-19l15.1 11.5-5.8 18.4 15.5-11.6 16.6 11.6-5.8-18.4 15.1-11.5h-19.1l-6.8-19.1zm47.5 134.6l-14 14.7 53.3 50.1q3.6 3.6 3.6 8.3 0 4.3-3.6 7.9-2.9 2.9-8 2.9-4.6 0-8.6-2.9l-50.2-52.3-5.6 5.9 0.7 0.7q1.1 1.5 1.1 2.5 0 1.8-0.7 2.6l-2.2 2.1q-0.7 0.7-1.8 1.5-0.7 0.7-1.1 1l-1 1.1 0.3 0.4q0.7 0.7 0.7 1.8-0.7 5-1.8 7.2-0.7 1.1-2.1 1.8-1.1 0.7-4 2.5-1.1 0.7-2.5 1.4-1.1 0.4-1.8 1.1-1.1 0.7-2.9 2.5-1.4 1.5-4.7 5.1-3.2 3.2-9 9.3-5.4 5.8-14 15.5-7.6 8.7-14.8 16.2-7.2 7.2-11.8 11.5-2.2 1.8-4 3.6-1.8 1.5-2.5 2.2-5.1 4-9.7 4-5.4 0-9.8-6.2-2.1-3.2-2.1-6.4 0-2.9 1.8-5.8 1.4-2.5 3.9-5.4 2.6-2.9 10.8-11.2 7.2-7.5 15.2-15.1 7.9-7.9 19.8-19.4 8.6-8.3 11.1-10.8l4.3-4.3q4-5.4 5.4-8.3 1.8-3.3 3.3-4 2.5-1.4 5.4-1.4h1.8l2.9-2.9q1.4-1.1 2.5-2.2l1.1-1q0.3-0.8 1.4-0.8 1.4 0 3.6 1.1l1.4 0.4 5.7-5.8-35.5-37.1-19.1 19.5-21.3-21.3 42.5-41.4 36.4 5.1-27 26.6 37.2 35 15.3-15.9c-0.2-0.7-0.8-2.5-1-3.2q0-1.1 0-1.8 0-1.1 0.3-2.2 0.7-2.2 1.5-4 1-2.1 4.3-7.5 3.2-5.8 6.1-11.9 7.2-13 13.3-23.8 6.1-11.1 10.5-18.7 3.2-5.4 4.6-7.5 1.5-2.6 1.5-4.4v-1.4q0-0.7-0.4-1.1-2.1-2.1-5-6.1-1.8-2.5-4.3-5-2.2-2.9-3.3-4.4-0.7-0.7-1.4-1.4-0.4-0.7-1.1-1.4-0.4-0.4-0.4-0.8 0-0.3-0.3-0.7 0-0.3 0.3-0.7 0.4-0.4 0.8-0.4 0.7 0 1.8 0.4l1 0.4 8 7.9q3.6 3.2 6.1 6.1 2.5 2.5 2.9 3.2 2.1 2.9 2.1 5.8 0 2.2-0.7 3.6l-2.2 4.3q-1 2.2-3.6 6.5-2.5 4-7.2 11.5-2.1 3.6-5.4 9.4-3.2 5.7-6.8 11.9-3.2 5.7-6.1 10.8-2.5 4.6-3.6 6.4-3.3 5.4-4.3 7.6-0.8 2.2-1.5 4.7l-0.3 1.4 17.6-18q7.6-7.9 16.2-16.5l13.3-13.4q4.3-4.3 6.1-6.4 2.2-2.6 2.6-3.3 0.3-0.7 0.7-1.8 0.3-1.1 0.3-1.8 0-0.7-0.3-1.4-0.4-1.1-4.7-6.9-2.2-2.8-4-5-1.4-2.5-1.4-3.2v-0.8q0-1.4 1.8-1.8 1.1-0.3 1.4-0.3 0.8 0 0.8 0.3 0.3 0.4 2.8 3.3 4 4.7 6.5 8.3 2.9 3.2 3.6 4.6 1.1 1.8 1.1 4 0 1.4-0.7 3.2-0.4 1.1-0.7 2.2-0.4 0.7-3.3 3.6-2.5 2.9-8.6 9.4-5.8 6.1-17.3 18-5.8 6.1-11.2 11.5-5 5.4-9 9.7-3.9 4-6.4 6.5-2.2 2.5-2.6 2.9l-1 1 1 0.8q1.1 0.7 2.9 0.7 4.7 0 12.6-5.4 0.7-0.4 2.2-1.5 1.4-1.4 3.2-2.8 25.9-20.6 36.7-28.5 10.8-8.3 11.2-8.6 1.8-0.7 1.8-2.5 0-0.8-0.4-1.5l-1.4-2.9q-1.1-2.1-2.9-5l-3.9-6.5 0.3-0.7q1.1-1.1 2.5-1.1 0.8 0.4 1.8 2.2 1.5 1.4 5.1 6.5 3.6 5 3.9 6.1 0.8 1.1 0.8 1.8 0 2.1-1.5 4.7-0.7 1-1.8 2.1-0.7 0.7-3.9 3.6-3.3 2.5-9.8 7.6-6.1 5-17.2 13.7-11.6 8.6-17.7 13.3-5.7 4.7-8.6 6.8-2.9 2.2-4 2.5-0.7 0.4-1.8 1.1-3.9 1.8-7.5 1.8-2.6 0-4.7-0.7-2.2-0.7-3.3-1.8z" />
		<path id="Б Е Ҫ Е Р М Е Н И ᴚ" fill-rule="evenodd" class="s0" d="m56.2 453h68.5v19.3l-39.1-0.1v10.7h18q8 0 13.5 2.1 5.6 2 9 5.4 3.5 3.3 5.1 7.6 1.5 4.2 1.5 8.5 0 3.9-1.3 8.1-1.3 4.2-5 7.6-3.5 3.4-9.6 5.6-6.2 2.2-15.9 2.2h-44.7zm28.7 45.1v16.3h8.5q4.2 0 6.6-2.3 2.6-2.5 2.6-5.9 0-2.9-2.4-5.5-2.4-2.6-7.3-2.6zm82.9-45.1h67.2v18.1h-37.7v11.2h36.1v17.6h-36.1v12h38.5v18.1h-68zm127.4 94v-18q-6.9-2-12.2-5.5-5.2-3.6-8.7-8.5-3.5-4.8-5.4-10.7-1.7-6.1-1.7-12.8 0-7.5 2.4-14.6 2.5-7.2 8-12.8 5.6-5.6 14.5-9 8.9-3.4 21.8-3.4 6.6 0 11.3 0.7 4.9 0.8 7.5 1.4l1.8 0.3v20.3q-3.2-1.2-7.2-2-3.8-0.9-8.3-0.9-4.8 0-8.6 1.5-3.7 1.4-6.5 4.1-2.7 2.5-4.3 6-1.4 3.6-1.4 7.7 0 2.7 0.6 6.2 0.8 3.4 3.1 6.5 2.3 3.1 6.5 5.2 4.2 2 11.1 2 2.2 0 5.7-0.5 3.6-0.6 9.5-2.4v20.4q-2.7 0.8-5.3 1.4-2.5 0.4-4.7 0.7v16.7zm72.8-94h67.2v18.1h-37.7v11.2h36.1v17.6h-36.1v12h38.5v18.1h-68zm102.6 0h45.1q8.7 0 15 2.3 6.4 2.3 10.5 6.3 4 3.8 5.9 8.8 2 4.9 2 10.2 0 4.6-1.8 9.5-1.7 4.8-5.7 8.8-3.9 3.8-10.1 6.3-6.2 2.6-15.2 2.6h-16.2v22.2h-29.5zm28.8 17.8v19.2h6.4q1.4 0 3.6-0.1 2.3-0.3 4.5-1.2 2.3-0.9 3.8-2.8 1.7-2 1.7-5.5 0-1.7-0.6-3.3-0.5-1.8-2.1-3.1-1.4-1.4-4.1-2.3-2.7-0.9-6.9-0.9zm110.5-1.3v60.5h-25.3v-77h43.9l9.5 44.3h0.7l9.6-44.3h43.9v77h-25.3v-60.5h-1.1l-14.5 60.5h-25.9l-14.4-60.5zm120-16.5h67.2v18.1h-37.7v11.2h36v17.6h-36v12h38.5v18.1h-68zm151.8 26.6v-26.6h29.5v77h-29.5v-28.4h-19.7v28.4h-29.5v-77h29.5v26.6zm66.1-26.6h29.5v44h0.4l19.5-44h34.4v77h-29.5v-43.1h-0.4l-19.5 43.1h-34.4zm196.1 0v77h-29.4v-26.8h-6.6l-12.5 26.8h-30.8l18.1-33.3q-7-2.8-11.5-7.5-4.4-4.8-4.4-13.4 0-8.4 3.3-12.5 3.3-4.1 8.1-6.7 4.8-2.6 10.2-3 5.4-0.6 9.4-0.6zm-28.1 17.2h-7.7q-1.2 0-3.2 0.2-2 0.1-3.8 0.9-1.9 0.7-3.2 2.4-1.4 1.5-1.4 4.5 0 3.2 1.5 4.9 1.5 1.8 3.5 2.6 2.1 0.7 4.1 0.9 1.9 0.1 2.9 0.1h7.3z"/>
		<path id="Р Е С П У Б Л И К А" fill-rule="evenodd" class="s0" d="m178.3 351.2h34.4q6.7 0 11.4 1.8 4.9 1.7 8 4.8 3.1 2.9 4.6 6.7 1.5 3.8 1.5 7.8 0 3.5-1.4 7.2-1.3 3.7-4.3 6.7-3 3-7.8 4.9-4.7 1.9-11.6 1.9h-12.3v17h-22.5zm21.9 13.6v14.6h5q1 0 2.6-0.1 1.8-0.1 3.5-0.8 1.8-0.8 2.9-2.2 1.3-1.5 1.3-4.2 0-1.2-0.4-2.5-0.5-1.3-1.6-2.4-1.1-1-3.2-1.7-2-0.7-5.2-0.7zm64.1-13.6h51.4v13.9h-28.8v8.4h27.5v13.5h-27.5v9.1h29.4v13.9h-52zm127.5 41.8v15.7q-5.1 1.4-9.3 1.9-4 0.4-7.2 0.4-8.6 0-15.1-2.3-6.6-2.2-11-6.3-4.5-4-6.7-9.5-2.3-5.7-2.3-12.3 0-5.7 1.8-11.2 2-5.4 6.2-9.7 4.3-4.3 11.1-6.9 6.8-2.6 16.6-2.6 5 0 8.7 0.6 3.6 0.6 5.7 1l1.3 0.2v15.6q-2.4-0.9-5.5-1.6-2.9-0.7-6.3-0.7-3.6 0-6.6 1.2-2.8 1.1-4.9 3.1-2.1 1.9-3.3 4.6-1.1 2.7-1.1 5.9 0 2 0.5 4.7 0.6 2.6 2.3 5 1.8 2.3 5 3.9 3.2 1.6 8.5 1.6 1.7 0 4.4-0.4 2.6-0.4 7.2-1.9zm25.4-41.8h59.8v58.8h-22.6v-42.8h-14.7v42.8h-22.5zm84.4 0h25.6l8.2 25.5h0.4l8-25.5h22.2l-22.7 58.8h-21.5l5.5-12.3zm89 0h52.3v14.7h-29.8v8.2h13.7q6.1 0 10.3 1.6 4.3 1.5 6.9 4.1 2.7 2.5 3.9 5.8 1.2 3.2 1.2 6.5 0 3-1 6.2-1 3.2-3.8 5.8-2.7 2.6-7.4 4.3-4.7 1.6-12.1 1.6h-34.2zm21.9 34.5v12.4h6.6q3.2 0 5-1.8 2-1.8 2-4.4 0-2.3-1.9-4.2-1.8-2-5.5-2zm113.4-34.5l20.1 58.8h-22.7l-13.1-44.8h-0.3l-13.1 44.8h-22.7l20.2-58.8zm46.4 0h22.5v33.6h0.4l14.8-33.6h26.3v58.8h-22.5v-32.9h-0.3l-14.9 32.9h-26.3zm114.5 0v23.1h0.4l13.8-23.1h25.6l-19.8 27.6 21.7 31.2h-26.9l-14.4-24.9h-0.4v24.9h-22.5v-58.8zm116.4 0l20.1 58.8h-22.7l-3.7-12.6h-19.1l-3.7 12.6h-22.7l20.2-58.8zm-21.4 32.4h11.1l-5.4-18.4h-0.3z"/>
	</g>
</svg>